<svg width="24" height="25" viewBox="0 0 24 25" fill="none" xmlns="http://www.w3.org/2000/svg">
<path d="M11 14.1294L9 11.8437L14 10.1294L11 14.1294Z" fill="#F2F6F8"/>
<path d="M9 12.8794L11.25 15.1294L15 9.87939M21 12.1294C21 13.3113 20.7672 14.4816 20.3149 15.5735C19.8626 16.6655 19.1997 17.6576 18.364 18.4934C17.5282 19.3291 16.5361 19.992 15.4442 20.4443C14.3522 20.8966 13.1819 21.1294 12 21.1294C10.8181 21.1294 9.64778 20.8966 8.55585 20.4443C7.46392 19.992 6.47177 19.3291 5.63604 18.4934C4.80031 17.6576 4.13738 16.6655 3.68508 15.5735C3.23279 14.4816 3 13.3113 3 12.1294C3 9.74245 3.94821 7.45326 5.63604 5.76543C7.32387 4.07761 9.61305 3.12939 12 3.12939C14.3869 3.12939 16.6761 4.07761 18.364 5.76543C20.0518 7.45326 21 9.74245 21 12.1294Z" fill="#F2F6F8"/>
<path d="M9 12.8794L11.25 15.1294L15 9.87939M21 12.1294C21 13.3113 20.7672 14.4816 20.3149 15.5735C19.8626 16.6655 19.1997 17.6576 18.364 18.4934C17.5282 19.3291 16.5361 19.992 15.4442 20.4443C14.3522 20.8966 13.1819 21.1294 12 21.1294C10.8181 21.1294 9.64778 20.8966 8.55585 20.4443C7.46392 19.992 6.47177 19.3291 5.63604 18.4934C4.80031 17.6576 4.13738 16.6655 3.68508 15.5735C3.23279 14.4816 3 13.3113 3 12.1294C3 9.74245 3.94821 7.45326 5.63604 5.76543C7.32387 4.07761 9.61305 3.12939 12 3.12939C14.3869 3.12939 16.6761 4.07761 18.364 5.76543C20.0518 7.45326 21 9.74245 21 12.1294Z" stroke="#095EF1" stroke-width="1.5" stroke-linecap="round" stroke-linejoin="round"/>
</svg>
