<svg width="25" height="24" viewBox="0 0 25 24" fill="none" xmlns="http://www.w3.org/2000/svg">
<path d="M12.5 22.75C6.57 22.75 1.75 17.93 1.75 12C1.75 6.07 6.57 1.25 12.5 1.25C18.43 1.25 23.25 6.07 23.25 12C23.25 17.93 18.43 22.75 12.5 22.75ZM12.5 2.75C7.4 2.75 3.25 6.9 3.25 12C3.25 17.1 7.4 21.25 12.5 21.25C17.6 21.25 21.75 17.1 21.75 12C21.75 6.9 17.6 2.75 12.5 2.75Z" fill="#999999"/>
<path d="M9.67011 15.58C9.48011 15.58 9.29011 15.51 9.14011 15.36C8.85011 15.07 8.85011 14.59 9.14011 14.3L14.8001 8.63999C15.0901 8.34999 15.5701 8.34999 15.8601 8.63999C16.1501 8.92999 16.1501 9.40998 15.8601 9.69998L10.2001 15.36C10.0601 15.51 9.86011 15.58 9.67011 15.58Z" fill="#999999"/>
<path d="M15.3301 15.58C15.1401 15.58 14.9501 15.51 14.8001 15.36L9.14011 9.69998C8.85011 9.40998 8.85011 8.92999 9.14011 8.63999C9.43011 8.34999 9.91011 8.34999 10.2001 8.63999L15.8601 14.3C16.1501 14.59 16.1501 15.07 15.8601 15.36C15.7101 15.51 15.5201 15.58 15.3301 15.58Z" fill="#999999"/>
</svg>
