<?xml version="1.0" standalone="no"?>
<!DOCTYPE svg PUBLIC "-//W3C//DTD SVG 20010904//EN"
 "http://www.w3.org/TR/2001/REC-SVG-20010904/DTD/svg10.dtd">
<svg version="1.0" xmlns="http://www.w3.org/2000/svg"
 width="64.000000pt" height="64.000000pt" viewBox="0 0 64.000000 64.000000"
 preserveAspectRatio="xMidYMid meet">

<g transform="translate(0.000000,64.000000) scale(0.100000,-0.100000)"
fill="#000000" stroke="none">
<path d="M220 620 c-11 -11 -20 -29 -20 -40 0 -18 -7 -20 -60 -20 -102 0 -100
4 -100 -280 0 -227 1 -241 20 -260 18 -18 33 -20 180 -20 147 0 162 2 180 20
11 11 20 29 20 40 0 18 7 20 60 20 99 0 100 3 100 223 l0 182 -78 78 -77 77
-103 0 c-89 0 -105 -3 -122 -20z m200 -70 c0 -68 22 -90 90 -90 l50 0 -2 -167
-3 -168 -57 -3 -58 -3 0 143 0 143 -77 77 c-51 52 -85 78 -100 78 -22 0 -31
19 -16 33 3 4 44 7 90 7 l83 0 0 -50z m90 -48 c-36 -6 -50 5 -50 40 l0 32 36
-35 c33 -32 34 -34 14 -37z m-250 -32 c0 -68 22 -90 90 -90 l50 0 -2 -167 -3
-168 -155 0 -155 0 -3 225 c-1 123 0 230 2 237 4 9 31 13 91 13 l85 0 0 -50z
m90 -48 c-36 -6 -50 5 -50 40 l0 32 36 -35 c33 -32 34 -34 14 -37z"/>
</g>
</svg>
