<?xml version="1.0" standalone="no"?>
<!DOCTYPE svg PUBLIC "-//W3C//DTD SVG 20010904//EN"
 "http://www.w3.org/TR/2001/REC-SVG-20010904/DTD/svg10.dtd">
<svg version="1.0" xmlns="http://www.w3.org/2000/svg"
 width="24" height="24" viewBox="0 0 512.000000 512.000000"
 preserveAspectRatio="xMidYMid meet">

<g transform="translate(0.000000,512.000000) scale(0.100000,-0.100000)"
fill="#095EF1" stroke="none">
<path d="M836 5104 c-172 -42 -327 -184 -382 -350 -18 -57 -19 -115 -19 -2194
0 -2079 1 -2137 19 -2194 40 -121 141 -240 257 -301 133 -69 16 -66 1876 -63
l1678 3 64 23 c158 57 287 187 337 338 18 57 19 115 19 2194 0 2079 -1 2137
-19 2194 -50 151 -179 281 -337 338 l-64 23 -1685 2 c-1428 1 -1694 -1 -1744
-13z m3437 -218 c66 -25 149 -104 178 -168 l24 -53 0 -2105 0 -2105 -24 -53
c-31 -68 -113 -144 -183 -169 -51 -17 -129 -18 -1708 -18 -1579 0 -1657 1
-1708 18 -70 25 -152 101 -183 169 l-24 53 0 2100 c0 2041 1 2101 19 2149 21
55 80 124 134 158 77 48 36 47 1782 45 1576 -2 1647 -3 1693 -21z"/>
<path d="M1462 3410 l-344 -5 -24 -28 c-23 -27 -24 -34 -24 -178 l0 -151 29
-29 c21 -21 39 -29 65 -29 81 0 116 43 116 144 l0 66 215 0 215 0 -2 -532 -3
-533 -76 -5 c-86 -6 -111 -20 -129 -75 -15 -44 7 -98 49 -119 46 -24 490 -23
531 1 58 34 68 116 21 164 -27 27 -35 29 -105 29 l-76 0 0 535 0 535 215 0
215 0 0 -76 c0 -70 2 -78 29 -105 48 -47 130 -37 164 21 14 22 17 55 17 160 0
137 -10 177 -49 197 -23 11 -644 19 -1049 13z"/>
<path d="M3019 3381 c-47 -48 -37 -130 21 -164 25 -15 76 -17 480 -17 404 0
455 2 480 17 58 34 68 116 21 164 l-29 29 -472 0 -472 0 -29 -29z"/>
<path d="M3019 2741 c-47 -48 -37 -130 21 -164 25 -15 76 -17 480 -17 404 0
455 2 480 17 58 34 68 116 21 164 l-29 29 -472 0 -472 0 -29 -29z"/>
<path d="M3019 2101 c-47 -48 -37 -130 21 -164 25 -15 76 -17 480 -17 404 0
455 2 480 17 58 34 68 116 21 164 l-29 29 -472 0 -472 0 -29 -29z"/>
<path d="M1099 1461 c-47 -48 -37 -130 21 -164 26 -16 141 -17 1440 -17 1299
0 1414 1 1440 17 58 34 68 116 21 164 l-29 29 -1432 0 -1432 0 -29 -29z"/>
<path d="M1099 821 c-47 -48 -37 -130 21 -164 26 -16 141 -17 1440 -17 1299 0
1414 1 1440 17 58 34 68 116 21 164 l-29 29 -1432 0 -1432 0 -29 -29z"/>
</g>
</svg>
