<svg width="102" height="117" viewBox="0 0 102 117" fill="none" xmlns="http://www.w3.org/2000/svg">
<g filter="url(#filter0_d_22_20264)">
<path d="M13.6726 55.0598L23.0782 60.2139L22.1433 53.04L13.6726 55.0598Z" fill="#933319"/>
<path d="M83.5576 29.6948L91.1911 91.3801C91.4751 93.6753 89.8449 95.7649 87.5506 96.0488L32.5728 102.852C30.2785 103.136 28.1881 101.507 27.9041 99.2117L18.1002 19.9871C17.8161 17.6919 19.4462 15.6015 21.7406 15.3175L57.6661 10.8718L83.5576 29.6948Z" fill="white"/>
<path d="M54.003 50.2552L14.4686 55.1475C13.5166 55.2653 12.6492 54.589 12.5314 53.6369L10.3691 36.1632C10.2513 35.2111 10.9276 34.3438 11.8796 34.226L51.414 29.3337C52.3661 29.2159 53.2334 29.8922 53.3512 30.8442L55.5135 48.318C55.6314 49.27 54.9551 50.1373 54.003 50.2552Z" fill="#F15A29"/>
<path d="M19.4321 50.3633L17.9287 38.2148L21.7553 37.7413C22.424 37.6586 23.054 37.6436 23.6452 37.6961C24.2364 37.7487 24.7608 37.8975 25.2187 38.1426C25.6764 38.3877 26.0525 38.7343 26.3469 39.1817C26.641 39.6295 26.832 40.2061 26.9193 40.912C27.0021 41.5807 26.9563 42.1775 26.7825 42.7018C26.6084 43.2264 26.3343 43.6784 25.9602 44.0577C25.5857 44.4373 25.1265 44.7393 24.5824 44.9637C24.0378 45.1885 23.4377 45.3411 22.7814 45.4223L21.0353 45.6384L21.587 50.0965L19.432 50.3632L19.4321 50.3633ZM20.8214 43.911L22.4003 43.7157C24.1835 43.495 24.984 42.648 24.8016 41.1741C24.7066 40.4064 24.4089 39.9058 23.9085 39.6721C23.4081 39.4387 22.7057 39.3778 21.8019 39.4896L20.2973 39.6758L20.8214 43.911Z" fill="white"/>
<path d="M30.2426 49.0255L28.7393 36.877L32.5659 36.4035C33.2347 36.3207 33.8646 36.3058 34.4557 36.3583C35.0469 36.4109 35.5713 36.5597 36.0293 36.8048C36.4869 37.0499 36.8631 37.3965 37.1574 37.8439C37.4516 38.2917 37.6426 38.8683 37.7299 39.5742C37.8127 40.2429 37.7669 40.8397 37.593 41.364C37.419 41.8886 37.1448 42.3406 36.7707 42.7199C36.3963 43.0995 35.9371 43.4015 35.3929 43.6259C34.8485 43.8507 34.2482 44.0033 33.592 44.0845L31.8458 44.3006L32.3975 48.7587L30.2426 49.0254L30.2426 49.0255ZM31.632 42.5732L33.2109 42.3778C34.9943 42.1572 35.7947 41.3102 35.6123 39.8363C35.5173 39.0686 35.2196 38.5679 34.7191 38.3343C34.2188 38.1009 33.5164 38.0399 32.6125 38.1518L31.1079 38.338L31.632 42.5732Z" fill="white"/>
<path d="M43.1523 47.4279L41.8742 37.0999L38.3635 37.5343L38.1382 35.7139L47.3145 34.5783L47.5398 36.3988L44.029 36.8332L45.3071 47.1613L43.1523 47.4279Z" fill="white"/>
<path d="M83.5575 29.6948L83.637 30.337L62.9624 32.8954C61.3841 33.0907 59.9456 31.969 59.7502 30.3899L57.3398 10.9122L57.666 10.8718L83.5575 29.6948Z" fill="#E6E7E8"/>
<path d="M75.179 57.9839L35.2922 62.9198L35.2922 62.9197L34.8667 59.4813L34.8667 59.4812L74.7535 54.5453L74.7536 54.5454L75.1791 57.9838L75.179 57.9839Z" fill="#E6E7E8"/>
<path d="M76.1595 65.9075L36.2727 70.8435L36.2727 70.8434L35.8472 67.405L35.8472 67.4049L75.734 62.469L75.7341 62.4691L76.1596 65.9074L76.1595 65.9075Z" fill="#E6E7E8"/>
<path d="M77.14 73.8312L37.2532 78.7672L37.2531 78.7671L36.8276 75.3287L36.8276 75.3286L76.7145 70.3927L76.7146 70.3928L77.1401 73.8311L77.14 73.8312Z" fill="#E6E7E8"/>
<path d="M78.1204 81.7549L38.2336 86.6908L38.2336 86.6907L37.8081 83.2524L37.8081 83.2523L77.6949 78.3164L77.695 78.3165L78.1205 81.7548L78.1204 81.7549Z" fill="#E6E7E8"/>
<path d="M79.1009 89.6785L39.2141 94.6145L39.2141 94.6144L38.7886 91.176L38.7886 91.1759L78.6754 86.24L78.6755 86.2401L79.101 89.6784L79.1009 89.6785Z" fill="#E6E7E8"/>
</g>
<defs>
<filter id="filter0_d_22_20264" x="0.355957" y="0.871796" width="104.867" height="116.013" filterUnits="userSpaceOnUse" color-interpolation-filters="sRGB">
<feFlood flood-opacity="0" result="BackgroundImageFix"/>
<feColorMatrix in="SourceAlpha" type="matrix" values="0 0 0 0 0 0 0 0 0 0 0 0 0 0 0 0 0 0 127 0" result="hardAlpha"/>
<feOffset dx="2" dy="2"/>
<feGaussianBlur stdDeviation="6"/>
<feComposite in2="hardAlpha" operator="out"/>
<feColorMatrix type="matrix" values="0 0 0 0 0 0 0 0 0 0 0 0 0 0 0 0 0 0 0.15 0"/>
<feBlend mode="normal" in2="BackgroundImageFix" result="effect1_dropShadow_22_20264"/>
<feBlend mode="normal" in="SourceGraphic" in2="effect1_dropShadow_22_20264" result="shape"/>
</filter>
</defs>
</svg>
