<svg width="86" height="98" viewBox="0 0 86 98" fill="none" xmlns="http://www.w3.org/2000/svg">
<g filter="url(#filter0_d_22_20247)">
<path d="M10.8032 42.2592L18.1036 47.5198L18.0643 41.4503L10.8032 42.2592Z" fill="#207720"/>
<path d="M71.605 28.3403V80.4878C71.605 82.4281 70.0324 84 68.0928 84H21.6157C19.6762 84 18.1035 82.4281 18.1035 80.4878V13.513C18.1035 11.5726 19.6762 10 21.6157 10H51.9865L71.605 28.3403Z" fill="white"/>
<path d="M44.8789 42.4143H11.4573C10.6525 42.4143 10 41.7618 10 40.957V26.185C10 25.3802 10.6525 24.7277 11.4573 24.7277H44.8789C45.6837 24.7277 46.3362 25.3802 46.3362 26.185V40.957C46.3362 41.7618 45.6837 42.4143 44.8789 42.4143Z" fill="#3AB63B"/>
<path d="M15.7983 38.9422L18.7193 33.6502L15.9868 28.6721H18.0125L19.1433 30.9492C19.2689 31.1901 19.3918 31.436 19.5123 31.6872C19.6325 31.9385 19.7713 32.216 19.9284 32.5195H19.9913C20.1169 32.216 20.2346 31.9385 20.3446 31.6872C20.4545 31.436 20.5669 31.1901 20.6822 30.9492L21.7658 28.6721H23.6972L20.9648 33.7287L23.8857 38.9422H21.8599L20.6036 36.5239C20.4674 36.2517 20.334 35.9821 20.2032 35.7151C20.0722 35.4482 19.9284 35.1576 19.7713 34.8435H19.7085C19.5724 35.1576 19.444 35.4482 19.3238 35.7151C19.2033 35.9821 19.0804 36.2517 18.9548 36.5239L17.7299 38.9422H15.7983Z" fill="white"/>
<path d="M25.3931 38.9422V28.6721H27.2147V37.4033H31.4859V38.9423L25.3931 38.9422Z" fill="white"/>
<path d="M35.8828 39.1307C35.1918 39.1307 34.5244 38.9997 33.8806 38.7381C33.2367 38.4765 32.6687 38.1049 32.1768 37.6232L33.2446 36.3826C33.6109 36.7282 34.0298 37.0084 34.5008 37.2228C34.972 37.4374 35.443 37.5447 35.9142 37.5447C36.5004 37.5447 36.9452 37.4244 37.2489 37.1835C37.5525 36.9427 37.7043 36.6235 37.7043 36.2256C37.7043 36.0163 37.6651 35.8384 37.5866 35.6917C37.5081 35.5452 37.3981 35.4168 37.2568 35.3069C37.1155 35.197 36.9479 35.0949 36.7543 35.0007C36.5605 34.9064 36.3485 34.8123 36.1183 34.718L34.705 34.1056C34.4538 34.001 34.205 33.8701 33.9591 33.713C33.7129 33.5559 33.4904 33.3675 33.2916 33.1476C33.0926 32.9278 32.933 32.6714 32.8127 32.3782C32.6922 32.0852 32.6321 31.75 32.6321 31.3731C32.6321 30.9649 32.7185 30.5855 32.8911 30.2347C33.0639 29.884 33.3019 29.5779 33.6057 29.3161C33.9092 29.0545 34.273 28.8504 34.697 28.7036C35.121 28.5571 35.5842 28.4837 36.0868 28.4837C36.6836 28.4837 37.2592 28.6016 37.8142 28.8371C38.369 29.0726 38.8452 29.3894 39.2432 29.7871L38.3167 30.9492C37.9815 30.6771 37.636 30.4624 37.2802 30.3053C36.9243 30.1483 36.5265 30.0698 36.0868 30.0698C35.5946 30.0698 35.202 30.1773 34.9091 30.3917C34.6158 30.6064 34.4694 30.9021 34.4694 31.2789C34.4694 31.4779 34.5137 31.648 34.6029 31.7893C34.6917 31.9307 34.8122 32.0563 34.964 32.1662C35.1157 32.2761 35.2911 32.3758 35.49 32.4645C35.6888 32.5536 35.8929 32.6399 36.1025 32.7236L37.5001 33.3046C37.8037 33.4303 38.0811 33.577 38.3324 33.7443C38.5836 33.9119 38.8007 34.1055 38.9841 34.3254C39.1671 34.5453 39.3112 34.7992 39.4159 35.087C39.5205 35.3751 39.573 35.7073 39.573 36.0842C39.573 36.503 39.4891 36.8956 39.3218 37.2619C39.1542 37.6285 38.9107 37.9504 38.5915 38.2276C38.2721 38.5051 37.8849 38.725 37.4295 38.8872C36.974 39.0494 36.4585 39.1307 35.8828 39.1307Z" fill="white"/>
<path d="M71.6052 28.3403V28.8832H54.1273C52.7931 28.8832 51.7109 27.801 51.7109 26.4661V10H51.9867L71.6052 28.3403Z" fill="#E6E7E8"/>
<path d="M61.7142 51.0313H27.9947L27.9946 51.0312V48.1245L27.9947 48.1244H61.7142L61.7143 48.1245V51.0312L61.7142 51.0313Z" fill="#E6E7E8"/>
<path d="M61.7142 57.7298H27.9947L27.9946 57.7298V54.823L27.9947 54.823H61.7142L61.7143 54.823V57.7298L61.7142 57.7298Z" fill="#E6E7E8"/>
<path d="M61.7142 64.4284H27.9947L27.9946 64.4283V61.5216L27.9947 61.5215H61.7142L61.7143 61.5216V64.4283L61.7142 64.4284Z" fill="#E6E7E8"/>
<path d="M61.7142 71.1268H27.9947L27.9946 71.1268V68.2201L27.9947 68.22H61.7142L61.7143 68.2201V71.1268L61.7142 71.1268Z" fill="#E6E7E8"/>
<path d="M61.7142 77.8254H27.9947L27.9946 77.8253V74.9185L27.9947 74.9185H61.7142L61.7143 74.9185V77.8253L61.7142 77.8254Z" fill="#E6E7E8"/>
</g>
<defs>
<filter id="filter0_d_22_20247" x="0" y="0" width="85.6055" height="98" filterUnits="userSpaceOnUse" color-interpolation-filters="sRGB">
<feFlood flood-opacity="0" result="BackgroundImageFix"/>
<feColorMatrix in="SourceAlpha" type="matrix" values="0 0 0 0 0 0 0 0 0 0 0 0 0 0 0 0 0 0 127 0" result="hardAlpha"/>
<feOffset dx="2" dy="2"/>
<feGaussianBlur stdDeviation="6"/>
<feComposite in2="hardAlpha" operator="out"/>
<feColorMatrix type="matrix" values="0 0 0 0 0 0 0 0 0 0 0 0 0 0 0 0 0 0 0.15 0"/>
<feBlend mode="normal" in2="BackgroundImageFix" result="effect1_dropShadow_22_20247"/>
<feBlend mode="normal" in="SourceGraphic" in2="effect1_dropShadow_22_20247" result="shape"/>
</filter>
</defs>
</svg>
