<svg width="110" height="119" viewBox="0 0 110 119" fill="none" xmlns="http://www.w3.org/2000/svg">
<g filter="url(#filter0_d_22_20229)">
<path d="M14.77 57.1638L24.5528 61.8697L23.2236 54.6687L14.77 57.1638Z" fill="#0D639E"/>
<path d="M84.0479 27.7842L95.0664 89.7237C95.4764 92.0283 93.9405 94.2277 91.6367 94.6375L36.4325 104.458C34.1287 104.868 31.9286 103.333 31.5186 101.028L17.3673 21.4771C16.9573 19.1725 18.493 16.9722 20.7968 16.5624L56.8703 10.1453L84.0479 27.7842Z" fill="white"/>
<path d="M55.2771 50.148L15.5798 57.2098C14.6239 57.3798 13.711 56.7427 13.541 55.7867L10.4197 38.241C10.2497 37.285 10.8868 36.3721 11.8428 36.2021L51.54 29.1403C52.496 28.9703 53.4088 29.6074 53.5789 30.5634L56.7001 48.1091C56.8702 49.0651 56.233 49.9779 55.2771 50.148Z" fill="#027BCB"/>
<path d="M18.8883 52.3667L16.7183 40.1682L19.9824 39.5875C21.8476 39.2557 23.3921 39.5006 24.6158 40.322C25.8395 41.1434 26.6305 42.5613 26.9888 44.5758C27.168 45.583 27.1924 46.496 27.0623 47.3143C26.9319 48.1331 26.6611 48.8452 26.2493 49.4506C25.8375 50.0563 25.2972 50.5532 24.6287 50.9415C23.9599 51.3299 23.1718 51.6048 22.2642 51.7663L18.8883 52.3667ZM20.74 50.2285L21.6912 50.0593C22.9346 49.8381 23.8255 49.3111 24.3635 48.4776C24.9014 47.6444 25.0369 46.4753 24.7692 44.9706C24.5038 43.4785 23.9744 42.4503 23.1813 41.8857C22.3882 41.3213 21.3761 41.1485 20.145 41.3675L19.1938 41.5367L20.74 50.2285Z" fill="white"/>
<path d="M35.3235 49.6741C34.5277 49.8157 33.7741 49.7987 33.0633 49.624C32.3521 49.4492 31.7112 49.1269 31.1403 48.6575C30.5692 48.1885 30.0836 47.5851 29.6831 46.8482C29.2826 46.1112 28.994 45.2455 28.817 44.2506C28.6423 43.2684 28.6164 42.3654 28.7392 41.5416C28.8621 40.7182 29.112 39.9969 29.4896 39.3781C29.867 38.7596 30.3596 38.2487 30.968 37.8451C31.5761 37.442 32.278 37.1695 33.0739 37.0279C33.8695 36.8864 34.6225 36.9001 35.3326 37.0687C36.0425 37.2377 36.6844 37.5468 37.2582 37.9962C37.8319 38.4459 38.3187 39.036 38.7181 39.7665C39.1176 40.4973 39.4046 41.354 39.5793 42.3361C39.7563 43.3311 39.7838 44.2432 39.6621 45.073C39.5403 45.9029 39.2891 46.6373 38.9089 47.2755C38.5285 47.9142 38.0348 48.4383 37.4279 48.8475C36.8205 49.2568 36.1192 49.5326 35.3235 49.6741ZM34.9884 47.7902C35.4734 47.7039 35.8897 47.5211 36.2377 47.2408C36.5854 46.961 36.8613 46.6007 37.0653 46.1603C37.269 45.7199 37.3966 45.2099 37.4473 44.6299C37.4982 44.0502 37.4627 43.4182 37.3411 42.7341C37.0978 41.3664 36.624 40.3443 35.92 39.6676C35.2159 38.9914 34.379 38.7391 33.4091 38.9116C32.4392 39.0842 31.7404 39.6096 31.3129 40.4872C30.8852 41.3651 30.7933 42.488 31.0366 43.8556C31.1583 44.5396 31.3429 45.1451 31.5906 45.6718C31.8383 46.1987 32.1336 46.6335 32.4769 46.9765C32.8199 47.3196 33.2033 47.5626 33.6264 47.7053C34.0492 47.8484 34.5034 47.8765 34.9884 47.7902Z" fill="white"/>
<path d="M48.0254 47.4145C47.2543 47.5517 46.5088 47.5429 45.7888 47.389C45.0687 47.2351 44.4153 46.9344 43.8292 46.4868C43.2427 46.0397 42.7369 45.4497 42.3117 44.7171C41.8861 43.9846 41.5841 43.1146 41.4049 42.1075C41.2279 41.1128 41.2153 40.1947 41.3671 39.3529C41.5186 38.5115 41.7979 37.7723 42.2042 37.1354C42.6104 36.4988 43.1268 35.9773 43.7538 35.5706C44.3805 35.1641 45.0793 34.8922 45.8504 34.755C46.6213 34.6178 47.333 34.6518 47.9851 34.8564C48.6373 35.0612 49.1925 35.3343 49.651 35.6761L48.7435 37.2807C48.3625 37.015 47.9686 36.8189 47.5613 36.6924C47.1539 36.5661 46.7139 36.5449 46.2415 36.6289C45.7441 36.7174 45.3053 36.9013 44.9253 37.1805C44.545 37.4598 44.2365 37.8163 43.9995 38.2496C43.7621 38.6833 43.6084 39.1884 43.5379 39.7653C43.4674 40.3425 43.4929 40.973 43.6145 41.6566C43.8623 43.0494 44.3578 44.0869 45.1015 44.7692C45.845 45.4517 46.7327 45.7009 47.7649 45.5173C48.312 45.4199 48.7765 45.2189 49.1584 44.9133C49.5401 44.6083 49.872 44.238 50.1539 43.8031L51.5526 44.959C51.1568 45.6196 50.6659 46.1591 50.0798 46.5776C49.4934 46.996 48.8089 47.2752 48.0254 47.4145Z" fill="white"/>
<path d="M84.0481 27.7842L84.1628 28.429L63.403 32.122C61.8183 32.4039 60.3042 31.3472 60.0222 29.7616L56.543 10.2036L56.8705 10.1453L84.0481 27.7842Z" fill="#E6E7E8"/>
<path d="M77.0946 56.8258L37.0435 63.9505L37.0434 63.9505L36.4292 60.4979L36.4293 60.4978L76.4804 53.3731L76.4806 53.3732L77.0948 56.8257L77.0946 56.8258Z" fill="#E6E7E8"/>
<path d="M78.5096 64.7823L38.4585 71.907L38.4584 71.9069L37.8443 68.4543L37.8443 68.4542L77.8954 61.3295L77.8956 61.3296L78.5098 64.7821L78.5096 64.7823Z" fill="#E6E7E8"/>
<path d="M79.9252 72.7386L39.8741 79.8633L39.874 79.8632L39.2598 76.4107L39.2598 76.4106L79.3109 69.2859L79.3111 69.2859L79.9253 72.7385L79.9252 72.7386Z" fill="#E6E7E8"/>
<path d="M81.3402 80.6949L41.2891 87.8196L41.289 87.8195L40.6748 84.367L40.6749 84.3669L80.726 77.2422L80.7262 77.2423L81.3403 80.6947L81.3402 80.6949Z" fill="#E6E7E8"/>
<path d="M82.7557 88.6512L42.7046 95.7759L42.7045 95.7758L42.0903 92.3233L42.0904 92.3232L82.1415 85.1985L82.1417 85.1985L82.7559 88.6511L82.7557 88.6512Z" fill="#E6E7E8"/>
</g>
<defs>
<filter id="filter0_d_22_20229" x="0.39209" y="0.145264" width="108.741" height="118.379" filterUnits="userSpaceOnUse" color-interpolation-filters="sRGB">
<feFlood flood-opacity="0" result="BackgroundImageFix"/>
<feColorMatrix in="SourceAlpha" type="matrix" values="0 0 0 0 0 0 0 0 0 0 0 0 0 0 0 0 0 0 127 0" result="hardAlpha"/>
<feOffset dx="2" dy="2"/>
<feGaussianBlur stdDeviation="6"/>
<feComposite in2="hardAlpha" operator="out"/>
<feColorMatrix type="matrix" values="0 0 0 0 0 0 0 0 0 0 0 0 0 0 0 0 0 0 0.15 0"/>
<feBlend mode="normal" in2="BackgroundImageFix" result="effect1_dropShadow_22_20229"/>
<feBlend mode="normal" in="SourceGraphic" in2="effect1_dropShadow_22_20229" result="shape"/>
</filter>
</defs>
</svg>
