<svg width="99" height="122" viewBox="0 0 99 122" fill="none" xmlns="http://www.w3.org/2000/svg">
<g filter="url(#filter0_d_22_20101)">
<path d="M11.0457 49.4994L19.6841 56.7975L20.2223 49.1884L11.0457 49.4994Z" fill="#BA1E2A"/>
<path d="M88.5793 37.9428L83.5327 103.285C83.3449 105.716 81.2222 107.534 78.7918 107.346L20.555 102.848C18.1246 102.66 16.3062 100.538 16.494 98.1072L22.9755 14.1861C23.1632 11.7548 25.286 9.93643 27.7164 10.1241L65.7716 13.0633L88.5793 37.9428Z" fill="white"/>
<path d="M53.7282 52.9913L11.8503 49.7569C10.8418 49.6791 10.0874 48.7984 10.1652 47.7899L11.5948 29.2802C11.6727 28.2717 12.5534 27.5173 13.5619 27.5952L55.4399 30.8296C56.4483 30.9075 57.2028 31.7882 57.1249 32.7967L55.6953 51.3063C55.6174 52.3148 54.7367 53.0692 53.7282 52.9913Z" fill="#ED1B24"/>
<path d="M17.9822 45.854L18.9761 32.9854L23.0295 33.2984C23.7379 33.3531 24.3919 33.4698 24.9918 33.6479C25.5916 33.8263 26.1023 34.09 26.5241 34.4393C26.9457 34.7885 27.2617 35.2255 27.472 35.7496C27.6821 36.2739 27.7585 36.9099 27.7007 37.6576C27.646 38.3659 27.4736 38.9731 27.184 39.4783C26.8942 39.9839 26.5161 40.3936 26.05 40.707C25.5835 41.0208 25.0456 41.2366 24.4362 41.3543C23.8264 41.4724 23.1743 41.5043 22.4791 41.4506L20.6294 41.3077L20.2647 46.0301L17.9822 45.8538L17.9822 45.854ZM20.7708 39.478L22.4432 39.6071C24.3323 39.753 25.337 39.0457 25.4575 37.4844C25.5203 36.6712 25.3177 36.0914 24.8495 35.7451C24.3814 35.399 23.6684 35.1887 22.711 35.1147L21.1172 34.9916L20.7707 39.478L20.7708 39.478Z" fill="white"/>
<path d="M29.4338 46.7385L30.4277 33.8698L33.8712 34.1357C35.8389 34.2877 37.3326 34.9376 38.3524 36.0852C39.3723 37.2328 39.8001 38.8692 39.636 40.9943C39.5539 42.0568 39.3404 42.984 38.9956 43.7754C38.6505 44.5671 38.1916 45.2145 37.6184 45.7177C37.0451 46.2211 36.3705 46.5813 35.595 46.7985C34.8193 47.0157 33.9527 47.0873 32.9953 47.0133L29.4339 46.7383L29.4338 46.7385ZM31.8592 45.0651L32.8627 45.1426C34.1743 45.2439 35.2103 44.9448 35.9704 44.2445C36.7302 43.5445 37.1719 42.4009 37.2945 40.8134C37.416 39.2393 37.1504 38.0642 36.4978 37.2879C35.8452 36.5119 34.8695 36.0735 33.5709 35.9732L32.5674 35.8957L31.8592 45.0651Z" fill="white"/>
<path d="M41.7317 47.6883L42.7256 34.8196L50.498 35.4199L50.349 37.3483L44.8592 36.9243L44.578 40.5645L49.2611 40.9262L49.1122 42.8545L44.4291 42.4929L44.0142 47.8647L41.7317 47.6883Z" fill="white"/>
<path d="M88.579 37.9428L88.5264 38.623L66.6262 36.9316C64.9544 36.8025 63.7031 35.3417 63.8323 33.669L65.4258 13.0366L65.7713 13.0633L88.579 37.9428Z" fill="#E6E7E8"/>
<path d="M73.9896 65.4179L31.7383 62.1547L31.7382 62.1546L32.0195 58.5124L32.0196 58.5123L74.2709 61.7755L74.271 61.7756L73.9897 65.4178L73.9896 65.4179Z" fill="#E6E7E8"/>
<path d="M73.3412 73.8113L31.0899 70.5481L31.0898 70.548L31.3711 66.9058L31.3712 66.9057L73.6225 70.1689L73.6226 70.169L73.3413 73.8112L73.3412 73.8113Z" fill="#E6E7E8"/>
<path d="M72.6927 82.2047L30.4414 78.9415L30.4413 78.9414L30.7226 75.2992L30.7227 75.2991L72.974 78.5623L72.9741 78.5624L72.6928 82.2047L72.6927 82.2047Z" fill="#E6E7E8"/>
<path d="M72.0443 90.5981L29.793 87.3349L29.7929 87.3348L30.0742 83.6926L30.0743 83.6926L72.3256 86.9558L72.3257 86.9559L72.0444 90.598L72.0443 90.5981Z" fill="#E6E7E8"/>
<path d="M71.3963 98.9915L29.145 95.7283L29.145 95.7282L29.4263 92.086L29.4264 92.0859L71.6776 95.3491L71.6777 95.3492L71.3964 98.9914L71.3963 98.9915Z" fill="#E6E7E8"/>
</g>
<defs>
<filter id="filter0_d_22_20101" x="0.159668" y="0.110825" width="102.419" height="121.248" filterUnits="userSpaceOnUse" color-interpolation-filters="sRGB">
<feFlood flood-opacity="0" result="BackgroundImageFix"/>
<feColorMatrix in="SourceAlpha" type="matrix" values="0 0 0 0 0 0 0 0 0 0 0 0 0 0 0 0 0 0 127 0" result="hardAlpha"/>
<feOffset dx="2" dy="2"/>
<feGaussianBlur stdDeviation="6"/>
<feComposite in2="hardAlpha" operator="out"/>
<feColorMatrix type="matrix" values="0 0 0 0 0 0 0 0 0 0 0 0 0 0 0 0 0 0 0.15 0"/>
<feBlend mode="normal" in2="BackgroundImageFix" result="effect1_dropShadow_22_20101"/>
<feBlend mode="normal" in="SourceGraphic" in2="effect1_dropShadow_22_20101" result="shape"/>
</filter>
</defs>
</svg>
