<svg width="232" height="232" viewBox="0 0 232 232" fill="none" xmlns="http://www.w3.org/2000/svg">
<g clip-path="url(#clip0_28_20680)">
<path d="M199.935 80.9375H182.168V19.9318C182.168 17.8069 180.446 16.0862 178.321 16.0862H53.4368C51.3119 16.0862 49.5912 17.8076 49.5912 19.9318V80.9375H31.8176C25.4427 80.9375 15.9639 85.1608 15.9639 96.7847V154.428C15.9639 160.802 20.1936 170.288 31.8176 170.288H42.3826V212.071C42.3826 214.196 44.104 215.917 46.229 215.917H185.525C187.65 215.917 189.371 214.196 189.371 212.071V170.288H199.936C206.31 170.282 215.796 166.059 215.796 154.428V96.7847C215.789 90.4171 211.565 80.9375 199.935 80.9375ZM57.2767 23.7717H174.476V80.9382H57.2767V23.7717ZM181.678 208.226H50.0746V166.443V161.637V151.072H181.678V159.234V166.443V208.226ZM208.104 154.428C208.104 161.881 201.848 162.57 199.915 162.596H189.371V159.233V147.225C189.371 145.101 187.649 143.38 185.524 143.38H46.2283C44.1033 143.38 42.3819 145.101 42.3819 147.225V161.636V162.596H31.8176C24.3507 162.596 23.6753 156.321 23.6494 154.428V96.7847C23.6494 89.3244 29.925 88.6489 31.8176 88.6166H199.935C207.402 88.6166 208.076 94.8921 208.103 96.7847L208.104 154.428Z" fill="#095EF1"/>
<path d="M49.8294 125.607C46.5196 125.607 43.8257 128.294 43.8257 131.611C43.8257 134.927 46.5196 137.615 49.8294 137.615C53.1455 137.615 55.8337 134.927 55.8337 131.611C55.8337 128.294 53.1455 125.607 49.8294 125.607Z" fill="#095EF1"/>
<path d="M186.729 103.994C188.722 103.994 190.33 102.386 190.33 100.393C190.33 98.4004 188.722 96.7855 186.729 96.7855C184.736 96.7855 183.121 98.4004 183.121 100.393C183.121 102.386 184.736 103.994 186.729 103.994Z" fill="#095EF1"/>
<path d="M174.72 103.994C176.714 103.994 178.321 102.386 178.321 100.393C178.321 98.4004 176.714 96.7855 174.72 96.7855C172.728 96.7855 171.113 98.4004 171.113 100.393C171.113 102.386 172.728 103.994 174.72 103.994Z" fill="#095EF1"/>
<path d="M162.713 103.994C164.705 103.994 166.314 102.386 166.314 100.393C166.314 98.4004 164.705 96.7855 162.713 96.7855C160.72 96.7855 159.104 98.4004 159.104 100.393C159.104 102.386 160.72 103.994 162.713 103.994Z" fill="#095EF1"/>
<path d="M187.927 112.156H43.8255C41.707 112.156 39.9863 113.877 39.9863 116.002C39.9863 118.127 41.7077 119.849 43.8255 119.849H187.927C190.052 119.849 191.773 118.127 191.773 116.002C191.773 113.877 190.052 112.156 187.927 112.156Z" fill="#095EF1"/>
<path d="M168.71 157.791H63.0355C60.917 157.791 59.1963 159.513 59.1963 161.637C59.1963 163.762 60.9177 165.483 63.0355 165.483H168.71C170.835 165.483 172.556 163.762 172.556 161.637C172.556 159.513 170.835 157.791 168.71 157.791Z" fill="#095EF1"/>
<path d="M168.71 174.605H63.0355C60.917 174.605 59.1963 176.326 59.1963 178.451C59.1963 180.576 60.9177 182.297 63.0355 182.297H168.71C170.835 182.297 172.556 180.576 172.556 178.451C172.556 176.326 170.835 174.605 168.71 174.605Z" fill="#095EF1"/>
<path d="M168.71 191.418H63.0355C60.917 191.418 59.1963 193.139 59.1963 195.264C59.1963 197.389 60.9177 199.111 63.0355 199.111H168.71C170.835 199.111 172.556 197.389 172.556 195.264C172.556 193.139 170.835 191.418 168.71 191.418Z" fill="#095EF1"/>
</g>
<defs>
<clipPath id="clip0_28_20680">
<rect width="232" height="232" fill="white"/>
</clipPath>
</defs>
</svg>
