<svg width="361" height="184" viewBox="0 0 361 184" fill="none" xmlns="http://www.w3.org/2000/svg">
<path d="M48.5039 138.557C73.943 138.557 94.5655 117.935 94.5655 92.4959C94.5655 67.0568 73.943 46.4343 48.5039 46.4343C23.0648 46.4343 2.44238 67.0568 2.44238 92.4959C2.44238 117.935 23.0648 138.557 48.5039 138.557Z" fill="#262227"/>
<path d="M55.4917 134.008C78.4161 130.147 93.8697 108.433 90.0083 85.5083C86.1469 62.5839 64.4327 47.1303 41.5083 50.9917C18.5839 54.8531 3.1303 76.5673 6.99171 99.4917C10.8531 122.416 32.5673 137.87 55.4917 134.008Z" fill="#48484B"/>
<path d="M71.9634 115.957C84.9206 103 84.9206 81.9919 71.9634 69.0347C59.0062 56.0775 37.9984 56.0775 25.0412 69.0347C12.084 81.9919 12.084 103 25.0412 115.957C37.9984 128.914 59.0062 128.914 71.9634 115.957Z" fill="#B31922"/>
<path d="M53.5242 122.011C69.8272 119.241 80.798 103.779 78.0282 87.4764C75.2584 71.1734 59.7968 60.2026 43.4938 62.9724C27.1908 65.7422 16.22 81.2038 18.9898 97.5068C21.7596 113.81 37.2212 124.781 53.5242 122.011Z" fill="#E30F24"/>
<path d="M48.5037 111.774C37.8737 111.774 29.2256 103.126 29.2256 92.4954C29.2256 87.2671 31.2865 82.3724 35.0285 78.713C35.9769 77.7849 37.2305 77.2739 38.5572 77.2739C39.9276 77.2739 41.2096 77.8138 42.167 78.793C43.1099 79.7568 43.6204 81.0303 43.6055 82.3784C43.5901 83.727 43.0508 84.9885 42.0869 85.9315C40.3034 87.6752 39.3217 90.006 39.3217 92.4949C39.3217 97.5576 43.4405 101.677 48.5032 101.677C53.5659 101.677 57.6852 97.5576 57.6852 92.4949C57.6852 90.006 56.7034 87.6752 54.9199 85.9315C53.9561 84.9885 53.4168 83.727 53.4014 82.3784C53.3865 81.0303 53.897 79.7568 54.8399 78.7925C55.7973 77.8132 57.0797 77.2739 58.4492 77.2739C59.7764 77.2739 61.0295 77.7849 61.9789 78.713C65.7209 82.3719 67.7818 87.2666 67.7818 92.4954C67.7823 103.126 59.1342 111.774 48.5037 111.774Z" fill="#B31922"/>
<path d="M48.5038 109.685C39.0256 109.685 31.3145 101.974 31.3145 92.4958C31.3145 87.8343 33.1521 83.4699 36.489 80.2071C37.6581 79.0639 39.5316 79.0857 40.6739 80.2539C41.8167 81.4225 41.7958 83.296 40.6272 84.4387C38.439 86.5786 37.2336 89.4403 37.2336 92.4958C37.2336 98.7108 42.2899 103.767 48.5043 103.767C54.7193 103.767 59.775 98.7103 59.775 92.4958C59.775 89.4403 58.5696 86.5786 56.3815 84.4387C55.2129 83.296 55.192 81.4225 56.3348 80.2539C57.4771 79.0852 59.351 79.0644 60.5197 80.2071C63.8565 83.4699 65.6942 87.8338 65.6942 92.4958C65.6932 101.974 57.9821 109.685 48.5038 109.685Z" fill="white"/>
<path d="M48.5044 91.3749C45.7207 91.3749 43.4561 89.1103 43.4561 86.3266V74.4893C43.4561 71.7057 45.7207 69.441 48.5044 69.441C51.288 69.441 53.5527 71.7057 53.5527 74.4893V86.3266C53.5527 89.1103 51.288 91.3749 48.5044 91.3749Z" fill="#B31922"/>
<path d="M48.506 89.2857C46.8716 89.2857 45.5469 87.961 45.5469 86.3266V74.4892C45.5469 72.8549 46.8716 71.5302 48.506 71.5302C50.1404 71.5302 51.4656 72.8549 51.4656 74.4892V86.3266C51.4651 87.961 50.1404 89.2857 48.506 89.2857Z" fill="white"/>
<path d="M180.78 138.557C206.365 138.557 227.105 117.935 227.105 92.4959C227.105 67.0568 206.365 46.4344 180.78 46.4344C155.196 46.4344 134.456 67.0568 134.456 92.4959C134.456 117.935 155.196 138.557 180.78 138.557Z" fill="#262227"/>
<path d="M187.808 134.008C210.863 130.147 226.405 108.433 222.522 85.5083C218.638 62.5839 196.8 47.1303 173.745 50.9917C150.69 54.8531 135.148 76.5673 139.032 99.4917C142.915 122.416 164.753 137.87 187.808 134.008Z" fill="#48484B"/>
<path d="M204.374 115.957C217.405 103 217.405 81.9919 204.374 69.0347C191.343 56.0775 170.215 56.0775 157.184 69.0347C144.153 81.9919 144.153 103 157.184 115.957C170.215 128.914 191.343 128.914 204.374 115.957Z" fill="#B31922"/>
<path d="M185.83 122.011C202.226 119.241 213.259 103.779 210.474 87.4764C207.688 71.1734 192.138 60.2026 175.742 62.9724C159.346 65.7422 148.313 81.2038 151.098 97.5068C153.884 113.81 169.434 124.781 185.83 122.011Z" fill="#E30F24"/>
<path d="M177.229 104.804C178.976 103.052 181.771 102.997 183.582 104.64L183.754 104.804C185.5 106.557 185.555 109.367 183.918 111.187L183.754 111.36C182.008 113.111 179.213 113.165 177.401 111.524L177.229 111.36C175.484 109.606 175.429 106.796 177.066 104.977L177.229 104.804Z" fill="#D5D5D5" stroke="#B31922"/>
<path d="M180.492 92.741C184.445 92.741 188.168 94.2372 191.02 96.9656L191.293 97.2342C192.207 98.1519 192.265 99.604 191.465 100.588L191.293 100.777V100.778C190.806 101.267 190.171 101.511 189.531 101.511C188.895 101.511 188.256 101.266 187.769 100.777H187.768C185.827 98.8265 183.241 97.7518 180.492 97.7518C177.915 97.7518 175.48 98.6966 173.587 100.423L173.216 100.778C172.302 101.695 170.86 101.752 169.881 100.95L169.691 100.778V100.777L169.52 100.588C168.773 99.6699 168.773 98.3435 169.52 97.4246L169.691 97.2342C172.576 94.3359 176.412 92.741 180.492 92.741Z" fill="#D5D5D5" stroke="#B31922"/>
<path d="M180.492 82.8451C186.997 82.8451 193.12 85.3073 197.812 89.7953L198.262 90.2367C199.175 91.1545 199.232 92.6065 198.433 93.5902L198.262 93.7806C197.774 94.2699 197.139 94.514 196.499 94.514C195.943 94.514 195.384 94.3266 194.928 93.9525L194.738 93.7806C190.934 89.9603 185.871 87.8559 180.492 87.8558C175.279 87.8558 170.365 89.8303 166.604 93.4271L166.244 93.7806C165.333 94.6965 163.889 94.7545 162.909 93.9525L162.72 93.7806C161.806 92.8637 161.749 91.4107 162.549 90.4261L162.72 90.2367C167.467 85.4695 173.778 82.8451 180.492 82.8451Z" fill="#D5D5D5" stroke="#B31922"/>
<path d="M180.492 72.9271C189.554 72.9271 198.087 76.3573 204.623 82.6097L205.249 83.2239C206.161 84.1416 206.217 85.594 205.418 86.5784L205.247 86.7689C204.332 87.6841 202.89 87.7413 201.912 86.9398L201.723 86.7679C196.053 81.0742 188.512 77.9378 180.492 77.9378C172.723 77.9378 165.401 80.881 159.797 86.2415L159.26 86.7679V86.7689C158.776 87.2569 158.137 87.5012 157.499 87.5013C156.941 87.5013 156.383 87.3143 155.926 86.9398L155.735 86.7679C154.822 85.8513 154.765 84.3989 155.564 83.4144L155.736 83.2239C162.349 76.5827 171.138 72.9271 180.492 72.9271Z" fill="#D5D5D5" stroke="#B31922"/>
<path d="M312.504 138.557C337.943 138.557 358.565 117.935 358.565 92.4959C358.565 67.0568 337.943 46.4344 312.504 46.4344C287.065 46.4344 266.442 67.0568 266.442 92.4959C266.442 117.935 287.065 138.557 312.504 138.557Z" fill="#262227"/>
<path d="M319.492 134.008C342.416 130.147 357.87 108.433 354.008 85.5083C350.147 62.5839 328.433 47.1303 305.508 50.9917C282.584 54.8531 267.13 76.5673 270.992 99.4917C274.853 122.416 296.567 137.87 319.492 134.008Z" fill="#48484B"/>
<path d="M335.963 115.957C348.921 103 348.921 81.9919 335.963 69.0347C323.006 56.0775 301.998 56.0775 289.041 69.0347C276.084 81.9919 276.084 103 289.041 115.957C301.998 128.914 323.006 128.914 335.963 115.957Z" fill="#B31922"/>
<path d="M317.524 122.011C333.827 119.241 344.798 103.779 342.028 87.4764C339.258 71.1734 323.797 60.2026 307.494 62.9724C291.191 65.7422 280.22 81.2038 282.99 97.5068C285.76 113.81 301.221 124.781 317.524 122.011Z" fill="#E30F24"/>
<path d="M308.976 104.803C310.71 103.052 313.487 102.998 315.286 104.639L315.457 104.803C317.193 106.556 317.248 109.368 315.62 111.188L315.457 111.361C313.723 113.11 310.946 113.165 309.146 111.525L308.976 111.361C307.239 109.607 307.186 106.795 308.813 104.976L308.976 104.803Z" fill="white" stroke="#B31922"/>
<path d="M312.217 92.741C316.145 92.741 319.847 94.2365 322.682 96.9647L322.953 97.2332C323.863 98.1512 323.92 99.6046 323.124 100.589L322.953 100.778V100.779C322.469 101.268 321.839 101.511 321.204 101.511C320.573 101.51 319.939 101.268 319.454 100.779H319.455C317.525 98.8276 314.952 97.7518 312.217 97.7518C309.653 97.7518 307.231 98.6972 305.348 100.424L304.979 100.779C304.071 101.694 302.641 101.751 301.669 100.951L301.48 100.779V100.778L301.31 100.589C300.567 99.6705 300.567 98.3429 301.31 97.4236L301.48 97.2332C304.348 94.3352 308.162 92.7411 312.217 92.741Z" fill="white" stroke="#B31922"/>
<path d="M312.217 82.8451C318.891 82.8451 325.162 85.4688 329.883 90.2357V90.2347C330.791 91.1527 330.848 92.607 330.054 93.5912L329.883 93.7816C329.399 94.2704 328.768 94.514 328.134 94.514C327.582 94.514 327.027 94.3274 326.573 93.9535L326.386 93.7816C322.603 89.9609 317.567 87.8558 312.217 87.8558C307.032 87.8559 302.145 89.8313 298.406 93.4281L298.048 93.7816C297.143 94.6964 295.71 94.7536 294.737 93.9525L294.549 93.7816C293.64 92.8646 293.584 91.411 294.379 90.4261L294.549 90.2357C299.269 85.4689 305.542 82.8452 312.217 82.8451Z" fill="white" stroke="#B31922"/>
<path d="M312.217 72.9271C321.516 72.9271 330.255 76.5819 336.83 83.223V83.222C337.737 84.1398 337.794 85.5944 336.999 86.5794L336.828 86.7698C335.92 87.6838 334.489 87.7413 333.518 86.9407L333.33 86.7689C327.692 81.0748 320.193 77.9378 312.217 77.9378C304.49 77.9378 297.209 80.8816 291.636 86.2425L291.103 86.7689L291.102 86.7698C290.62 87.2577 289.987 87.5013 289.354 87.5013C288.8 87.5012 288.247 87.315 287.792 86.9407L287.604 86.7689C286.695 85.8521 286.638 84.3983 287.434 83.4134L287.604 83.223C294.179 76.5821 302.918 72.9272 312.217 72.9271Z" fill="white" stroke="#B31922"/>
</svg>
