<svg width="24" height="24" viewBox="0 0 24 24" fill="none" xmlns="http://www.w3.org/2000/svg">
<path d="M12 1.75C17.6539 1.75 22.25 6.34614 22.25 12C22.25 17.6539 17.6539 22.25 12 22.25C6.34614 22.25 1.75 17.6539 1.75 12C1.75 6.34614 6.34614 1.75 12 1.75ZM12 2.25C6.62386 2.25 2.25 6.62386 2.25 12C2.25 17.3761 6.62386 21.75 12 21.75C17.3761 21.75 21.75 17.3761 21.75 12C21.75 6.62386 17.3761 2.25 12 2.25Z" fill="black" stroke="#095EF1"/>
<path d="M12 7.75C12.1339 7.75 12.25 7.86614 12.25 8V13C12.25 13.1339 12.1339 13.25 12 13.25C11.8661 13.25 11.75 13.1339 11.75 13V8C11.75 7.86614 11.8661 7.75 12 7.75Z" fill="black" stroke="#095EF1"/>
<path d="M12.0957 15.5138L12.1875 15.5411C12.2454 15.5653 12.2997 15.5998 12.3525 15.6437C12.3981 15.6977 12.4332 15.7532 12.458 15.8126C12.4867 15.8814 12.5 15.946 12.5 16.0001C12.5 16.0271 12.497 16.0566 12.4902 16.088L12.458 16.1876L12.4531 16.2003C12.4333 16.2519 12.4046 16.2953 12.3535 16.3546C12.3003 16.3991 12.246 16.4338 12.1875 16.4581C12.1187 16.4868 12.0541 16.5001 12 16.5001C11.9459 16.5001 11.8813 16.4868 11.8125 16.4581C11.7538 16.4337 11.6989 16.3993 11.6455 16.3546C11.6228 16.3282 11.6035 16.3058 11.5889 16.2833L11.5469 16.2003L11.542 16.1876L11.5098 16.088C11.503 16.0566 11.5 16.0271 11.5 16.0001C11.5 15.9729 11.5029 15.9429 11.5098 15.9113L11.542 15.8126C11.5667 15.7534 11.6011 15.6976 11.6465 15.6437C11.6693 15.6246 11.6921 15.607 11.7158 15.5919L11.8125 15.5411C11.9 15.5048 12.0013 15.4957 12.0957 15.5138Z" fill="black" stroke="#095EF1"/>
</svg>
