<svg width="361" height="184" viewBox="0 0 361 184" fill="none" xmlns="http://www.w3.org/2000/svg">
<g clip-path="url(#clip0_5_46305)">
<path d="M67.3527 122.732C92.9369 122.732 113.677 102.11 113.677 76.6705C113.677 51.2314 92.9369 30.6089 67.3527 30.6089C41.7684 30.6089 21.0283 51.2314 21.0283 76.6705C21.0283 102.11 41.7684 122.732 67.3527 122.732Z" fill="#262227"/>
<path d="M74.3806 118.183C97.4358 114.321 112.978 92.6072 109.094 69.6828C105.211 46.7584 83.3726 31.3048 60.3174 35.1663C37.2622 39.0277 21.7204 60.7419 25.6039 83.6662C29.4873 106.591 51.3254 122.044 74.3806 118.183Z" fill="#48484B"/>
<path d="M90.946 100.131C103.977 87.1742 103.977 66.1664 90.946 53.2092C77.9149 40.252 56.7872 40.252 43.7561 53.2092C30.7249 66.1664 30.725 87.1742 43.7561 100.131C56.7872 113.089 77.9148 113.089 90.946 100.131Z" fill="#B31922"/>
<path d="M72.4022 106.185C88.7982 103.416 99.8316 87.954 97.046 71.651C94.2604 55.348 78.7106 44.3772 62.3146 47.147C45.9185 49.9168 34.8851 65.3784 37.6707 81.6814C40.4564 97.9844 56.0061 108.955 72.4022 106.185Z" fill="#E30F24"/>
<path d="M63.8018 89.9785C65.5479 88.2263 68.3432 88.1718 70.1543 89.8144L70.3262 89.9785C72.0722 91.7315 72.1272 94.5417 70.4902 96.3613L70.3262 96.5341C68.5806 98.2851 65.7852 98.34 63.9736 96.6982L63.8018 96.5341C62.0558 94.7805 62.0017 91.9704 63.6387 90.1513L63.8018 89.9785Z" fill="#ECEFF1" stroke="#B31922"/>
<path d="M67.0645 77.9156C71.0171 77.9156 74.7408 79.4117 77.5918 82.1402L77.8652 82.4087C78.7795 83.3264 78.837 84.7786 78.0371 85.7623L77.8652 85.9517V85.9527C77.3781 86.4419 76.7434 86.6851 76.1035 86.6851C75.4672 86.6851 74.8286 86.441 74.3408 85.9517H74.3398C72.3991 84.0011 69.8132 82.9263 67.0645 82.9263C64.4873 82.9263 62.0527 83.8712 60.1592 85.5972L59.7881 85.9527C58.8743 86.8693 57.4319 86.9265 56.4531 86.1246L56.2637 85.9527V85.9517L56.0918 85.7623C55.3454 84.8444 55.3453 83.518 56.0918 82.5992L56.2637 82.4087C59.1479 79.5104 62.9843 77.9156 67.0645 77.9156Z" fill="#ECEFF1" stroke="#B31922"/>
<path d="M67.0645 68.0196C73.569 68.0197 79.6922 70.4818 84.3848 74.9698L84.834 75.4112C85.7473 76.329 85.8041 77.781 85.0049 78.7647L84.834 78.9552C84.3465 79.4444 83.7112 79.6886 83.0713 79.6886C82.5151 79.6885 81.9566 79.5011 81.5 79.127L81.3105 78.9552C77.5065 75.1348 72.4432 73.0304 67.0645 73.0303C61.8513 73.0303 56.9368 75.0048 53.1768 78.6016L52.8164 78.9552C51.905 79.871 50.4613 79.929 49.4814 79.127L49.292 78.9552C48.3785 78.0382 48.3214 76.5852 49.1211 75.6007L49.292 75.4112C54.0396 70.644 60.3502 68.0196 67.0645 68.0196Z" fill="#ECEFF1" stroke="#B31922"/>
<path d="M67.0645 58.1016C76.1261 58.1016 84.6588 61.5318 91.1953 67.7842L91.8213 68.3985C92.7328 69.3162 92.7894 70.7685 91.9902 71.753L91.8193 71.9434C90.9047 72.8587 89.4625 72.9158 88.4844 72.1143L88.2949 71.9424C82.6251 66.2487 75.0842 63.1123 67.0645 63.1123C59.2953 63.1124 51.9736 66.0555 46.3691 71.4161L45.832 71.9424V71.9434C45.348 72.4315 44.7096 72.6757 44.0713 72.6758C43.5133 72.6758 42.9557 72.4888 42.498 72.1143L42.3076 71.9424C41.3943 71.0259 41.3373 69.5734 42.1367 68.5889L42.3086 68.3985C48.9214 61.7573 57.7107 58.1017 67.0645 58.1016Z" fill="#ECEFF1" stroke="#B31922"/>
<path d="M28.4931 161.816L30.2753 164.281L48.7991 199.16V222.175H98.4613V196.98C98.4613 196.98 106.346 190.27 108.277 186.849L112.899 178.658C116.094 172.997 119.024 150.296 119.024 150.296C119.448 145.444 119.991 143.622 119.006 140.952L115.548 131.581L114.426 125.454C114.152 123.962 112.646 122.862 110.876 122.862C106.546 122.862 102.829 125.49 102.024 129.119L101.67 130.718C101.343 132.193 101.291 133.702 101.516 135.19L101.907 137.779C102.265 140.144 101.873 142.547 100.772 144.739L97.663 150.928L88.5376 142.645C84.6802 139.144 81.9557 134.849 80.6295 130.178L76.8841 116.987C76.1912 114.546 75.7823 112.053 75.6633 109.543L74.8115 91.5742C74.6685 88.5625 73.1453 85.7192 70.5692 83.6564C67.7087 81.3659 63.162 81.6577 60.7355 84.2877C59.8281 85.2713 59.3132 86.4767 59.2657 87.7277L58.3804 111.144L50.6172 109.281C49.0205 108.898 47.3223 108.955 45.7661 109.444C42.7086 110.405 40.7975 113.006 41.1154 115.773L41.7733 121.498L36.7847 124.026C33.6152 125.632 31.883 128.702 32.3905 131.818L33.1503 136.486L29.5535 142.624C28.5011 144.419 27.2064 146.095 25.9276 147.78C24.6978 149.4 24.2179 151.383 24.6453 153.328C25.3057 156.335 26.6105 159.212 28.4931 161.816Z" fill="#FACBA6"/>
<path d="M115.736 132.091L115.548 131.581L114.425 125.454C114.419 125.419 114.402 125.387 114.394 125.353C113.091 124.241 109.199 124.028 107.523 126.216C106.49 127.565 105.879 130.512 107.248 131.864C108.997 133.59 115.438 132.225 115.736 132.091Z" fill="#FBD9BE"/>
<path d="M35.8891 146.294C33.7885 138.87 33.1496 136.486 33.1496 136.486L29.5527 142.624C28.5004 144.42 27.2056 146.096 25.9269 147.781C24.929 149.095 24.4356 150.648 24.5091 152.225C24.5091 147.931 33.8265 148.707 35.8891 146.294Z" fill="#F8BC91"/>
<path d="M44.5282 139.007C45.541 140.693 41.7727 121.498 41.7727 121.498L36.7841 124.026C36.1622 124.34 35.6093 124.721 35.1094 125.141C39.0582 124.564 42.5671 135.741 44.5282 139.007Z" fill="#F8BC91"/>
<path d="M89.8386 159.648C93.9514 156.344 97.6632 150.928 97.6632 150.928L88.5378 142.645C86.4597 140.759 84.723 138.636 83.3438 136.354C88.9603 150.52 87.896 161.21 89.8386 159.648Z" fill="#F8BC91"/>
<path d="M57.0226 128.72C57.981 131.308 58.3799 111.144 58.3799 111.144L50.6168 109.281C49.0201 108.898 47.3224 108.955 45.7656 109.444C49.5175 109.781 56.7177 127.896 57.0226 128.72Z" fill="#F8BC91"/>
<path d="M59.5968 86.8405C59.5968 86.2954 60.7736 84.7138 62.6908 84.6093C64.5669 84.5069 66.7625 85.1203 67.8888 87.1387C68.9362 89.0167 68.6997 93.1465 68.4797 93.5845C67.8808 94.7767 59.5013 95.2553 59.3294 93.4305C59.0579 90.5535 59.5968 87.3856 59.5968 86.8405Z" fill="#FBD9BE"/>
<g opacity="0.37">
<path d="M354.843 143.357V183H155.175V143.357C155.175 141.404 156.101 139.636 157.598 138.358C159.09 137.083 161.151 136.295 163.426 136.295H346.592C348.867 136.295 350.927 137.083 352.42 138.358C353.916 139.636 354.843 141.404 354.843 143.357Z" fill="#060606"/>
<path d="M360.48 145.798V183H149.54V145.798C149.54 141.867 153.092 138.646 157.599 138.358C157.816 138.345 158.035 138.337 158.256 138.337H351.763C351.985 138.337 352.204 138.345 352.421 138.358C356.928 138.646 360.48 141.867 360.48 145.798Z" fill="url(#paint0_linear_5_46305)"/>
<path opacity="0.45" d="M360.48 150.997V183H149.54V150.997C149.54 147.805 151.882 145.081 155.176 144.016C156.134 143.706 157.172 143.536 158.256 143.536H351.763C352.848 143.536 353.886 143.706 354.844 144.016C358.137 145.081 360.48 147.805 360.48 150.997Z" fill="white"/>
<path d="M360.48 151.184V183H149.54V151.184C149.54 147.992 151.882 145.267 155.176 144.203C156.134 143.893 157.172 143.723 158.256 143.723H351.763C352.848 143.723 353.886 143.893 354.844 144.203C358.137 145.267 360.48 147.992 360.48 151.184Z" fill="#0F0F0F"/>
<path d="M360.48 151.66V183H149.54V151.66C149.54 148.467 151.882 145.743 155.176 144.679C156.134 144.369 157.172 144.199 158.256 144.199H351.763C352.848 144.199 353.886 144.369 354.844 144.679C358.137 145.743 360.48 148.467 360.48 151.66Z" fill="url(#paint1_linear_5_46305)"/>
<path d="M314.249 169.937V138.337H195.771V169.937C195.771 172.95 198.45 175.428 201.881 175.719C202.104 175.738 202.33 175.748 202.559 175.748H307.461C307.689 175.748 307.916 175.738 308.139 175.719C311.569 175.428 314.249 172.95 314.249 169.937Z" fill="#060606"/>
<path d="M308.138 175.719V147.461H201.88V175.719C202.103 175.738 202.329 175.748 202.558 175.748H307.46C307.689 175.748 307.915 175.738 308.138 175.719Z" fill="#333333"/>
<path d="M201.881 147.461L195.771 138.337H314.249L308.139 147.461H201.881Z" fill="#3D3D3D"/>
<path opacity="0.71" d="M314.249 169.937V140.353H195.771V169.937C195.771 172.95 198.45 175.428 201.881 175.719C202.104 175.738 202.33 175.748 202.559 175.748H307.461C307.689 175.748 307.916 175.738 308.139 175.719C311.569 175.428 314.249 172.95 314.249 169.937Z" fill="#060606"/>
<path opacity="0.14" d="M314.249 140.353H195.771V140.709H314.249V140.353Z" fill="white"/>
<path opacity="0.14" d="M283.375 175.748C255.929 166.7 243.272 151.521 237.481 140.353H195.771V169.937C195.771 172.95 198.45 175.428 201.881 175.719C202.104 175.738 202.33 175.748 202.559 175.748H283.375Z" fill="url(#paint2_linear_5_46305)"/>
</g>
<path d="M303.909 13.4131H206.11C203.082 13.4131 200.628 15.5139 200.628 18.1054V43.4716H309.391V18.1054C309.391 15.5139 306.936 13.4131 303.909 13.4131Z" fill="#303030"/>
<path d="M303.984 2H206.034V40.0236H303.984V2Z" fill="#EAEAEA"/>
<path d="M303.984 2.09069H206.034V45.8967H303.984V2.09069Z" fill="#ECECEC"/>
<path d="M354.842 88.5647V129.232C354.842 133.133 351.148 136.295 346.592 136.295H163.426C158.869 136.295 155.175 133.133 155.175 129.232V88.5647L255.009 82.2608L354.842 88.5647Z" fill="#060606"/>
<path d="M360.48 83.8277V126.791C360.48 130.912 356.577 134.252 351.763 134.252H158.257C153.443 134.252 149.54 130.912 149.54 126.791V83.8277L255.01 77.1679L360.48 83.8277Z" fill="url(#paint3_linear_5_46305)"/>
<path opacity="0.45" d="M360.48 78.6288V121.592C360.48 125.713 356.577 129.053 351.763 129.053H158.257C153.443 129.053 149.54 125.713 149.54 121.592V78.6288L255.01 71.969L360.48 78.6288Z" fill="white"/>
<path d="M360.48 78.4419V121.405C360.48 125.526 356.577 128.866 351.763 128.866H158.257C153.443 128.866 149.54 125.526 149.54 121.405V78.4419L255.01 71.7821L360.48 78.4419Z" fill="#0F0F0F"/>
<path d="M360.48 62.6017V120.93C360.48 125.05 356.577 128.391 351.763 128.391H158.257C153.443 128.391 149.54 125.05 149.54 120.93V62.5534L255.01 62.4356L360.48 62.6017Z" fill="url(#paint4_linear_5_46305)"/>
<path d="M314.249 102.652V134.252H195.771V102.652C195.771 99.6389 198.45 97.1615 201.881 96.8702C202.104 96.8511 202.33 96.8415 202.559 96.8415H307.461C307.689 96.8415 307.916 96.8511 308.139 96.8702C311.569 97.1615 314.249 99.6389 314.249 102.652Z" fill="#060606"/>
<path d="M308.138 96.8702V125.129H201.88V96.8702C202.103 96.8511 202.329 96.8415 202.558 96.8415H307.46C307.689 96.8415 307.915 96.8511 308.138 96.8702Z" fill="#333333"/>
<path d="M201.881 125.129L195.771 134.252H314.249L308.139 125.129H201.881Z" fill="#3D3D3D"/>
<path d="M319.108 148.745L318.543 148.611L318.336 148.692L316.245 145.197H193.772L191.686 148.685L191.487 148.615L190.909 148.669V150.317H190.91C190.908 151.061 191.604 151.737 192.565 151.737H317.452C318.418 151.737 319.118 151.053 319.108 150.304H319.108L319.108 148.745Z" fill="url(#paint5_linear_5_46305)"/>
<path d="M318.924 148.077L305.196 125.129H204.821L191.093 148.077C190.53 149.019 191.329 150.138 192.565 150.138H317.452C318.688 150.138 319.487 149.019 318.924 148.077Z" fill="#2B2B2B"/>
<path opacity="0.31" d="M317.452 149.904H192.566C191.656 149.904 190.984 149.298 190.916 148.603C190.837 149.39 191.555 150.138 192.566 150.138H317.452C318.463 150.138 319.181 149.39 319.102 148.603C319.035 149.298 318.362 149.904 317.452 149.904Z" fill="white"/>
<path d="M303.986 125.129H255.01H206.035L192.635 148.467H255.01H317.386L303.986 125.129Z" fill="url(#paint6_linear_5_46305)"/>
<path d="M360.48 62.5972C360.48 63.5666 360.015 64.5258 359.125 65.2178C356.967 66.8959 354.156 67.8255 351.24 67.8255H158.779C157.322 67.8255 155.89 67.5932 154.553 67.1508C153.216 66.7088 151.974 66.0571 150.894 65.2178C149.429 64.0785 149.117 62.2142 150.134 60.7719C150.154 60.7428 150.175 60.7141 150.196 60.6855L162.596 44.1761H347.424L359.823 60.6855C359.845 60.7141 359.866 60.7428 359.886 60.7719C360.285 61.3385 360.48 61.9698 360.48 62.5972Z" fill="url(#paint7_linear_5_46305)"/>
<path opacity="0.45" d="M359.124 64.895C356.966 66.5731 354.155 67.5027 351.239 67.5027H158.778C157.321 67.5027 155.889 67.2704 154.552 66.8279C153.215 66.386 151.973 65.7342 150.893 64.895C150.053 64.2419 149.593 63.3505 149.544 62.437C149.49 63.4604 149.955 64.4879 150.893 65.2178C151.973 66.0571 153.215 66.7088 154.552 67.1508C155.889 67.5932 157.321 67.8255 158.778 67.8255H351.239C354.155 67.8255 356.966 66.8959 359.124 65.2178C360.014 64.5257 360.479 63.5667 360.479 62.5971C360.479 62.5433 360.477 62.4895 360.474 62.4357C360.425 63.3495 359.965 64.2414 359.124 64.895Z" fill="white"/>
<path d="M150.893 64.895C151.972 65.7343 153.215 66.386 154.552 66.8279C155.888 67.2704 157.32 67.5027 158.778 67.5027H351.239C354.155 67.5027 356.966 66.5731 359.124 64.895C359.964 64.2414 360.425 63.3495 360.474 62.4356C360.443 61.8619 360.25 61.2898 359.884 60.7718C359.865 60.7427 359.843 60.7141 359.822 60.6854L347.423 44.176H162.595L150.195 60.6854C150.174 60.7141 150.153 60.7427 150.133 60.7718C149.767 61.2901 149.574 61.8629 149.544 62.4369C149.593 63.3505 150.053 64.2419 150.893 64.895Z" fill="url(#paint8_linear_5_46305)"/>
<path d="M358.806 62.5973C358.806 63.19 358.512 63.7587 357.999 64.1577C356.146 65.5987 353.745 66.3928 351.24 66.3928H158.779C157.534 66.3928 156.316 66.1983 155.157 65.8145C153.995 65.4303 152.939 64.8728 152.02 64.1573C151.152 63.483 150.962 62.3707 151.567 61.5124L151.583 61.4902L151.586 61.485C151.591 61.4776 151.699 61.3348 151.699 61.3348L152.121 60.7721L163.509 45.609H346.51L357.898 60.7721L358.418 61.4642C358.425 61.4729 358.431 61.482 358.438 61.4915L358.457 61.5198L358.466 61.5306C358.688 61.854 358.806 62.2222 358.806 62.5973Z" fill="url(#paint9_linear_5_46305)"/>
<path d="M358.806 62.5973C358.806 63.19 358.512 63.7587 357.999 64.1577C356.146 65.5987 353.745 66.3928 351.24 66.3928H158.779C157.534 66.3928 156.316 66.1983 155.157 65.8145C153.995 65.4303 152.939 64.8728 152.02 64.1573C151.152 63.483 150.962 62.3707 151.567 61.5124L151.583 61.4902L151.586 61.485C151.591 61.4776 151.699 61.3348 151.699 61.3348L152.121 60.7721L163.509 45.609H346.51L357.898 60.7721L358.418 61.4642C358.425 61.4729 358.431 61.482 358.438 61.4915L358.457 61.5198L358.466 61.5306C358.688 61.854 358.806 62.2222 358.806 62.5973Z" fill="url(#paint10_linear_5_46305)"/>
<path d="M358.806 59.7785L356.841 60.257L356.814 60.772H154.76L155.38 59.8211H151.215V62.5959L151.215 62.596C151.215 63.1746 151.492 63.747 152.02 64.1572C152.939 64.8728 153.995 65.4303 155.157 65.8145C156.316 66.1983 157.534 66.3928 158.779 66.3928H351.24C353.745 66.3928 356.146 65.5987 357.999 64.1576C358.512 63.7587 358.806 63.1899 358.806 62.5972C358.806 62.5902 358.805 62.5832 358.805 62.5761L358.806 62.5761L358.806 59.7785Z" fill="url(#paint11_linear_5_46305)"/>
<path d="M358.806 59.7869C358.806 60.3795 358.512 60.9483 357.999 61.3473C356.146 62.7883 353.745 63.5824 351.24 63.5824H158.779C157.534 63.5824 156.316 63.3879 155.157 63.0041C153.995 62.6199 152.939 62.0624 152.02 61.3469C151.152 60.6726 150.962 59.5602 151.567 58.7019L151.583 58.6797L151.586 58.6745C151.591 58.6671 151.699 58.5243 151.699 58.5243L152.121 57.9616L163.509 42.7985H346.51L357.898 57.9616L358.418 58.6537C358.425 58.6624 358.431 58.6715 358.438 58.6811L358.457 58.7092L358.466 58.7201C358.688 59.0436 358.806 59.4118 358.806 59.7869Z" fill="url(#paint12_linear_5_46305)"/>
<path opacity="0.27" d="M357.999 60.8506C356.145 62.2916 353.745 63.0857 351.24 63.0857H158.779C157.534 63.0857 156.315 62.8912 155.157 62.5074C153.995 62.1232 152.939 61.5657 152.019 60.8502C151.567 60.499 151.3 60.029 151.232 59.538C151.141 60.1977 151.416 60.8781 152.019 61.3469C152.939 62.0624 153.995 62.6199 155.157 63.0041C156.315 63.3879 157.534 63.5824 158.779 63.5824H351.24C353.745 63.5824 356.145 62.7883 357.999 61.3473C358.512 60.9483 358.805 60.3795 358.805 59.7869C358.805 59.704 358.799 59.6215 358.787 59.5397C358.717 60.0402 358.439 60.508 357.999 60.8506Z" fill="white"/>
<path d="M358.787 59.5398C358.717 60.04 358.439 60.5081 357.999 60.8506C356.146 62.2916 353.745 63.0857 351.24 63.0857H158.779C157.534 63.0857 156.315 62.8912 155.157 62.5074C153.995 62.1232 152.939 61.5657 152.02 60.8502C151.568 60.4989 151.3 60.0291 151.232 59.5381C151.272 59.2489 151.383 58.9636 151.567 58.7018L151.582 58.6797L151.586 58.6745C151.591 58.6671 151.699 58.5242 151.699 58.5242L152.121 57.9616L163.509 42.7985H346.51L357.898 57.9616L358.418 58.6536C358.425 58.6623 358.431 58.6715 358.438 58.681L358.457 58.7092L358.466 58.72C358.639 58.972 358.747 59.2511 358.787 59.5398Z" fill="url(#paint13_radial_5_46305)"/>
<path opacity="0.18" d="M310.601 42.7985C257.407 47.4833 231.261 55.8576 218.416 63.0857H158.779C157.534 63.0857 156.315 62.8911 155.157 62.5073C153.995 62.1231 152.939 61.5656 152.02 60.8501C151.568 60.4988 151.3 60.0291 151.232 59.538C151.272 59.2488 151.383 58.9636 151.567 58.7018L151.582 58.6796L151.586 58.6744C151.591 58.667 151.699 58.5242 151.699 58.5242L152.121 57.9615L163.509 42.7984H310.601V42.7985Z" fill="white"/>
<path d="M255.012 73.095C255.859 73.095 256.545 72.5072 256.545 71.782C256.545 71.0569 255.859 70.469 255.012 70.469C254.164 70.469 253.478 71.0569 253.478 71.782C253.478 72.5072 254.164 73.095 255.012 73.095Z" fill="url(#paint14_linear_5_46305)"/>
<path d="M255.011 72.9135C255.741 72.9135 256.333 72.4069 256.333 71.782C256.333 71.1571 255.741 70.6505 255.011 70.6505C254.281 70.6505 253.689 71.1571 253.689 71.782C253.689 72.4069 254.281 72.9135 255.011 72.9135Z" fill="url(#paint15_radial_5_46305)"/>
<path opacity="0.16" d="M255.899 71.212C255.899 71.4021 255.501 71.5562 255.011 71.5562C254.521 71.5562 254.123 71.4021 254.123 71.212C254.123 71.0219 254.521 70.7611 255.011 70.7611C255.501 70.7611 255.899 71.0219 255.899 71.212Z" fill="white"/>
<path d="M248.689 73.095C249.536 73.095 250.223 72.5072 250.223 71.782C250.223 71.0569 249.536 70.469 248.689 70.469C247.842 70.469 247.155 71.0569 247.155 71.782C247.155 72.5072 247.842 73.095 248.689 73.095Z" fill="url(#paint16_linear_5_46305)"/>
<path d="M248.69 72.9135C249.42 72.9135 250.012 72.4069 250.012 71.782C250.012 71.1571 249.42 70.6505 248.69 70.6505C247.96 70.6505 247.368 71.1571 247.368 71.782C247.368 72.4069 247.96 72.9135 248.69 72.9135Z" fill="url(#paint17_radial_5_46305)"/>
<path opacity="0.16" d="M249.578 71.212C249.578 71.4021 249.18 71.5562 248.69 71.5562C248.199 71.5562 247.802 71.4021 247.802 71.212C247.802 71.0219 248.199 70.7611 248.69 70.7611C249.18 70.7611 249.578 71.0219 249.578 71.212Z" fill="white"/>
<path d="M261.329 73.095C262.176 73.095 262.863 72.5072 262.863 71.782C262.863 71.0569 262.176 70.469 261.329 70.469C260.482 70.469 259.795 71.0569 259.795 71.782C259.795 72.5072 260.482 73.095 261.329 73.095Z" fill="url(#paint18_linear_5_46305)"/>
<path d="M261.33 72.9135C262.06 72.9135 262.652 72.4069 262.652 71.782C262.652 71.1571 262.06 70.6505 261.33 70.6505C260.6 70.6505 260.008 71.1571 260.008 71.782C260.008 72.4069 260.6 72.9135 261.33 72.9135Z" fill="url(#paint19_radial_5_46305)"/>
<path opacity="0.16" d="M262.217 71.212C262.217 71.4021 261.82 71.5562 261.329 71.5562C260.839 71.5562 260.441 71.4021 260.441 71.212C260.441 71.0219 260.839 70.7611 261.329 70.7611C261.82 70.7611 262.217 71.0219 262.217 71.212Z" fill="white"/>
<path d="M171.672 76.5292C173.548 76.5292 175.068 75.2277 175.068 73.6223C175.068 72.0169 173.548 70.7155 171.672 70.7155C169.797 70.7155 168.276 72.0169 168.276 73.6223C168.276 75.2277 169.797 76.5292 171.672 76.5292Z" fill="url(#paint20_linear_5_46305)"/>
<path d="M171.673 76.149C173.303 76.149 174.624 75.0178 174.624 73.6223C174.624 72.2269 173.303 71.0956 171.673 71.0956C170.042 71.0956 168.721 72.2269 168.721 73.6223C168.721 75.0178 170.042 76.149 171.673 76.149Z" fill="url(#paint21_radial_5_46305)"/>
<path opacity="0.12" d="M171.673 71.0956C170.042 71.0956 168.721 72.2269 168.721 73.6223C168.721 75.0177 170.042 76.149 171.673 76.149C173.303 76.149 174.624 75.0177 174.624 73.6223C174.624 72.2269 173.303 71.0956 171.673 71.0956ZM171.673 76.0599C170.1 76.0599 168.825 74.9685 168.825 73.6223C168.825 72.2761 170.1 71.1847 171.673 71.1847C173.245 71.1847 174.52 72.2761 174.52 73.6223C174.52 74.9685 173.245 76.0599 171.673 76.0599Z" fill="black"/>
<g opacity="0.41">
<path d="M172.951 72.5176C172.817 72.4067 172.596 72.4393 172.513 72.5819L172.509 72.5879C172.455 72.6805 172.478 72.7918 172.565 72.864C172.803 73.0627 172.951 73.3405 172.951 73.6479C172.951 74.2524 172.374 74.7445 171.668 74.7421C170.964 74.7397 170.394 74.2507 170.394 73.6479C170.394 73.3401 170.543 73.062 170.782 72.8632C170.868 72.7914 170.89 72.6801 170.837 72.5879L170.833 72.5819C170.75 72.4392 170.528 72.4066 170.394 72.5176C170.048 72.8044 169.834 73.2065 169.835 73.6516C169.837 74.5205 170.658 75.221 171.673 75.221C172.688 75.221 173.511 74.5167 173.511 73.6478C173.511 73.2043 173.296 72.8036 172.951 72.5176Z" fill="white"/>
<path d="M171.673 71.7756C171.542 71.7756 171.436 71.8671 171.436 71.9788V73.3137C171.436 73.4254 171.542 73.5169 171.673 73.5169C171.803 73.5169 171.91 73.4254 171.91 73.3137V71.9788C171.91 71.8671 171.804 71.7756 171.673 71.7756Z" fill="white"/>
</g>
<path opacity="0.11" d="M173.397 72.2917C173.397 72.6608 172.625 72.9601 171.673 72.9601C170.72 72.9601 169.948 72.6609 169.948 72.2917C169.948 71.9225 170.72 71.4161 171.673 71.4161C172.625 71.4161 173.397 71.9225 173.397 72.2917Z" fill="white"/>
<path opacity="0.71" d="M314.249 102.652V132.237H195.771V102.652C195.771 99.6389 198.45 97.1615 201.881 96.8702C202.104 96.8511 202.33 96.8415 202.559 96.8415H307.461C307.689 96.8415 307.916 96.8511 308.139 96.8702C311.569 97.1615 314.249 99.6389 314.249 102.652Z" fill="#060606"/>
<path opacity="0.14" d="M314.249 131.88H195.771V132.237H314.249V131.88Z" fill="white"/>
<path d="M303.984 42.7985H206.034V63.0857H303.984V42.7985Z" fill="#ECECEC"/>
<path opacity="0.14" d="M283.375 96.8415C255.929 105.89 243.272 121.069 237.481 132.237H195.771V102.652C195.771 99.6389 198.45 97.1615 201.881 96.8702C202.104 96.8511 202.33 96.8415 202.559 96.8415H283.375Z" fill="url(#paint22_linear_5_46305)"/>
</g>
<defs>
<linearGradient id="paint0_linear_5_46305" x1="149.54" y1="160.669" x2="360.48" y2="160.669" gradientUnits="userSpaceOnUse">
<stop stop-color="#999999"/>
<stop offset="0.0329" stop-color="#E6E6E6"/>
<stop offset="0.0451" stop-color="#CFCFCF"/>
<stop offset="0.0612" stop-color="#B7B7B7"/>
<stop offset="0.0784" stop-color="#A6A6A6"/>
<stop offset="0.0972" stop-color="#9C9C9C"/>
<stop offset="0.1207" stop-color="#999999"/>
<stop offset="0.8824" stop-color="#999999"/>
<stop offset="0.9036" stop-color="#9C9C9C"/>
<stop offset="0.9221" stop-color="#A7A7A7"/>
<stop offset="0.9397" stop-color="#B9B9B9"/>
<stop offset="0.9565" stop-color="#D2D2D2"/>
<stop offset="0.967" stop-color="#E6E6E6"/>
<stop offset="1" stop-color="#808080"/>
</linearGradient>
<linearGradient id="paint1_linear_5_46305" x1="149.54" y1="163.599" x2="360.48" y2="163.599" gradientUnits="userSpaceOnUse">
<stop stop-color="#999999"/>
<stop offset="0.0329" stop-color="#E6E6E6"/>
<stop offset="0.0451" stop-color="#CFCFCF"/>
<stop offset="0.0612" stop-color="#B7B7B7"/>
<stop offset="0.0784" stop-color="#A6A6A6"/>
<stop offset="0.0972" stop-color="#9C9C9C"/>
<stop offset="0.1207" stop-color="#999999"/>
<stop offset="0.8824" stop-color="#999999"/>
<stop offset="0.9036" stop-color="#9C9C9C"/>
<stop offset="0.9221" stop-color="#A7A7A7"/>
<stop offset="0.9397" stop-color="#B9B9B9"/>
<stop offset="0.9565" stop-color="#D2D2D2"/>
<stop offset="0.967" stop-color="#E6E6E6"/>
<stop offset="1" stop-color="#808080"/>
</linearGradient>
<linearGradient id="paint2_linear_5_46305" x1="195.771" y1="158.05" x2="283.375" y2="158.05" gradientUnits="userSpaceOnUse">
<stop/>
<stop offset="0.293" stop-color="#4C4C4C"/>
<stop offset="1" stop-color="white"/>
</linearGradient>
<linearGradient id="paint3_linear_5_46305" x1="149.54" y1="105.71" x2="360.48" y2="105.71" gradientUnits="userSpaceOnUse">
<stop stop-color="#999999"/>
<stop offset="0.0329" stop-color="#E6E6E6"/>
<stop offset="0.0451" stop-color="#CFCFCF"/>
<stop offset="0.0612" stop-color="#B7B7B7"/>
<stop offset="0.0784" stop-color="#A6A6A6"/>
<stop offset="0.0972" stop-color="#9C9C9C"/>
<stop offset="0.1207" stop-color="#999999"/>
<stop offset="0.8824" stop-color="#999999"/>
<stop offset="0.9036" stop-color="#9C9C9C"/>
<stop offset="0.9221" stop-color="#A7A7A7"/>
<stop offset="0.9397" stop-color="#B9B9B9"/>
<stop offset="0.9565" stop-color="#D2D2D2"/>
<stop offset="0.967" stop-color="#E6E6E6"/>
<stop offset="1" stop-color="#808080"/>
</linearGradient>
<linearGradient id="paint4_linear_5_46305" x1="149.54" y1="95.4131" x2="360.48" y2="95.4131" gradientUnits="userSpaceOnUse">
<stop stop-color="#999999"/>
<stop offset="0.0329" stop-color="#E6E6E6"/>
<stop offset="0.0451" stop-color="#CFCFCF"/>
<stop offset="0.0612" stop-color="#B7B7B7"/>
<stop offset="0.0784" stop-color="#A6A6A6"/>
<stop offset="0.0972" stop-color="#9C9C9C"/>
<stop offset="0.1207" stop-color="#999999"/>
<stop offset="0.8824" stop-color="#999999"/>
<stop offset="0.9036" stop-color="#9C9C9C"/>
<stop offset="0.9221" stop-color="#A7A7A7"/>
<stop offset="0.9397" stop-color="#B9B9B9"/>
<stop offset="0.9565" stop-color="#D2D2D2"/>
<stop offset="0.967" stop-color="#E6E6E6"/>
<stop offset="1" stop-color="#808080"/>
</linearGradient>
<linearGradient id="paint5_linear_5_46305" x1="190.909" y1="148.467" x2="319.108" y2="148.467" gradientUnits="userSpaceOnUse">
<stop stop-color="#1A1A1A"/>
<stop offset="0.0108" stop-color="#666666"/>
<stop offset="0.014" stop-color="#595959"/>
<stop offset="0.0212" stop-color="#424242"/>
<stop offset="0.0296" stop-color="#303030"/>
<stop offset="0.0396" stop-color="#232323"/>
<stop offset="0.0529" stop-color="#1C1C1C"/>
<stop offset="0.0831" stop-color="#1A1A1A"/>
<stop offset="0.9145" stop-color="#1A1A1A"/>
<stop offset="0.9331" stop-color="#1D1D1D"/>
<stop offset="0.9493" stop-color="#282828"/>
<stop offset="0.9647" stop-color="#3A3A3A"/>
<stop offset="0.9795" stop-color="#535353"/>
<stop offset="0.9882" stop-color="#666666"/>
<stop offset="1" stop-color="#1A1A1A"/>
</linearGradient>
<linearGradient id="paint6_linear_5_46305" x1="255.01" y1="125.129" x2="255.01" y2="148.467" gradientUnits="userSpaceOnUse">
<stop stop-color="#7E7C7D"/>
<stop offset="1" stop-color="white"/>
</linearGradient>
<linearGradient id="paint7_linear_5_46305" x1="149.54" y1="56.0008" x2="360.48" y2="56.0008" gradientUnits="userSpaceOnUse">
<stop stop-color="#666666"/>
<stop offset="0.0029" stop-color="#666666"/>
<stop offset="0.4445" stop-color="#909090"/>
<stop offset="0.7918" stop-color="#A9A9A9"/>
<stop offset="1" stop-color="#B3B3B3"/>
</linearGradient>
<linearGradient id="paint8_linear_5_46305" x1="149.544" y1="55.8393" x2="360.474" y2="55.8393" gradientUnits="userSpaceOnUse">
<stop stop-color="#666666"/>
<stop offset="0.0029" stop-color="#666666"/>
<stop offset="0.4445" stop-color="#909090"/>
<stop offset="0.7918" stop-color="#A9A9A9"/>
<stop offset="1" stop-color="#B3B3B3"/>
</linearGradient>
<linearGradient id="paint9_linear_5_46305" x1="151.215" y1="56.0009" x2="358.806" y2="56.0009" gradientUnits="userSpaceOnUse">
<stop stop-color="#4C4C4C"/>
<stop offset="0.2459" stop-color="#595959"/>
<stop offset="0.5806" stop-color="#636363"/>
<stop offset="1" stop-color="#666666"/>
</linearGradient>
<linearGradient id="paint10_linear_5_46305" x1="151.215" y1="56.0009" x2="358.806" y2="56.0009" gradientUnits="userSpaceOnUse">
<stop stop-color="#4C4C4C"/>
<stop offset="0.2459" stop-color="#595959"/>
<stop offset="0.5806" stop-color="#636363"/>
<stop offset="1" stop-color="#666666"/>
</linearGradient>
<linearGradient id="paint11_linear_5_46305" x1="151.215" y1="63.0857" x2="358.806" y2="63.0857" gradientUnits="userSpaceOnUse">
<stop stop-color="#1A1A1A"/>
<stop offset="0.0329" stop-color="#4D4D4D"/>
<stop offset="0.0502" stop-color="#383838"/>
<stop offset="0.0705" stop-color="#272727"/>
<stop offset="0.0928" stop-color="#1D1D1D"/>
<stop offset="0.1207" stop-color="#1A1A1A"/>
<stop offset="0.888" stop-color="#1A1A1A"/>
<stop offset="0.9117" stop-color="#1D1D1D"/>
<stop offset="0.9326" stop-color="#282828"/>
<stop offset="0.9522" stop-color="#3A3A3A"/>
<stop offset="0.967" stop-color="#4D4D4D"/>
<stop offset="1" stop-color="#1A1A1A"/>
</linearGradient>
<linearGradient id="paint12_linear_5_46305" x1="151.215" y1="53.1905" x2="358.806" y2="53.1905" gradientUnits="userSpaceOnUse">
<stop stop-color="#4C4C4C"/>
<stop offset="0.2459" stop-color="#595959"/>
<stop offset="0.5806" stop-color="#636363"/>
<stop offset="1" stop-color="#666666"/>
</linearGradient>
<radialGradient id="paint13_radial_5_46305" cx="0" cy="0" r="1" gradientUnits="userSpaceOnUse" gradientTransform="translate(255.01 48.5985) scale(127.178 24.3517)">
<stop stop-color="#5D5D5D"/>
<stop offset="0.1043" stop-color="#4D4D4D"/>
<stop offset="0.3228" stop-color="#323232"/>
<stop offset="0.5443" stop-color="#1F1F1F"/>
<stop offset="0.7686" stop-color="#131313"/>
<stop offset="1" stop-color="#0F0F0F"/>
</radialGradient>
<linearGradient id="paint14_linear_5_46305" x1="255.012" y1="73.0951" x2="255.012" y2="70.469" gradientUnits="userSpaceOnUse">
<stop stop-color="#E6E6E6"/>
<stop offset="0.969" stop-color="#6A6A6A"/>
<stop offset="1" stop-color="#666666"/>
</linearGradient>
<radialGradient id="paint15_radial_5_46305" cx="0" cy="0" r="1" gradientUnits="userSpaceOnUse" gradientTransform="translate(255.011 71.782) scale(1.32195 1.13153)">
<stop stop-color="#890000"/>
<stop offset="1" stop-color="#280000"/>
</radialGradient>
<linearGradient id="paint16_linear_5_46305" x1="248.689" y1="73.0951" x2="248.689" y2="70.469" gradientUnits="userSpaceOnUse">
<stop stop-color="#E6E6E6"/>
<stop offset="0.969" stop-color="#6A6A6A"/>
<stop offset="1" stop-color="#666666"/>
</linearGradient>
<radialGradient id="paint17_radial_5_46305" cx="0" cy="0" r="1" gradientUnits="userSpaceOnUse" gradientTransform="translate(248.69 71.782) scale(1.32195 1.13153)">
<stop stop-color="#00FF36"/>
<stop offset="0.1976" stop-color="#00FB35"/>
<stop offset="0.3782" stop-color="#00F032"/>
<stop offset="0.5521" stop-color="#00DE2E"/>
<stop offset="0.7218" stop-color="#00C428"/>
<stop offset="0.8871" stop-color="#00A220"/>
<stop offset="1" stop-color="#008719"/>
</radialGradient>
<linearGradient id="paint18_linear_5_46305" x1="261.329" y1="73.0951" x2="261.329" y2="70.469" gradientUnits="userSpaceOnUse">
<stop stop-color="#E6E6E6"/>
<stop offset="0.969" stop-color="#6A6A6A"/>
<stop offset="1" stop-color="#666666"/>
</linearGradient>
<radialGradient id="paint19_radial_5_46305" cx="0" cy="0" r="1" gradientUnits="userSpaceOnUse" gradientTransform="translate(261.33 71.782) scale(1.32195 1.13153)">
<stop stop-color="#890000"/>
<stop offset="1" stop-color="#280000"/>
</radialGradient>
<linearGradient id="paint20_linear_5_46305" x1="171.672" y1="76.5952" x2="171.672" y2="70.7219" gradientUnits="userSpaceOnUse">
<stop stop-color="#E6E6E6"/>
<stop offset="0.969" stop-color="#6A6A6A"/>
<stop offset="1" stop-color="#666666"/>
</linearGradient>
<radialGradient id="paint21_radial_5_46305" cx="0" cy="0" r="1" gradientUnits="userSpaceOnUse" gradientTransform="translate(171.673 73.6223) scale(2.95192 2.52671)">
<stop stop-color="#808080"/>
<stop offset="0.2661" stop-color="#5C5C5C"/>
<stop offset="0.5791" stop-color="#393939"/>
<stop offset="0.835" stop-color="#232323"/>
<stop offset="1" stop-color="#1B1B1B"/>
</radialGradient>
<linearGradient id="paint22_linear_5_46305" x1="195.771" y1="114.539" x2="283.375" y2="114.539" gradientUnits="userSpaceOnUse">
<stop/>
<stop offset="0.293" stop-color="#4C4C4C"/>
<stop offset="1" stop-color="white"/>
</linearGradient>
<clipPath id="clip0_5_46305">
<rect y="0.1745" width="361" height="183.175" rx="13.6953" fill="white"/>
</clipPath>
</defs>
</svg>
