<svg width="361" height="184" viewBox="0 0 361 184" fill="none" xmlns="http://www.w3.org/2000/svg">
<path d="M293.297 126.508L285.244 125.561L301.815 31.4645L306.641 32.0322L293.297 126.508Z" fill="#171717"/>
<path d="M290.521 126.181L288.021 125.887L303.469 31.6592L304.967 31.8354L290.521 126.181Z" fill="#292929"/>
<path d="M293.297 126.508L289.271 126.034L304.213 31.7468L306.641 32.0322L293.297 126.508Z" fill="#4F4F4F"/>
<path d="M289.9 126.108L288.641 125.96L303.838 31.7026L304.593 31.7914L289.9 126.108Z" fill="#424242"/>
<path d="M306.655 32.0338C306.39 33.9119 304.591 34.7253 303.779 34.6298C303.055 34.5447 301.469 33.3498 301.815 31.4646C302.469 29.3227 303.882 29.1594 304.632 29.2476C305.459 29.3449 306.843 29.9238 306.655 32.0338Z" fill="#3B3B3B"/>
<path d="M228.956 121.687H220.828L222.471 26.5248H227.342L228.956 121.687Z" fill="#171717"/>
<path d="M226.153 121.687H223.63L224.14 26.5248H225.652L226.153 121.687Z" fill="#292929"/>
<path d="M228.956 121.687H224.892V26.5248H227.342L228.956 121.687Z" fill="#4F4F4F"/>
<path d="M225.528 121.687H224.257L224.514 26.5248H225.276L225.528 121.687Z" fill="#424242"/>
<path d="M227.355 26.5248C227.388 28.4164 225.733 29.4321 224.913 29.4321C224.183 29.4321 222.424 28.433 222.471 26.5248C222.782 24.3263 224.156 24 224.913 24C225.748 24 227.21 24.4123 227.355 26.5248Z" fill="#3B3B3B"/>
<path d="M165.561 125.367L157.53 126.442L142.199 32.1899L147.013 31.5458L165.561 125.367Z" fill="#171717"/>
<path d="M162.792 125.738L160.298 126.071L143.849 31.9692L145.343 31.7692L162.792 125.738Z" fill="#292929"/>
<path d="M165.561 125.367L161.545 125.905L144.592 31.8698L147.013 31.5458L165.561 125.367Z" fill="#4F4F4F"/>
<path d="M162.173 125.82L160.917 125.989L144.217 31.9199L144.97 31.819L162.173 125.82Z" fill="#424242"/>
<path d="M147.026 31.544C147.395 33.4089 145.941 34.6313 145.13 34.7398C144.409 34.8364 142.493 34.0816 142.199 32.1899C142.115 29.9765 143.415 29.4721 144.163 29.372C144.988 29.2616 146.506 29.4759 147.026 31.544Z" fill="#3B3B3B"/>
<path d="M341.131 145.681C331.785 145.048 322.435 144.486 313.08 144.009C252.426 140.861 191.615 140.849 130.961 143.969C121.352 144.459 111.748 145.032 102.147 145.681L103.654 144.307C112.75 143.726 121.856 143.209 130.961 142.763C191.615 139.778 252.426 139.79 313.08 142.803C321.931 143.237 330.783 143.742 339.625 144.308L341.131 145.681Z" fill="#29292B"/>
<path d="M339.625 144.307C330.783 143.742 321.931 143.237 313.079 142.803C252.426 139.79 191.615 139.778 130.961 142.763C121.855 143.209 112.75 143.726 103.653 144.307L105.164 142.926C113.757 142.405 122.359 141.943 130.961 141.541C191.615 138.696 252.426 138.707 313.079 141.581C321.427 141.971 329.776 142.421 338.114 142.926L339.625 144.307Z" fill="#38393B"/>
<path d="M338.113 142.925C329.779 142.419 321.427 141.974 313.075 141.575C252.422 138.706 191.608 138.69 130.955 141.544C122.354 141.943 113.752 142.403 105.169 142.925L111.188 137.433H111.224C111.473 137.417 111.74 137.402 111.99 137.387L112.987 136.466L112.969 135.806V135.791L118.418 130.836H118.436C118.685 130.821 118.952 130.805 119.202 130.79L120.199 129.869V129.194L125.506 124.362H125.523C125.791 124.347 126.04 124.331 126.307 124.316L127.286 123.41L127.269 122.751V122.736L130.955 119.391C158.753 117.52 186.177 116.415 213.191 116.154C215.097 116.139 217.02 116.123 218.943 116.123C220.884 116.108 222.825 116.108 224.766 116.108C226.654 116.108 228.524 116.108 230.394 116.123C258.156 116.246 285.473 117.305 312.31 119.391L315.907 122.659L315.889 123.318L316.869 124.224C317.136 124.239 317.385 124.254 317.652 124.27L323.226 129.348L323.208 129.992L324.223 130.928C324.473 130.943 324.74 130.959 324.989 130.974H325.007L330.331 135.822L330.349 135.837L330.331 136.481L331.328 137.402C331.578 137.417 331.845 137.433 332.094 137.448H332.112L338.113 142.925Z" fill="#424345"/>
<path d="M341.131 145.68H102.147C111.748 145.032 121.352 144.459 130.961 143.969C191.615 140.849 252.426 140.861 313.08 144.009C322.435 144.487 331.785 145.048 341.131 145.68Z" fill="#404143"/>
<path d="M312.036 166H130.962L124.747 156.387H318.25L312.036 166Z" fill="black"/>
<path d="M341.131 145.681V155.26C261.592 160.653 181.687 160.653 102.147 155.26V145.681C111.748 145.032 121.352 144.459 130.961 143.969V150.182C191.213 151.487 251.927 151.471 313.08 150.182V144.009C322.435 144.487 331.785 145.048 341.131 145.681Z" fill="#1D1E21"/>
<path d="M313.079 144.009V150.182C251.927 151.471 191.213 151.487 130.961 150.182V143.969C191.615 140.849 252.425 140.861 313.079 144.009Z" fill="black"/>
<path d="M308.923 148.107C309.399 147.697 309.399 147.033 308.923 146.623C308.447 146.213 307.676 146.213 307.2 146.623C306.725 147.033 306.725 147.697 307.2 148.107C307.676 148.517 308.447 148.517 308.923 148.107Z" fill="#990900"/>
<path d="M308.064 148.271C308.645 148.271 309.116 147.865 309.116 147.365C309.116 146.864 308.645 146.459 308.064 146.459C307.483 146.459 307.012 146.864 307.012 147.365C307.012 147.865 307.483 148.271 308.064 148.271Z" fill="#B30B00"/>
<path d="M308.064 148.14C308.561 148.14 308.964 147.793 308.964 147.365C308.964 146.937 308.561 146.59 308.064 146.59C307.567 146.59 307.164 146.937 307.164 147.365C307.164 147.793 307.567 148.14 308.064 148.14Z" fill="#CC0C00"/>
<path d="M308.064 148.006C308.475 148.006 308.808 147.719 308.808 147.365C308.808 147.011 308.475 146.724 308.064 146.724C307.653 146.724 307.32 147.011 307.32 147.365C307.32 147.719 307.653 148.006 308.064 148.006Z" fill="#E60E00"/>
<path d="M308.064 147.829C308.361 147.829 308.603 147.621 308.603 147.365C308.603 147.108 308.361 146.9 308.064 146.9C307.766 146.9 307.524 147.108 307.524 147.365C307.524 147.621 307.766 147.829 308.064 147.829Z" fill="#FF0F00"/>
<path d="M124.146 149.518C123.956 149.683 123.645 149.664 123.477 149.482C122.685 148.625 121.464 148.13 120.094 148.13C118.719 148.13 117.495 148.624 116.705 149.484C116.537 149.666 116.226 149.686 116.036 149.521C115.873 149.38 115.865 149.157 116.009 149.002C116.966 147.969 118.44 147.365 120.094 147.365C121.743 147.365 123.212 147.969 124.172 148.998C124.317 149.153 124.309 149.377 124.146 149.518Z" fill="#919191"/>
<path d="M123.027 150.548C122.855 150.697 122.575 150.665 122.439 150.49C121.94 149.849 121.09 149.426 120.127 149.426C119.157 149.426 118.306 149.852 117.809 150.495C117.674 150.67 117.393 150.703 117.221 150.554L117.218 150.551C117.096 150.446 117.067 150.278 117.162 150.154C117.795 149.322 118.889 148.775 120.127 148.775C121.364 148.775 122.45 149.321 123.082 150.15C123.178 150.275 123.149 150.442 123.027 150.548Z" fill="#919191"/>
<path d="M121.932 151.486C121.747 151.631 121.46 151.567 121.36 151.37C121.139 150.932 120.703 150.637 120.126 150.637C119.544 150.637 119.108 150.933 118.887 151.373C118.788 151.57 118.503 151.634 118.317 151.49C118.202 151.4 118.17 151.257 118.23 151.133C118.541 150.498 119.272 150.051 120.126 150.051C120.976 150.051 121.707 150.495 122.018 151.129C122.079 151.253 122.047 151.396 121.932 151.486Z" fill="#919191"/>
<path d="M120.872 151.912C120.872 152.269 120.536 152.558 120.126 152.558C119.711 152.558 119.376 152.269 119.376 151.912C119.376 151.559 119.711 151.27 120.126 151.27C120.536 151.27 120.872 151.559 120.872 151.912Z" fill="#919191"/>
<path d="M187.284 146.105C187.444 145.522 187.026 144.938 186.349 144.8C185.672 144.661 184.994 145.022 184.833 145.605C184.673 146.188 185.092 146.772 185.768 146.911C186.445 147.049 187.123 146.688 187.284 146.105Z" fill="#44991E"/>
<path d="M186.063 146.787C186.664 146.787 187.151 146.367 187.151 145.85C187.151 145.332 186.664 144.913 186.063 144.913C185.463 144.913 184.976 145.332 184.976 145.85C184.976 146.367 185.463 146.787 186.063 146.787Z" fill="#50B323"/>
<path d="M186.993 145.85C186.993 146.293 186.577 146.651 186.063 146.651C185.549 146.651 185.133 146.293 185.133 145.85C185.133 145.407 185.549 145.049 186.063 145.049C186.577 145.049 186.993 145.407 186.993 145.85Z" fill="#5CCC28"/>
<path d="M186.832 145.85C186.832 146.216 186.488 146.512 186.063 146.512C185.638 146.512 185.294 146.216 185.294 145.85C185.294 145.484 185.638 145.188 186.063 145.188C186.488 145.188 186.832 145.484 186.832 145.85Z" fill="#69E82E"/>
<path d="M186.621 145.85C186.621 146.115 186.371 146.33 186.063 146.33C185.755 146.33 185.506 146.115 185.506 145.85C185.506 145.585 185.755 145.37 186.063 145.37C186.371 145.37 186.621 145.585 186.621 145.85Z" fill="#72FF33"/>
<path d="M197.44 146.033C197.552 145.441 197.086 144.884 196.399 144.788C195.713 144.691 195.066 145.093 194.954 145.684C194.843 146.275 195.308 146.833 195.995 146.929C196.681 147.025 197.328 146.624 197.44 146.033Z" fill="#44991E"/>
<path d="M196.193 146.787C196.794 146.787 197.281 146.367 197.281 145.85C197.281 145.332 196.794 144.913 196.193 144.913C195.592 144.913 195.105 145.332 195.105 145.85C195.105 146.367 195.592 146.787 196.193 146.787Z" fill="#50B323"/>
<path d="M197.123 145.85C197.123 146.293 196.707 146.651 196.193 146.651C195.679 146.651 195.263 146.293 195.263 145.85C195.263 145.407 195.679 145.049 196.193 145.049C196.707 145.049 197.123 145.407 197.123 145.85Z" fill="#5CCC28"/>
<path d="M196.963 145.85C196.963 146.216 196.618 146.512 196.194 146.512C195.769 146.512 195.425 146.216 195.425 145.85C195.425 145.484 195.769 145.187 196.194 145.187C196.618 145.187 196.963 145.484 196.963 145.85Z" fill="#69E82E"/>
<path d="M196.75 145.85C196.75 146.115 196.501 146.33 196.193 146.33C195.885 146.33 195.636 146.115 195.636 145.85C195.636 145.585 195.885 145.37 196.193 145.37C196.501 145.37 196.75 145.585 196.75 145.85Z" fill="#72FF33"/>
<path d="M207.212 146.617C207.704 146.193 207.704 145.506 207.212 145.082C206.72 144.659 205.923 144.659 205.431 145.082C204.94 145.506 204.94 146.193 205.431 146.617C205.923 147.04 206.72 147.04 207.212 146.617Z" fill="#44991E"/>
<path d="M206.323 146.787C206.924 146.787 207.411 146.367 207.411 145.85C207.411 145.332 206.924 144.913 206.323 144.913C205.722 144.913 205.235 145.332 205.235 145.85C205.235 146.367 205.722 146.787 206.323 146.787Z" fill="#50B323"/>
<path d="M207.254 145.85C207.254 146.293 206.838 146.651 206.324 146.651C205.81 146.651 205.394 146.293 205.394 145.85C205.394 145.407 205.81 145.049 206.324 145.049C206.838 145.049 207.254 145.407 207.254 145.85Z" fill="#5CCC28"/>
<path d="M207.092 145.85C207.092 146.216 206.747 146.512 206.323 146.512C205.898 146.512 205.554 146.216 205.554 145.85C205.554 145.484 205.898 145.188 206.323 145.188C206.747 145.188 207.092 145.484 207.092 145.85Z" fill="#69E82E"/>
<path d="M206.881 145.85C206.881 146.115 206.632 146.33 206.324 146.33C206.016 146.33 205.767 146.115 205.767 145.85C205.767 145.585 206.016 145.37 206.324 145.37C206.632 145.37 206.881 145.585 206.881 145.85Z" fill="#72FF33"/>
<path d="M217.675 146.106C217.836 145.523 217.417 144.938 216.741 144.8C216.064 144.662 215.386 145.022 215.225 145.605C215.065 146.188 215.483 146.773 216.16 146.911C216.836 147.049 217.515 146.689 217.675 146.106Z" fill="#44991E"/>
<path d="M216.454 146.787C217.055 146.787 217.541 146.367 217.541 145.85C217.541 145.332 217.055 144.913 216.454 144.913C215.853 144.913 215.366 145.332 215.366 145.85C215.366 146.367 215.853 146.787 216.454 146.787Z" fill="#50B323"/>
<path d="M217.384 145.85C217.384 146.293 216.967 146.651 216.454 146.651C215.94 146.651 215.523 146.293 215.523 145.85C215.523 145.407 215.94 145.049 216.454 145.049C216.967 145.049 217.384 145.407 217.384 145.85Z" fill="#5CCC28"/>
<path d="M217.222 145.85C217.222 146.216 216.878 146.512 216.454 146.512C216.029 146.512 215.685 146.216 215.685 145.85C215.685 145.484 216.029 145.188 216.454 145.188C216.878 145.188 217.222 145.484 217.222 145.85Z" fill="#69E82E"/>
<path d="M217.011 145.85C217.011 146.115 216.762 146.33 216.454 146.33C216.146 146.33 215.896 146.115 215.896 145.85C215.896 145.585 216.146 145.37 216.454 145.37C216.762 145.37 217.011 145.585 217.011 145.85Z" fill="#72FF33"/>
<path d="M227.472 146.617C227.964 146.193 227.964 145.506 227.472 145.083C226.98 144.659 226.183 144.659 225.691 145.083C225.199 145.506 225.199 146.193 225.691 146.617C226.183 147.04 226.98 147.04 227.472 146.617Z" fill="#44991E"/>
<path d="M226.584 146.787C227.184 146.787 227.671 146.367 227.671 145.85C227.671 145.332 227.184 144.913 226.584 144.913C225.983 144.913 225.496 145.332 225.496 145.85C225.496 146.367 225.983 146.787 226.584 146.787Z" fill="#50B323"/>
<path d="M227.514 145.85C227.514 146.293 227.097 146.651 226.584 146.651C226.07 146.651 225.653 146.293 225.653 145.85C225.653 145.407 226.07 145.049 226.584 145.049C227.097 145.049 227.514 145.407 227.514 145.85Z" fill="#5CCC28"/>
<path d="M227.352 145.85C227.352 146.216 227.008 146.512 226.583 146.512C226.159 146.512 225.814 146.216 225.814 145.85C225.814 145.484 226.159 145.187 226.583 145.187C227.008 145.188 227.352 145.484 227.352 145.85Z" fill="#69E82E"/>
<path d="M227.141 145.85C227.141 146.115 226.892 146.33 226.584 146.33C226.276 146.33 226.026 146.115 226.026 145.85C226.026 145.585 226.276 145.37 226.584 145.37C226.892 145.37 227.141 145.585 227.141 145.85Z" fill="#72FF33"/>
<path d="M237.939 146.113C238.098 145.53 237.679 144.946 237.002 144.808C236.326 144.67 235.647 145.031 235.488 145.614C235.328 146.197 235.747 146.782 236.424 146.919C237.1 147.057 237.779 146.696 237.939 146.113Z" fill="#44991E"/>
<path d="M236.715 146.787C237.315 146.787 237.802 146.367 237.802 145.85C237.802 145.332 237.315 144.913 236.715 144.913C236.114 144.913 235.627 145.332 235.627 145.85C235.627 146.367 236.114 146.787 236.715 146.787Z" fill="#50B323"/>
<path d="M237.645 145.85C237.645 146.293 237.228 146.651 236.714 146.651C236.201 146.651 235.784 146.293 235.784 145.85C235.784 145.407 236.201 145.049 236.714 145.049C237.228 145.049 237.645 145.407 237.645 145.85Z" fill="#5CCC28"/>
<path d="M237.483 145.85C237.483 146.216 237.139 146.512 236.714 146.512C236.29 146.512 235.945 146.216 235.945 145.85C235.945 145.484 236.29 145.187 236.714 145.187C237.139 145.187 237.483 145.484 237.483 145.85Z" fill="#69E82E"/>
<path d="M237.272 145.85C237.272 146.115 237.022 146.33 236.715 146.33C236.407 146.33 236.157 146.115 236.157 145.85C236.157 145.585 236.407 145.37 236.715 145.37C237.023 145.37 237.272 145.585 237.272 145.85Z" fill="#72FF33"/>
<path d="M248.095 146.025C248.206 145.433 247.74 144.876 247.054 144.78C246.367 144.684 245.72 145.086 245.609 145.677C245.498 146.269 245.964 146.826 246.65 146.922C247.337 147.018 247.983 146.616 248.095 146.025Z" fill="#44991E"/>
<path d="M246.846 146.787C247.447 146.787 247.934 146.367 247.934 145.85C247.934 145.332 247.447 144.913 246.846 144.913C246.246 144.913 245.759 145.332 245.759 145.85C245.759 146.367 246.246 146.787 246.846 146.787Z" fill="#50B323"/>
<path d="M247.777 145.85C247.777 146.293 247.361 146.651 246.847 146.651C246.333 146.651 245.917 146.293 245.917 145.85C245.917 145.407 246.333 145.049 246.847 145.049C247.361 145.049 247.777 145.407 247.777 145.85Z" fill="#5CCC28"/>
<path d="M247.615 145.85C247.615 146.216 247.271 146.512 246.846 146.512C246.421 146.512 246.077 146.216 246.077 145.85C246.077 145.484 246.421 145.188 246.846 145.188C247.271 145.188 247.615 145.484 247.615 145.85Z" fill="#69E82E"/>
<path d="M247.405 145.85C247.405 146.115 247.155 146.33 246.847 146.33C246.54 146.33 246.29 146.115 246.29 145.85C246.29 145.585 246.54 145.37 246.847 145.37C247.155 145.37 247.405 145.585 247.405 145.85Z" fill="#72FF33"/>
<path d="M257.864 146.617C258.355 146.193 258.355 145.506 257.864 145.083C257.372 144.659 256.574 144.659 256.083 145.083C255.591 145.506 255.591 146.193 256.083 146.617C256.574 147.041 257.372 147.041 257.864 146.617Z" fill="#44991E"/>
<path d="M256.976 146.787C257.577 146.787 258.064 146.367 258.064 145.85C258.064 145.332 257.577 144.913 256.976 144.913C256.376 144.913 255.889 145.332 255.889 145.85C255.889 146.367 256.376 146.787 256.976 146.787Z" fill="#50B323"/>
<path d="M257.905 145.85C257.905 146.293 257.489 146.651 256.975 146.651C256.461 146.651 256.045 146.293 256.045 145.85C256.045 145.407 256.461 145.049 256.975 145.049C257.489 145.049 257.905 145.407 257.905 145.85Z" fill="#5CCC28"/>
<path d="M257.745 145.85C257.745 146.216 257.401 146.512 256.976 146.512C256.551 146.512 256.207 146.216 256.207 145.85C256.207 145.484 256.551 145.187 256.976 145.187C257.401 145.187 257.745 145.484 257.745 145.85Z" fill="#69E82E"/>
<path d="M257.533 145.85C257.533 146.115 257.283 146.33 256.975 146.33C256.667 146.33 256.418 146.115 256.418 145.85C256.418 145.585 256.668 145.37 256.975 145.37C257.283 145.37 257.533 145.585 257.533 145.85Z" fill="#72FF33"/>
<path d="M316.868 124.224C253.436 120.526 189.738 120.557 126.307 124.316L127.286 123.41L127.268 122.751C190.076 119.069 253.098 119.038 315.907 122.659L315.889 123.318L316.868 124.224Z" fill="#1D1E21"/>
<path d="M330.331 136.481L331.328 137.402C258.334 132.508 184.966 132.508 111.989 137.387L112.987 136.466L112.969 135.806C185.322 131.005 257.978 131.02 330.331 135.822L330.349 135.837L330.331 136.481Z" fill="#1D1E21"/>
<path d="M323.208 129.992L324.222 130.928C256.001 126.556 187.441 126.51 119.201 130.79L120.198 129.869V129.21C187.797 125.021 255.645 125.067 323.225 129.348L323.208 129.992Z" fill="#1D1E21"/>
<path d="M72.2996 92.4692C71.2139 95.3305 73.0216 98.6155 76.3367 99.8053C79.6523 100.993 83.2206 99.6374 84.3077 96.7768C85.3935 93.9148 83.5857 90.6299 80.2706 89.4407C76.955 88.2516 73.3867 89.6074 72.2996 92.4692Z" fill="#26B551"/>
<path d="M69.8407 78.835C65.1237 80.6364 61.6168 84.0306 59.973 88.3909C59.3264 90.1021 60.4011 92.0649 62.3731 92.7748C64.3451 93.4862 66.4655 92.6764 67.1122 90.9649C68.1313 88.2596 70.3069 86.1536 73.2353 85.0352C76.164 83.9168 79.4941 83.9202 82.6108 85.0461C83.5976 85.4015 84.6228 85.3755 85.478 85.0489C86.3376 84.7206 87.0271 84.0918 87.3499 83.2363C87.9969 81.5259 86.9224 79.5633 84.9497 78.8524C79.9256 77.0386 74.5577 77.0336 69.8407 78.835Z" fill="#26B551"/>
<path d="M64.6145 69.0223C56.9297 71.9639 51.2209 77.5042 48.5399 84.6226C47.8929 86.3414 48.9701 88.3136 50.9461 89.0275C52.9234 89.7415 55.0507 88.9272 55.6967 87.2091C57.7505 81.753 62.1275 77.5066 68.0174 75.252C73.9045 72.9986 80.6051 73.0048 86.879 75.2733C87.8666 75.631 88.895 75.6049 89.7517 75.277C90.6135 74.9471 91.3053 74.3148 91.6291 73.4551C92.2763 71.7371 91.1991 69.7649 89.223 69.0501C81.0374 66.0911 72.2996 66.0806 64.6145 69.0223Z" fill="#26B551"/>
<path d="M93.5148 59.2293C82.1613 55.1187 70.0397 55.1054 59.3798 59.1912C48.7198 63.277 40.8026 70.971 37.085 80.8582C36.4369 82.5815 37.5156 84.5589 39.494 85.2742C40.4847 85.6321 41.5113 85.6068 42.3716 85.2771C43.2319 84.9473 43.9286 84.3121 44.25 83.4513C47.341 75.2311 53.9251 68.8335 62.7866 65.437C71.648 62.0405 81.7258 62.0518 91.1655 65.4692C93.1439 66.1858 95.2712 65.3692 95.9221 63.6473C96.5697 61.9242 95.491 59.9468 93.5148 59.2293Z" fill="#26B551"/>
</svg>
