<svg width="58" height="58" viewBox="0 0 58 58" fill="none" xmlns="http://www.w3.org/2000/svg">
<g clip-path="url(#clip0_28_20230)">
<rect x="-0.199219" width="58" height="58" fill="white"/>
<g clip-path="url(#clip1_28_20230)">
<path d="M49.7847 20.2344H45.3429V4.98295C45.3429 4.45172 44.9126 4.02155 44.3814 4.02155H13.1602C12.629 4.02155 12.1988 4.4519 12.1988 4.98295V20.2344H7.75542C6.1617 20.2344 3.79199 21.2902 3.79199 24.1962V38.6071C3.79199 40.2006 4.84943 42.5721 7.75542 42.5721H10.3967V53.0177C10.3967 53.549 10.827 53.9793 11.3583 53.9793H46.1822C46.7135 53.9793 47.1438 53.549 47.1438 53.0177V42.5721H49.7851C51.3786 42.5705 53.7501 41.5147 53.7501 38.6071V24.1962C53.7482 22.6043 52.6923 20.2344 49.7847 20.2344ZM14.1202 5.94292H43.42V20.2346H14.1202V5.94292ZM45.2205 52.0565H12.3197V41.6109V40.4092V37.7679H45.2205V39.8085V41.6107V52.0565ZM51.827 38.6071C51.827 40.4703 50.2631 40.6424 49.7797 40.6491H47.1437V39.8084V36.8063C47.1437 36.2753 46.7133 35.8449 46.1821 35.8449H11.3581C10.8269 35.8449 10.3965 36.2753 10.3965 36.8063V40.409V40.6491H7.75542C5.88871 40.6491 5.71984 39.0802 5.71337 38.6071V24.1962C5.71337 22.3311 7.28227 22.1622 7.75542 22.1541H49.7847C51.6514 22.1541 51.8201 23.723 51.8268 24.1962L51.827 38.6071Z" fill="#095EF1"/>
<path d="M12.2578 31.4017C11.4303 31.4017 10.7568 32.0734 10.7568 32.9027C10.7568 33.7319 11.4303 34.4037 12.2578 34.4037C13.0868 34.4037 13.7589 33.7319 13.7589 32.9027C13.7589 32.0734 13.0868 31.4017 12.2578 31.4017Z" fill="#095EF1"/>
<path d="M46.4831 25.9985C46.9813 25.9985 47.3834 25.5964 47.3834 25.0982C47.3834 24.6001 46.9813 24.1964 46.4831 24.1964C45.9848 24.1964 45.5811 24.6001 45.5811 25.0982C45.5811 25.5964 45.9848 25.9985 46.4831 25.9985Z" fill="#095EF1"/>
<path d="M43.481 25.9985C43.9793 25.9985 44.3812 25.5964 44.3812 25.0982C44.3812 24.6001 43.9793 24.1964 43.481 24.1964C42.9828 24.1964 42.5791 24.6001 42.5791 25.0982C42.5791 25.5964 42.983 25.9985 43.481 25.9985Z" fill="#095EF1"/>
<path d="M40.4792 25.9985C40.9774 25.9985 41.3795 25.5964 41.3795 25.0982C41.3795 24.6001 40.9774 24.1964 40.4792 24.1964C39.9811 24.1964 39.5771 24.6001 39.5771 25.0982C39.5771 25.5964 39.9811 25.9985 40.4792 25.9985Z" fill="#095EF1"/>
<path d="M46.7829 28.039H10.7576C10.228 28.039 9.79785 28.4693 9.79785 29.0005C9.79785 29.5318 10.2282 29.9621 10.7576 29.9621H46.7829C47.3142 29.9621 47.7445 29.5318 47.7445 29.0005C47.7445 28.4693 47.3142 28.039 46.7829 28.039Z" fill="#095EF1"/>
<path d="M41.9782 39.4478H15.5594C15.0298 39.4478 14.5996 39.8781 14.5996 40.4092C14.5996 40.9404 15.03 41.3708 15.5594 41.3708H41.978C42.5092 41.3708 42.9396 40.9404 42.9396 40.4092C42.9396 39.8781 42.5094 39.4478 41.9782 39.4478Z" fill="#095EF1"/>
<path d="M41.9782 43.6511H15.5594C15.0298 43.6511 14.5996 44.0815 14.5996 44.6127C14.5996 45.144 15.03 45.5743 15.5594 45.5743H41.978C42.5092 45.5743 42.9396 45.144 42.9396 44.6127C42.9396 44.0815 42.5094 43.6511 41.9782 43.6511Z" fill="#095EF1"/>
<path d="M41.9782 47.8545H15.5594C15.0298 47.8545 14.5996 48.2848 14.5996 48.8161C14.5996 49.3473 15.03 49.7776 15.5594 49.7776H41.978C42.5092 49.7776 42.9396 49.3473 42.9396 48.8161C42.9396 48.2848 42.5094 47.8545 41.9782 47.8545Z" fill="#095EF1"/>
</g>
</g>
<defs>
<clipPath id="clip0_28_20230">
<rect x="-0.199219" width="58" height="58" fill="white"/>
</clipPath>
<clipPath id="clip1_28_20230">
<rect width="50.9766" height="50.9766" fill="white" transform="translate(3.28223 3.51172)"/>
</clipPath>
</defs>
</svg>
