<svg width="44" height="44" viewBox="0 0 44 44" fill="none" xmlns="http://www.w3.org/2000/svg">
<rect width="44" height="44" rx="12" fill="#095EF1"/>
<path d="M10.421 19.3947C9.9463 19.3947 9.55261 19.001 9.55261 18.5263V15.6316C9.55261 12.2737 12.2852 9.55261 15.6316 9.55261H18.5263C19.001 9.55261 19.3947 9.9463 19.3947 10.421C19.3947 10.8958 19.001 11.2895 18.5263 11.2895H15.6316C13.2347 11.2895 11.2895 13.2347 11.2895 15.6316V18.5263C11.2895 19.001 10.8958 19.3947 10.421 19.3947Z" fill="#F2F6F8"/>
<path d="M33.5789 19.3947C33.1042 19.3947 32.7105 19.001 32.7105 18.5263V15.6316C32.7105 13.2347 30.7653 11.2895 28.3684 11.2895H25.4737C24.9989 11.2895 24.6053 10.8958 24.6053 10.421C24.6053 9.9463 24.9989 9.55261 25.4737 9.55261H28.3684C31.7147 9.55261 34.4474 12.2737 34.4474 15.6316V18.5263C34.4474 19.001 34.0537 19.3947 33.5789 19.3947Z" fill="#F2F6F8"/>
<path d="M28.3684 34.4474H26.6316C26.1568 34.4474 25.7632 34.0537 25.7632 33.5789C25.7632 33.1042 26.1568 32.7105 26.6316 32.7105H28.3684C30.7653 32.7105 32.7105 30.7653 32.7105 28.3684V26.6316C32.7105 26.1568 33.1042 25.7632 33.5789 25.7632C34.0537 25.7632 34.4474 26.1568 34.4474 26.6316V28.3684C34.4474 31.7263 31.7147 34.4474 28.3684 34.4474Z" fill="#F2F6F8"/>
<path d="M18.5263 34.4474H15.6316C12.2852 34.4474 9.55261 31.7263 9.55261 28.3684V25.4737C9.55261 24.9989 9.9463 24.6053 10.421 24.6053C10.8958 24.6053 11.2895 24.9989 11.2895 25.4737V28.3684C11.2895 30.7653 13.2347 32.7105 15.6316 32.7105H18.5263C19.001 32.7105 19.3947 33.1042 19.3947 33.5789C19.3947 34.0537 19.001 34.4474 18.5263 34.4474Z" fill="#F2F6F8"/>
<path d="M24.3158 29.2368H19.6842C16.8821 29.2368 15.3421 27.6968 15.3421 24.8947V19.1053C15.3421 16.3032 16.8821 14.7632 19.6842 14.7632H24.3158C27.1179 14.7632 28.6579 16.3032 28.6579 19.1053V24.8947C28.6579 27.6968 27.1179 29.2368 24.3158 29.2368ZM19.6842 16.5C17.8547 16.5 17.0789 17.2758 17.0789 19.1053V24.8947C17.0789 26.7242 17.8547 27.5 19.6842 27.5H24.3158C26.1453 27.5 26.921 26.7242 26.921 24.8947V19.1053C26.921 17.2758 26.1453 16.5 24.3158 16.5H19.6842Z" fill="#F2F6F8"/>
<path d="M30.1053 22.8684H13.8947C13.42 22.8684 13.0263 22.4747 13.0263 22C13.0263 21.5252 13.42 21.1316 13.8947 21.1316H30.1053C30.58 21.1316 30.9737 21.5252 30.9737 22C30.9737 22.4747 30.58 22.8684 30.1053 22.8684Z" fill="#F2F6F8"/>
</svg>
