<svg width="45" height="44" viewBox="0 0 45 44" fill="none" xmlns="http://www.w3.org/2000/svg">
<rect x="0.5" width="44" height="44" rx="11.5789" fill="#56CAFB"/>
<path d="M28.2895 34.4473H16.7106C11.6043 34.4473 10.0527 32.8958 10.0527 27.7895V16.2105C10.0527 11.1042 11.6043 9.55261 16.7106 9.55261H18.4474C20.4737 9.55261 21.1106 10.2126 21.9211 11.2895L23.6579 13.6052C24.04 14.1147 24.0979 14.1842 24.8158 14.1842H28.2895C33.3958 14.1842 34.9474 15.7358 34.9474 20.8421V27.7895C34.9474 32.8958 33.3958 34.4473 28.2895 34.4473ZM16.7106 11.2895C12.5769 11.2895 11.7895 12.0768 11.7895 16.2105V27.7895C11.7895 31.9231 12.5769 32.7105 16.7106 32.7105H28.2895C32.4232 32.7105 33.2106 31.9231 33.2106 27.7895V20.8421C33.2106 16.7084 32.4232 15.921 28.2895 15.921H24.8158C23.3337 15.921 22.8474 15.4116 22.2685 14.6473L20.5316 12.3316C19.9295 11.5326 19.7558 11.2895 18.4474 11.2895H16.7106Z" fill="#F2F6F8"/>
</svg>
