<svg width="44" height="44" viewBox="0 0 44 44" fill="none" xmlns="http://www.w3.org/2000/svg">
<rect width="44" height="44" rx="11.5789" fill="#26B551"/>
<path d="M25.4737 34.4473H18.5263C12.2389 34.4473 9.55261 31.761 9.55261 25.4737V18.5263C9.55261 12.2389 12.2389 9.55261 18.5263 9.55261H25.4737C31.761 9.55261 34.4473 12.2389 34.4473 18.5263V25.4737C34.4473 31.761 31.761 34.4473 25.4737 34.4473ZM18.5263 11.2895C13.1884 11.2895 11.2895 13.1884 11.2895 18.5263V25.4737C11.2895 30.8116 13.1884 32.7105 18.5263 32.7105H25.4737C30.8116 32.7105 32.7105 30.8116 32.7105 25.4737V18.5263C32.7105 13.1884 30.8116 11.2895 25.4737 11.2895H18.5263Z" fill="#F2F6F8"/>
<path d="M18.5263 20.5526C16.7663 20.5526 15.3421 19.1284 15.3421 17.3684C15.3421 15.6084 16.7663 14.1842 18.5263 14.1842C20.2863 14.1842 21.7105 15.6084 21.7105 17.3684C21.7105 19.1284 20.2863 20.5526 18.5263 20.5526ZM18.5263 15.921C17.7274 15.921 17.0789 16.5695 17.0789 17.3684C17.0789 18.1674 17.7274 18.8158 18.5263 18.8158C19.3253 18.8158 19.9737 18.1674 19.9737 17.3684C19.9737 16.5695 19.3253 15.921 18.5263 15.921Z" fill="#F2F6F8"/>
<path d="M11.1969 30.9159C10.919 30.9159 10.6411 30.7769 10.479 30.5338C10.2126 30.1401 10.3169 29.5959 10.7221 29.3295L16.4305 25.4969C17.6811 24.6516 19.4063 24.7559 20.5411 25.7169L20.9232 26.0527C21.5021 26.5506 22.4863 26.5506 23.0537 26.0527L27.8705 21.919C29.0979 20.8653 31.0316 20.8653 32.2705 21.919L34.1579 23.5401C34.5169 23.8527 34.5632 24.3969 34.2505 24.7674C33.9379 25.1264 33.3937 25.1727 33.0232 24.8601L31.1358 23.239C30.5569 22.7411 29.5726 22.7411 28.9937 23.239L24.1769 27.3727C22.9495 28.4264 21.0158 28.4264 19.7769 27.3727L19.3948 27.0369C18.8621 26.5853 17.9821 26.539 17.3916 26.9443L11.6832 30.7769C11.5326 30.8695 11.359 30.9159 11.1969 30.9159Z" fill="#F2F6F8"/>
</svg>
