<svg width="45" height="44" viewBox="0 0 45 44" fill="none" xmlns="http://www.w3.org/2000/svg">
<rect x="0.5" width="44" height="44" rx="11.5789" fill="#F5304E"/>
<path d="M28.2895 32.7105H16.7106C12.4843 32.7105 10.0527 30.2789 10.0527 26.0526V17.9474C10.0527 13.721 12.4843 11.2895 16.7106 11.2895H28.2895C32.5158 11.2895 34.9474 13.721 34.9474 17.9474V26.0526C34.9474 30.2789 32.5158 32.7105 28.2895 32.7105ZM16.7106 13.0263C13.399 13.0263 11.7895 14.6358 11.7895 17.9474V26.0526C11.7895 29.3642 13.399 30.9737 16.7106 30.9737H28.2895C31.6011 30.9737 33.2106 29.3642 33.2106 26.0526V17.9474C33.2106 14.6358 31.6011 13.0263 28.2895 13.0263H16.7106Z" fill="#F2F6F8"/>
<path d="M22.4998 23.0073C21.5271 23.0073 20.5429 22.7063 19.7903 22.0926L16.1661 19.1978C15.7956 18.8968 15.7261 18.3526 16.0271 17.9821C16.3282 17.6115 16.8724 17.5421 17.2429 17.8431L20.8671 20.7378C21.7471 21.4442 23.2408 21.4442 24.1208 20.7378L27.745 17.8431C28.1156 17.5421 28.6714 17.5999 28.9608 17.9821C29.2619 18.3526 29.204 18.9084 28.8219 19.1978L25.1977 22.0926C24.4566 22.7063 23.4724 23.0073 22.4998 23.0073Z" fill="#F2F6F8"/>
</svg>
