<svg width="44" height="44" viewBox="0 0 44 44" fill="none" xmlns="http://www.w3.org/2000/svg">
<rect width="44" height="44" rx="11.5789" fill="#595BCD"/>
<path d="M27.0715 34.4474H11.8567C10.7567 34.4474 9.73781 33.9379 9.07781 33.0463C8.40623 32.1432 8.2094 31.0084 8.54519 29.9315L13.4199 14.2652C13.8599 12.8062 15.2031 11.8105 16.7315 11.8105H30.9736C32.3747 11.8105 33.6368 12.6442 34.1694 13.9411C34.4589 14.6127 34.5168 15.3769 34.3431 16.1295L30.441 31.7957C30.0705 33.3589 28.681 34.4474 27.0715 34.4474ZM16.7431 13.5589C15.9904 13.5589 15.3073 14.0569 15.0873 14.7863L10.2126 30.4527C10.0505 30.9969 10.1431 31.5642 10.4904 32.0274C10.8147 32.4674 11.3241 32.7221 11.8683 32.7221H27.0831C27.882 32.7221 28.5768 32.1779 28.762 31.4021L32.6641 15.7241C32.7567 15.342 32.7336 14.96 32.5831 14.6242C32.3052 13.9642 31.6915 13.5473 30.9852 13.5473H16.7431V13.5589Z" fill="#F2F6F8"/>
<path d="M32.1663 34.4473H26.6316C26.1568 34.4473 25.7632 34.0536 25.7632 33.5789C25.7632 33.1042 26.1568 32.7105 26.6316 32.7105H32.1663C32.641 32.7105 33.0811 32.5137 33.4053 32.1663C33.7295 31.8189 33.8916 31.3558 33.8568 30.8811L32.7105 15.1105C32.6758 14.6358 33.0347 14.2189 33.5095 14.1842C33.9842 14.161 34.401 14.5083 34.4358 14.983L35.5821 30.7537C35.6516 31.7032 35.3158 32.6526 34.6674 33.3474C34.0305 34.0537 33.1158 34.4473 32.1663 34.4473Z" fill="#F2F6F8"/>
<path d="M19.3134 16.361C19.2439 16.361 19.1745 16.3494 19.105 16.3378C18.6418 16.222 18.3524 15.7588 18.4682 15.2841L19.6723 10.282C19.7881 9.81888 20.2513 9.52935 20.726 9.64514C21.1892 9.76093 21.4787 10.2241 21.3629 10.6989L20.1587 15.7011C20.066 16.0947 19.7071 16.361 19.3134 16.361Z" fill="#F2F6F8"/>
<path d="M27.0715 16.3726C27.0136 16.3726 26.9441 16.3726 26.8862 16.3494C26.4231 16.2452 26.1221 15.782 26.2147 15.3189L27.3031 10.2937C27.4073 9.81892 27.8705 9.5295 28.3336 9.62213C28.7968 9.71476 29.0978 10.1894 29.0052 10.6525L27.9168 15.6779C27.8357 16.0947 27.4768 16.3726 27.0715 16.3726Z" fill="#F2F6F8"/>
<path d="M26.2844 22.8684H17.0213C16.5465 22.8684 16.1529 22.4747 16.1529 22C16.1529 21.5253 16.5465 21.1316 17.0213 21.1316H26.2844C26.7592 21.1316 27.1529 21.5253 27.1529 22C27.1529 22.4747 26.7592 22.8684 26.2844 22.8684Z" fill="#F2F6F8"/>
<path d="M25.1265 27.5H15.8634C15.3886 27.5 14.995 27.1063 14.995 26.6316C14.995 26.1568 15.3886 25.7632 15.8634 25.7632H25.1265C25.6013 25.7632 25.995 26.1568 25.995 26.6316C25.995 27.1063 25.6013 27.5 25.1265 27.5Z" fill="#F2F6F8"/>
</svg>
