<svg width="45" height="44" viewBox="0 0 45 44" fill="none" xmlns="http://www.w3.org/2000/svg">
<rect x="0.5" width="44" height="44" rx="11.5789" fill="#FBCF00"/>
<path d="M22.5 34.4474C15.6337 34.4474 10.0527 28.8663 10.0527 22C10.0527 15.1337 15.6337 9.55263 22.5 9.55263C29.3664 9.55263 34.9474 15.1337 34.9474 22C34.9474 28.8663 29.3664 34.4474 22.5 34.4474ZM22.5 11.2895C16.5948 11.2895 11.7895 16.0947 11.7895 22C11.7895 27.9053 16.5948 32.7105 22.5 32.7105C28.4053 32.7105 33.2106 27.9053 33.2106 22C33.2106 16.0947 28.4053 11.2895 22.5 11.2895Z" fill="#F2F6F8"/>
<path d="M19.0263 33.2895H17.8685C17.3937 33.2895 17 32.8958 17 32.4211C17 31.9463 17.3706 31.5642 17.8453 31.5526C16.0274 25.3463 16.0274 18.6537 17.8453 12.4474C17.3706 12.4358 17 12.0537 17 11.5789C17 11.1042 17.3937 10.7105 17.8685 10.7105H19.0263C19.3042 10.7105 19.5706 10.8495 19.7327 11.0695C19.8948 11.3011 19.9411 11.5905 19.8485 11.8568C17.6716 18.3989 17.6716 25.6011 19.8485 32.1547C19.9411 32.4211 19.8948 32.7105 19.7327 32.9421C19.5706 33.1505 19.3042 33.2895 19.0263 33.2895Z" fill="#F2F6F8"/>
<path d="M25.9737 33.2895C25.8811 33.2895 25.7885 33.2779 25.6958 33.2432C25.2443 33.0927 24.9895 32.5948 25.1516 32.1432C27.3285 25.6011 27.3285 18.399 25.1516 11.8453C25.0011 11.3937 25.2443 10.8958 25.6958 10.7453C26.159 10.5948 26.6453 10.8379 26.7958 11.2895C29.1001 18.1906 29.1001 25.7864 26.7958 32.6758C26.6801 33.0579 26.3327 33.2895 25.9737 33.2895Z" fill="#F2F6F8"/>
<path d="M22.5 28.0211C19.2695 28.0211 16.0506 27.5695 12.9474 26.6548C12.9358 27.1179 12.5537 27.5 12.079 27.5C11.6043 27.5 11.2106 27.1063 11.2106 26.6316V25.4737C11.2106 25.1958 11.3495 24.9295 11.5695 24.7674C11.8011 24.6053 12.0906 24.559 12.3569 24.6516C18.899 26.8285 26.1127 26.8285 32.6548 24.6516C32.9211 24.559 33.2106 24.6053 33.4422 24.7674C33.6737 24.9295 33.8011 25.1958 33.8011 25.4737V26.6316C33.8011 27.1063 33.4074 27.5 32.9327 27.5C32.4579 27.5 32.0758 27.1295 32.0643 26.6548C28.9495 27.5695 25.7306 28.0211 22.5 28.0211Z" fill="#F2F6F8"/>
<path d="M32.9211 19.3947C32.8285 19.3947 32.7358 19.3831 32.6432 19.3484C26.1011 17.1716 18.8874 17.1716 12.3453 19.3484C11.8822 19.4989 11.3958 19.2558 11.2453 18.8042C11.1064 18.341 11.3495 17.8547 11.8011 17.7042C18.7022 15.4 26.2979 15.4 33.1874 17.7042C33.639 17.8547 33.8937 18.3526 33.7316 18.8042C33.6274 19.1631 33.28 19.3947 32.9211 19.3947Z" fill="#F2F6F8"/>
</svg>
