<svg width="44" height="44" viewBox="0 0 44 44" fill="none" xmlns="http://www.w3.org/2000/svg">
<rect width="44" height="44" rx="11.5789" fill="#BD1308"/>
<path d="M26.6316 34.4474H17.3684C13.8716 34.4474 11.8684 32.4442 11.8684 28.9474V17.6579C11.8684 14.0105 13.721 12.1579 17.3684 12.1579C17.8431 12.1579 18.2368 12.5516 18.2368 13.0263C18.2368 13.4895 18.4221 13.9295 18.7463 14.2537C19.0705 14.5779 19.5105 14.7632 19.9737 14.7632H24.0263C24.9874 14.7632 25.7631 13.9874 25.7631 13.0263C25.7631 12.5516 26.1568 12.1579 26.6316 12.1579C30.2789 12.1579 32.1316 14.0105 32.1316 17.6579V28.9474C32.1316 32.4442 30.1284 34.4474 26.6316 34.4474ZM16.6157 13.9179C14.7863 14.0684 13.6053 14.8905 13.6053 17.6579V28.9474C13.6053 31.5179 14.7979 32.7105 17.3684 32.7105H26.6316C29.2021 32.7105 30.3947 31.5179 30.3947 28.9474V17.6579C30.3947 14.8905 29.2137 14.08 27.3842 13.9179C26.9905 15.4 25.6358 16.5 24.0263 16.5H19.9737C19.0474 16.5 18.1789 16.141 17.5189 15.481C17.0789 15.041 16.7779 14.5084 16.6157 13.9179Z" fill="#F2F6F8"/>
<path d="M24.0263 16.5H19.9737C19.0474 16.5 18.179 16.141 17.519 15.481C16.859 14.821 16.5 13.9526 16.5 13.0263C16.5 11.1158 18.0632 9.55263 19.9737 9.55263H24.0263C24.9526 9.55263 25.821 9.91158 26.481 10.5716C27.141 11.2316 27.5 12.1 27.5 13.0263C27.5 14.9368 25.9368 16.5 24.0263 16.5ZM19.9737 11.2895C19.0126 11.2895 18.2368 12.0653 18.2368 13.0263C18.2368 13.4895 18.4221 13.9295 18.7463 14.2537C19.0705 14.5779 19.5105 14.7632 19.9737 14.7632H24.0263C24.9874 14.7632 25.7632 13.9874 25.7632 13.0263C25.7632 12.5632 25.5779 12.1232 25.2537 11.7989C24.9295 11.4747 24.4895 11.2895 24.0263 11.2895H19.9737Z" fill="#F2F6F8"/>
<path d="M22 24.0263H17.3684C16.8937 24.0263 16.5 23.6326 16.5 23.1579C16.5 22.6832 16.8937 22.2895 17.3684 22.2895H22C22.4747 22.2895 22.8684 22.6832 22.8684 23.1579C22.8684 23.6326 22.4747 24.0263 22 24.0263Z" fill="#F2F6F8"/>
<path d="M26.6316 28.6579H17.3684C16.8937 28.6579 16.5 28.2642 16.5 27.7895C16.5 27.3147 16.8937 26.9211 17.3684 26.9211H26.6316C27.1063 26.9211 27.5 27.3147 27.5 27.7895C27.5 28.2642 27.1063 28.6579 26.6316 28.6579Z" fill="#F2F6F8"/>
</svg>
