<svg width="45" height="44" viewBox="0 0 45 44" fill="none" xmlns="http://www.w3.org/2000/svg">
<rect x="0.5" width="44" height="44" rx="11.5789" fill="#8F8E93"/>
<path d="M21.1221 27.7316C20.9021 27.7316 20.6821 27.6505 20.5085 27.4769L18.7716 25.74C18.4358 25.4042 18.4358 24.8484 18.7716 24.5126C19.1074 24.1769 19.6632 24.1769 19.999 24.5126L21.1221 25.6358L25.14 21.6179C25.4758 21.2821 26.0316 21.2821 26.3674 21.6179C26.7032 21.9537 26.7032 22.5095 26.3674 22.8453L21.7358 27.4769C21.5737 27.6505 21.3421 27.7316 21.1221 27.7316Z" fill="#F2F6F8"/>
<path d="M24.8158 15.9211H20.1842C19.0726 15.9211 17 15.9211 17 12.7368C17 9.55263 19.0726 9.55263 20.1842 9.55263H24.8158C25.9274 9.55263 28 9.55263 28 12.7368C28 13.8484 28 15.9211 24.8158 15.9211ZM20.1842 11.2895C19.0379 11.2895 18.7368 11.2895 18.7368 12.7368C18.7368 14.1842 19.0379 14.1842 20.1842 14.1842H24.8158C26.2632 14.1842 26.2632 13.8832 26.2632 12.7368C26.2632 11.2895 25.9621 11.2895 24.8158 11.2895H20.1842Z" fill="#F2F6F8"/>
<path d="M25.9737 34.4474H19.0264C12.519 34.4474 11.2106 31.4601 11.2106 26.6316V19.6843C11.2106 14.4043 13.1211 12.1464 17.8222 11.9032C18.2969 11.8801 18.7137 12.239 18.7369 12.7253C18.76 13.2116 18.3895 13.6053 17.9148 13.6285C14.6264 13.8137 12.9474 14.798 12.9474 19.6843V26.6316C12.9474 30.9159 13.7927 32.7106 19.0264 32.7106H25.9737C31.2074 32.7106 32.0527 30.9159 32.0527 26.6316V19.6843C32.0527 14.798 30.3737 13.8137 27.0853 13.6285C26.6106 13.6053 26.24 13.1885 26.2632 12.7137C26.2864 12.239 26.6916 11.8685 27.1779 11.8916C31.879 12.1464 33.7895 14.4043 33.7895 19.6727V26.6201C33.7895 31.4601 32.4811 34.4474 25.9737 34.4474Z" fill="#F2F6F8"/>
</svg>
