<svg width="24" height="24" viewBox="0 0 24 24" fill="none" xmlns="http://www.w3.org/2000/svg">
<g clip-path="url(#clip0_2_1856)">
<path d="M18 4C18.1506 4 18.2992 4.034 18.4347 4.09945C18.5703 4.1649 18.6894 4.26012 18.783 4.378L18.857 4.486L21.857 9.486C21.9552 9.64995 22.0044 9.83863 21.9988 10.0297C21.9931 10.2207 21.9328 10.4062 21.825 10.564L21.745 10.667L13.215 20.2C13.0566 20.3616 12.8676 20.4899 12.6589 20.5775C12.4503 20.6651 12.2263 20.7101 12 20.71C11.6 20.71 11.215 20.57 10.89 20.293L10.755 20.167L2.255 10.667C2.12713 10.5243 2.04293 10.3479 2.01244 10.1587C1.98195 9.96958 2.00644 9.77564 2.083 9.6L2.143 9.485L5.156 4.463L5.22 4.373C5.26578 4.31606 5.31777 4.26441 5.375 4.219L5.464 4.155L5.552 4.105L5.602 4.082L5.662 4.057L5.771 4.025L5.883 4.005L6 4H18ZM9.114 7.943C8.88667 7.80686 8.61459 7.76652 8.35753 7.83083C8.10047 7.89514 7.87945 8.05885 7.743 8.286L7.143 9.286L7.083 9.402C7.00647 9.57848 6.98245 9.77329 7.01385 9.96308C7.04524 10.1529 7.13071 10.3296 7.26 10.472L9.26 12.672L9.35 12.76C9.53511 12.9184 9.77168 13.0038 10.0153 13.0001C10.2589 12.9964 10.4928 12.9039 10.673 12.74L10.76 12.65C10.9184 12.4649 11.0038 12.2283 11.0001 11.9847C10.9964 11.7411 10.9039 11.5072 10.74 11.327L9.239 9.677L9.457 9.314L9.512 9.211C9.61249 8.98758 9.62748 8.73505 9.55411 8.50132C9.48075 8.26759 9.32414 8.06892 9.114 7.943Z" fill="#095EF1"/>
</g>
<defs>
<clipPath id="clip0_2_1856">
<rect width="24" height="24" fill="white"/>
</clipPath>
</defs>
</svg>
