<svg width="177" height="250" viewBox="0 0 177 250" fill="none" xmlns="http://www.w3.org/2000/svg">
<path d="M176.5 0H0V250H176.5V0Z" fill="white"/>
<mask id="mask0_2_60943" style="mask-type:luminance" maskUnits="userSpaceOnUse" x="0" y="0" width="177" height="250">
<path d="M176.5 0H0V250H176.5V0Z" fill="white"/>
</mask>
<g mask="url(#mask0_2_60943)">
<path d="M-12.0642 -0.321788C7.95808 5.68645 29.0714 8.85148 49.8047 11.0364C94.4672 15.7441 140.516 13.2027 183.371 -0.885641C184.382 -1.2181 183.945 -2.81923 182.926 -2.48411C140.623 11.4234 95.529 13.8344 51.4339 9.54432C30.3232 7.49104 8.73415 4.18771 -11.6403 -1.92558C-12.6676 -2.23278 -13.0862 -0.627652 -12.0642 -0.321788Z" fill="#BFB0A9"/>
<path d="M51.5113 8.59484C50.6675 8.51771 49.2868 8.39004 48.4443 8.31291L34.6465 7.04025C33.8039 6.96179 33.3269 7.47112 33.59 8.17062L46.2835 42.1202C46.5453 42.8197 47.0742 42.8689 47.4596 42.2293L66.1424 11.1747C66.5278 10.5351 66.153 9.94596 65.3105 9.86883L51.5113 8.59484Z" fill="#FFF69B"/>
<mask id="mask1_2_60943" style="mask-type:luminance" maskUnits="userSpaceOnUse" x="33" y="7" width="34" height="36">
<path d="M51.5113 8.59484C50.6675 8.51771 49.2868 8.39004 48.4443 8.31291L34.6465 7.04025C33.8039 6.96179 33.3269 7.47112 33.59 8.17062L46.2835 42.1202C46.5453 42.8197 47.0742 42.8689 47.4596 42.2293L66.1424 11.1747C66.5278 10.5351 66.153 9.94596 65.3105 9.86883L51.5113 8.59484Z" fill="white"/>
</mask>
<g mask="url(#mask1_2_60943)">
<path d="M38.1217 6.75173C38.0579 7.44724 37.4413 7.96189 36.7436 7.89672C36.046 7.83289 35.5344 7.21452 35.5981 6.51768C35.6633 5.81818 36.2812 5.30486 36.9775 5.37002C37.6725 5.43518 38.1868 6.05356 38.1217 6.75173Z" fill="#F4E67A"/>
<path d="M43.3918 7.2371C43.328 7.93393 42.7101 8.44725 42.0124 8.38342C41.3161 8.31826 40.8018 7.70121 40.8669 7.00437C40.9307 6.3062 41.5486 5.79155 42.2463 5.85672C42.9426 5.92055 43.4556 6.54026 43.3918 7.2371Z" fill="#F4E67A"/>
<path d="M48.66 7.72249C48.5962 8.41933 47.9783 8.93398 47.2819 8.86881C46.5843 8.80498 46.0713 8.18793 46.1364 7.48977C46.2002 6.7916 46.8182 6.27695 47.5158 6.34211C48.2108 6.40728 48.7251 7.02565 48.66 7.72249Z" fill="#F4E67A"/>
<path d="M53.9308 8.21058C53.8671 8.90874 53.2478 9.42206 52.5515 9.3569C51.8551 9.29307 51.3408 8.67602 51.406 7.97785C51.4697 7.28102 52.0877 6.76636 52.7853 6.8302C53.4803 6.89403 53.996 7.51108 53.9308 8.21058Z" fill="#F4E67A"/>
<path d="M59.1994 8.69598C59.1343 9.39282 58.5177 9.90614 57.82 9.84098C57.1237 9.77715 56.6094 9.1601 56.6745 8.46326C56.7383 7.7651 57.3576 7.25045 58.0552 7.31428C58.7516 7.38077 59.2645 7.99915 59.1994 8.69598Z" fill="#F4E67A"/>
<path d="M64.4699 9.18268C64.4061 9.88085 63.7882 10.3942 63.0905 10.329C62.3929 10.2652 61.8799 9.64546 61.945 8.94996C62.0101 8.25179 62.6267 7.73714 63.3244 7.8023C64.0207 7.86614 64.535 8.48584 64.4699 9.18268Z" fill="#F4E67A"/>
<path d="M35.1211 10.4633C35.0573 11.1601 34.4393 11.6735 33.743 11.6096C33.0453 11.5445 32.5324 10.9274 32.5962 10.2306C32.6613 9.53241 33.2792 9.01909 33.9756 9.08292C34.6732 9.14676 35.1862 9.76514 35.1211 10.4633Z" fill="#F4E67A"/>
<path d="M40.3916 10.95C40.3278 11.6455 39.7099 12.1602 39.0122 12.0963C38.3159 12.0325 37.8029 11.4141 37.8667 10.7173C37.9305 10.0178 38.5471 9.50446 39.2461 9.56829C39.9424 9.63345 40.4567 10.2518 40.3916 10.95Z" fill="#F4E67A"/>
<path d="M45.6613 11.4367C45.5975 12.1336 44.9796 12.6469 44.2833 12.583C43.5856 12.5192 43.0713 11.8995 43.1364 11.2027C43.2002 10.5045 43.8195 9.98986 44.5158 10.055C45.2121 10.1202 45.7264 10.7372 45.6613 11.4367Z" fill="#F4E67A"/>
<path d="M50.9326 11.9234C50.8688 12.619 50.2509 13.1336 49.5545 13.0684C48.8582 13.0046 48.3439 12.3862 48.4077 11.6894C48.4715 10.9912 49.0894 10.4779 49.7871 10.5417C50.4834 10.6056 50.9977 11.224 50.9326 11.9234Z" fill="#F4E67A"/>
<path d="M56.2023 12.4089C56.1372 13.1057 55.5193 13.6204 54.8243 13.5552C54.1253 13.4914 53.6123 12.873 53.6774 12.1748C53.7412 11.478 54.3605 10.9633 55.0568 11.0272C55.7518 11.0923 56.2661 11.7107 56.2023 12.4089Z" fill="#F4E67A"/>
<path d="M61.4697 12.8943C61.4059 13.5924 60.7893 14.1057 60.0916 14.0406C59.394 13.9767 58.881 13.3584 58.9448 12.6615C59.0086 11.962 59.6279 11.4487 60.3255 11.5139C61.0219 11.579 61.5348 12.1961 61.4697 12.8943Z" fill="#F4E67A"/>
<path d="M66.7417 13.381C66.6766 14.0778 66.0587 14.5911 65.361 14.5286C64.6647 14.4634 64.1504 13.8451 64.2155 13.1482C64.2793 12.4501 64.8959 11.9367 65.5936 12.0019C66.2912 12.0644 66.8055 12.6815 66.7417 13.381Z" fill="#F4E67A"/>
<path d="M37.3937 14.6616C37.33 15.3584 36.712 15.8731 36.0144 15.8092C35.3167 15.7441 34.8037 15.1257 34.8689 14.4275C34.9326 13.7307 35.5506 13.2174 36.2482 13.2799C36.9432 13.3464 37.4589 13.9634 37.3937 14.6616Z" fill="#F4E67A"/>
<path d="M42.6623 15.1484C42.5985 15.8452 41.9806 16.3598 41.2842 16.2947C40.5866 16.2309 40.0723 15.6125 40.1374 14.9156C40.2025 14.2175 40.8204 13.7041 41.5168 13.7693C42.2144 13.8331 42.7274 14.4502 42.6623 15.1484Z" fill="#F4E67A"/>
<path d="M47.9328 15.6337C47.869 16.3306 47.2511 16.8452 46.5547 16.7801C45.8584 16.7162 45.3428 16.0965 45.4079 15.3997C45.4717 14.7042 46.0896 14.1882 46.7886 14.2534C47.4836 14.3185 47.9966 14.9356 47.9328 15.6337Z" fill="#F4E67A"/>
<path d="M53.2033 16.1191C53.1395 16.8173 52.5203 17.3306 51.8239 17.2668C51.1263 17.2029 50.6133 16.5846 50.6784 15.8864C50.7435 15.1896 51.3601 14.6762 52.0578 14.7387C52.7541 14.8039 53.2671 15.4223 53.2033 16.1191Z" fill="#F4E67A"/>
<path d="M58.4722 16.6058C58.4071 17.304 57.7891 17.8173 57.0928 17.7522C56.3965 17.6883 55.8809 17.07 55.946 16.3718C56.0111 15.6749 56.629 15.1603 57.3254 15.2255C58.023 15.2906 58.536 15.9077 58.4722 16.6058Z" fill="#F4E67A"/>
<path d="M63.7425 17.0925C63.6787 17.7894 63.0608 18.3027 62.3631 18.2402C61.6668 18.175 61.1525 17.558 61.2163 16.8598C61.2814 16.1617 61.898 15.6483 62.597 15.7135C63.2933 15.7773 63.8063 16.3957 63.7425 17.0925Z" fill="#F4E67A"/>
<path d="M34.3944 18.3745C34.3306 19.0714 33.7126 19.5847 33.0163 19.5209C32.32 19.4584 31.8057 18.8387 31.8708 18.1418C31.9346 17.445 32.5512 16.9303 33.2475 16.9955C33.9439 17.0593 34.4581 17.675 34.3944 18.3745Z" fill="#F4E67A"/>
<path d="M39.6631 18.8599C39.5993 19.5581 38.9813 20.0714 38.285 20.0063C37.5873 19.9424 37.0744 19.3241 37.1382 18.6272C37.202 17.9304 37.8199 17.4171 38.5176 17.4796C39.2139 17.5447 39.7282 18.1618 39.6631 18.8599Z" fill="#F4E67A"/>
<path d="M44.9339 19.3467C44.8688 20.0435 44.2522 20.5568 43.5545 20.4916C42.8569 20.4278 42.3439 19.8108 42.4077 19.1126C42.4715 18.4144 43.0894 17.9011 43.7871 17.9663C44.4848 18.0301 44.9977 18.6485 44.9339 19.3467Z" fill="#F4E67A"/>
<path d="M50.2043 19.832C50.1392 20.5302 49.5226 21.0435 48.8249 20.9784C48.1272 20.9145 47.6143 20.2962 47.6794 19.598C47.7432 18.9012 48.3611 18.3865 49.0575 18.453C49.7538 18.5168 50.2681 19.1352 50.2043 19.832Z" fill="#F4E67A"/>
<path d="M55.4736 20.3188C55.4098 21.0156 54.7919 21.529 54.0942 21.4651C53.3979 21.4013 52.8849 20.7842 52.9487 20.0847C53.0138 19.3879 53.6304 18.8746 54.3281 18.9398C55.0244 19.0023 55.5387 19.6206 55.4736 20.3188Z" fill="#F4E67A"/>
<path d="M60.7445 20.8042C60.6807 21.501 60.0627 22.0157 59.3651 21.9505C58.6674 21.8854 58.1545 21.2683 58.2182 20.5701C58.282 19.872 58.9013 19.3587 59.5976 19.4238C60.2953 19.489 60.8069 20.1074 60.7445 20.8042Z" fill="#F4E67A"/>
<path d="M66.0116 21.2909C65.9478 21.9877 65.3312 22.5023 64.6335 22.4385C63.9358 22.3734 63.4229 21.7563 63.488 21.0595C63.5518 20.3613 64.1697 19.848 64.8674 19.9118C65.565 19.9756 66.078 20.5927 66.0116 21.2909Z" fill="#F4E67A"/>
<path d="M36.6642 22.5729C36.6004 23.2697 35.9825 23.783 35.2848 23.7179C34.5885 23.6554 34.0742 23.037 34.1394 22.3388C34.2045 21.6407 34.8211 21.1273 35.5187 21.1912C36.2151 21.2563 36.728 21.8747 36.6642 22.5729Z" fill="#F4E67A"/>
<path d="M41.9326 23.0583C41.8701 23.7564 41.2522 24.2698 40.5545 24.2046C39.8569 24.1408 39.3439 23.5224 39.4077 22.8242C39.4728 22.1274 40.0894 21.6127 40.7884 21.6779C41.4848 21.7417 41.9977 22.3601 41.9326 23.0583Z" fill="#F4E67A"/>
<path d="M47.2043 23.5437C47.1392 24.2405 46.5212 24.7538 45.8249 24.6913C45.1272 24.6262 44.6143 24.0078 44.6794 23.311C44.7432 22.6128 45.3611 22.0995 46.0575 22.1646C46.7551 22.2285 47.2681 22.8468 47.2043 23.5437Z" fill="#F4E67A"/>
<path d="M52.473 24.0317C52.4092 24.7286 51.7913 25.2419 51.0936 25.178C50.3972 25.1142 49.883 24.4958 49.9468 23.7977C50.0119 23.1008 50.6298 22.5862 51.3275 22.65C52.0238 22.7138 52.5368 23.3322 52.473 24.0317Z" fill="#F4E67A"/>
<path d="M57.7435 24.5158C57.6784 25.2126 57.0618 25.7273 56.3641 25.6621C55.6664 25.5983 55.1535 24.9812 55.2173 24.2831C55.2811 23.5849 55.899 23.0703 56.5967 23.1354C57.293 23.2006 57.8073 23.819 57.7435 24.5158Z" fill="#F4E67A"/>
<path d="M63.0127 25.0039C62.9489 25.7007 62.3309 26.2127 61.6346 26.1489C60.9369 26.085 60.424 25.4667 60.4878 24.7698C60.5516 24.0717 61.1695 23.557 61.8672 23.6222C62.5635 23.6873 63.0778 24.3057 63.0127 25.0039Z" fill="#F4E67A"/>
<path d="M68.2822 25.4906C68.2184 26.1874 67.6005 26.6994 66.9028 26.6356C66.2052 26.5718 65.6935 25.9547 65.7573 25.2579C65.8211 24.5597 66.4377 24.0451 67.1354 24.1102C67.833 24.1741 68.346 24.7924 68.2822 25.4906Z" fill="#F4E67A"/>
<path d="M33.6648 26.2845C33.601 26.9813 32.9844 27.4946 32.2867 27.4308C31.5904 27.367 31.0775 26.7486 31.1399 26.0504C31.205 25.3536 31.823 24.8389 32.5206 24.9028C33.217 24.9679 33.7299 25.5863 33.6648 26.2845Z" fill="#F4E67A"/>
<path d="M38.9345 26.7712C38.8708 27.468 38.2528 27.9814 37.5552 27.9162C36.8588 27.8537 36.3459 27.2353 36.4097 26.5371C36.4734 25.8403 37.0914 25.3257 37.7877 25.3908C38.4854 25.4547 38.9983 26.073 38.9345 26.7712Z" fill="#F4E67A"/>
<path d="M44.2039 27.2566C44.1401 27.9547 43.5222 28.4667 42.8259 28.4029C42.1282 28.3377 41.6153 27.7194 41.6804 27.0225C41.7428 26.3244 42.3621 25.811 43.0598 25.8762C43.7561 25.9414 44.2691 26.5584 44.2039 27.2566Z" fill="#F4E67A"/>
<path d="M49.4738 27.7447C49.41 28.4402 48.7908 28.9535 48.0944 28.8897C47.3968 28.8245 46.8838 28.2075 46.9489 27.5106C47.0127 26.8125 47.6307 26.2978 48.3283 26.363C49.0247 26.4268 49.5389 27.0452 49.4738 27.7447Z" fill="#F4E67A"/>
<path d="M54.7451 28.2287C54.68 28.9269 54.0634 29.4389 53.367 29.375C52.6694 29.3112 52.1564 28.6928 52.2202 27.996C52.284 27.2978 52.9033 26.7845 53.6009 26.8483C54.2959 26.9135 54.8089 27.5319 54.7451 28.2287Z" fill="#F4E67A"/>
<path d="M60.0148 28.7154C59.951 29.4123 59.3331 29.9256 58.6354 29.8618C57.9391 29.7966 57.4248 29.1809 57.4899 28.4827C57.5537 27.7846 58.1717 27.2712 58.8693 27.3351C59.567 27.4002 60.0786 28.0186 60.0148 28.7154Z" fill="#F4E67A"/>
<path d="M65.2855 29.2022C65.2217 29.9003 64.6037 30.4137 63.9061 30.3485C63.2097 30.2833 62.6955 29.6663 62.7593 28.9695C62.8244 28.2713 63.441 27.7566 64.1386 27.8205C64.8363 27.8856 65.3493 28.504 65.2855 29.2022Z" fill="#F4E67A"/>
<path d="M35.9359 30.4827C35.8721 31.1796 35.2541 31.6942 34.5565 31.6291C33.8601 31.5652 33.3459 30.9455 33.4096 30.2487C33.4748 29.5519 34.09 29.0385 34.789 29.1024C35.4867 29.1662 36.001 29.7846 35.9359 30.4827Z" fill="#F4E67A"/>
<path d="M41.2056 30.9695C41.1405 31.6663 40.5226 32.1796 39.8262 32.1158C39.1286 32.0506 38.6143 31.4349 38.6794 30.7367C38.7432 30.0386 39.3624 29.5253 40.0588 29.5904C40.7551 29.6529 41.2694 30.2713 41.2056 30.9695Z" fill="#F4E67A"/>
<path d="M46.4736 31.4535C46.4111 32.1504 45.7932 32.6664 45.0969 32.6012C44.3992 32.536 43.8849 31.9177 43.9487 31.2221C44.0138 30.524 44.6318 30.0093 45.3294 30.0745C46.0258 30.1383 46.5387 30.7567 46.4736 31.4535Z" fill="#F4E67A"/>
<path d="M51.7453 31.9402C51.6802 32.6384 51.0623 33.1517 50.3659 33.0879C49.6683 33.0241 49.1553 32.4057 49.2204 31.7089C49.2842 31.012 49.9008 30.4974 50.5985 30.5612C51.2961 30.625 51.8091 31.2421 51.7453 31.9402Z" fill="#F4E67A"/>
<path d="M57.014 32.427C56.9502 33.1238 56.3323 33.6385 55.6359 33.5733C54.9369 33.5095 54.424 32.8911 54.4878 32.1929C54.5529 31.4961 55.1708 30.9815 55.8685 31.0453C56.5662 31.1104 57.0791 31.7288 57.014 32.427Z" fill="#F4E67A"/>
<path d="M62.2857 32.9137C62.2206 33.6105 61.6026 34.1252 60.905 34.06C60.2073 33.9962 59.6944 33.3778 59.7595 32.681C59.8219 31.9828 60.4399 31.4681 61.1375 31.5333C61.8352 31.5985 62.3482 32.2155 62.2857 32.9137Z" fill="#F4E67A"/>
<path d="M67.555 33.3991C67.4899 34.0973 66.872 34.6106 66.1756 34.5468C65.478 34.4829 64.965 33.8632 65.0288 33.1664C65.0926 32.4695 65.7105 31.9549 66.4082 32.02C67.1045 32.0839 67.6188 32.7009 67.555 33.3991Z" fill="#F4E67A"/>
<path d="M38.2049 34.6811C38.1411 35.3779 37.5232 35.8926 36.8269 35.8287C36.1292 35.7649 35.6162 35.1465 35.6814 34.4483C35.7451 33.7515 36.3631 33.2369 37.0607 33.3007C37.7557 33.3645 38.27 33.9829 38.2049 34.6811Z" fill="#F4E67A"/>
<path d="M43.4764 35.1664C43.4126 35.8646 42.7947 36.3779 42.0983 36.3141C41.402 36.2503 40.8877 35.6319 40.9528 34.9351C41.0166 34.2369 41.6345 33.7236 42.3322 33.7874C43.0272 33.8512 43.5402 34.4696 43.4764 35.1664Z" fill="#F4E67A"/>
<path d="M48.747 35.6532C48.6833 36.35 48.0653 36.8647 47.369 36.7995C46.6713 36.7344 46.1584 36.116 46.2222 35.4191C46.2859 34.7223 46.9025 34.2076 47.6015 34.2715C48.2979 34.338 48.8108 34.955 48.747 35.6532Z" fill="#F4E67A"/>
<path d="M54.0168 36.1399C53.953 36.8367 53.3337 37.3514 52.6387 37.2862C51.9411 37.2224 51.4268 36.604 51.4919 35.9072C51.557 35.209 52.1736 34.6957 52.8713 34.7609C53.5676 34.8234 54.0806 35.4417 54.0168 36.1399Z" fill="#F4E67A"/>
<path d="M59.2845 36.6253C59.2207 37.3222 58.6041 37.8381 57.9064 37.773C57.2088 37.7091 56.6945 37.0894 56.7583 36.3926C56.8234 35.6958 57.4413 35.1811 58.139 35.2463C58.8366 35.3101 59.3496 35.9285 59.2845 36.6253Z" fill="#F4E67A"/>
<path d="M64.5558 37.1107C64.4907 37.8089 63.8728 38.3235 63.1765 38.2584C62.4788 38.1932 61.9658 37.5748 62.031 36.878C62.0934 36.1798 62.7114 35.6678 63.409 35.733C64.1054 35.7968 64.6196 36.4139 64.5558 37.1107Z" fill="#F4E67A"/>
<path d="M35.2062 38.394C35.1424 39.0895 34.5245 39.6042 33.8282 39.5403C33.1305 39.4765 32.6162 38.8581 32.6813 38.1613C32.7451 37.4631 33.3644 36.9485 34.0607 37.0136C34.7571 37.0761 35.2713 37.6958 35.2062 38.394Z" fill="#F4E67A"/>
<path d="M40.4756 38.8794C40.4118 39.5763 39.7952 40.0896 39.0975 40.0257C38.3998 39.9619 37.8869 39.3422 37.9507 38.6454C38.0145 37.9499 38.6324 37.4352 39.3301 37.499C40.0264 37.5629 40.5393 38.1813 40.4756 38.8794Z" fill="#F4E67A"/>
<path d="M45.7453 39.3648C45.6802 40.0616 45.0622 40.5763 44.3659 40.5111C43.6696 40.4473 43.1553 39.8289 43.2204 39.1321C43.2842 38.4339 43.9021 37.9206 44.5998 37.9844C45.2961 38.0496 45.8091 38.6693 45.7453 39.3648Z" fill="#F4E67A"/>
<path d="M51.0148 39.8515C50.951 40.5484 50.3331 41.0617 49.6355 40.9978C48.9378 40.9327 48.4248 40.3143 48.4899 39.6175C48.5551 38.9206 49.1717 38.406 49.8693 38.4698C50.5657 38.535 51.0799 39.1534 51.0148 39.8515Z" fill="#F4E67A"/>
<path d="M56.283 40.3369C56.2192 41.0337 55.6026 41.547 54.905 41.4832C54.2086 41.4194 53.6944 40.801 53.7595 40.1028C53.8233 39.406 54.4412 38.8927 55.1388 38.9565C55.8352 39.0217 56.3481 39.6387 56.283 40.3369Z" fill="#F4E67A"/>
<path d="M61.5539 40.8236C61.4901 41.5218 60.8722 42.0351 60.1758 41.97C59.4768 41.9061 58.9639 41.2877 59.029 40.5896C59.0928 39.8914 59.7094 39.3781 60.4084 39.4419C61.1061 39.5071 61.619 40.1255 61.5539 40.8236Z" fill="#F4E67A"/>
<path d="M66.8234 41.309C66.7596 42.0071 66.1404 42.5205 65.4427 42.4566C64.7464 42.3915 64.2334 41.7744 64.2985 41.0763C64.3623 40.3781 64.9789 39.8634 65.6766 39.9286C66.3743 39.9938 66.8872 40.6121 66.8234 41.309Z" fill="#F4E67A"/>
<path d="M37.4769 42.5924C37.4131 43.2892 36.7952 43.8025 36.0975 43.7387C35.4012 43.6749 34.8869 43.0565 34.9507 42.3596C35.0158 41.6615 35.6337 41.1481 36.33 41.212C37.0277 41.2758 37.5407 41.8929 37.4769 42.5924Z" fill="#F4E67A"/>
<path d="M42.7474 43.0764C42.6837 43.7746 42.0657 44.2879 41.3681 44.2227C40.6717 44.1589 40.1561 43.5405 40.2226 42.8437C40.2863 42.1469 40.9043 41.6322 41.6006 41.696C42.2983 41.7612 42.8112 42.3796 42.7474 43.0764Z" fill="#F4E67A"/>
<path d="M48.0159 43.5631C47.9521 44.2613 47.3342 44.7746 46.6379 44.7095C45.9402 44.6456 45.4259 44.0273 45.4897 43.3304C45.5548 42.6323 46.1728 42.1176 46.8691 42.1828C47.5668 42.2479 48.0811 42.8663 48.0159 43.5631Z" fill="#F4E67A"/>
<path d="M53.2867 44.0499C53.2229 44.7467 52.6049 45.26 51.9073 45.1962C51.2096 45.1323 50.6953 44.514 50.7604 43.8158C50.8242 43.119 51.4422 42.6057 52.1412 42.6708C52.8362 42.7333 53.3504 43.3517 53.2867 44.0499Z" fill="#F4E67A"/>
</g>
<path d="M14.5586 3.37388C13.7241 3.23025 12.358 2.9962 11.5235 2.85258L-2.13349 0.510724C-2.96936 0.367101 -3.48364 0.837865 -3.27633 1.55598L6.74347 36.3886C6.94944 37.108 7.47303 37.1971 7.90757 36.5881L28.9452 7.08148C29.3797 6.47242 29.0515 5.85803 28.2169 5.71573L14.5586 3.37388Z" fill="#B2E4E3"/>
<mask id="mask2_2_60943" style="mask-type:luminance" maskUnits="userSpaceOnUse" x="-4" y="0" width="34" height="37">
<path d="M14.5586 3.37388C13.7241 3.23025 12.358 2.9962 11.5235 2.85258L-2.13349 0.510724C-2.96936 0.367101 -3.48364 0.837865 -3.27633 1.55598L6.74347 36.3886C6.94944 37.108 7.47303 37.1971 7.90757 36.5881L28.9452 7.08148C29.3797 6.47242 29.0515 5.85803 28.2169 5.71573L14.5586 3.37388Z" fill="white"/>
</mask>
<g mask="url(#mask2_2_60943)">
<path d="M38.0447 -2.62441L-14.1934 34.3541L-13.2671 35.6645L38.971 -1.31399L38.0447 -2.62441Z" fill="#8BD6D2"/>
<path d="M31.782 -23.3256L-20.4561 13.6528L-19.5298 14.9633L32.7083 -22.0152L31.782 -23.3256Z" fill="#8BD6D2"/>
<path d="M30.9666 -18.5593L-21.2715 18.4191L-20.3452 19.7296L31.8929 -17.2489L30.9666 -18.5593Z" fill="#8BD6D2"/>
<path d="M30.1502 -13.793L-22.0879 23.1855L-21.1616 24.4959L31.0765 -12.4826L30.1502 -13.793Z" fill="#8BD6D2"/>
<path d="M29.3338 -9.0247L-22.9043 27.9538L-21.9788 29.2631L30.2593 -7.71537L29.3338 -9.0247Z" fill="#8BD6D2"/>
<path d="M39.6786 -12.1598L-12.5605 24.8194L-11.6343 26.1298L40.6049 -10.8494L39.6786 -12.1598Z" fill="#8BD6D2"/>
<path d="M38.8602 -7.39063L-13.3789 29.5886L-12.4526 30.899L39.7865 -6.08021L38.8602 -7.39063Z" fill="#8BD6D2"/>
<path d="M37.2283 2.14273L-15.0098 39.1212L-14.0835 40.4316L38.1546 3.45315L37.2283 2.14273Z" fill="#8BD6D2"/>
<path d="M36.413 6.90956L-15.8262 43.8888L-14.8999 45.1992L37.3393 8.21997L36.413 6.90956Z" fill="#8BD6D2"/>
<path d="M35.5966 11.6756L-16.6426 48.6548L-15.7163 49.9652L36.5229 12.986L35.5966 11.6756Z" fill="#8BD6D2"/>
<path d="M34.7791 16.4432L-17.459 53.4217L-16.5327 54.7321L35.7054 17.7536L34.7791 16.4432Z" fill="#8BD6D2"/>
<path d="M33.9617 21.2114L-18.2764 58.1899L-17.3501 59.5003L34.888 22.5218L33.9617 21.2114Z" fill="#8BD6D2"/>
</g>
<path d="M89.6826 10.5963C88.8361 10.5936 87.4487 10.5896 86.6049 10.587L72.7472 10.5457C71.8994 10.5431 71.4702 11.091 71.7931 11.7665L87.4514 44.4514C87.7743 45.127 88.3058 45.127 88.6327 44.4554L104.485 11.8636C104.813 11.192 104.387 10.6402 103.54 10.6375L89.6826 10.5963Z" fill="#E0E0E0"/>
<mask id="mask3_2_60943" style="mask-type:luminance" maskUnits="userSpaceOnUse" x="71" y="10" width="34" height="35">
<path d="M89.6826 10.5963C88.8361 10.5936 87.4487 10.5896 86.6049 10.587L72.7472 10.5457C71.8994 10.5431 71.4702 11.091 71.7931 11.7665L87.4514 44.4514C87.7743 45.127 88.3058 45.127 88.6327 44.4554L104.485 11.8636C104.813 11.192 104.387 10.6402 103.54 10.6375L89.6826 10.5963Z" fill="white"/>
</mask>
<g mask="url(#mask3_2_60943)">
<path d="M111.846 0.77658L66.4668 45.9191L67.5967 47.0565L112.975 1.91399L111.846 0.77658Z" fill="#CECAC8"/>
<path d="M102.238 -18.6008L56.8594 26.5417L57.9902 27.6801L103.369 -17.4625L102.238 -18.6008Z" fill="#CECAC8"/>
<path d="M102.223 -13.7622L56.8438 31.3804L57.9745 32.5187L103.353 -12.6238L102.223 -13.7622Z" fill="#CECAC8"/>
<path d="M102.209 -8.92603L56.8301 36.2165L57.9609 37.3549L103.34 -7.78768L102.209 -8.92603Z" fill="#CECAC8"/>
<path d="M102.195 -4.08749L56.8164 41.0551L57.9472 42.1934L103.326 -2.94914L102.195 -4.08749Z" fill="#CECAC8"/>
<path d="M111.876 -8.89632L66.4961 36.2472L67.6269 37.3855L113.007 -7.75797L111.876 -8.89632Z" fill="#CECAC8"/>
<path d="M111.861 -4.06302L66.4824 41.0795L67.6123 42.2169L112.991 -2.92561L111.861 -4.06302Z" fill="#CECAC8"/>
<path d="M111.832 5.60819L66.4531 50.7507L67.5839 51.8891L112.963 6.74655L111.832 5.60819Z" fill="#CECAC8"/>
<path d="M111.817 10.4498L66.4375 55.5933L67.5683 56.7316L112.948 11.5881L111.817 10.4498Z" fill="#CECAC8"/>
<path d="M111.804 15.2823L66.4238 60.4258L67.5546 61.5641L112.934 16.4206L111.804 15.2823Z" fill="#CECAC8"/>
<path d="M111.788 20.1208L66.4092 65.2634L67.54 66.4017L112.919 21.2592L111.788 20.1208Z" fill="#CECAC8"/>
<path d="M111.774 24.9617L66.3955 70.1043L67.5263 71.2426L112.905 26.1001L111.774 24.9617Z" fill="#CECAC8"/>
</g>
<path d="M126.484 8.19854C125.642 8.29695 124.264 8.45653 123.425 8.55494L109.661 10.1574C108.819 10.2545 108.459 10.8502 108.859 11.4819L128.276 42.0803C128.676 42.712 129.205 42.6508 129.45 41.9433L141.331 7.70118C141.577 6.99503 141.088 6.49767 140.248 6.59475L126.484 8.19854Z" fill="#F4B1C3"/>
<mask id="mask4_2_60943" style="mask-type:luminance" maskUnits="userSpaceOnUse" x="108" y="6" width="34" height="37">
<path d="M126.484 8.19854C125.642 8.29695 124.264 8.45653 123.425 8.55494L109.661 10.1574C108.819 10.2545 108.459 10.8502 108.859 11.4819L128.276 42.0803C128.676 42.712 129.205 42.6508 129.45 41.9433L141.331 7.70118C141.577 6.99503 141.088 6.49767 140.248 6.59475L126.484 8.19854Z" fill="white"/>
</mask>
<g mask="url(#mask4_2_60943)">
<path d="M113.001 9.16003C113.084 9.85288 112.585 10.4846 111.89 10.5657C111.195 10.6468 110.565 10.1481 110.484 9.45259C110.403 8.75575 110.901 8.12541 111.595 8.04429C112.292 7.96317 112.921 8.46319 113.001 9.16003Z" fill="#F291B0"/>
<path d="M118.258 8.54561C118.339 9.24245 117.842 9.87147 117.145 9.95259C116.45 10.0337 115.82 9.53502 115.739 8.83951C115.657 8.14267 116.155 7.51233 116.852 7.43121C117.548 7.35008 118.177 7.8501 118.258 8.54561Z" fill="#F291B0"/>
<path d="M123.513 7.93391C123.596 8.63075 123.096 9.25976 122.401 9.34088C121.705 9.42333 121.076 8.92464 120.995 8.22781C120.914 7.5323 121.412 6.90195 122.109 6.82083C122.804 6.73971 123.433 7.2384 123.513 7.93391Z" fill="#F291B0"/>
<path d="M128.772 7.32354C128.853 8.01905 128.355 8.6494 127.66 8.73052C126.965 8.81164 126.335 8.31295 126.254 7.61744C126.173 6.92193 126.671 6.29158 127.366 6.20913C128.06 6.12801 128.69 6.62671 128.772 7.32354Z" fill="#F291B0"/>
<path d="M134.028 6.71183C134.11 7.40734 133.61 8.03636 132.915 8.11615C132.22 8.1986 131.592 7.6999 131.511 7.00573C131.428 6.30889 131.928 5.67721 132.623 5.59742C133.319 5.5163 133.948 6.015 134.028 6.71183Z" fill="#F291B0"/>
<path d="M139.286 6.09876C139.367 6.79427 138.867 7.42461 138.172 7.5044C137.476 7.58685 136.848 7.08683 136.766 6.39132C136.685 5.69449 137.184 5.06414 137.88 4.98435C138.574 4.90456 139.205 5.40325 139.286 6.09876Z" fill="#F291B0"/>
<path d="M110.832 13.4103C110.913 14.1045 110.414 14.7348 109.72 14.816C109.025 14.8971 108.395 14.3984 108.314 13.7042C108.234 13.0074 108.733 12.377 109.426 12.2959C110.121 12.2148 110.75 12.7121 110.832 13.4103Z" fill="#F291B0"/>
<path d="M116.089 12.7972C116.17 13.4927 115.671 14.1231 114.976 14.2042C114.281 14.2853 113.651 13.7866 113.57 13.0911C113.488 12.3943 113.986 11.7639 114.683 11.6828C115.378 11.603 116.008 12.1004 116.089 12.7972Z" fill="#F291B0"/>
<path d="M121.344 12.1868C121.425 12.8823 120.928 13.5127 120.233 13.5925C119.537 13.6736 118.907 13.1749 118.826 12.4794C118.745 11.7825 119.243 11.1522 119.94 11.0711C120.633 10.9913 121.263 11.49 121.344 12.1868Z" fill="#F291B0"/>
<path d="M126.601 11.5751C126.683 12.2679 126.184 12.8996 125.489 12.9807C124.793 13.0605 124.164 12.5632 124.082 11.8677C124.001 11.1722 124.499 10.5418 125.195 10.4607C125.891 10.3796 126.52 10.8783 126.601 11.5751Z" fill="#F291B0"/>
<path d="M131.86 10.9633C131.94 11.6575 131.442 12.2905 130.747 12.369C130.051 12.4514 129.421 11.9514 129.341 11.2559C129.259 10.5604 129.76 9.92869 130.453 9.8489C131.148 9.76778 131.778 10.2665 131.86 10.9633Z" fill="#F291B0"/>
<path d="M137.115 10.3503C137.197 11.0458 136.7 11.6748 136.003 11.7559C135.307 11.8384 134.678 11.3397 134.597 10.6455C134.518 9.94733 135.016 9.31698 135.712 9.23852C136.405 9.15474 137.034 9.65477 137.115 10.3503Z" fill="#F291B0"/>
<path d="M142.372 9.73852C142.453 10.4327 141.953 11.0644 141.26 11.1455C140.563 11.2253 139.935 10.7279 139.854 10.0311C139.771 9.33558 140.271 8.70523 140.967 8.62411C141.661 8.54299 142.291 9.04168 142.372 9.73852Z" fill="#F291B0"/>
<path d="M108.662 17.6604C108.743 18.3559 108.244 18.9876 107.549 19.0674C106.854 19.1485 106.224 18.6485 106.143 17.9543C106.062 17.2588 106.562 16.6298 107.257 16.5473C107.951 16.4662 108.582 16.9649 108.662 17.6604Z" fill="#F291B0"/>
<path d="M113.918 17.0487C114 17.7442 113.503 18.3746 112.806 18.4557C112.111 18.5368 111.481 18.0381 111.4 17.3413C111.319 16.6458 111.818 16.0154 112.513 15.933C113.208 15.8545 113.839 16.3519 113.918 17.0487Z" fill="#F291B0"/>
<path d="M119.174 16.437C119.255 17.1338 118.758 17.7642 118.063 17.844C117.367 17.9251 116.737 17.4277 116.656 16.7309C116.575 16.0341 117.075 15.405 117.768 15.3239C118.465 15.2428 119.093 15.7415 119.174 16.437Z" fill="#F291B0"/>
<path d="M124.431 15.8253C124.512 16.5208 124.014 17.1511 123.319 17.2322C122.624 17.3134 121.993 16.8133 121.913 16.1178C121.832 15.4237 122.329 14.792 123.025 14.7109C123.722 14.6297 124.35 15.1284 124.431 15.8253Z" fill="#F291B0"/>
<path d="M129.688 15.2122C129.769 15.9077 129.27 16.538 128.575 16.6192C127.878 16.7016 127.249 16.2029 127.169 15.5074C127.088 14.8106 127.586 14.1816 128.282 14.0991C128.977 14.018 129.607 14.5167 129.688 15.2122Z" fill="#F291B0"/>
<path d="M134.945 14.6018C135.027 15.2973 134.528 15.9277 133.833 16.0074C133.138 16.0899 132.508 15.5899 132.427 14.8944C132.346 14.1989 132.844 13.5685 133.54 13.4874C134.235 13.4063 134.864 13.905 134.945 14.6018Z" fill="#F291B0"/>
<path d="M140.203 13.9887C140.284 14.6842 139.785 15.3146 139.09 15.397C138.395 15.4768 137.766 14.9781 137.684 14.284C137.603 13.5871 138.1 12.9568 138.798 12.877C139.492 12.7945 140.122 13.2932 140.203 13.9887Z" fill="#F291B0"/>
<path d="M111.748 21.3002C111.829 21.9944 111.331 22.6261 110.636 22.7072C109.941 22.7896 109.312 22.2909 109.231 21.5941C109.15 20.8986 109.647 20.2682 110.342 20.1871C111.036 20.106 111.667 20.6034 111.748 21.3002Z" fill="#F291B0"/>
<path d="M117.004 20.6885C117.085 21.384 116.587 22.0143 115.892 22.0941C115.197 22.1753 114.567 21.6766 114.486 20.9824C114.405 20.2869 114.903 19.6552 115.598 19.5727C116.295 19.4943 116.925 19.993 117.004 20.6885Z" fill="#F291B0"/>
<path d="M122.263 20.0768C122.343 20.7723 121.844 21.4013 121.149 21.4824C120.454 21.5635 119.823 21.0648 119.742 20.3693C119.661 19.6725 120.161 19.0435 120.856 18.9624C121.551 18.8826 122.181 19.3799 122.263 20.0768Z" fill="#F291B0"/>
<path d="M127.52 19.465C127.6 20.1606 127.103 20.7909 126.408 20.8707C125.711 20.9531 125.083 20.4544 125.002 19.7576C124.921 19.0634 125.419 18.4318 126.114 18.3506C126.808 18.2695 127.439 18.7695 127.52 19.465Z" fill="#F291B0"/>
<path d="M132.775 18.8533C132.856 19.5475 132.358 20.1792 131.661 20.259C130.966 20.3401 130.337 19.8414 130.255 19.1459C130.176 18.4491 130.673 17.8214 131.369 17.7389C132.064 17.6578 132.695 18.1565 132.775 18.8533Z" fill="#F291B0"/>
<path d="M138.032 18.2403C138.112 18.9358 137.615 19.5661 136.92 19.6472C136.223 19.7284 135.594 19.231 135.513 18.5342C135.431 17.8387 135.931 17.2083 136.627 17.1272C137.321 17.0461 137.951 17.5448 138.032 18.2403Z" fill="#F291B0"/>
<path d="M143.288 17.6286C143.369 18.3241 142.87 18.9544 142.175 19.0355C141.48 19.1167 140.85 18.618 140.769 17.9225C140.688 17.2256 141.187 16.5966 141.882 16.5155C142.578 16.4344 143.208 16.9331 143.288 17.6286Z" fill="#F291B0"/>
<path d="M109.577 25.5531C109.66 26.2473 109.161 26.8776 108.466 26.9587C107.77 27.0385 107.14 26.5412 107.06 25.8456C106.979 25.1515 107.478 24.5198 108.173 24.4387C108.869 24.3562 109.498 24.8562 109.577 25.5531Z" fill="#F291B0"/>
<path d="M114.836 24.94C114.917 25.6342 114.419 26.2645 113.722 26.3457C113.027 26.4281 112.397 25.9294 112.316 25.2326C112.235 24.5357 112.734 23.9067 113.43 23.8256C114.125 23.7445 114.756 24.2432 114.836 24.94Z" fill="#F291B0"/>
<path d="M120.092 24.3283C120.174 25.0238 119.676 25.6541 118.979 25.7339C118.284 25.815 117.654 25.3163 117.572 24.6208C117.491 23.9253 117.991 23.295 118.687 23.2138C119.382 23.1327 120.012 23.6328 120.092 24.3283Z" fill="#F291B0"/>
<path d="M125.349 23.7152C125.43 24.4094 124.931 25.0397 124.236 25.1222C123.54 25.202 122.91 24.7033 122.829 24.0091C122.748 23.3122 123.246 22.6819 123.941 22.6021C124.639 22.521 125.267 23.0197 125.349 23.7152Z" fill="#F291B0"/>
<path d="M130.605 23.1034C130.687 23.799 130.187 24.4293 129.494 24.5104C128.799 24.5915 128.168 24.0929 128.087 23.3973C128.007 22.7032 128.505 22.0715 129.2 21.9904C129.895 21.9079 130.525 22.4079 130.605 23.1034Z" fill="#F291B0"/>
<path d="M135.864 22.4917C135.945 23.1872 135.447 23.8176 134.752 23.8987C134.055 23.9798 133.427 23.4825 133.346 22.7856C133.264 22.0901 133.763 21.4584 134.459 21.3773C135.153 21.2975 135.783 21.7962 135.864 22.4917Z" fill="#F291B0"/>
<path d="M141.119 21.8813C141.2 22.5768 140.7 23.2072 140.006 23.287C139.31 23.3694 138.682 22.8707 138.6 22.1752C138.519 21.4784 139.018 20.8481 139.713 20.7669C140.409 20.6858 141.039 21.1845 141.119 21.8813Z" fill="#F291B0"/>
<path d="M112.665 29.1902C112.746 29.8857 112.248 30.516 111.553 30.5972C110.858 30.6796 110.228 30.1796 110.147 29.4841C110.067 28.7886 110.566 28.1582 111.259 28.0758C111.956 27.996 112.584 28.496 112.665 29.1902Z" fill="#F291B0"/>
<path d="M117.92 28.5798C118.002 29.274 117.503 29.9043 116.808 29.9854C116.113 30.0679 115.483 29.5679 115.402 28.8724C115.321 28.1769 115.819 27.5465 116.516 27.4654C117.209 27.3843 117.839 27.883 117.92 28.5798Z" fill="#F291B0"/>
<path d="M123.178 27.9667C123.261 28.6635 122.761 29.2925 122.066 29.3737C121.371 29.4535 120.741 28.9561 120.66 28.2606C120.579 27.5651 121.077 26.9347 121.774 26.8536C122.469 26.7725 123.099 27.2712 123.178 27.9667Z" fill="#F291B0"/>
<path d="M128.437 27.3563C128.518 28.0505 128.018 28.6808 127.323 28.762C126.628 28.8431 125.999 28.3444 125.919 27.6475C125.838 26.952 126.336 26.3217 127.032 26.2406C127.725 26.1595 128.356 26.6595 128.437 27.3563Z" fill="#F291B0"/>
<path d="M133.692 26.7446C133.773 27.4401 133.275 28.0705 132.58 28.1503C131.885 28.2314 131.255 27.734 131.174 27.0385C131.093 26.3417 131.592 25.7127 132.286 25.6302C132.981 25.5478 133.611 26.0465 133.692 26.7446Z" fill="#F291B0"/>
<path d="M138.947 26.1316C139.029 26.8284 138.529 27.4574 137.836 27.5385C137.139 27.6196 136.51 27.1223 136.43 26.4254C136.347 25.7299 136.846 25.0996 137.543 25.0185C138.237 24.9374 138.867 25.436 138.947 26.1316Z" fill="#F291B0"/>
<path d="M110.496 33.4429C110.576 34.1371 110.077 34.7688 109.384 34.8486C108.689 34.931 108.056 34.431 107.975 33.7368C107.895 33.0413 108.394 32.411 109.089 32.3299C109.785 32.2474 110.414 32.7461 110.496 33.4429Z" fill="#F291B0"/>
<path d="M115.754 32.8299C115.835 33.5241 115.337 34.1558 114.64 34.2369C113.945 34.318 113.317 33.8193 113.234 33.1225C113.153 32.427 113.65 31.798 114.347 31.7168C115.042 31.6357 115.671 32.1344 115.754 32.8299Z" fill="#F291B0"/>
<path d="M121.009 32.2182C121.088 32.9137 120.591 33.5454 119.896 33.6252C119.2 33.7063 118.57 33.2089 118.49 32.5121C118.408 31.8166 118.908 31.1862 119.603 31.1051C120.298 31.024 120.928 31.5227 121.009 32.2182Z" fill="#F291B0"/>
<path d="M126.265 31.6065C126.347 32.3007 125.849 32.9323 125.152 33.0134C124.457 33.0946 123.826 32.5946 123.745 31.9004C123.664 31.2035 124.162 30.5745 124.859 30.4921C125.555 30.4109 126.183 30.9096 126.265 31.6065Z" fill="#F291B0"/>
<path d="M131.522 30.9934C131.603 31.6903 131.103 32.3206 130.41 32.4018C129.715 32.4829 129.085 31.9842 129.004 31.2873C128.923 30.5918 129.421 29.9615 130.116 29.8804C130.811 29.8006 131.441 30.2979 131.522 30.9934Z" fill="#F291B0"/>
<path d="M136.779 30.383C136.86 31.0785 136.362 31.7089 135.667 31.7887C134.972 31.8711 134.342 31.3711 134.261 30.6756C134.18 29.9801 134.679 29.3497 135.373 29.2673C136.069 29.1861 136.698 29.6862 136.779 30.383Z" fill="#F291B0"/>
<path d="M142.036 29.77C142.117 30.4668 141.619 31.0971 140.924 31.1769C140.227 31.2594 139.599 30.7594 139.518 30.0639C139.435 29.3683 139.935 28.738 140.631 28.6569C141.325 28.5771 141.955 29.0758 142.036 29.77Z" fill="#F291B0"/>
<path d="M113.582 37.0828C113.664 37.777 113.164 38.4087 112.469 38.4898C111.776 38.5709 111.144 38.0722 111.063 37.3754C110.982 36.6785 111.481 36.0495 112.176 35.9684C112.872 35.8873 113.502 36.386 113.582 37.0828Z" fill="#F291B0"/>
<path d="M118.838 36.4697C118.92 37.1652 118.422 37.7956 117.727 37.8767C117.031 37.9578 116.402 37.4591 116.321 36.7623C116.24 36.0668 116.738 35.4364 117.433 35.3553C118.128 35.2742 118.758 35.7729 118.838 36.4697Z" fill="#F291B0"/>
<path d="M124.095 35.8566C124.177 36.5535 123.678 37.1838 122.984 37.2649C122.289 37.3461 121.658 36.8474 121.579 36.1519C121.497 35.455 121.995 34.826 122.69 34.7449C123.385 34.6651 124.015 35.1625 124.095 35.8566Z" fill="#F291B0"/>
<path d="M129.353 35.2462C129.434 35.9418 128.934 36.5708 128.241 36.6532C127.546 36.7343 126.915 36.2357 126.835 35.5401C126.754 34.8446 127.251 34.2143 127.947 34.1318C128.641 34.0507 129.271 34.5494 129.353 35.2462Z" fill="#F291B0"/>
<path d="M134.61 34.6333C134.691 35.3288 134.191 35.9591 133.498 36.0402C132.803 36.1227 132.171 35.624 132.09 34.9285C132.011 34.2316 132.509 33.6026 133.205 33.5215C133.899 33.4391 134.528 33.9378 134.61 34.6333Z" fill="#F291B0"/>
<path d="M139.866 34.0228C139.947 34.717 139.45 35.3487 138.754 35.4298C138.059 35.5109 137.427 35.0109 137.346 34.3154C137.267 33.6212 137.764 32.9909 138.46 32.9084C139.155 32.8273 139.785 33.3273 139.866 34.0228Z" fill="#F291B0"/>
<path d="M111.413 41.3317C111.494 42.0285 110.996 42.6575 110.301 42.74C109.606 42.8211 108.974 42.3224 108.893 41.6269C108.812 40.9314 109.312 40.2997 110.008 40.2199C110.702 40.1388 111.332 40.6362 111.413 41.3317Z" fill="#F291B0"/>
<path d="M116.67 40.7213C116.752 41.4154 116.253 42.0458 115.558 42.1269C114.862 42.2094 114.233 41.7107 114.152 41.0152C114.071 40.3183 114.569 39.688 115.264 39.6082C115.959 39.5271 116.591 40.0257 116.67 40.7213Z" fill="#F291B0"/>
<path d="M121.927 40.1095C122.008 40.805 121.51 41.434 120.816 41.5151C120.12 41.5963 119.49 41.0976 119.409 40.4021C119.328 39.7079 119.826 39.0762 120.521 38.9951C121.216 38.9153 121.846 39.414 121.927 40.1095Z" fill="#F291B0"/>
<path d="M127.185 39.4965C127.265 40.192 126.768 40.8237 126.073 40.9034C125.378 40.9832 124.748 40.4859 124.668 39.7904C124.586 39.0935 125.084 38.4645 125.78 38.3834C126.474 38.3036 127.104 38.8023 127.185 39.4965Z" fill="#F291B0"/>
<path d="M132.441 38.886C132.521 39.5815 132.023 40.2119 131.328 40.2917C130.631 40.3728 130.003 39.8741 129.922 39.1799C129.841 38.4844 130.339 37.8527 131.034 37.7716C131.729 37.6905 132.36 38.1905 132.441 38.886Z" fill="#F291B0"/>
<path d="M137.697 38.2743C137.778 38.9685 137.281 39.5988 136.585 39.6813C135.89 39.7624 135.26 39.2637 135.179 38.5669C135.098 37.8714 135.596 37.2423 136.291 37.1612C136.986 37.0788 137.616 37.5775 137.697 38.2743Z" fill="#F291B0"/>
<path d="M142.954 37.6612C143.036 38.3581 142.536 38.9871 141.841 39.0682C141.145 39.1507 140.515 38.6506 140.435 37.9551C140.354 37.2596 140.853 36.6293 141.548 36.5482C142.244 36.467 142.873 36.9657 142.954 37.6612Z" fill="#F291B0"/>
<path d="M130.27 43.1362C130.351 43.8317 129.853 44.4621 129.158 44.5432C128.463 44.6243 127.833 44.1256 127.752 43.4301C127.672 42.7333 128.169 42.1029 128.865 42.0231C129.56 41.942 130.19 42.4407 130.27 43.1362Z" fill="#F291B0"/>
<path d="M135.528 42.5245C135.609 43.22 135.11 43.849 134.416 43.9315C133.721 44.0126 133.09 43.5139 133.009 42.8184C132.928 42.1242 133.426 41.4925 134.122 41.4114C134.816 41.3303 135.446 41.829 135.528 42.5245Z" fill="#F291B0"/>
<path d="M140.784 41.9128C140.865 42.6083 140.367 43.2386 139.672 43.3197C138.975 43.4008 138.346 42.9035 138.265 42.2067C138.183 41.5111 138.682 40.8795 139.378 40.7997C140.073 40.7185 140.703 41.2159 140.784 41.9128Z" fill="#F291B0"/>
</g>
<path d="M162.783 1.29653C161.965 1.51729 160.626 1.879 159.81 2.09976L146.432 5.71428C145.614 5.93503 145.345 6.57734 145.834 7.14253L169.547 34.544C170.036 35.1091 170.547 34.9708 170.687 34.2354L177.395 -1.38576C177.535 -2.11984 176.978 -2.53874 176.162 -2.31931L162.783 1.29653Z" fill="#FBD8C5"/>
<mask id="mask5_2_60943" style="mask-type:luminance" maskUnits="userSpaceOnUse" x="145" y="-3" width="33" height="38">
<path d="M162.783 1.29653C161.965 1.51729 160.626 1.879 159.81 2.09976L146.432 5.71428C145.614 5.93503 145.345 6.57734 145.834 7.14253L169.547 34.544C170.036 35.1091 170.547 34.9708 170.687 34.2354L177.395 -1.38576C177.535 -2.11984 176.978 -2.53874 176.162 -2.31931L162.783 1.29653Z" fill="white"/>
</mask>
<g mask="url(#mask5_2_60943)">
<path d="M181.572 -14.0243L149.688 41.4914L151.077 42.2906L182.961 -13.2251L181.572 -14.0243Z" fill="#F7BBA1"/>
<path d="M167.219 -30.1781L135.328 25.3388L136.719 26.1388L168.61 -29.3781L167.219 -30.1781Z" fill="#F7BBA1"/>
<path d="M168.458 -25.513L136.574 30.0028L137.965 30.8026L169.849 -24.7131L168.458 -25.513Z" fill="#F7BBA1"/>
<path d="M169.738 -20.8388L137.848 34.6769L139.238 35.4769L171.129 -20.0388L169.738 -20.8388Z" fill="#F7BBA1"/>
<path d="M170.999 -16.1679L139.108 39.3478L140.499 40.1478L172.39 -15.3679L170.999 -16.1679Z" fill="#F7BBA1"/>
<path d="M179.05 -23.3648L147.166 32.1509L148.557 32.9508L180.441 -22.565L179.05 -23.3648Z" fill="#F7BBA1"/>
<path d="M180.308 -18.6971L148.424 36.8186L149.814 37.6184L181.699 -17.8973L180.308 -18.6971Z" fill="#F7BBA1"/>
<path d="M182.851 -9.35077L150.961 46.1649L152.352 46.9649L184.242 -8.55078L182.851 -9.35077Z" fill="#F7BBA1"/>
<path d="M184.089 -4.68852L152.204 50.8284L153.595 51.6282L185.48 -3.88869L184.089 -4.68852Z" fill="#F7BBA1"/>
<path d="M185.37 -0.0123063L153.479 55.5034L154.869 56.3027L186.76 0.787024L185.37 -0.0123063Z" fill="#F7BBA1"/>
<path d="M186.631 4.65546L154.74 60.1723L156.13 60.9717L188.021 5.45479L186.631 4.65546Z" fill="#F7BBA1"/>
<path d="M187.869 9.31864L155.984 64.8344L157.375 65.6342L189.259 10.1185L187.869 9.31864Z" fill="#F7BBA1"/>
</g>
<path d="M-12.0642 49.1338C7.95808 55.142 29.0714 58.307 49.8047 60.492C94.4672 65.1983 140.516 62.6583 183.371 48.5699C184.382 48.2361 183.945 46.6363 182.926 46.9714C140.623 60.8789 95.529 63.29 51.4339 58.9999C30.3232 56.9466 8.73415 53.6433 -11.6403 47.5286C-12.6676 47.2214 -13.0862 48.8279 -12.0642 49.1338Z" fill="#BFB0A9"/>
<path d="M68.3717 60.9229C68.4382 59.9707 67.7139 59.1369 66.7625 59.0704L58.7147 58.5079C57.7646 58.4414 56.4224 58.347 55.734 58.2991C55.0457 58.2512 53.7035 58.1568 52.752 58.0903L44.7043 57.5264C43.7528 57.46 42.9196 58.186 42.8531 59.1369L40.9754 85.9984C40.909 86.9506 41.5535 87.3828 42.408 86.9585L52.5832 81.9065C53.439 81.4809 54.7812 81.5753 55.5679 82.1153L64.9419 88.5371C65.7286 89.077 66.4276 88.7379 66.4953 87.7857L68.3717 60.9229Z" fill="#CECAC8"/>
<mask id="mask6_2_60943" style="mask-type:luminance" maskUnits="userSpaceOnUse" x="40" y="57" width="29" height="32">
<path d="M68.3717 60.9229C68.4382 59.9707 67.7139 59.1369 66.7625 59.0704L58.7147 58.5079C57.7646 58.4414 56.4224 58.347 55.734 58.2991C55.0457 58.2512 53.7035 58.1568 52.752 58.0903L44.7043 57.5264C43.7528 57.46 42.9196 58.186 42.8531 59.1369L40.9754 85.9984C40.909 86.9506 41.5535 87.3828 42.408 86.9585L52.5832 81.9065C53.439 81.4809 54.7812 81.5753 55.5679 82.1153L64.9419 88.5371C65.7286 89.077 66.4276 88.7379 66.4953 87.7857L68.3717 60.9229Z" fill="white"/>
</mask>
<g mask="url(#mask6_2_60943)">
<path d="M46.1804 58.0226C46.1379 58.7207 45.5346 59.2527 44.8356 59.2088C44.1379 59.1649 43.6063 58.5625 43.6489 57.8643C43.6927 57.1635 44.2934 56.6329 44.9937 56.6754C45.694 56.722 46.2256 57.3231 46.1804 58.0226Z" fill="#E0E0E0"/>
<path d="M51.4606 58.355C51.4181 59.0532 50.8148 59.5851 50.1171 59.5412C49.4181 59.4974 48.8852 58.8936 48.9304 58.1954C48.9743 57.4959 49.5776 56.964 50.2752 57.0092C50.9742 57.0518 51.5058 57.6542 51.4606 58.355Z" fill="#E0E0E0"/>
<path d="M56.7427 58.6872C56.6988 59.3854 56.0969 59.916 55.3992 59.8734C54.7002 59.8309 54.1686 59.2271 54.2125 58.529C54.2563 57.8295 54.8583 57.2989 55.5573 57.3414C56.2563 57.3853 56.7879 57.9877 56.7427 58.6872Z" fill="#E0E0E0"/>
<path d="M62.0251 59.0199C61.9799 59.7181 61.3792 60.2514 60.6816 60.2061C59.9812 60.1636 59.4497 59.5585 59.4949 58.859C59.5387 58.1608 60.1407 57.6289 60.8397 57.6715C61.5374 57.7167 62.0689 58.3204 62.0251 59.0199Z" fill="#E0E0E0"/>
<path d="M67.3054 59.3511C67.2615 60.0506 66.6596 60.5825 65.9606 60.5373C65.2616 60.4934 64.7313 59.891 64.7739 59.1928C64.8177 58.4906 65.421 57.9614 66.12 58.0053C66.819 58.0491 67.3506 58.6516 67.3054 59.3511Z" fill="#E0E0E0"/>
<path d="M43.2899 61.8205C43.2447 62.52 42.6428 63.052 41.9438 63.0094C41.2461 62.9642 40.7145 62.3618 40.7584 61.6623C40.8022 60.9641 41.4042 60.4335 42.1046 60.4747C42.8022 60.52 43.3351 61.121 43.2899 61.8205Z" fill="#E0E0E0"/>
<path d="M48.5731 62.1543C48.5279 62.8511 47.9259 63.3844 47.2283 63.3392C46.5293 63.2953 45.9977 62.6915 46.0416 61.9934C46.0854 61.2939 46.6874 60.7619 47.3864 60.8072C48.0854 60.851 48.6156 61.4535 48.5731 62.1543Z" fill="#E0E0E0"/>
<path d="M53.8544 62.4852C53.8105 63.1833 53.2085 63.7153 52.5095 63.6727C51.8105 63.6275 51.279 63.0251 51.3228 62.3256C51.3654 61.6288 51.9687 61.0955 52.669 61.1394C53.3667 61.1833 53.8969 61.7843 53.8544 62.4852Z" fill="#E0E0E0"/>
<path d="M59.1349 62.8166C59.091 63.5174 58.4877 64.048 57.7887 64.0028C57.0897 63.9603 56.5595 63.3578 56.602 62.657C56.6472 61.9588 57.2478 61.4269 57.9482 61.4695C58.6458 61.5147 59.1774 62.1184 59.1349 62.8166Z" fill="#E0E0E0"/>
<path d="M64.4169 63.149C64.3717 63.8485 63.7697 64.3792 63.072 64.3353C62.3744 64.2927 61.8415 63.6903 61.8853 62.9895C61.9292 62.2913 62.5325 61.7594 63.2315 61.8019C63.9305 61.8485 64.4607 62.4495 64.4169 63.149Z" fill="#E0E0E0"/>
<path d="M69.697 63.4815C69.6545 64.1797 69.0512 64.7116 68.3522 64.6691C67.6545 64.6225 67.1229 64.0214 67.1655 63.3233C67.2107 62.6224 67.8113 62.0918 68.5116 62.1384C69.2106 62.1796 69.7422 62.782 69.697 63.4815Z" fill="#E0E0E0"/>
<path d="M45.6812 65.9508C45.6373 66.6503 45.0353 67.1809 44.3377 67.137C43.6387 67.0931 43.1071 66.4907 43.151 65.7912C43.1948 65.0917 43.7981 64.5611 44.4958 64.6036C45.1935 64.6502 45.7263 65.2513 45.6812 65.9508Z" fill="#E0E0E0"/>
<path d="M50.9637 66.2834C50.9186 66.9816 50.3166 67.5122 49.6176 67.4697C48.9186 67.4258 48.3884 66.8247 48.4322 66.1239C48.4747 65.4257 49.0781 64.8938 49.7771 64.939C50.4747 64.9815 51.0063 65.5826 50.9637 66.2834Z" fill="#E0E0E0"/>
<path d="M56.2447 66.6157C56.1995 67.3152 55.5975 67.8458 54.8998 67.8019C54.2008 67.758 53.6706 67.1569 53.7144 66.4561C53.757 65.7592 54.359 65.226 55.0593 65.2712C55.757 65.3137 56.2885 65.9162 56.2447 66.6157Z" fill="#E0E0E0"/>
<path d="M61.526 66.947C61.4808 67.6465 60.8788 68.1771 60.1811 68.1333C59.4821 68.0894 58.9532 67.4883 58.9944 66.7874C59.0396 66.0893 59.6416 65.5587 60.3393 65.6012C61.0396 65.6451 61.5698 66.2475 61.526 66.947Z" fill="#E0E0E0"/>
<path d="M66.8087 67.2793C66.7648 67.9787 66.1628 68.5094 65.4638 68.4655C64.7648 68.4203 64.2333 67.8205 64.2758 67.121C64.321 66.4215 64.9243 65.8896 65.622 65.9334C66.321 65.9773 66.8512 66.5798 66.8087 67.2793Z" fill="#E0E0E0"/>
<path d="M42.7896 69.7501C42.747 70.4483 42.1451 70.9789 41.4461 70.935C40.7471 70.8925 40.2155 70.2887 40.2594 69.5906C40.3045 68.8911 40.9065 68.3591 41.6055 68.403C42.3045 68.4469 42.8361 69.0493 42.7896 69.7501Z" fill="#E0E0E0"/>
<path d="M48.0716 70.0815C48.0291 70.781 47.4285 71.3129 46.7281 71.2677C46.0291 71.2238 45.4989 70.6228 45.5415 69.9219C45.5866 69.2238 46.1873 68.6918 46.8876 68.7344C47.5853 68.7796 48.1155 69.3807 48.0716 70.0815Z" fill="#E0E0E0"/>
<path d="M53.3551 70.4137C53.3086 71.1119 52.708 71.6438 52.0103 71.6013C51.3113 71.5561 50.7798 70.9536 50.8249 70.2541C50.8675 69.556 51.4695 69.024 52.1685 69.0693C52.8661 69.1105 53.3977 69.7129 53.3551 70.4137Z" fill="#E0E0E0"/>
<path d="M58.6356 70.7465C58.5918 71.4446 57.9885 71.9752 57.2908 71.9327C56.5931 71.8888 56.0602 71.2864 56.1041 70.5869C56.1479 69.8874 56.7513 69.3568 57.4502 69.3993C58.1479 69.4419 58.6795 70.0456 58.6356 70.7465Z" fill="#E0E0E0"/>
<path d="M63.9167 71.0776C63.8729 71.7771 63.2709 72.309 62.5719 72.2625C61.8729 72.2199 61.3427 71.6188 61.3852 70.918C61.4291 70.2185 62.031 69.6866 62.73 69.7305C63.4304 69.7757 63.9606 70.3781 63.9167 71.0776Z" fill="#E0E0E0"/>
<path d="M69.1976 71.4114C69.1551 72.1096 68.5518 72.6402 67.8541 72.5963C67.1551 72.5524 66.6249 71.9513 66.6674 71.2518C66.7126 70.5523 67.3146 70.019 68.0123 70.0643C68.7112 70.1081 69.2428 70.7106 69.1976 71.4114Z" fill="#E0E0E0"/>
<path d="M45.1833 73.8793C45.1395 74.5775 44.5375 75.1081 43.8385 75.0642C43.1395 75.0217 42.6093 74.4179 42.6518 73.7184C42.6957 73.0202 43.2976 72.4883 43.9966 72.5322C44.6956 72.5761 45.2259 73.1798 45.1833 73.8793Z" fill="#E0E0E0"/>
<path d="M50.4642 74.2107C50.4216 74.9102 49.8183 75.4408 49.1207 75.3982C48.4217 75.3543 47.8901 74.7519 47.9353 74.0524C47.9778 73.3529 48.5811 72.821 49.2801 72.8662C49.9778 72.9088 50.508 73.5112 50.4642 74.2107Z" fill="#E0E0E0"/>
<path d="M55.7468 74.5456C55.7042 75.2424 55.0996 75.7743 54.4019 75.7305C53.7016 75.6866 53.1714 75.0842 53.2166 74.386C53.2604 73.6852 53.8611 73.1532 54.5614 73.1971C55.2591 73.241 55.7906 73.8447 55.7468 74.5456Z" fill="#E0E0E0"/>
<path d="M61.0282 74.8769C60.983 75.5764 60.381 76.107 59.6834 76.0618C58.9844 76.0179 58.4528 75.4155 58.4967 74.7173C58.5419 74.0178 59.1438 73.4872 59.8428 73.5298C60.5405 73.5737 61.0734 74.1774 61.0282 74.8769Z" fill="#E0E0E0"/>
<path d="M66.3111 75.2078C66.2672 75.9073 65.6665 76.4379 64.9662 76.394C64.2672 76.3488 63.737 75.749 63.7809 75.0482C63.8234 74.3487 64.4254 73.8181 65.1257 73.8607C65.8247 73.9059 66.3549 74.5096 66.3111 75.2078Z" fill="#E0E0E0"/>
<path d="M42.2927 77.6776C42.2489 78.3744 41.6455 78.9077 40.9479 78.8638C40.2502 78.8199 39.7186 78.2162 39.7612 77.5167C39.8064 76.8185 40.4057 76.2866 41.106 76.3305C41.805 76.3757 42.3379 76.9781 42.2927 77.6776Z" fill="#E0E0E0"/>
<path d="M47.5766 78.0087C47.5314 78.7069 46.9281 79.2375 46.2291 79.1949C45.5301 79.1511 44.9985 78.55 45.0437 77.8505C45.0875 77.151 45.6895 76.619 46.3899 76.6629C47.0875 76.7081 47.6191 77.3106 47.5766 78.0087Z" fill="#E0E0E0"/>
<path d="M52.8562 78.3396C52.8123 79.0391 52.2117 79.5711 51.5127 79.5285C50.8124 79.4833 50.2821 78.8809 50.3247 78.1827C50.3698 77.4819 50.9718 76.9513 51.6708 76.9938C52.3698 77.039 52.9 77.6428 52.8562 78.3396Z" fill="#E0E0E0"/>
<path d="M58.1397 78.6737C58.0945 79.3718 57.4912 79.9038 56.7935 79.8599C56.0932 79.816 55.563 79.2136 55.6082 78.5154C55.652 77.8159 56.254 77.2853 56.9517 77.3279C57.652 77.3717 58.1809 77.9742 58.1397 78.6737Z" fill="#E0E0E0"/>
<path d="M63.4197 79.0059C63.3758 79.704 62.7738 80.236 62.0762 80.1921C61.3772 80.1482 60.8456 79.5471 60.8881 78.8463C60.9333 78.1481 61.5353 77.6162 62.2343 77.6587C62.9333 77.7039 63.4635 78.305 63.4197 79.0059Z" fill="#E0E0E0"/>
<path d="M68.702 79.3372C68.6582 80.0367 68.0549 80.5687 67.3559 80.5235C66.6582 80.4809 66.1266 79.8771 66.1705 79.179C66.213 78.4795 66.8163 77.9475 67.5153 77.9914C68.2143 78.0366 68.7459 78.6404 68.702 79.3372Z" fill="#E0E0E0"/>
<path d="M44.6852 81.8065C44.6427 82.5047 44.0394 83.038 43.3404 82.9941C42.6414 82.9502 42.1098 82.3478 42.155 81.647C42.1989 80.9475 42.8009 80.4169 43.4999 80.4607C44.1975 80.5046 44.7277 81.107 44.6852 81.8065Z" fill="#E0E0E0"/>
<path d="M49.9665 82.1379C49.9226 82.8374 49.3206 83.368 48.6216 83.3255C47.924 83.2816 47.3911 82.6792 47.4363 81.9797C47.4801 81.2802 48.0821 80.7496 48.7824 80.7921C49.4788 80.8387 50.0103 81.4411 49.9665 82.1379Z" fill="#E0E0E0"/>
<path d="M55.2499 82.4717C55.2047 83.1712 54.6027 83.7031 53.905 83.6579C53.2061 83.614 52.6745 83.0103 52.7183 82.3121C52.7609 81.614 53.3629 81.082 54.0632 81.1259C54.7622 81.1698 55.2924 81.7722 55.2499 82.4717Z" fill="#E0E0E0"/>
<path d="M60.5302 82.8042C60.4863 83.5023 59.883 84.0343 59.1853 83.9904C58.485 83.9465 57.9548 83.3441 57.9986 82.6446C58.0438 81.9451 58.6458 81.4145 59.3435 81.4584C60.0438 81.5022 60.574 82.1047 60.5302 82.8042Z" fill="#E0E0E0"/>
<path d="M65.8124 83.135C65.7686 83.8332 65.1666 84.3665 64.4689 84.3226C63.7686 84.2787 63.2384 83.6749 63.2796 82.9754C63.3248 82.2786 63.9268 81.7453 64.6258 81.7892C65.3247 81.8358 65.855 82.4382 65.8124 83.135Z" fill="#E0E0E0"/>
<path d="M41.7947 85.6059C41.7508 86.3027 41.1488 86.8347 40.4512 86.7908C39.7508 86.7482 39.2206 86.1458 39.2631 85.445C39.3083 84.7468 39.9116 84.2149 40.608 84.2574C41.3083 84.3026 41.8398 84.9064 41.7947 85.6059Z" fill="#E0E0E0"/>
<path d="M47.0757 85.9372C47.0318 86.6354 46.4299 87.166 45.7322 87.1248C45.0319 87.0796 44.5017 86.4772 44.5455 85.7777C44.5894 85.0795 45.1913 84.5476 45.8917 84.5914C46.5893 84.6353 47.1182 85.2377 47.0757 85.9372Z" fill="#E0E0E0"/>
<path d="M52.3584 86.2695C52.3132 86.9677 51.7113 87.5009 51.0123 87.4557C50.3146 87.4118 49.7817 86.8094 49.8269 86.1112C49.8707 85.4104 50.4727 84.8798 51.1717 84.9237C51.8707 84.9676 52.4023 85.5713 52.3584 86.2695Z" fill="#E0E0E0"/>
<path d="M57.6415 86.6022C57.5963 87.3003 56.9957 87.8323 56.2953 87.787C55.5963 87.7432 55.0661 87.1408 55.11 86.4413C55.1551 85.7431 55.7558 85.2111 56.4548 85.2537C57.1511 85.2989 57.684 85.9027 57.6415 86.6022Z" fill="#E0E0E0"/>
<path d="M62.921 86.9344C62.8785 87.6326 62.2765 88.1632 61.5789 88.1206C60.8812 88.0767 60.3483 87.4743 60.3922 86.7748C60.4347 86.0767 61.038 85.5447 61.737 85.5873C62.436 85.6312 62.9662 86.2349 62.921 86.9344Z" fill="#E0E0E0"/>
<path d="M68.204 87.2657C68.1601 87.9652 67.5568 88.4958 66.8591 88.4533C66.1588 88.4094 65.6286 87.807 65.6725 87.1075C65.7176 86.408 66.3183 85.8774 67.0173 85.9199C67.7176 85.9638 68.2492 86.5675 68.204 87.2657Z" fill="#E0E0E0"/>
<path d="M44.1884 89.7364C44.1432 90.4346 43.5412 90.9638 42.8422 90.9226C42.1445 90.8787 41.613 90.275 41.6568 89.5768C41.7007 88.876 42.3027 88.3454 43.0017 88.3893C43.7007 88.4332 44.2309 89.0356 44.1884 89.7364Z" fill="#E0E0E0"/>
<path d="M49.4693 90.0678C49.4254 90.7673 48.8247 91.2979 48.1258 91.2553C47.4268 91.2114 46.8952 90.6077 46.9391 89.9108C46.9816 89.2113 47.5849 88.6781 48.2839 88.722C48.9829 88.7645 49.5131 89.3696 49.4693 90.0678Z" fill="#E0E0E0"/>
</g>
<path d="M164.841 51.9171C164.622 50.9876 163.683 50.4078 162.755 50.6259L154.903 52.481C153.974 52.7004 152.666 53.0089 151.994 53.1685C151.323 53.3268 150.014 53.6366 149.085 53.856L141.234 55.7112C140.305 55.9293 139.725 56.8695 139.943 57.799L146.124 84.0049C146.343 84.9345 147.087 85.1553 147.777 84.497L155.994 76.6469C156.685 75.9873 157.995 75.6775 158.907 75.9594L169.762 79.3053C170.674 79.5859 171.24 79.0553 171.022 78.1257L164.841 51.9171Z" fill="#B2E4E3"/>
<mask id="mask7_2_60943" style="mask-type:luminance" maskUnits="userSpaceOnUse" x="139" y="50" width="33" height="35">
<path d="M164.841 51.9171C164.622 50.9876 163.683 50.4078 162.755 50.6259L154.903 52.481C153.974 52.7004 152.666 53.0089 151.994 53.1685C151.323 53.3268 150.014 53.6366 149.085 53.856L141.234 55.7112C140.305 55.9293 139.725 56.8695 139.943 57.799L146.124 84.0049C146.343 84.9345 147.087 85.1553 147.777 84.497L155.994 76.6469C156.685 75.9873 157.995 75.6775 158.907 75.9594L169.762 79.3053C170.674 79.5859 171.24 79.0553 171.022 78.1257L164.841 51.9171Z" fill="white"/>
</mask>
<g mask="url(#mask7_2_60943)">
<path d="M175.958 39.2293L142.154 93.5925L143.515 94.4398L177.319 40.0766L175.958 39.2293Z" fill="#8BD6D2"/>
<path d="M162.161 22.5762L128.356 76.9405L129.718 77.7884L163.523 23.4242L162.161 22.5762Z" fill="#8BD6D2"/>
<path d="M163.257 27.292L129.453 81.6552L130.815 82.5031L164.619 28.14L163.257 27.292Z" fill="#8BD6D2"/>
<path d="M164.353 32.0014L130.549 86.3645L131.911 87.2125L165.714 32.8493L164.353 32.0014Z" fill="#8BD6D2"/>
<path d="M165.449 36.7134L131.646 91.0766L133.007 91.9246L166.811 37.5614L165.449 36.7134Z" fill="#8BD6D2"/>
<path d="M173.767 29.81L139.963 84.1731L141.325 85.0211L175.128 30.6579L173.767 29.81Z" fill="#8BD6D2"/>
<path d="M174.882 34.5272L141.072 88.8904L142.433 89.7378L176.243 35.3746L174.882 34.5272Z" fill="#8BD6D2"/>
<path d="M177.073 43.9457L143.263 98.3088L144.624 99.157L178.435 44.7938L177.073 43.9457Z" fill="#8BD6D2"/>
<path d="M178.15 48.6491L144.346 103.013L145.707 103.861L179.512 49.4971L178.15 48.6491Z" fill="#8BD6D2"/>
<path d="M179.245 53.3565L145.44 107.721L146.802 108.569L180.607 54.2045L179.245 53.3565Z" fill="#8BD6D2"/>
<path d="M180.341 58.0662L146.536 112.43L147.898 113.278L181.702 58.9142L180.341 58.0662Z" fill="#8BD6D2"/>
<path d="M181.456 62.7653L147.652 117.135L149.014 117.983L182.818 63.6132L181.456 62.7653Z" fill="#8BD6D2"/>
</g>
<path d="M133.468 58.9454C133.385 57.9945 132.542 57.2844 131.591 57.3655L123.553 58.0544C122.604 58.1368 121.263 58.2512 120.576 58.311C119.888 58.3695 118.548 58.4839 117.598 58.5664L109.561 59.2565C108.611 59.339 107.899 60.1834 107.981 61.1343L110.28 87.9626C110.362 88.9134 111.065 89.2405 111.844 88.6886L121.114 82.1219C121.893 81.57 123.235 81.4543 124.095 81.8652L134.349 86.7577C135.21 87.1686 135.848 86.7271 135.765 85.775L133.468 58.9454Z" fill="#FBD8C5"/>
<mask id="mask8_2_60943" style="mask-type:luminance" maskUnits="userSpaceOnUse" x="107" y="57" width="29" height="32">
<path d="M133.468 58.9454C133.385 57.9945 132.542 57.2844 131.591 57.3655L123.553 58.0544C122.604 58.1368 121.263 58.2512 120.576 58.311C119.888 58.3695 118.548 58.4839 117.598 58.5664L109.561 59.2565C108.611 59.339 107.899 60.1834 107.981 61.1343L110.28 87.9626C110.362 88.9134 111.065 89.2405 111.844 88.6886L121.114 82.1219C121.893 81.57 123.235 81.4543 124.095 81.8652L134.349 86.7577C135.21 87.1686 135.848 86.7271 135.765 85.775L133.468 58.9454Z" fill="white"/>
</mask>
<g mask="url(#mask8_2_60943)">
<path d="M111.093 59.5172C111.158 60.2127 110.644 60.8324 109.947 60.8975C109.251 60.9627 108.632 60.4494 108.568 59.7526C108.503 59.0544 109.015 58.436 109.712 58.3695C110.411 58.307 111.028 58.819 111.093 59.5172Z" fill="#F7BBA1"/>
<path d="M116.361 59.0278C116.428 59.7246 115.915 60.343 115.218 60.4082C114.521 60.4733 113.901 59.9587 113.838 59.2632C113.772 58.565 114.287 57.9453 114.983 57.8828C115.678 57.8163 116.297 58.3283 116.361 59.0278Z" fill="#F7BBA1"/>
<path d="M121.632 58.5384C121.696 59.2339 121.184 59.8523 120.488 59.9174C119.791 59.9839 119.172 59.4693 119.107 58.7725C119.043 58.0743 119.555 57.4572 120.252 57.3908C120.949 57.3269 121.567 57.8402 121.632 58.5384Z" fill="#F7BBA1"/>
<path d="M126.903 58.0477C126.965 58.7446 126.454 59.3643 125.757 59.4281C125.06 59.4933 124.44 58.9786 124.376 58.2804C124.313 57.5849 124.826 56.9652 125.523 56.9001C126.22 56.8376 126.838 57.3495 126.903 58.0477Z" fill="#F7BBA1"/>
<path d="M132.171 57.5584C132.236 58.2552 131.724 58.8749 131.027 58.9387C130.329 59.0039 129.712 58.4906 129.647 57.7937C129.582 57.0942 130.096 56.4772 130.794 56.412C131.489 56.3469 132.107 56.8589 132.171 57.5584Z" fill="#F7BBA1"/>
<path d="M137.441 57.0676C137.504 57.7658 136.991 58.3842 136.295 58.4493C135.597 58.5132 134.98 57.9998 134.916 57.303C134.851 56.6048 135.364 55.9878 136.06 55.9213C136.758 55.8561 137.376 56.3694 137.441 57.0676Z" fill="#F7BBA1"/>
<path d="M108.825 63.7169C108.889 64.4151 108.378 65.0348 107.68 65.0986C106.984 65.1624 106.366 64.6491 106.3 63.9509C106.235 63.2541 106.748 62.6371 107.446 62.5692C108.142 62.5067 108.762 63.0187 108.825 63.7169Z" fill="#F7BBA1"/>
<path d="M114.096 63.2275C114.16 63.923 113.647 64.5427 112.951 64.6065C112.253 64.6717 111.635 64.1571 111.57 63.4615C111.505 62.7647 112.018 62.145 112.716 62.0825C113.413 62.016 114.03 62.5293 114.096 63.2275Z" fill="#F7BBA1"/>
<path d="M119.363 62.7381C119.427 63.4349 118.916 64.0533 118.219 64.1185C117.522 64.1823 116.904 63.669 116.839 62.9722C116.773 62.278 117.288 61.6569 117.985 61.5918C118.682 61.5266 119.3 62.0386 119.363 62.7381Z" fill="#F7BBA1"/>
<path d="M124.634 62.2461C124.699 62.9456 124.186 63.5639 123.487 63.6278C122.791 63.6929 122.173 63.1809 122.108 62.4814C122.045 61.7846 122.556 61.1662 123.253 61.1011C123.951 61.0359 124.569 61.5506 124.634 62.2461Z" fill="#F7BBA1"/>
<path d="M129.902 61.7567C129.966 62.4548 129.453 63.0732 128.758 63.137C128.062 63.2035 127.441 62.6902 127.377 61.9907C127.314 61.2939 127.825 60.6742 128.523 60.6103C129.221 60.5465 129.837 61.0585 129.902 61.7567Z" fill="#F7BBA1"/>
<path d="M135.172 61.2673C135.238 61.9628 134.724 62.5825 134.026 62.649C133.33 62.7115 132.712 62.2008 132.647 61.504C132.583 60.8045 133.095 60.1875 133.794 60.1236C134.49 60.0571 135.109 60.5705 135.172 61.2673Z" fill="#F7BBA1"/>
<path d="M111.826 67.4284C111.891 68.1253 111.379 68.7437 110.682 68.8075C109.986 68.874 109.367 68.3607 109.301 67.6625C109.236 66.9657 109.751 66.3473 110.447 66.2808C111.142 66.2169 111.761 66.7289 111.826 67.4284Z" fill="#F7BBA1"/>
<path d="M117.097 66.9364C117.16 67.6332 116.648 68.2516 115.951 68.3168C115.254 68.3819 114.636 67.87 114.571 67.1718C114.505 66.475 115.018 65.8566 115.717 65.7928C116.413 65.7263 117.032 66.2382 117.097 66.9364Z" fill="#F7BBA1"/>
<path d="M122.367 66.4483C122.43 67.1465 121.917 67.7636 121.221 67.8274C120.523 67.8926 119.906 67.3792 119.842 66.6811C119.775 65.9856 120.288 65.3645 120.986 65.302C121.684 65.2369 122.301 65.7502 122.367 66.4483Z" fill="#F7BBA1"/>
<path d="M127.635 65.9563C127.699 66.6545 127.186 67.2715 126.489 67.338C125.792 67.4018 125.177 66.8912 125.11 66.1917C125.045 65.4949 125.558 64.8778 126.254 64.8113C126.952 64.7461 127.57 65.2595 127.635 65.9563Z" fill="#F7BBA1"/>
<path d="M132.904 65.467C132.969 66.1651 132.457 66.7835 131.759 66.846C131.062 66.9112 130.444 66.3992 130.377 65.7023C130.314 65.0042 130.828 64.3858 131.524 64.3206C132.221 64.2555 132.839 64.7688 132.904 65.467Z" fill="#F7BBA1"/>
<path d="M138.171 64.9776C138.238 65.6744 137.725 66.2928 137.029 66.3593C136.331 66.4218 135.713 65.9111 135.649 65.2143C135.584 64.5161 136.097 63.8977 136.795 63.8339C137.491 63.7661 138.109 64.2794 138.171 64.9776Z" fill="#F7BBA1"/>
<path d="M109.559 71.6281C109.626 72.3249 109.113 72.942 108.415 73.0071C107.719 73.0736 107.1 72.5603 107.034 71.8635C106.972 71.1653 107.484 70.5469 108.181 70.4831C108.876 70.4153 109.497 70.9286 109.559 71.6281Z" fill="#F7BBA1"/>
<path d="M114.828 71.1374C114.893 71.8342 114.382 72.4526 113.684 72.5178C112.988 72.5829 112.37 72.071 112.303 71.3728C112.239 70.6759 112.751 70.0562 113.45 69.9911C114.146 69.9259 114.763 70.4392 114.828 71.1374Z" fill="#F7BBA1"/>
<path d="M120.1 70.6467C120.162 71.3435 119.651 71.9619 118.955 72.0271C118.257 72.0909 117.639 71.5789 117.575 70.8808C117.509 70.1839 118.022 69.5655 118.719 69.5017C119.417 69.4365 120.034 69.9485 120.1 70.6467Z" fill="#F7BBA1"/>
<path d="M125.368 70.1573C125.433 70.8541 124.919 71.4725 124.222 71.5377C123.526 71.6015 122.907 71.0909 122.841 70.3927C122.776 69.6945 123.291 69.0775 123.987 69.011C124.685 68.9458 125.304 69.4591 125.368 70.1573Z" fill="#F7BBA1"/>
<path d="M130.637 69.6666C130.702 70.3648 130.19 70.9831 129.493 71.0456C128.795 71.1121 128.178 70.6001 128.112 69.902C128.047 69.2038 128.56 68.5854 129.258 68.5216C129.955 68.4551 130.573 68.9698 130.637 69.6666Z" fill="#F7BBA1"/>
<path d="M135.906 69.1786C135.972 69.8741 135.458 70.4924 134.763 70.5563C134.065 70.6214 133.449 70.1094 133.382 69.4126C133.319 68.7144 133.83 68.0947 134.526 68.0309C135.224 67.9671 135.842 68.4804 135.906 69.1786Z" fill="#F7BBA1"/>
<path d="M112.561 75.3384C112.626 76.0352 112.114 76.6523 111.417 76.7161C110.721 76.7839 110.103 76.2679 110.038 75.5711C109.973 74.8743 110.486 74.2559 111.183 74.1907C111.878 74.1269 112.496 74.6389 112.561 75.3384Z" fill="#F7BBA1"/>
<path d="M117.83 74.8464C117.895 75.5445 117.382 76.1616 116.686 76.2281C115.988 76.2919 115.369 75.7786 115.307 75.0817C115.24 74.3836 115.753 73.7652 116.451 73.7014C117.148 73.6362 117.766 74.1482 117.83 74.8464Z" fill="#F7BBA1"/>
<path d="M123.101 74.3583C123.166 75.0538 122.652 75.6722 121.955 75.7373C121.256 75.8025 120.64 75.2892 120.576 74.5923C120.511 73.8928 121.022 73.2745 121.72 73.2093C122.418 73.1468 123.037 73.6601 123.101 74.3583Z" fill="#F7BBA1"/>
<path d="M128.37 73.8676C128.434 74.5657 127.921 75.1828 127.225 75.2466C126.528 75.3118 125.909 74.7984 125.845 74.1016C125.781 73.4034 126.294 72.7864 126.991 72.7199C127.687 72.6561 128.306 73.1694 128.37 73.8676Z" fill="#F7BBA1"/>
<path d="M133.641 73.3782C133.706 74.0763 133.193 74.6934 132.495 74.7586C131.799 74.8224 131.181 74.3117 131.117 73.6136C131.051 72.9154 131.562 72.2983 132.261 72.2318C132.959 72.1667 133.574 72.6813 133.641 73.3782Z" fill="#F7BBA1"/>
<path d="M110.294 79.5367C110.359 80.2309 109.845 80.8519 109.148 80.9171C108.452 80.9823 107.834 80.4676 107.769 79.7708C107.705 79.0739 108.216 78.4556 108.915 78.3904C109.611 78.3252 110.229 78.8386 110.294 79.5367Z" fill="#F7BBA1"/>
<path d="M115.566 79.046C115.63 79.7428 115.115 80.3612 114.419 80.4264C113.723 80.4902 113.105 79.9795 113.04 79.2814C112.975 78.5845 113.488 77.9648 114.185 77.901C114.88 77.8372 115.5 78.3491 115.566 79.046Z" fill="#F7BBA1"/>
<path d="M120.833 78.5566C120.898 79.2548 120.386 79.8731 119.69 79.9383C118.991 80.0021 118.375 79.4901 118.308 78.7933C118.244 78.0951 118.757 77.4768 119.455 77.4103C120.151 77.3464 120.769 77.8598 120.833 78.5566Z" fill="#F7BBA1"/>
<path d="M126.104 78.0672C126.168 78.7641 125.655 79.3838 124.958 79.4476C124.261 79.5128 123.643 78.9981 123.578 78.3026C123.514 77.6058 124.025 76.9861 124.723 76.9222C125.421 76.8557 126.037 77.3691 126.104 78.0672Z" fill="#F7BBA1"/>
<path d="M131.371 77.5778C131.436 78.2747 130.923 78.893 130.227 78.9582C129.531 79.0234 128.912 78.5114 128.846 77.8119C128.781 77.115 129.294 76.4967 129.992 76.4302C130.69 76.3663 131.306 76.8783 131.371 77.5778Z" fill="#F7BBA1"/>
<path d="M136.642 77.0871C136.707 77.7853 136.194 78.405 135.496 78.4675C134.8 78.5327 134.182 78.0194 134.118 77.3225C134.052 76.6257 134.565 76.006 135.262 75.9408C135.959 75.877 136.577 76.3916 136.642 77.0871Z" fill="#F7BBA1"/>
<path d="M108.026 83.7376C108.091 84.4318 107.578 85.0529 106.881 85.118C106.186 85.1819 105.568 84.6699 105.503 83.9717C105.438 83.2735 105.95 82.6565 106.647 82.5927C107.344 82.5262 107.962 83.0382 108.026 83.7376Z" fill="#F7BBA1"/>
<path d="M113.295 83.2456C113.361 83.9424 112.847 84.5621 112.151 84.6273C111.453 84.6925 110.835 84.1791 110.771 83.481C110.706 82.7828 111.219 82.1644 111.917 82.0993C112.613 82.0354 113.231 82.5488 113.295 83.2456Z" fill="#F7BBA1"/>
<path d="M118.564 82.7562C118.63 83.4544 118.117 84.0714 117.42 84.1379C116.724 84.2018 116.105 83.6898 116.04 82.9916C115.976 82.2948 116.487 81.6764 117.185 81.6086C117.881 81.5461 118.501 82.0594 118.564 82.7562Z" fill="#F7BBA1"/>
<path d="M123.836 82.2682C123.9 82.965 123.387 83.5847 122.691 83.6486C121.995 83.7124 121.375 83.1991 121.311 82.5022C121.245 81.8067 121.757 81.187 122.457 81.1205C123.153 81.0567 123.77 81.5687 123.836 82.2682Z" fill="#F7BBA1"/>
<path d="M129.105 81.7762C129.169 82.473 128.656 83.0927 127.961 83.1565C127.264 83.2217 126.646 82.7097 126.581 82.0115C126.517 81.3134 127.03 80.695 127.726 80.6312C128.424 80.566 129.04 81.0793 129.105 81.7762Z" fill="#F7BBA1"/>
<path d="M134.374 81.2867C134.439 81.9822 133.927 82.602 133.23 82.6684C132.533 82.7336 131.913 82.219 131.848 81.5221C131.784 80.8266 132.297 80.2056 132.994 80.1417C133.693 80.0766 134.309 80.5912 134.374 81.2867Z" fill="#F7BBA1"/>
<path d="M111.029 87.4479C111.092 88.1434 110.581 88.7618 109.884 88.827C109.187 88.8935 108.569 88.3801 108.502 87.682C108.439 86.9851 108.952 86.3667 109.647 86.3016C110.347 86.2364 110.965 86.7497 111.029 87.4479Z" fill="#F7BBA1"/>
<path d="M116.298 86.9572C116.362 87.654 115.851 88.2711 115.154 88.3376C114.456 88.4014 113.839 87.8881 113.773 87.1912C113.709 86.4957 114.221 85.876 114.92 85.8109C115.616 85.7457 116.231 86.259 116.298 86.9572Z" fill="#F7BBA1"/>
<path d="M121.568 86.4678C121.632 87.1647 121.119 87.783 120.421 87.8469C119.725 87.912 119.105 87.3987 119.042 86.7032C118.977 86.0037 119.49 85.3867 120.187 85.3215C120.884 85.2563 121.503 85.7696 121.568 86.4678Z" fill="#F7BBA1"/>
<path d="M126.838 85.9771C126.902 86.6739 126.39 87.2923 125.692 87.3575C124.995 87.4226 124.378 86.9093 124.313 86.2111C124.249 85.5156 124.761 84.8959 125.458 84.8294C126.153 84.7656 126.773 85.2789 126.838 85.9771Z" fill="#F7BBA1"/>
<path d="M132.105 85.4877C132.17 86.1832 131.657 86.8016 130.962 86.8668C130.266 86.9319 129.647 86.4186 129.582 85.7218C129.517 85.0249 130.03 84.4065 130.726 84.3401C131.424 84.2762 132.042 84.7895 132.105 85.4877Z" fill="#F7BBA1"/>
<path d="M137.376 84.9971C137.441 85.6952 136.928 86.3136 136.232 86.3788C135.533 86.4439 134.916 85.9306 134.851 85.2338C134.787 84.5343 135.299 83.9185 135.997 83.8521C136.694 83.7856 137.312 84.2989 137.376 84.9971Z" fill="#F7BBA1"/>
<path d="M129.839 89.6873C129.905 90.3855 129.392 91.0012 128.694 91.0663C127.996 91.1328 127.378 90.6195 127.313 89.9213C127.248 89.2245 127.762 88.6048 128.46 88.541C129.155 88.4758 129.773 88.9891 129.839 89.6873Z" fill="#F7BBA1"/>
<path d="M135.108 89.198C135.172 89.8948 134.659 90.5132 133.961 90.5783C133.265 90.6422 132.647 90.1302 132.582 89.4333C132.517 88.7352 133.03 88.1168 133.727 88.0516C134.424 87.9865 135.044 88.4998 135.108 89.198Z" fill="#F7BBA1"/>
</g>
<path d="M101.742 61.3005C101.743 60.3457 100.962 59.5651 100.007 59.5651H91.9397C90.9856 59.5651 89.6407 59.5651 88.9497 59.5651C88.2587 59.5651 86.9152 59.5651 85.961 59.5651H77.8947C76.9406 59.5651 76.1605 60.3444 76.1592 61.2992V88.2259C76.1579 89.1807 76.8329 89.5677 77.6542 89.0849L87.4521 83.3334C88.276 82.8506 89.6221 82.8506 90.4447 83.3334L100.243 89.0849C101.065 89.5663 101.739 89.1807 101.739 88.2259L101.742 61.3005Z" fill="#FFF69B"/>
<mask id="mask9_2_60943" style="mask-type:luminance" maskUnits="userSpaceOnUse" x="76" y="59" width="26" height="31">
<path d="M101.742 61.3005C101.743 60.3457 100.962 59.5651 100.007 59.5651H91.9397C90.9856 59.5651 89.6407 59.5651 88.9497 59.5651C88.2587 59.5651 86.9152 59.5651 85.961 59.5651H77.8947C76.9406 59.5651 76.1605 60.3444 76.1592 61.2992V88.2259C76.1579 89.1807 76.8329 89.5677 77.6542 89.0849L87.4521 83.3334C88.276 82.8506 89.6221 82.8506 90.4447 83.3334L100.243 89.0849C101.065 89.5663 101.739 89.1807 101.739 88.2259L101.742 61.3005Z" fill="white"/>
</mask>
<g mask="url(#mask9_2_60943)">
<path d="M115.484 51.4954L70.1055 96.638L71.2353 97.7754L116.614 52.6328L115.484 51.4954Z" fill="#F4E67A"/>
<path d="M105.892 32.1299L60.5059 77.2734L61.6367 78.4119L107.023 33.2685L105.892 32.1299Z" fill="#F4E67A"/>
<path d="M105.861 36.9573L60.4824 82.0999L61.6132 83.2382L106.992 38.0957L105.861 36.9573Z" fill="#F4E67A"/>
<path d="M105.849 41.7916L60.4697 86.9342L61.6005 88.0725L106.979 42.93L105.849 41.7916Z" fill="#F4E67A"/>
<path d="M105.832 46.6317L60.4531 91.7743L61.5839 92.9126L106.963 47.7701L105.832 46.6317Z" fill="#F4E67A"/>
<path d="M115.514 41.8227L70.1348 86.9652L71.2656 88.1036L116.644 42.961L115.514 41.8227Z" fill="#F4E67A"/>
<path d="M115.516 46.6687L70.1309 91.8112L71.2616 92.9497L116.647 47.8072L115.516 46.6687Z" fill="#F4E67A"/>
<path d="M115.471 56.3566L70.0859 101.493L71.2175 102.632L116.603 57.496L115.471 56.3566Z" fill="#F4E67A"/>
<path d="M115.456 61.1671L70.0762 106.311L71.207 107.449L116.587 62.3055L115.456 61.1671Z" fill="#F4E67A"/>
<path d="M115.44 66.001L70.0615 111.144L71.1923 112.282L116.571 67.1393L115.44 66.001Z" fill="#F4E67A"/>
<path d="M115.443 70.8522L70.0566 115.996L71.1874 117.134L116.574 71.9907L115.443 70.8522Z" fill="#F4E67A"/>
<path d="M115.412 75.6815L70.0332 120.824L71.1631 121.961L116.542 76.8189L115.412 75.6815Z" fill="#F4E67A"/>
</g>
<path d="M35.1924 57.6089C35.3505 56.6674 34.7087 55.7684 33.7691 55.6101L25.8131 54.2776C24.8723 54.1207 23.5447 53.8986 22.8643 53.7843C22.1839 53.6699 20.8577 53.4478 19.9168 53.2909L11.9608 51.9584C11.0199 51.8001 10.1216 52.4411 9.96348 53.3827L5.52235 79.9396C5.36421 80.8812 5.96486 81.3745 6.85522 81.0328L17.4677 76.9794C18.3594 76.6403 19.6883 76.8624 20.4192 77.4741L29.1353 84.7656C29.8662 85.3774 30.5944 85.1074 30.7526 84.1659L35.1924 57.6089Z" fill="#F291B0"/>
<mask id="mask10_2_60943" style="mask-type:luminance" maskUnits="userSpaceOnUse" x="5" y="51" width="31" height="35">
<path d="M35.1924 57.6089C35.3505 56.6674 34.7087 55.7684 33.7691 55.6101L25.8131 54.2776C24.8723 54.1207 23.5447 53.8986 22.8643 53.7843C22.1839 53.6699 20.8577 53.4478 19.9168 53.2909L11.9608 51.9584C11.0199 51.8001 10.1216 52.4411 9.96348 53.3827L5.52235 79.9396C5.36421 80.8812 5.96486 81.3745 6.85522 81.0328L17.4677 76.9794C18.3594 76.6403 19.6883 76.8624 20.4192 77.4741L29.1353 84.7656C29.8662 85.3774 30.5944 85.1074 30.7526 84.1659L35.1924 57.6089Z" fill="white"/>
</mask>
<g mask="url(#mask10_2_60943)">
<path d="M50.3615 50.2274L-1.8457 87.2514L-0.919058 88.56L51.2881 51.5359L50.3615 50.2274Z" fill="#F4B1C3"/>
<path d="M44.0841 29.5275L-8.12305 66.5516L-7.19563 67.8612L45.0115 30.8371L44.0841 29.5275Z" fill="#F4B1C3"/>
<path d="M43.2686 34.2966L-8.9375 71.3199L-8.00932 72.6306L44.1967 35.6073L43.2686 34.2966Z" fill="#F4B1C3"/>
<path d="M42.458 39.0643L-9.74805 76.0875L-8.82063 77.3972L43.3854 40.3739L42.458 39.0643Z" fill="#F4B1C3"/>
<path d="M41.6553 43.8276L-10.5508 80.8573L-9.62321 82.1669L42.5829 45.1372L41.6553 43.8276Z" fill="#F4B1C3"/>
<path d="M51.9854 40.6908L-0.220703 77.7141L0.70671 79.0237L52.9128 42.0004L51.9854 40.6908Z" fill="#F4B1C3"/>
<path d="M51.1748 45.4571L-1.03125 82.4804L-0.103842 83.79L52.1022 46.7667L51.1748 45.4571Z" fill="#F4B1C3"/>
<path d="M49.5498 54.9907L-2.65625 92.0139L-1.72807 93.3247L50.478 56.3014L49.5498 54.9907Z" fill="#F4B1C3"/>
<path d="M48.7365 59.7627L-3.4707 96.7868L-2.54329 98.0964L49.6639 61.0724L48.7365 59.7627Z" fill="#F4B1C3"/>
<path d="M47.9248 64.5287L-4.28125 101.552L-3.35384 102.862L48.8522 65.8383L47.9248 64.5287Z" fill="#F4B1C3"/>
<path d="M47.1134 69.2958L-5.09375 106.32L-4.16634 107.629L48.0408 70.6054L47.1134 69.2958Z" fill="#F4B1C3"/>
<path d="M46.3042 74.0455L-5.89551 111.075L-4.9687 112.384L47.231 75.3538L46.3042 74.0455Z" fill="#F4B1C3"/>
</g>
</g>
<path d="M58.2238 133.21C58.2238 133.22 58.2188 133.241 58.2086 133.271C58.0968 134.064 57.6904 134.46 56.9893 134.46C56.7454 134.46 56.532 134.399 56.3491 134.277C55.9427 134.013 55.7394 133.581 55.7394 132.982L56.7759 124.98H49.7799C49.3836 128.221 49.0229 130.965 48.6977 133.21C48.5555 134.033 48.1389 134.45 47.4479 134.46C47.2244 134.46 47.0262 134.404 46.8535 134.292C46.4267 134.018 46.2133 133.576 46.2133 132.966C46.2743 132.438 46.8636 128.018 47.9814 119.706C48.6723 114.595 49.0178 112.024 49.0178 111.994C49.0178 111.841 49.0788 111.664 49.2007 111.46C49.4751 111.023 49.8155 110.805 50.2219 110.805C50.415 110.805 50.5979 110.856 50.7706 110.957C51.1669 111.191 51.3803 111.537 51.4108 111.994L50.1 122.495C51.7359 122.475 54.073 122.465 57.1112 122.465C57.2128 121.642 57.3957 120.234 57.6599 118.243C58.0155 115.611 58.2899 113.528 58.483 111.994C58.5033 111.841 58.5439 111.689 58.6049 111.537C58.8284 111.049 59.2044 110.805 59.7328 110.805C59.9258 110.805 60.1138 110.856 60.2967 110.957C60.7032 111.191 60.9216 111.537 60.9521 111.994L59.6261 122.465H63.467C63.7007 122.465 63.9192 122.506 64.1224 122.587C64.6305 122.81 64.8845 123.191 64.8845 123.73C64.8845 123.893 64.8439 124.055 64.7626 124.218C64.5593 124.634 64.1631 124.888 63.5737 124.98H59.3213C58.6913 129.877 58.3255 132.621 58.2238 133.21ZM75.4928 111.445C75.5436 111.557 75.5944 111.694 75.6452 111.857C75.8891 112.69 77.2354 119.706 79.6843 132.905C79.7147 133.007 79.73 133.109 79.73 133.21C79.73 133.424 79.6741 133.632 79.5623 133.835C79.3185 134.252 78.9781 134.46 78.5411 134.46C78.4802 134.46 78.4141 134.455 78.343 134.445C77.8552 134.364 77.5402 134.084 77.398 133.607L76.0262 126.641H69.015L65.7228 133.637C65.6821 133.708 65.6313 133.779 65.5704 133.85C65.2554 134.257 64.9099 134.46 64.5339 134.46C64.3002 134.46 64.0818 134.394 63.8785 134.262C63.5127 134.008 63.3298 133.668 63.3298 133.241C63.3298 133.119 63.3552 132.997 63.406 132.875C63.6194 132.387 63.97 131.62 64.4577 130.573C69.3351 119.904 72.2514 113.609 73.2065 111.689C73.4809 111.13 73.8721 110.846 74.3801 110.835C74.8679 110.846 75.2387 111.049 75.4928 111.445ZM73.9533 116.14L70.1734 124.096H75.508L73.9533 116.14ZM96.4045 115.332C96.3943 117.75 95.4646 119.803 93.6152 121.489C91.8675 123.075 89.5304 124.177 86.604 124.797L85.4914 133.21C85.4812 133.271 85.471 133.332 85.4609 133.393C85.3085 134.105 84.9071 134.46 84.2568 134.46C84.0129 134.46 83.7995 134.399 83.6166 134.277C83.2102 134.013 83.007 133.581 83.007 132.982C83.007 132.911 83.9316 125.915 85.781 111.994C85.8013 111.821 85.8521 111.653 85.9334 111.491C86.1874 111.013 86.5837 110.774 87.1222 110.774C88.0571 110.602 89.0579 110.515 90.1249 110.515C91.2324 110.515 92.2231 110.653 93.097 110.927C95.302 111.628 96.4045 113.096 96.4045 115.332ZM94.1182 115.469C94.1182 115.418 94.1182 115.362 94.1182 115.301C94.0268 113.635 92.716 112.802 90.1858 112.802C89.4949 112.802 88.7937 112.852 88.0825 112.954C88.0215 113.533 87.6405 116.566 86.9393 122.053C88.3619 121.84 89.7032 121.347 90.9632 120.575C93.0665 119.284 94.1182 117.582 94.1182 115.469ZM111.189 115.332C111.179 117.75 110.249 119.803 108.4 121.489C106.652 123.075 104.315 124.177 101.389 124.797L100.276 133.21C100.266 133.271 100.256 133.332 100.245 133.393C100.093 134.105 99.6916 134.46 99.0413 134.46C98.7974 134.46 98.584 134.399 98.4011 134.277C97.9947 134.013 97.7915 133.581 97.7915 132.982C97.7915 132.911 98.7161 125.915 100.565 111.994C100.586 111.821 100.637 111.653 100.718 111.491C100.972 111.013 101.368 110.774 101.907 110.774C102.842 110.602 103.842 110.515 104.909 110.515C106.017 110.515 107.008 110.653 107.882 110.927C110.086 111.628 111.189 113.096 111.189 115.332ZM108.903 115.469C108.903 115.418 108.903 115.362 108.903 115.301C108.811 113.635 107.5 112.802 104.97 112.802C104.279 112.802 103.578 112.852 102.867 112.954C102.806 113.533 102.425 116.566 101.724 122.053C103.146 121.84 104.488 121.347 105.748 120.575C107.851 119.284 108.903 117.582 108.903 115.469ZM128.534 110.912C128.727 110.912 128.915 110.957 129.098 111.049C129.505 111.272 129.723 111.623 129.753 112.1C128.077 125.34 127.152 132.494 126.979 133.561C126.593 135.817 125.862 137.681 124.785 139.155C123.149 141.38 120.883 142.493 117.987 142.493C117.052 142.493 115.96 142.203 114.71 141.624C112.962 140.811 111.758 139.754 111.098 138.453C111.006 138.271 110.96 138.072 110.96 137.859C110.96 137.646 111.016 137.442 111.128 137.249C111.372 136.843 111.722 136.64 112.18 136.64C112.545 136.65 112.855 136.818 113.109 137.143C114.623 139.124 116.371 140.12 118.353 140.13C119.928 140.12 121.284 139.434 122.422 138.072C123.713 136.508 124.465 134.369 124.678 131.656C124.282 132.265 123.779 132.794 123.169 133.241C122.061 134.033 120.837 134.43 119.496 134.43C119.272 134.43 119.044 134.414 118.81 134.384C117.245 134.16 115.949 133.231 114.923 131.595C113.785 129.776 113.216 127.5 113.216 124.766C113.216 123.527 113.272 122.246 113.384 120.925C113.577 118.853 114.039 115.911 114.771 112.1C114.791 111.979 114.827 111.862 114.877 111.75C115.091 111.191 115.457 110.912 115.975 110.912C116.178 110.912 116.376 110.968 116.569 111.079C116.976 111.313 117.179 111.638 117.179 112.055C117.179 112.685 116.991 114.244 116.615 116.734C116.077 120.392 115.807 122.775 115.807 123.882C115.807 126.158 116.112 128.013 116.722 129.446C117.423 131.112 118.434 131.945 119.755 131.945C119.887 131.945 120.024 131.93 120.166 131.9C121.162 131.696 122.183 130.878 123.23 129.446C124.429 127.799 125.272 125.915 125.76 123.791L127.315 112.1C127.335 111.918 127.386 111.745 127.467 111.582C127.691 111.135 128.046 110.912 128.534 110.912Z" fill="#8BD6D2"/>
<path d="M27.9841 142.277C32.3026 142.298 34.5024 143.913 34.5837 147.124C34.5634 149.847 33.6489 151.92 31.8402 153.343C34.5634 154.166 35.9301 155.969 35.9403 158.754C35.8691 159.881 35.6303 160.887 35.2239 161.771C33.8521 164.739 30.6412 166.222 25.5911 166.222C24.9814 166.222 24.0669 166.186 22.8476 166.115C22.6037 166.115 22.3802 166.049 22.1769 165.917C21.7807 165.633 21.5825 165.206 21.5825 164.637L24.3565 143.649C24.3667 143.476 24.4073 143.309 24.4784 143.146C24.6918 142.689 25.0576 142.46 25.5759 142.46C26.4192 142.338 27.222 142.277 27.9841 142.277ZM25.3625 155.126C25.3625 155.126 24.9814 158.002 24.2193 163.753C24.7985 163.794 25.2507 163.814 25.5759 163.814C27.1712 163.814 28.5683 163.626 29.7673 163.25C32.2568 162.457 33.5016 160.959 33.5016 158.754C33.4914 157.25 32.4956 156.218 30.5142 155.66C29.4473 155.375 27.73 155.197 25.3625 155.126ZM26.658 144.609L25.6521 152.611C25.9874 152.611 26.2973 152.601 26.5818 152.581C30.3008 152.377 32.1603 150.574 32.1603 147.17C32.1501 146.337 31.8097 145.696 31.1391 145.249C30.4075 144.792 29.1577 144.564 27.3896 144.564C27.1559 144.564 26.912 144.579 26.658 144.609ZM41.7321 164.896C41.5797 165.719 41.1733 166.136 40.5128 166.146C40.2689 166.146 40.0505 166.08 39.8574 165.948C39.4611 165.684 39.263 165.257 39.263 164.667C39.263 164.667 40.1876 157.671 42.037 143.679C42.0573 143.527 42.0928 143.38 42.1437 143.237C42.357 142.74 42.7279 142.491 43.2563 142.491C43.4595 142.491 43.6526 142.541 43.8355 142.643C44.2419 142.877 44.4553 143.222 44.4756 143.679C42.7381 157.326 41.8236 164.398 41.7321 164.896ZM50.6486 164.866C50.5063 165.689 50.0897 166.105 49.3987 166.115C49.165 166.115 48.9567 166.054 48.7738 165.932C48.3674 165.668 48.1642 165.236 48.1642 164.637C48.6214 160.816 49.541 153.82 50.9229 143.649C50.9534 143.446 51.0601 143.258 51.243 143.085C51.5885 142.77 52.0102 142.613 52.5081 142.613C53.4124 142.44 54.4082 142.353 55.4954 142.353C56.2677 142.353 56.979 142.409 57.6293 142.521C60.4846 143.039 61.9122 144.614 61.9122 147.246C61.9122 148.272 61.7446 149.233 61.4092 150.127C60.383 152.88 57.8579 154.887 53.8341 156.147L62.2475 163.829C62.5829 164.185 62.7556 164.551 62.7658 164.927C62.7658 165.13 62.7099 165.333 62.5981 165.536C62.3542 165.922 62.024 166.115 61.6074 166.115C61.2822 166.115 60.952 166.004 60.6167 165.78C60.383 165.617 57.3803 162.879 51.6088 157.565C51.1007 161.609 50.7807 164.042 50.6486 164.866ZM53.2397 144.838C53.2397 144.838 52.8485 147.881 52.066 153.968C53.5089 153.754 54.8705 153.282 56.1508 152.55C58.3761 151.25 59.4888 149.502 59.4888 147.307C59.4786 145.549 58.1475 144.66 55.4954 144.64C55.2922 144.64 54.5403 144.706 53.2397 144.838ZM83.0678 143.756C83.0678 143.969 83.0068 144.167 82.8849 144.35C82.6309 144.726 82.2498 144.914 81.7418 144.914H74.7763C73.1505 157.737 72.2919 164.388 72.2004 164.866C72.1903 164.927 72.1801 164.987 72.1699 165.048C72.0074 165.76 71.5958 166.115 70.9354 166.115C70.6915 166.115 70.4781 166.049 70.2952 165.917C69.9091 165.653 69.716 165.226 69.716 164.637C69.716 164.515 70.3308 159.881 71.5603 150.736C71.9769 147.658 72.236 145.717 72.3376 144.914H65.8294C65.5957 144.914 65.3721 144.879 65.1587 144.807C64.6202 144.624 64.3509 144.289 64.3509 143.801C64.3509 143.558 64.4119 143.329 64.5338 143.116C64.7777 142.709 65.1587 142.506 65.6769 142.506H81.7723C81.9145 142.506 82.0669 142.536 82.2295 142.597C82.7884 142.811 83.0678 143.197 83.0678 143.756ZM94.5753 164.866C94.5753 164.876 94.5703 164.896 94.5601 164.927C94.4483 165.719 94.0419 166.115 93.3407 166.115C93.0969 166.115 92.8835 166.054 92.7006 165.932C92.2941 165.668 92.0909 165.236 92.0909 164.637L93.1274 156.635H86.1314C85.7351 159.876 85.3744 162.62 85.0492 164.866C84.907 165.689 84.4904 166.105 83.7994 166.115C83.5759 166.115 83.3777 166.059 83.205 165.948C82.7782 165.673 82.5648 165.231 82.5648 164.622C82.6258 164.093 83.2151 159.673 84.3329 151.361C85.0238 146.25 85.3693 143.679 85.3693 143.649C85.3693 143.497 85.4303 143.319 85.5522 143.116C85.8266 142.679 86.167 142.46 86.5734 142.46C86.7665 142.46 86.9494 142.511 87.1221 142.613C87.5184 142.846 87.7318 143.192 87.7623 143.649L86.4515 154.151C88.0874 154.13 90.4245 154.12 93.4627 154.12C93.5643 153.297 93.7472 151.89 94.0114 149.898C94.367 147.266 94.6414 145.183 94.8344 143.649C94.8548 143.497 94.8954 143.344 94.9564 143.192C95.1799 142.704 95.5559 142.46 96.0843 142.46C96.2773 142.46 96.4653 142.511 96.6482 142.613C97.0547 142.846 97.2731 143.192 97.3036 143.649L95.9776 154.12H99.8185C100.052 154.12 100.271 154.161 100.474 154.242C100.982 154.466 101.236 154.847 101.236 155.385C101.236 155.548 101.195 155.71 101.114 155.873C100.911 156.29 100.515 156.544 99.9252 156.635H95.6727C95.0427 161.533 94.6769 164.276 94.5753 164.866ZM105.93 142.46C106.306 142.409 106.83 142.384 107.5 142.384C109.248 142.384 110.782 142.674 112.103 143.253C115.05 144.533 116.523 147.094 116.523 150.935C116.523 151.747 116.488 152.54 116.417 153.312C115.96 158.23 114.095 161.777 110.823 163.951C108.649 165.394 106.098 166.115 103.172 166.115C102.938 166.115 102.73 166.054 102.547 165.932C102.14 165.668 101.937 165.236 101.937 164.637C101.937 164.434 102.862 157.438 104.711 143.649C104.721 143.486 104.757 143.334 104.818 143.192C105.031 142.724 105.402 142.48 105.93 142.46ZM114.131 151.041C114.131 149.487 113.816 148.196 113.186 147.17C112.2 145.564 110.574 144.762 108.308 144.762C107.902 144.762 107.455 144.797 106.967 144.868L104.604 163.494C104.757 163.484 104.919 163.473 105.092 163.463C106.972 163.28 108.638 162.605 110.091 161.436C112.784 159.272 114.131 155.807 114.131 151.041ZM128.488 143.1C128.539 143.212 128.59 143.349 128.641 143.512C128.885 144.345 130.231 151.361 132.68 164.561C132.71 164.662 132.725 164.764 132.725 164.866C132.725 165.079 132.67 165.287 132.558 165.49C132.314 165.907 131.974 166.115 131.537 166.115C131.476 166.115 131.41 166.11 131.338 166.1C130.851 166.019 130.536 165.739 130.393 165.262L129.022 158.296H122.011L118.718 165.292C118.678 165.363 118.627 165.435 118.566 165.506C118.251 165.912 117.905 166.115 117.529 166.115C117.296 166.115 117.077 166.049 116.874 165.917C116.508 165.663 116.325 165.323 116.325 164.896C116.325 164.774 116.351 164.652 116.402 164.53C116.615 164.042 116.965 163.275 117.453 162.229C122.331 151.559 125.247 145.265 126.202 143.344C126.476 142.785 126.868 142.501 127.376 142.491C127.863 142.501 128.234 142.704 128.488 143.1ZM126.949 147.795L123.169 155.751H128.504L126.949 147.795ZM151.381 142.567C151.574 142.567 151.762 142.613 151.945 142.704C152.352 142.928 152.57 143.278 152.601 143.756C150.924 156.996 149.999 164.149 149.827 165.216C149.441 167.472 148.709 169.336 147.632 170.81C145.996 173.035 143.73 174.148 140.834 174.148C139.899 174.148 138.807 173.858 137.557 173.279C135.809 172.466 134.605 171.409 133.945 170.109C133.853 169.926 133.808 169.728 133.808 169.514C133.808 169.301 133.864 169.098 133.975 168.905C134.219 168.498 134.57 168.295 135.027 168.295C135.393 168.305 135.703 168.473 135.957 168.798C137.471 170.779 139.218 171.775 141.2 171.785C142.775 171.775 144.131 171.089 145.269 169.728C146.56 168.163 147.312 166.024 147.525 163.311C147.129 163.921 146.626 164.449 146.016 164.896C144.909 165.689 143.684 166.085 142.343 166.085C142.119 166.085 141.891 166.07 141.657 166.039C140.092 165.816 138.797 164.886 137.77 163.25C136.632 161.431 136.063 159.155 136.063 156.422C136.063 155.182 136.119 153.902 136.231 152.581C136.424 150.508 136.886 147.566 137.618 143.756C137.638 143.634 137.674 143.517 137.725 143.405C137.938 142.846 138.304 142.567 138.822 142.567C139.025 142.567 139.224 142.623 139.417 142.735C139.823 142.968 140.026 143.293 140.026 143.71C140.026 144.34 139.838 145.9 139.462 148.389C138.924 152.047 138.655 154.43 138.655 155.538C138.655 157.814 138.959 159.668 139.569 161.101C140.27 162.767 141.281 163.6 142.602 163.6C142.734 163.6 142.871 163.585 143.014 163.555C144.009 163.352 145.031 162.534 146.077 161.101C147.276 159.455 148.12 157.57 148.607 155.446L150.162 143.756C150.182 143.573 150.233 143.4 150.314 143.237C150.538 142.79 150.894 142.567 151.381 142.567Z" fill="#8BD6D2"/>
<path d="M59.0983 175.875C59.0983 176.045 59.0496 176.203 58.9523 176.349C58.7496 176.649 58.4454 176.799 58.0399 176.799H52.4801C51.1824 187.035 50.497 192.343 50.424 192.724C50.4159 192.773 50.4078 192.822 50.3997 192.87C50.2699 193.438 49.9415 193.722 49.4143 193.722C49.2196 193.722 49.0493 193.669 48.9033 193.564C48.5951 193.353 48.441 193.012 48.441 192.542C48.441 192.445 48.9317 188.746 49.9131 181.447C50.2456 178.989 50.4524 177.44 50.5335 176.799H45.3387C45.1522 176.799 44.9737 176.771 44.8034 176.714C44.3736 176.568 44.1586 176.301 44.1586 175.911C44.1586 175.717 44.2073 175.534 44.3046 175.364C44.4993 175.039 44.8034 174.877 45.2171 174.877H58.0642C58.1778 174.877 58.2994 174.902 58.4292 174.95C58.8753 175.12 59.0983 175.429 59.0983 175.875ZM57.4437 186.009C57.4437 184.687 57.6343 183.353 58.0155 182.006C58.6076 179.922 59.516 178.198 60.7407 176.836C62.0059 175.425 63.3401 174.719 64.7433 174.719C66.0572 174.727 67.1724 175.327 68.0889 176.52C69.0621 177.793 69.6137 179.48 69.7434 181.581C70.0111 181.483 70.4044 181.313 70.9235 181.07C71.5805 180.753 72.0793 180.595 72.4199 180.595C72.574 180.595 72.72 180.636 72.8579 180.717C73.158 180.895 73.308 181.155 73.308 181.495C73.2999 181.804 73.158 182.1 72.8822 182.384C72.282 182.976 71.2236 183.414 69.7069 183.697C69.6339 184.59 69.4798 185.47 69.2446 186.337C68.6769 188.487 67.7685 190.251 66.5195 191.63C65.2542 193.025 63.8957 193.722 62.4439 193.722C62.2655 193.722 62.0871 193.71 61.9086 193.686C60.6596 193.507 59.6255 192.765 58.8063 191.459C57.8979 190.007 57.4437 188.191 57.4437 186.009ZM59.5119 185.68C59.5119 187.157 59.7228 188.442 60.1446 189.537C60.7123 191.005 61.5477 191.739 62.6507 191.739C62.9265 191.739 63.2144 191.67 63.5145 191.532C64.3986 191.127 65.2299 190.23 66.0085 188.844C66.8926 187.294 67.4441 185.64 67.6631 183.88C66.4546 183.864 65.3556 183.527 64.3661 182.87C63.0522 181.994 62.1154 180.697 61.5558 178.977C60.2257 180.964 59.5444 183.199 59.5119 185.68ZM65.1204 177.006C64.9095 177.006 64.7189 177.051 64.5486 177.14C64.1025 177.391 63.8795 177.886 63.8795 178.624C63.8795 178.754 63.8917 178.892 63.916 179.038C64.062 179.914 64.6216 180.648 65.5949 181.24C66.341 181.686 67.0507 181.917 67.7239 181.933C67.6752 181.244 67.5779 180.599 67.4319 179.999C66.9858 178.077 66.2153 177.079 65.1204 177.006ZM95.7419 174.926C95.896 174.926 96.046 174.962 96.192 175.035C96.5164 175.214 96.6908 175.494 96.7152 175.875C95.3769 186.443 94.6388 192.153 94.501 193.004C94.1928 194.805 93.6088 196.293 92.7491 197.469C91.4433 199.245 89.6346 200.134 87.3231 200.134C86.5769 200.134 85.705 199.902 84.7074 199.44C83.3124 198.791 82.3513 197.948 81.8241 196.91C81.7511 196.764 81.7146 196.605 81.7146 196.435C81.7146 196.265 81.7593 196.103 81.8485 195.948C82.0431 195.624 82.3229 195.462 82.6879 195.462C82.9799 195.47 83.2273 195.604 83.43 195.863C84.6385 197.445 86.0335 198.24 87.6151 198.248C88.8722 198.24 89.955 197.692 90.8634 196.605C91.8934 195.356 92.4936 193.649 92.6639 191.484C92.3476 191.97 91.9461 192.392 91.4595 192.749C90.5754 193.381 89.5981 193.698 88.5275 193.698C88.3491 193.698 88.1666 193.686 87.9801 193.661C86.731 193.483 85.6969 192.741 84.8778 191.435C83.9694 189.983 83.5152 188.166 83.5152 185.985C83.5152 184.995 83.5598 183.973 83.649 182.919C83.8031 181.264 84.1721 178.916 84.7561 175.875C84.7723 175.777 84.8007 175.684 84.8413 175.595C85.0116 175.149 85.3036 174.926 85.7172 174.926C85.8794 174.926 86.0376 174.97 86.1917 175.06C86.5161 175.246 86.6783 175.506 86.6783 175.838C86.6783 176.341 86.5283 177.586 86.2282 179.573C85.7983 182.493 85.5834 184.395 85.5834 185.279C85.5834 187.096 85.8267 188.576 86.3133 189.72C86.873 191.05 87.68 191.715 88.7343 191.715C88.8398 191.715 88.9493 191.703 89.0628 191.678C89.8577 191.516 90.6728 190.863 91.5082 189.72C92.4652 188.406 93.1384 186.901 93.5277 185.206L94.7686 175.875C94.7848 175.729 94.8254 175.591 94.8903 175.461C95.0687 175.104 95.3526 174.926 95.7419 174.926ZM98.2967 186.009C98.2967 184.687 98.4873 183.353 98.8685 182.006C99.4606 179.922 100.369 178.198 101.594 176.836C102.859 175.425 104.193 174.719 105.596 174.719C106.91 174.727 108.025 175.327 108.942 176.52C109.915 177.793 110.467 179.48 110.596 181.581C110.864 181.483 111.257 181.313 111.776 181.07C112.433 180.753 112.932 180.595 113.273 180.595C113.427 180.595 113.573 180.636 113.711 180.717C114.011 180.895 114.161 181.155 114.161 181.495C114.153 181.804 114.011 182.1 113.735 182.384C113.135 182.976 112.077 183.414 110.56 183.697C110.487 184.59 110.333 185.47 110.098 186.337C109.53 188.487 108.621 190.251 107.372 191.63C106.107 193.025 104.749 193.722 103.297 193.722C103.118 193.722 102.94 193.71 102.762 193.686C101.513 193.507 100.478 192.765 99.6593 191.459C98.7509 190.007 98.2967 188.191 98.2967 186.009ZM100.365 185.68C100.365 187.157 100.576 188.442 100.998 189.537C101.565 191.005 102.401 191.739 103.504 191.739C103.779 191.739 104.067 191.67 104.367 191.532C105.252 191.127 106.083 190.23 106.861 188.844C107.746 187.294 108.297 185.64 108.516 183.88C107.308 183.864 106.209 183.527 105.219 182.87C103.905 181.994 102.968 180.697 102.409 178.977C101.079 180.964 100.397 183.199 100.365 185.68ZM105.973 177.006C105.762 177.006 105.572 177.051 105.402 177.14C104.955 177.391 104.732 177.886 104.732 178.624C104.732 178.754 104.745 178.892 104.769 179.038C104.915 179.914 105.475 180.648 106.448 181.24C107.194 181.686 107.904 181.917 108.577 181.933C108.528 181.244 108.431 180.599 108.285 179.999C107.839 178.077 107.068 177.079 105.973 177.006ZM125.792 192.724C125.792 192.733 125.792 192.745 125.792 192.761C125.694 193.402 125.362 193.722 124.794 193.722C124.607 193.722 124.441 193.673 124.295 193.576C123.971 193.365 123.809 193.021 123.809 192.542C123.809 192.445 123.841 192.092 123.906 191.484C123.581 191.986 123.168 192.42 122.665 192.785C121.781 193.41 120.812 193.722 119.757 193.722C119.579 193.722 119.396 193.71 119.21 193.686C117.961 193.507 116.927 192.765 116.108 191.459C115.199 190.007 114.745 188.191 114.745 186.009C114.745 183.908 115.134 180.684 115.913 176.337C115.953 176.102 115.978 175.956 115.986 175.899C116.01 175.786 116.043 175.672 116.083 175.558C116.262 175.145 116.546 174.938 116.935 174.938C117.089 174.938 117.239 174.979 117.385 175.06C117.709 175.238 117.884 175.518 117.908 175.899C117.876 176.086 117.839 176.309 117.799 176.568C117.142 180.688 116.813 183.6 116.813 185.303C116.813 187.12 117.056 188.6 117.543 189.744C118.103 191.074 118.91 191.739 119.964 191.739C120.061 191.739 120.163 191.731 120.268 191.715C121.063 191.561 121.882 190.908 122.726 189.756C123.683 188.45 124.36 186.938 124.757 185.218L125.998 175.899C126.006 175.745 126.047 175.599 126.12 175.461C126.298 175.112 126.582 174.938 126.972 174.938C127.126 174.938 127.272 174.979 127.41 175.06C127.734 175.238 127.912 175.518 127.945 175.899C127.848 176.637 127.738 177.489 127.616 178.454C126.424 187.854 125.816 192.611 125.792 192.724Z" fill="#8BD6D2"/>
<path d="M22.8057 29.3337V32.3644L29.1538 31.1223L27.098 28.5039L22.8057 29.3337Z" fill="#F7BBA1"/>
<path d="M69.0301 38.4392L66.4707 40.0576L70.9118 44.7639L72.0241 41.6268L69.0301 38.4392Z" fill="#F291B0"/>
<path d="M111.377 37.3393V40.3687L117.725 39.1267L115.669 36.5095L111.377 37.3393Z" fill="#8BD6D2"/>
<path d="M151.851 23.4664L149.004 22.4345L148.008 28.831L151.168 27.7884L151.851 23.4664Z" fill="#F4E67A"/>
<path d="M11.4111 95.7714V98.8021L17.7579 97.56L15.7034 94.9416L11.4111 95.7714Z" fill="#E0E0E0"/>
<path d="M31.2274 116.49L28.668 118.109L33.1091 122.815L34.2214 119.678L31.2274 116.49Z" fill="#F291B0"/>
<path d="M13.332 142.35L10.4869 141.317L9.49023 147.714L12.649 146.671L13.332 142.35Z" fill="#F4E67A"/>
<path d="M11.4111 187.403V190.432L17.7579 189.19L15.7034 186.573L11.4111 187.403Z" fill="#8BD6D2"/>
<path d="M17.6238 231.458L15.7979 229.042L11.4844 233.864L14.7016 234.711L17.6238 231.458Z" fill="#F291B0"/>
<path d="M159.36 233.947V236.978L165.708 235.735L163.653 233.118L159.36 233.947Z" fill="#8BD6D2"/>
<path d="M165.501 205.498L163.675 203.082L159.36 207.904L162.578 208.751L165.501 205.498Z" fill="#F291B0"/>
<path d="M55.4229 95.7714V98.8021L61.7709 97.56L59.7152 94.9416L55.4229 95.7714Z" fill="#F7BBA1"/>
<path d="M159.37 174.486V177.517L165.718 176.275L163.662 173.656L159.37 174.486Z" fill="#F7BBA1"/>
<path d="M165.335 138.018L162.43 138.873L165.41 144.617L167.34 141.905L165.335 138.018Z" fill="#E0E0E0"/>
<path d="M149.93 115.401V118.431L156.278 117.189L154.222 114.571L149.93 115.401Z" fill="#8BD6D2"/>
<path d="M162.43 88.8549L160.605 86.4385L156.291 91.2606L159.507 92.1077L162.43 88.8549Z" fill="#F291B0"/>
<path d="M123.156 94.7062L120.309 93.6729L119.312 100.069L122.473 99.0282L123.156 94.7062Z" fill="#F4E67A"/>
<path d="M88.7008 91.6436L85.7959 92.4973L88.7766 98.2422L90.7061 95.5307L88.7008 91.6436Z" fill="#E0E0E0"/>
<path d="M28.6031 208.047V206.945H36.2971V208.047H33.0712V217.204H31.829V208.047H28.6031ZM46.443 212.074C46.443 213.156 46.2476 214.091 45.8569 214.88C45.4662 215.668 44.9302 216.275 44.249 216.703C43.5678 217.13 42.7897 217.344 41.9148 217.344C41.0398 217.344 40.2618 217.13 39.5805 216.703C38.8993 216.275 38.3633 215.668 37.9726 214.88C37.5819 214.091 37.3865 213.156 37.3865 212.074C37.3865 210.992 37.5819 210.057 37.9726 209.269C38.3633 208.481 38.8993 207.874 39.5805 207.446C40.2618 207.019 41.0398 206.805 41.9148 206.805C42.7897 206.805 43.5678 207.019 44.249 207.446C44.9302 207.874 45.4662 208.481 45.8569 209.269C46.2476 210.057 46.443 210.992 46.443 212.074ZM45.2408 212.074C45.2408 211.186 45.0922 210.436 44.795 209.825C44.5011 209.214 44.1021 208.752 43.5978 208.438C43.0969 208.124 42.5359 207.967 41.9148 207.967C41.2936 207.967 40.731 208.124 40.2267 208.438C39.7258 208.752 39.3267 209.214 39.0295 209.825C38.7357 210.436 38.5887 211.186 38.5887 212.074C38.5887 212.963 38.7357 213.712 39.0295 214.324C39.3267 214.935 39.7258 215.397 40.2267 215.711C40.731 216.025 41.2936 216.182 41.9148 216.182C42.5359 216.182 43.0969 216.025 43.5978 215.711C44.1021 215.397 44.5011 214.935 44.795 214.324C45.0922 213.712 45.2408 212.963 45.2408 212.074ZM49.233 215.891C48.9859 215.891 48.7739 215.803 48.5969 215.626C48.4199 215.449 48.3314 215.237 48.3314 214.99C48.3314 214.743 48.4199 214.531 48.5969 214.354C48.7739 214.177 48.9859 214.088 49.233 214.088C49.4802 214.088 49.6922 214.177 49.8692 214.354C50.0462 214.531 50.1347 214.743 50.1347 214.99C50.1347 215.153 50.0929 215.304 50.0095 215.441C49.9293 215.577 49.8208 215.688 49.6839 215.771C49.5503 215.851 49.4 215.891 49.233 215.891ZM49.233 210.702C48.9859 210.702 48.7739 210.613 48.5969 210.436C48.4199 210.259 48.3314 210.047 48.3314 209.8C48.3314 209.553 48.4199 209.341 48.5969 209.164C48.7739 208.987 48.9859 208.899 49.233 208.899C49.4802 208.899 49.6922 208.987 49.8692 209.164C50.0462 209.341 50.1347 209.553 50.1347 209.8C50.1347 209.964 50.0929 210.114 50.0095 210.251C49.9293 210.388 49.8208 210.498 49.6839 210.582C49.5503 210.662 49.4 210.702 49.233 210.702Z" fill="#BAB9B9"/>
<path d="M20.1641 235.529V225.27H26.3153V226.372H21.4064V229.838H25.8545V230.94H21.4064V235.529H20.1641ZM28.4429 235.529V225.27H31.9092C32.7106 225.27 33.3685 225.407 33.8828 225.681C34.397 225.951 34.7777 226.324 35.0248 226.798C35.272 227.272 35.3955 227.811 35.3955 228.416C35.3955 229.02 35.272 229.556 35.0248 230.024C34.7777 230.491 34.3987 230.859 33.8878 231.126C33.3769 231.39 32.724 231.521 31.9292 231.521H29.1241V230.399H31.8892C32.4368 230.399 32.8776 230.319 33.2116 230.159C33.5488 229.999 33.7926 229.772 33.9429 229.478C34.0965 229.181 34.1733 228.827 34.1733 228.416C34.1733 228.005 34.0965 227.646 33.9429 227.339C33.7893 227.032 33.5438 226.795 33.2065 226.628C32.8693 226.457 32.4235 226.372 31.8691 226.372H29.6852V235.529H28.4429ZM33.2717 230.92L35.7962 235.529H34.3536L31.8691 230.92H33.2717ZM46.1212 230.399C46.1212 231.481 45.9259 232.416 45.5352 233.204C45.1445 233.993 44.6085 234.6 43.9273 235.028C43.246 235.455 42.4679 235.669 41.593 235.669C40.7181 235.669 39.94 235.455 39.2588 235.028C38.5775 234.6 38.0416 233.993 37.6509 233.204C37.2602 232.416 37.0648 231.481 37.0648 230.399C37.0648 229.317 37.2602 228.382 37.6509 227.594C38.0416 226.806 38.5775 226.198 39.2588 225.771C39.94 225.344 40.7181 225.13 41.593 225.13C42.4679 225.13 43.246 225.344 43.9273 225.771C44.6085 226.198 45.1445 226.806 45.5352 227.594C45.9259 228.382 46.1212 229.317 46.1212 230.399ZM44.9191 230.399C44.9191 229.511 44.7704 228.761 44.4732 228.15C44.1794 227.539 43.7803 227.077 43.2761 226.763C42.7752 226.449 42.2141 226.292 41.593 226.292C40.9719 226.292 40.4092 226.449 39.905 226.763C39.404 227.077 39.005 227.539 38.7078 228.15C38.4139 228.761 38.267 229.511 38.267 230.399C38.267 231.288 38.4139 232.037 38.7078 232.648C39.005 233.26 39.404 233.722 39.905 234.036C40.4092 234.35 40.9719 234.507 41.593 234.507C42.2141 234.507 42.7752 234.35 43.2761 234.036C43.7803 233.722 44.1794 233.26 44.4732 232.648C44.7704 232.037 44.9191 231.288 44.9191 230.399ZM48.21 225.27H49.6927L53.179 233.786H53.2993L56.7856 225.27H58.2683V235.529H57.1062V227.735H57.006L53.8002 235.529H52.6781L49.4723 227.735H49.3721V235.529H48.21V225.27ZM61.4603 234.216C61.2132 234.216 61.0011 234.128 60.8242 233.951C60.6472 233.774 60.5587 233.562 60.5587 233.315C60.5587 233.068 60.6472 232.856 60.8242 232.679C61.0011 232.502 61.2132 232.413 61.4603 232.413C61.7074 232.413 61.9195 232.502 62.0965 232.679C62.2735 232.856 62.3619 233.068 62.3619 233.315C62.3619 233.478 62.3202 233.629 62.2367 233.766C62.1566 233.902 62.048 234.013 61.9111 234.096C61.7776 234.176 61.6273 234.216 61.4603 234.216ZM61.4603 229.027C61.2132 229.027 61.0011 228.938 60.8242 228.761C60.6472 228.584 60.5587 228.372 60.5587 228.125C60.5587 227.878 60.6472 227.666 60.8242 227.489C61.0011 227.312 61.2132 227.224 61.4603 227.224C61.7074 227.224 61.9195 227.312 62.0965 227.489C62.2735 227.666 62.3619 227.878 62.3619 228.125C62.3619 228.289 62.3202 228.439 62.2367 228.576C62.1566 228.713 62.048 228.823 61.9111 228.907C61.7776 228.987 61.6273 229.027 61.4603 229.027Z" fill="#BAB9B9"/>
<path d="M137.924 216.177H51.8086V217.353H137.924V216.177Z" fill="#BAB9B9"/>
<path d="M137.926 235.055H63.709V236.23H137.926V235.055Z" fill="#BAB9B9"/>
</svg>
