<svg width="177" height="250" viewBox="0 0 177 250" fill="none" xmlns="http://www.w3.org/2000/svg">
<path d="M176.5 0H0V250H176.5V0Z" fill="white"/>
<mask id="mask0_2_60941" style="mask-type:luminance" maskUnits="userSpaceOnUse" x="0" y="0" width="177" height="250">
<path d="M176.5 0H0V250H176.5V0Z" fill="white"/>
</mask>
<g mask="url(#mask0_2_60941)">
<path d="M133 120.92C130.547 128.136 127.663 135.203 124.648 142.18C119.354 154.441 112.005 165.494 106.602 177.641C94.0621 205.833 90.7227 240.323 95.3166 270.795C95.415 271.449 94.4555 271.73 94.3558 271.07C89.9825 242.073 93.229 211.322 103.067 183.827C107.429 171.635 114.722 161.015 120.269 149.413C124.721 140.1 128.705 130.454 132.039 120.643C132.253 120.018 133.215 120.288 133 120.92Z" fill="#BFB0A9"/>
<path d="M130.78 115.048L133.319 115.181L134.096 115.222L136.634 115.355L138.269 123.848L133.691 123.606L132.912 123.567L128.334 123.327L130.78 115.048Z" fill="#C6C4BD"/>
<path d="M137.104 45.0871C152.791 45.9116 169.37 58.7406 164.213 84.0196C159.061 109.297 133.556 118.288 133.556 118.288C133.556 118.288 109.054 106.675 106.368 80.9849C103.685 55.2936 121.419 44.2652 137.104 45.0871Z" fill="#E0E0E0"/>
<path opacity="0.2" d="M129.174 66.8805C128.749 75.7067 135.276 83.223 143.761 83.6685C152.246 84.1127 159.471 77.3185 159.9 68.4923C160.328 59.6675 153.796 52.1499 145.312 51.7057C136.826 51.2602 129.603 58.0544 129.174 66.8805Z" fill="white"/>
<path opacity="0.2" d="M144.915 59.9201C144.809 62.1263 146.439 64.0027 148.556 64.1131C150.68 64.2248 152.483 62.5279 152.589 60.3231C152.696 58.1182 151.065 56.2404 148.943 56.1287C146.826 56.0183 145.021 57.7139 144.915 59.9201Z" fill="white"/>
<path d="M44.2499 120.92C46.703 128.136 49.5867 135.203 52.5993 142.18C57.8962 154.441 65.2423 165.494 70.6456 177.641C83.1849 205.833 86.5271 240.323 81.9305 270.795C81.8321 271.449 82.7916 271.73 82.8913 271.07C87.2673 242.073 84.0182 211.322 74.1804 183.827C69.8203 171.635 62.5261 161.015 56.9806 149.413C52.5262 140.1 48.5449 130.454 45.2107 120.643C44.9981 120.018 44.0346 120.288 44.2499 120.92Z" fill="#BFB0A9"/>
<path d="M45.7227 115.048L43.1831 115.18L42.4071 115.222L39.8689 115.355L38.2344 123.848L42.8124 123.606L43.5911 123.566L48.1691 123.327L45.7227 115.048Z" fill="#F2DB7C"/>
<path d="M39.3999 45.087C23.7124 45.9115 7.1332 58.7405 12.2906 84.0195C17.4427 109.297 42.948 118.288 42.948 118.288C42.948 118.288 67.45 106.675 70.1357 80.9848C72.8187 55.2936 55.0848 44.2652 39.3999 45.087Z" fill="#F4E59A"/>
<path opacity="0.2" d="M47.3294 66.8805C47.7546 75.7067 41.2271 83.223 32.7422 83.6685C24.2573 84.1126 17.0321 77.3185 16.6029 68.4923C16.175 59.6674 22.7078 52.1498 31.1927 51.7057C39.6777 51.2602 46.9001 58.0543 47.3294 66.8805Z" fill="white"/>
<path opacity="0.2" d="M31.5875 59.9201C31.6938 62.1263 30.0645 64.0027 27.9463 64.1131C25.8227 64.2248 24.0194 62.5279 23.9131 60.323C23.8068 58.1181 25.4374 56.2404 27.5596 56.1287C29.6765 56.0183 31.4812 57.7139 31.5875 59.9201Z" fill="white"/>
<path d="M87.9398 140.209C87.3245 185.654 85.6355 231.528 88.0102 276.931C88.0461 277.596 89.0428 277.601 89.0069 276.931C86.6322 231.53 88.3212 185.654 88.9364 140.209C88.9471 139.54 87.9504 139.542 87.9398 140.209Z" fill="#BFB0A9"/>
<path d="M91.4364 134.854H88.8982H88.1195H85.5787L83.5361 143.251H88.1195H88.8982H93.4815L91.4364 134.854Z" fill="#E57CA2"/>
<path d="M88.5088 64.653C72.8014 64.653 55.6242 76.5964 59.5484 102.115C63.4726 127.63 88.5088 137.946 88.5088 137.946C88.5088 137.946 113.542 127.63 117.469 102.115C121.393 76.5964 104.214 64.653 88.5088 64.653Z" fill="#F291B0"/>
<path opacity="0.2" d="M95.3741 86.8322C95.3741 95.6703 88.4878 102.834 79.9936 102.834C71.4993 102.834 64.6104 95.6703 64.6104 86.8322C64.6104 77.9954 71.4993 70.8315 79.9936 70.8315C88.4878 70.8315 95.3741 77.9954 95.3741 86.8322Z" fill="white"/>
<path opacity="0.2" d="M79.991 79.0566C79.991 81.2641 78.2727 83.0541 76.1492 83.0541C74.0229 83.0541 72.3047 81.2641 72.3047 79.0566C72.3047 76.8477 74.0229 75.0591 76.1492 75.0591C78.2727 75.0591 79.991 76.8491 79.991 79.0566Z" fill="white"/>
<path d="M62.7375 166.7C67.5388 198.663 73.3474 232.373 85.9665 262.084C86.2256 262.695 87.0854 262.167 86.8276 261.56C74.2497 231.945 68.4823 198.284 63.697 166.425C63.6 165.765 62.6392 166.046 62.7375 166.7Z" fill="#BFB0A9"/>
<path d="M63.8588 161.595L61.7592 162.254L61.116 162.456L59.0137 163.115L59.3353 170.594L63.1293 169.404L63.7737 169.201L67.5651 168.011L63.8588 161.595Z" fill="#90D6D3"/>
<path d="M44.5984 104.264C31.6006 108.341 20.2532 122.685 29.6192 142.781C38.9892 162.875 62.1796 164.913 62.1796 164.913C62.1796 164.913 80.4212 149.879 77.5482 127.745C74.6751 105.61 57.5936 100.185 44.5984 104.264Z" fill="#B2E4E3"/>
<path opacity="0.2" d="M55.5975 120.835C57.7184 128.148 53.7397 135.863 46.7086 138.068C39.6801 140.273 32.2622 136.133 30.1413 128.821C28.0204 121.508 32.0018 113.792 39.0302 111.586C46.0614 109.382 53.4792 113.523 55.5975 120.835Z" fill="white"/>
<path opacity="0.2" d="M41.0039 118.395C41.5328 120.222 40.5414 122.149 38.7846 122.699C37.0252 123.251 35.1741 122.217 34.6452 120.389C34.1163 118.562 35.1076 116.635 36.8671 116.083C38.6239 115.533 40.4737 116.567 41.0039 118.395Z" fill="white"/>
<path d="M113.033 166.425C108.247 198.284 102.481 231.945 89.9028 261.56C89.6463 262.167 90.5047 262.695 90.7638 262.084C103.383 232.373 109.192 198.663 113.993 166.7C114.092 166.046 113.132 165.765 113.033 166.425Z" fill="#BFB0A9"/>
<path d="M112.644 161.595L114.743 162.254L115.387 162.456L117.489 163.115L117.167 170.594L113.373 169.404L112.729 169.201L108.938 168.011L112.644 161.595Z" fill="#F4A68C"/>
<path d="M131.904 104.264C144.902 108.341 156.25 122.685 146.882 142.781C137.512 162.875 114.322 164.913 114.322 164.913C114.322 164.913 96.0803 149.879 98.9547 127.745C101.828 105.61 118.909 100.185 131.904 104.264Z" fill="#F7BBA1"/>
<path opacity="0.2" d="M120.906 120.835C118.785 128.148 122.764 135.864 129.795 138.068C136.824 140.273 144.241 136.133 146.362 128.821C148.483 121.508 144.502 113.792 137.472 111.586C130.442 109.382 123.024 113.523 120.906 120.835Z" fill="white"/>
<path opacity="0.2" d="M135.5 118.395C134.971 120.222 135.962 122.149 137.719 122.699C139.478 123.251 141.33 122.217 141.858 120.389C142.387 118.562 141.396 116.635 139.637 116.083C137.88 115.533 136.03 116.567 135.5 118.395Z" fill="white"/>
</g>
<path d="M28.9564 21.0717C28.9564 21.4145 29.0368 21.7222 29.1977 21.995C29.6384 22.7574 30.5896 23.1386 32.0515 23.1386C32.1634 22.5441 32.2194 22.0195 32.2194 21.5648C32.2194 21.2501 32.1739 20.9528 32.083 20.673C31.8312 19.9386 31.3451 19.5713 30.6246 19.5713C30.2749 19.5713 29.9566 19.6553 29.6698 19.8232C29.1942 20.1099 28.9564 20.5261 28.9564 21.0717ZM18.6952 18.0395C18.8351 18.0395 18.968 18.0745 19.0939 18.1444C19.3737 18.3053 19.5205 18.5431 19.5345 18.8579C19.2408 21.1521 19.0134 22.9533 18.8526 24.2613C18.4539 27.4579 18.2545 29.2695 18.2545 29.6962C18.2545 31.4658 18.7092 32.3541 19.6185 32.3611C20.3739 32.3611 21.1188 32.1933 21.8533 31.8575C21.5945 30.8223 21.4651 29.8221 21.4651 28.8568C21.4651 27.9895 21.5175 27.22 21.6224 26.5486C21.9932 24.2403 22.9689 23.0862 24.5497 23.0862C25.1932 23.0862 25.7388 23.2785 26.1865 23.6632C26.781 24.1809 27.0783 24.9083 27.0783 25.8456C27.0783 26.0904 27.0678 26.3387 27.0468 26.5905C26.8999 28.1783 26.3334 29.6752 25.3471 31.0811C24.8785 31.7526 24.4693 32.2003 24.1196 32.4241C24.1755 32.606 24.3714 32.6969 24.7071 32.6969C26.225 32.6899 27.6379 31.861 28.9459 30.2103C30.0511 28.8043 30.9569 26.9997 31.6633 24.7964C30.3903 24.7404 29.3691 24.4047 28.5997 23.7891C27.7043 23.0687 27.2567 22.072 27.2567 20.7989C27.2637 19.9246 27.6134 19.1831 28.3059 18.5746C28.9144 18.057 29.5929 17.7982 30.3413 17.7982C31.3136 17.7982 32.125 18.113 32.7755 18.7425C33.5099 19.4629 33.8771 20.4212 33.8771 21.6173C33.8771 21.8901 33.8527 22.3308 33.8037 22.9393C33.9576 22.9043 34.1115 22.8589 34.2654 22.8029C34.6431 22.677 35.1117 22.4392 35.6713 22.0894C36.07 21.8376 36.3987 21.7117 36.6575 21.7117C36.7695 21.7117 36.8744 21.7397 36.9723 21.7957C37.2381 21.9495 37.371 22.1839 37.371 22.4986C37.364 22.9253 37.0178 23.3415 36.3323 23.7472C35.5209 24.2228 34.5486 24.5376 33.4155 24.6915C32.779 27.0906 31.8522 29.1226 30.6351 30.7873C28.8864 33.1795 26.7985 34.3756 24.3714 34.3756C24.3154 34.3756 24.2525 34.3721 24.1825 34.3651C23.525 34.3162 22.9689 34.0329 22.5143 33.5153C21.514 34.0399 20.4368 34.3022 19.2827 34.3022C18.6532 34.3022 18.1251 34.1133 17.6984 33.7356C16.894 33.0221 16.4918 31.7281 16.4918 29.8535C16.4918 28.5805 16.6632 26.9193 17.006 24.8698C17.3347 22.8693 17.5341 21.4599 17.604 20.6415C16.9115 21.0822 16.3624 21.4249 15.9567 21.6698C15.2713 22.0894 14.8656 22.2993 14.7397 22.2993C14.5858 22.2993 14.4354 22.2573 14.2885 22.1734C14.0157 21.9985 13.8793 21.7537 13.8793 21.4389C13.8863 21.1452 14.0542 20.8829 14.3829 20.652C14.4179 20.6241 14.4984 20.5681 14.6243 20.4842C16.9955 18.8544 18.3524 18.0395 18.6952 18.0395ZM23.3327 30.7664C23.5565 30.5915 23.7908 30.3397 24.0356 30.0109C24.854 28.8988 25.2632 27.6048 25.2632 26.1289C25.2632 26.0659 25.2597 26.003 25.2527 25.94C25.2177 25.3665 24.9519 25.0797 24.4553 25.0797C24.0846 25.0867 23.7768 25.4294 23.532 26.1079C23.2662 26.8983 23.1333 27.8636 23.1333 29.0037C23.1333 29.4304 23.1998 30.0179 23.3327 30.7664ZM37.0248 33.5153C36.9198 34.0818 36.6401 34.3686 36.1854 34.3756C36.0175 34.3756 35.8671 34.3301 35.7342 34.2392C35.4614 34.0574 35.325 33.7636 35.325 33.3579C35.325 33.3579 35.9616 28.542 37.2346 18.9104C37.2486 18.8054 37.2731 18.704 37.308 18.6061C37.4549 18.2633 37.7102 18.092 38.074 18.092C38.2139 18.092 38.3468 18.1269 38.4727 18.1969C38.7524 18.3578 38.8993 18.5956 38.9133 18.9104C37.7172 28.3042 37.0877 33.1725 37.0248 33.5153ZM40.4032 31.4483C40.3682 31.3434 40.3507 31.2175 40.3507 31.0706C40.3507 30.9447 40.3752 30.8258 40.4242 30.7139C40.5501 30.4411 40.7564 30.3047 41.0432 30.3047C41.309 30.3117 41.5643 30.4656 41.8091 30.7664C41.8861 30.8643 41.9595 30.9552 42.0295 31.0391C43.0087 32.2422 43.946 32.8438 44.8413 32.8438C45.7227 32.8438 46.4781 32.5255 47.1076 31.889C47.7231 31.2595 48.0309 30.511 48.0309 29.6437C48.0239 28.8953 47.8281 28.2588 47.4434 27.7342C47.1356 27.3075 46.59 26.8668 45.8066 26.4122C44.9812 25.9295 44.4881 25.6322 44.3272 25.5203C43.9635 25.2685 43.6557 25.0097 43.4039 24.7439C42.7674 24.0724 42.4491 23.2436 42.4491 22.2573C42.4491 22.1314 42.4561 21.9985 42.4701 21.8586C42.5681 20.7954 43.0052 19.9001 43.7816 19.1727C44.579 18.4382 45.5163 18.071 46.5935 18.071C47.0551 18.071 47.5063 18.1444 47.947 18.2913C48.8633 18.6061 49.5697 19.1517 50.0664 19.9281C50.1503 20.1379 50.1923 20.2918 50.1923 20.3897C50.1923 20.5156 50.1573 20.6415 50.0873 20.7674C49.9335 21.0262 49.7131 21.1556 49.4263 21.1556C49.1745 21.1556 48.9962 21.0892 48.8913 20.9563C48.1778 20.096 47.4119 19.6623 46.5935 19.6553C45.95 19.6553 45.3799 19.8896 44.8833 20.3583C44.3307 20.8829 44.0544 21.5229 44.0544 22.2783C44.0544 22.7469 44.1978 23.1666 44.4846 23.5373C44.7434 23.8731 45.2505 24.2683 46.0059 24.7229C46.8313 25.2126 47.4468 25.6218 47.8525 25.9505C49.1536 26.9997 49.8041 28.2308 49.8041 29.6437C49.8041 29.9585 49.7726 30.2732 49.7096 30.588C49.4788 31.7001 48.9017 32.6269 47.9784 33.3684C47.0412 34.1238 45.9955 34.5015 44.8413 34.5015C44.0929 34.5015 43.3689 34.3057 42.6695 33.914C41.7042 33.3614 40.9488 32.5395 40.4032 31.4483ZM60.3276 33.4943C60.3276 33.5013 60.3241 33.5153 60.3171 33.5363C60.2401 34.0818 59.9604 34.3546 59.4777 34.3546C59.3098 34.3546 59.163 34.3127 59.0371 34.2287C58.7573 34.0469 58.6174 33.7496 58.6174 33.3369L59.3308 27.8286H54.515C54.2422 30.0599 53.9939 31.9485 53.77 33.4943C53.6721 34.0609 53.3853 34.3476 52.9097 34.3546C52.7558 34.3546 52.6194 34.3162 52.5005 34.2392C52.2067 34.0504 52.0598 33.7461 52.0598 33.3264C52.1018 32.9627 52.5075 29.92 53.2769 24.1983C53.7526 20.68 53.9904 18.9104 53.9904 18.8894C53.9904 18.7844 54.0323 18.662 54.1163 18.5221C54.3051 18.2214 54.5395 18.071 54.8193 18.071C54.9522 18.071 55.0781 18.106 55.197 18.1759C55.4698 18.3368 55.6166 18.5746 55.6376 18.8894L54.7353 26.1184C55.8615 26.1044 57.4702 26.0974 59.5617 26.0974C59.6316 25.5308 59.7575 24.5621 59.9394 23.1911C60.1842 21.3795 60.373 19.9456 60.5059 18.8894C60.5199 18.7844 60.5479 18.6795 60.5899 18.5746C60.7438 18.2389 61.0026 18.071 61.3663 18.071C61.4992 18.071 61.6286 18.106 61.7545 18.1759C62.0343 18.3368 62.1847 18.5746 62.2056 18.8894L61.2928 26.0974H63.9368C64.0977 26.0974 64.2481 26.1254 64.388 26.1813C64.7377 26.3352 64.9126 26.5975 64.9126 26.9682C64.9126 27.0802 64.8846 27.1921 64.8287 27.304C64.6888 27.5908 64.416 27.7656 64.0103 27.8286H61.083C60.6493 31.2 60.3975 33.0886 60.3276 33.4943ZM67.3258 33.5153C67.2208 34.0818 66.9411 34.3686 66.4864 34.3756C66.3185 34.3756 66.1681 34.3301 66.0352 34.2392C65.7624 34.0574 65.6261 33.7636 65.6261 33.3579C65.6261 33.3579 66.2626 28.542 67.5356 18.9104C67.5496 18.8054 67.5741 18.704 67.609 18.6061C67.7559 18.2633 68.0112 18.092 68.375 18.092C68.5149 18.092 68.6478 18.1269 68.7737 18.1969C69.0535 18.3578 69.2003 18.5956 69.2143 18.9104C68.0182 28.3042 67.3887 33.1725 67.3258 33.5153ZM81.5739 33.5363C81.497 34.0748 81.2137 34.3476 80.7241 34.3546C80.3604 34.3476 80.0561 34.1413 79.8113 33.7356L74.4918 21.6068C74.4289 22.1804 74.3519 22.8239 74.261 23.5373C73.5615 29.3569 73.1418 32.6759 73.002 33.4943C72.904 34.0609 72.6172 34.3476 72.1416 34.3546C71.9807 34.3546 71.8303 34.3092 71.6905 34.2182C71.4177 34.0364 71.2813 33.7426 71.2813 33.3369C72.5473 23.7332 73.1838 18.9173 73.1908 18.8894C73.2118 18.7705 73.2503 18.6585 73.3062 18.5536C73.4811 18.2668 73.7399 18.1234 74.0826 18.1234C74.5373 18.1234 74.8311 18.2598 74.964 18.5326L80.252 30.3991L81.7943 18.9313C81.8013 18.8054 81.8328 18.683 81.8887 18.5641C82.0356 18.2563 82.2769 18.1025 82.6127 18.1025C82.7595 18.1025 82.9029 18.1409 83.0428 18.2179C83.3156 18.3857 83.452 18.6271 83.452 18.9418C83.424 19.1796 83.3926 19.435 83.3576 19.7077C82.3294 27.9965 81.7348 32.606 81.5739 33.5363ZM91.1112 26.1289C91.1112 26.1289 92.4122 26.1289 95.0142 26.1289C95.1611 26.1289 95.301 26.1638 95.4339 26.2338C95.7137 26.3947 95.8536 26.6395 95.8536 26.9682C95.8536 27.0662 95.8431 27.1501 95.8221 27.22C95.7452 27.5488 95.6578 27.881 95.5598 28.2168C95.0142 30.0004 94.1994 31.4728 93.1152 32.6339C92.038 33.7811 90.9293 34.3546 89.7892 34.3546C89.6353 34.3546 89.4779 34.3441 89.3171 34.3232C88.2539 34.1623 87.369 33.5223 86.6626 32.4031C85.8862 31.1511 85.498 29.5843 85.498 27.7027C85.498 26.5975 85.6519 25.4819 85.9596 24.3557C86.4562 22.5371 87.2292 21.0297 88.2784 19.8337C89.3765 18.5886 90.5481 17.9661 91.7932 17.9661C92.3178 17.9661 92.8109 18.078 93.2726 18.3018C94.2798 18.7984 95.0387 19.7497 95.5493 21.1556C95.6123 21.2816 95.6438 21.411 95.6438 21.5439C95.6438 21.6907 95.6053 21.8306 95.5284 21.9635C95.3605 22.2433 95.1192 22.3832 94.8044 22.3832C94.7205 22.3832 94.633 22.3692 94.5421 22.3412C94.2693 22.2503 94.0909 22.0754 94.007 21.8166L93.965 21.7432C93.8391 21.4005 93.6818 21.0927 93.4929 20.8199C92.9823 20.0785 92.3598 19.7077 91.6253 19.7077C91.1986 19.7077 90.7685 19.8651 90.3348 20.1799C89.5164 20.7674 88.8065 21.7887 88.2049 23.2436C87.5894 24.7404 87.2816 26.2093 87.2816 27.6502C87.2816 29.0352 87.5054 30.1893 87.9531 31.1126C88.4497 32.1338 89.1282 32.6444 89.9886 32.6444C90.5691 32.6374 91.1986 32.2562 91.8771 31.5008C92.7095 30.5635 93.3775 29.3499 93.8811 27.8601C92.0835 27.8601 91.1497 27.8496 91.0797 27.8286C90.4712 27.7307 90.1599 27.4159 90.1459 26.8843C90.1599 26.7794 90.1879 26.685 90.2299 26.601C90.3838 26.2863 90.6775 26.1289 91.1112 26.1289ZM116.974 18.1444C117.107 18.1444 117.236 18.1759 117.362 18.2389C117.642 18.3927 117.792 18.6341 117.813 18.9628C116.659 28.0769 116.023 33.0012 115.904 33.7356C115.638 35.2884 115.134 36.5719 114.393 37.5862C113.267 39.118 111.707 39.8839 109.714 39.8839C109.07 39.8839 108.318 39.6846 107.458 39.2859C106.255 38.7263 105.426 37.9989 104.971 37.1035C104.908 36.9776 104.877 36.8412 104.877 36.6944C104.877 36.5475 104.915 36.4076 104.992 36.2747C105.16 35.9949 105.401 35.855 105.716 35.855C105.968 35.862 106.181 35.9774 106.356 36.2012C107.398 37.5652 108.601 38.2507 109.965 38.2577C111.05 38.2507 111.983 37.7785 112.767 36.8412C113.655 35.7641 114.173 34.2917 114.32 32.4241C114.047 32.8438 113.701 33.2075 113.281 33.5153C112.518 34.0609 111.676 34.3336 110.752 34.3336C110.598 34.3336 110.441 34.3232 110.28 34.3022C109.203 34.1483 108.311 33.5083 107.605 32.3821C106.821 31.1301 106.43 29.5633 106.43 27.6817C106.43 26.8283 106.468 25.947 106.545 25.0377C106.678 23.6108 106.996 21.5858 107.5 18.9628C107.514 18.8789 107.538 18.7984 107.573 18.7215C107.72 18.3368 107.972 18.1444 108.329 18.1444C108.469 18.1444 108.605 18.1829 108.738 18.2598C109.018 18.4207 109.158 18.6446 109.158 18.9313C109.158 19.365 109.028 20.4387 108.769 22.1524C108.399 24.6705 108.213 26.3107 108.213 27.0732C108.213 28.64 108.423 29.9165 108.843 30.9027C109.325 32.0499 110.021 32.6234 110.931 32.6234C111.022 32.6234 111.116 32.613 111.214 32.592C111.899 32.4521 112.602 31.889 113.323 30.9027C114.148 29.7696 114.729 28.4721 115.065 27.0102L116.135 18.9628C116.149 18.8369 116.184 18.718 116.24 18.6061C116.394 18.2983 116.638 18.1444 116.974 18.1444ZM119.177 27.7027C119.177 26.5625 119.342 25.4119 119.671 24.2508C120.181 22.4532 120.965 20.9668 122.021 19.7917C123.112 18.5746 124.263 17.9661 125.473 17.9661C126.606 17.9731 127.568 18.4907 128.358 19.5189C129.197 20.6171 129.673 22.072 129.785 23.8836C130.016 23.7996 130.355 23.6528 130.803 23.4429C131.369 23.1701 131.799 23.0337 132.093 23.0337C132.226 23.0337 132.352 23.0687 132.471 23.1386C132.73 23.2925 132.859 23.5164 132.859 23.8101C132.852 24.0759 132.73 24.3312 132.492 24.5761C131.974 25.0867 131.061 25.4644 129.753 25.7092C129.69 26.4786 129.558 27.2375 129.355 27.986C128.865 29.8396 128.082 31.3609 127.004 32.55C125.913 33.7531 124.742 34.3546 123.49 34.3546C123.336 34.3546 123.182 34.3441 123.028 34.3232C121.951 34.1693 121.059 33.5293 120.353 32.4031C119.569 31.1511 119.177 29.5843 119.177 27.7027ZM120.961 27.4194C120.961 28.6924 121.143 29.8011 121.507 30.7454C121.996 32.0114 122.717 32.6444 123.668 32.6444C123.906 32.6444 124.154 32.585 124.413 32.4661C125.175 32.1163 125.892 31.3434 126.564 30.1473C127.326 28.8113 127.802 27.3844 127.991 25.8666C126.949 25.8526 126.001 25.5623 125.147 24.9957C124.014 24.2403 123.206 23.1212 122.724 21.6383C121.577 23.352 120.989 25.279 120.961 27.4194ZM125.798 19.9386C125.616 19.9386 125.452 19.977 125.305 20.054C124.92 20.2708 124.728 20.6975 124.728 21.334C124.728 21.4459 124.738 21.5648 124.759 21.6907C124.885 22.4462 125.368 23.0792 126.207 23.5898C126.851 23.9745 127.463 24.1739 128.043 24.1878C128.001 23.5933 127.917 23.0372 127.791 22.5196C127.407 20.8619 126.742 20.0015 125.798 19.9386ZM142.889 33.4943C142.889 33.5013 142.889 33.5118 142.889 33.5258C142.805 34.0783 142.519 34.3546 142.029 34.3546C141.868 34.3546 141.725 34.3127 141.599 34.2287C141.319 34.0469 141.179 33.7496 141.179 33.3369C141.179 33.253 141.207 32.9487 141.263 32.4241C140.983 32.8578 140.627 33.232 140.193 33.5467C139.431 34.0853 138.595 34.3546 137.685 34.3546C137.531 34.3546 137.374 34.3441 137.213 34.3232C136.136 34.1693 135.244 33.5293 134.538 32.4031C133.754 31.1511 133.363 29.5843 133.363 27.7027C133.363 25.8911 133.698 23.1107 134.37 19.3615C134.405 19.1587 134.426 19.0328 134.433 18.9838C134.454 18.8859 134.482 18.7879 134.517 18.69C134.671 18.3333 134.915 18.1549 135.251 18.1549C135.384 18.1549 135.514 18.1899 135.639 18.2598C135.919 18.4137 136.07 18.655 136.091 18.9838C136.063 19.1447 136.031 19.337 135.996 19.5609C135.43 23.1142 135.146 25.6253 135.146 27.0941C135.146 28.661 135.356 29.9375 135.776 30.9237C136.258 32.0709 136.954 32.6444 137.864 32.6444C137.948 32.6444 138.035 32.6374 138.126 32.6234C138.812 32.4905 139.518 31.9275 140.245 30.9342C141.071 29.8081 141.655 28.5036 141.998 27.0207L143.068 18.9838C143.075 18.8509 143.11 18.725 143.173 18.6061C143.327 18.3053 143.571 18.1549 143.907 18.1549C144.04 18.1549 144.166 18.1899 144.285 18.2598C144.565 18.4137 144.719 18.655 144.747 18.9838C144.663 19.6203 144.568 20.3548 144.463 21.1871C143.435 29.294 142.91 33.3964 142.889 33.4943ZM161.712 18.5117C161.747 18.5886 161.782 18.683 161.817 18.7949C161.985 19.3685 162.912 24.1983 164.597 33.2844C164.618 33.3544 164.629 33.4243 164.629 33.4943C164.629 33.6412 164.59 33.7846 164.514 33.9245C164.346 34.2112 164.111 34.3546 163.811 34.3546C163.769 34.3546 163.723 34.3511 163.674 34.3441C163.338 34.2882 163.122 34.0958 163.024 33.7671L162.079 28.9722H157.253L154.987 33.7881C154.959 33.837 154.924 33.886 154.882 33.9349C154.665 34.2147 154.427 34.3546 154.168 34.3546C154.007 34.3546 153.857 34.3092 153.717 34.2182C153.465 34.0434 153.339 33.809 153.339 33.5153C153.339 33.4313 153.357 33.3474 153.392 33.2635C153.539 32.9277 153.78 32.3996 154.116 31.6792C157.473 24.3347 159.481 20.0015 160.138 18.6795C160.327 18.2948 160.596 18.099 160.946 18.092C161.282 18.099 161.537 18.2389 161.712 18.5117ZM160.652 21.7432L158.05 27.22H161.723L160.652 21.7432Z" fill="#B2ADAF"/>
<path d="M20.1182 199.461L27.8549 210.482L20.1182 221.504H72.8869L35.1957 210.482V199.461H20.1182Z" fill="#F4B3CB"/>
<path d="M35.1953 214.878L72.8865 221.504L71.3423 214.878H35.1953Z" fill="#ED4581"/>
<path d="M158.104 199.461L150.37 210.482L158.104 221.504H103.846L143.027 210.482V199.461H158.104Z" fill="#F4B3CB"/>
<path d="M143.027 214.878L103.846 221.504L105.393 214.878H143.027Z" fill="#ED4581"/>
<path d="M143.275 187.77H35.1963V214.876H143.275V187.77Z" fill="#F291B0"/>
<path d="M47.6439 206.495C47.6439 206.5 47.6412 206.511 47.6359 206.527C47.5775 206.941 47.3653 207.148 46.9992 207.148C46.8718 207.148 46.7604 207.116 46.6649 207.052C46.4526 206.914 46.3465 206.689 46.3465 206.376L46.8877 202.197H43.2345C43.0276 203.89 42.8392 205.322 42.6694 206.495C42.5951 206.925 42.3776 207.142 42.0168 207.148C41.9 207.148 41.7966 207.119 41.7064 207.06C41.4835 206.917 41.3721 206.686 41.3721 206.368C41.4039 206.092 41.7117 203.784 42.2953 199.443C42.6561 196.774 42.8366 195.432 42.8366 195.416C42.8366 195.336 42.8684 195.244 42.9321 195.137C43.0753 194.909 43.2531 194.795 43.4653 194.795C43.5661 194.795 43.6616 194.822 43.7519 194.875C43.9588 194.997 44.0702 195.177 44.0861 195.416L43.4016 200.9C44.2559 200.889 45.4763 200.884 47.0628 200.884C47.1159 200.454 47.2114 199.719 47.3494 198.679C47.5351 197.305 47.6783 196.217 47.7792 195.416C47.7898 195.336 47.811 195.257 47.8428 195.177C47.9596 194.923 48.1559 194.795 48.4318 194.795C48.5326 194.795 48.6308 194.822 48.7263 194.875C48.9385 194.997 49.0526 195.177 49.0685 195.416L48.3761 200.884H50.3818C50.5038 200.884 50.6179 200.905 50.724 200.948C50.9893 201.064 51.122 201.263 51.122 201.544C51.122 201.629 51.1008 201.714 51.0583 201.799C50.9522 202.017 50.7453 202.149 50.4375 202.197H48.2169C47.8879 204.755 47.6969 206.187 47.6439 206.495ZM56.6615 195.129C56.6881 195.188 56.7146 195.259 56.7411 195.344C56.8685 195.779 57.5715 199.443 58.8503 206.336C58.8662 206.389 58.8742 206.442 58.8742 206.495C58.8742 206.606 58.845 206.715 58.7866 206.821C58.6593 207.039 58.4815 207.148 58.2533 207.148C58.2215 207.148 58.187 207.145 58.1499 207.14C57.8952 207.097 57.7307 206.951 57.6564 206.702L56.9401 203.065H53.2789L51.5597 206.718C51.5385 206.755 51.512 206.792 51.4801 206.829C51.3157 207.042 51.1352 207.148 50.9389 207.148C50.8169 207.148 50.7028 207.113 50.5967 207.044C50.4057 206.912 50.3102 206.734 50.3102 206.511C50.3102 206.447 50.3234 206.384 50.3499 206.32C50.4614 206.065 50.6444 205.665 50.8991 205.118C53.446 199.547 54.9689 196.26 55.4677 195.257C55.6109 194.965 55.8152 194.816 56.0805 194.811C56.3352 194.816 56.5289 194.923 56.6615 195.129ZM55.8577 197.581L53.8838 201.736H56.6695L55.8577 197.581ZM67.5814 197.159C67.5761 198.422 67.0906 199.494 66.1249 200.374C65.2123 201.202 63.9919 201.778 62.4637 202.102L61.8827 206.495C61.8774 206.527 61.8721 206.559 61.8668 206.591C61.7872 206.962 61.5776 207.148 61.238 207.148C61.1107 207.148 60.9992 207.116 60.9037 207.052C60.6915 206.914 60.5854 206.689 60.5854 206.376C60.5854 206.339 61.0682 202.685 62.0339 195.416C62.0445 195.326 62.0711 195.238 62.1135 195.153C62.2462 194.904 62.4531 194.779 62.7343 194.779C63.2225 194.689 63.7451 194.644 64.3023 194.644C64.8806 194.644 65.398 194.716 65.8543 194.859C67.0057 195.225 67.5814 195.992 67.5814 197.159ZM66.3876 197.231C66.3876 197.204 66.3876 197.175 66.3876 197.143C66.3398 196.273 65.6553 195.838 64.3341 195.838C63.9733 195.838 63.6072 195.864 63.2357 195.917C63.2039 196.22 63.0049 197.804 62.6388 200.669C63.3817 200.558 64.0821 200.3 64.74 199.897C65.8384 199.223 66.3876 198.334 66.3876 197.231ZM75.3018 197.159C75.2964 198.422 74.8109 199.494 73.8452 200.374C72.9326 201.202 71.7122 201.778 70.184 202.102L69.603 206.495C69.5977 206.527 69.5924 206.559 69.5871 206.591C69.5075 206.962 69.2979 207.148 68.9583 207.148C68.831 207.148 68.7196 207.116 68.6241 207.052C68.4118 206.914 68.3057 206.689 68.3057 206.376C68.3057 206.339 68.7885 202.685 69.7543 195.416C69.7649 195.326 69.7914 195.238 69.8338 195.153C69.9665 194.904 70.1734 194.779 70.4547 194.779C70.9428 194.689 71.4655 194.644 72.0226 194.644C72.601 194.644 73.1183 194.716 73.5746 194.859C74.726 195.225 75.3018 195.992 75.3018 197.159ZM74.1079 197.231C74.1079 197.204 74.1079 197.175 74.1079 197.143C74.0601 196.273 73.3756 195.838 72.0544 195.838C71.6936 195.838 71.3275 195.864 70.9561 195.917C70.9242 196.22 70.7253 197.804 70.3591 200.669C71.102 200.558 71.8024 200.3 72.4603 199.897C73.5587 199.223 74.1079 198.334 74.1079 197.231ZM84.3592 194.851C84.46 194.851 84.5582 194.875 84.6537 194.923C84.8659 195.039 84.98 195.222 84.9959 195.472C84.1204 202.386 83.6376 206.121 83.5474 206.678C83.3458 207.856 82.9637 208.83 82.4013 209.599C81.547 210.761 80.3637 211.342 78.8515 211.342C78.3634 211.342 77.793 211.191 77.1403 210.888C76.2277 210.464 75.5989 209.912 75.254 209.233C75.2062 209.137 75.1824 209.034 75.1824 208.923C75.1824 208.811 75.2115 208.705 75.2699 208.604C75.3973 208.392 75.5803 208.286 75.8191 208.286C76.0101 208.291 76.1719 208.379 76.3046 208.549C77.0952 209.583 78.0078 210.103 79.0425 210.108C79.865 210.103 80.5733 209.745 81.1676 209.034C81.8415 208.217 82.2341 207.1 82.3456 205.683C82.1386 206.002 81.876 206.278 81.5576 206.511C80.9792 206.925 80.3399 207.132 79.6395 207.132C79.5227 207.132 79.4033 207.124 79.2813 207.108C78.4642 206.991 77.7876 206.506 77.2517 205.651C76.6575 204.702 76.3603 203.513 76.3603 202.086C76.3603 201.438 76.3895 200.77 76.4479 200.08C76.5487 198.998 76.7901 197.461 77.1721 195.472C77.1828 195.408 77.2013 195.347 77.2279 195.289C77.3393 194.997 77.5303 194.851 77.8009 194.851C77.907 194.851 78.0105 194.88 78.1113 194.938C78.3236 195.06 78.4297 195.23 78.4297 195.448C78.4297 195.777 78.3315 196.591 78.1352 197.891C77.854 199.801 77.7134 201.046 77.7134 201.624C77.7134 202.813 77.8725 203.781 78.1909 204.529C78.557 205.399 79.085 205.834 79.7748 205.834C79.8437 205.834 79.9154 205.826 79.9897 205.811C80.5097 205.704 81.0429 205.277 81.5894 204.529C82.2156 203.67 82.656 202.685 82.9107 201.576L83.7225 195.472C83.7331 195.376 83.7596 195.286 83.8021 195.201C83.9188 194.968 84.1045 194.851 84.3592 194.851ZM95.9795 194.7C98.2346 194.71 99.3834 195.554 99.4258 197.231C99.4152 198.653 98.9376 199.735 97.9932 200.478C99.4152 200.908 100.129 201.85 100.134 203.303C100.097 203.892 99.9723 204.418 99.7601 204.879C99.0438 206.429 97.367 207.203 94.7299 207.203C94.4116 207.203 93.934 207.185 93.2973 207.148C93.1699 207.148 93.0532 207.113 92.9471 207.044C92.7402 206.896 92.6367 206.673 92.6367 206.376L94.0852 195.416C94.0905 195.326 94.1118 195.238 94.1489 195.153C94.2603 194.915 94.4514 194.795 94.722 194.795C95.1624 194.731 95.5816 194.7 95.9795 194.7ZM94.6105 201.409C94.6105 201.409 94.4116 202.911 94.0136 205.914C94.3161 205.935 94.5522 205.946 94.722 205.946C95.555 205.946 96.2846 205.848 96.9107 205.651C98.2107 205.238 98.8607 204.455 98.8607 203.303C98.8554 202.518 98.3354 201.98 97.3007 201.688C96.7436 201.539 95.8469 201.446 94.6105 201.409ZM95.2871 195.917L94.7618 200.096C94.9369 200.096 95.0987 200.091 95.2473 200.08C97.1893 199.974 98.1603 199.032 98.1603 197.255C98.155 196.819 97.9772 196.485 97.627 196.252C97.245 196.013 96.5924 195.894 95.6691 195.894C95.5471 195.894 95.4197 195.901 95.2871 195.917ZM103.007 203.073C103.007 203.073 103.997 203.073 105.976 203.073C106.098 203.073 106.204 203.094 106.295 203.136C106.512 203.232 106.621 203.415 106.621 203.685C106.616 203.717 106.61 203.752 106.605 203.789C106.525 204.091 106.31 204.243 105.96 204.243H103.007C102.933 204.243 102.859 204.235 102.785 204.219C102.493 204.144 102.347 203.943 102.347 203.614C102.347 203.518 102.371 203.431 102.418 203.351C102.54 203.165 102.737 203.073 103.007 203.073ZM110.115 194.795C110.311 194.769 110.584 194.755 110.935 194.755C111.847 194.755 112.649 194.907 113.338 195.209C114.877 195.878 115.646 197.215 115.646 199.22C115.646 199.645 115.628 200.059 115.591 200.462C115.352 203.03 114.378 204.882 112.67 206.018C111.534 206.771 110.202 207.148 108.674 207.148C108.552 207.148 108.443 207.116 108.348 207.052C108.136 206.914 108.03 206.689 108.03 206.376C108.03 206.27 108.512 202.616 109.478 195.416C109.483 195.331 109.502 195.251 109.534 195.177C109.645 194.933 109.839 194.806 110.115 194.795ZM114.397 199.276C114.397 198.464 114.232 197.79 113.903 197.255C113.389 196.416 112.54 195.997 111.357 195.997C111.144 195.997 110.911 196.016 110.656 196.053L109.422 205.779C109.502 205.773 109.587 205.768 109.677 205.763C110.659 205.667 111.529 205.314 112.288 204.704C113.694 203.574 114.397 201.765 114.397 199.276ZM121.894 195.129C121.921 195.188 121.947 195.259 121.974 195.344C122.101 195.779 122.804 199.443 124.083 206.336C124.099 206.389 124.107 206.442 124.107 206.495C124.107 206.606 124.078 206.715 124.019 206.821C123.892 207.039 123.714 207.148 123.486 207.148C123.454 207.148 123.42 207.145 123.383 207.14C123.128 207.097 122.964 206.951 122.889 206.702L122.173 203.065H118.512L116.793 206.718C116.771 206.755 116.745 206.792 116.713 206.829C116.548 207.042 116.368 207.148 116.172 207.148C116.05 207.148 115.936 207.113 115.83 207.044C115.639 206.912 115.543 206.734 115.543 206.511C115.543 206.447 115.556 206.384 115.583 206.32C115.694 206.065 115.877 205.665 116.132 205.118C118.679 199.547 120.202 196.26 120.7 195.257C120.844 194.965 121.048 194.816 121.313 194.811C121.568 194.816 121.762 194.923 121.894 195.129ZM121.09 197.581L119.117 201.736H121.902L121.09 197.581ZM133.849 194.851C133.95 194.851 134.048 194.875 134.143 194.923C134.356 195.039 134.47 195.222 134.486 195.472C133.61 202.386 133.127 206.121 133.037 206.678C132.835 207.856 132.453 208.83 131.891 209.599C131.037 210.761 129.853 211.342 128.341 211.342C127.853 211.342 127.283 211.191 126.63 210.888C125.717 210.464 125.089 209.912 124.744 209.233C124.696 209.137 124.672 209.034 124.672 208.923C124.672 208.811 124.701 208.705 124.76 208.604C124.887 208.392 125.07 208.286 125.309 208.286C125.5 208.291 125.662 208.379 125.794 208.549C126.585 209.583 127.498 210.103 128.532 210.108C129.355 210.103 130.063 209.745 130.657 209.034C131.331 208.217 131.724 207.1 131.835 205.683C131.628 206.002 131.366 206.278 131.047 206.511C130.469 206.925 129.83 207.132 129.129 207.132C129.012 207.132 128.893 207.124 128.771 207.108C127.954 206.991 127.277 206.506 126.741 205.651C126.147 204.702 125.85 203.513 125.85 202.086C125.85 201.438 125.879 200.77 125.938 200.08C126.038 198.998 126.28 197.461 126.662 195.472C126.672 195.408 126.691 195.347 126.718 195.289C126.829 194.997 127.02 194.851 127.291 194.851C127.397 194.851 127.5 194.88 127.601 194.938C127.813 195.06 127.919 195.23 127.919 195.448C127.919 195.777 127.821 196.591 127.625 197.891C127.344 199.801 127.203 201.046 127.203 201.624C127.203 202.813 127.362 203.781 127.681 204.529C128.047 205.399 128.575 205.834 129.264 205.834C129.333 205.834 129.405 205.826 129.479 205.811C129.999 205.704 130.533 205.277 131.079 204.529C131.705 203.67 132.146 202.685 132.4 201.576L133.212 195.472C133.223 195.376 133.249 195.286 133.292 195.201C133.409 194.968 133.594 194.851 133.849 194.851Z" fill="white"/>
</svg>
