<svg width="177" height="250" viewBox="0 0 177 250" fill="none" xmlns="http://www.w3.org/2000/svg">
<path d="M176.5 0H0V250H176.5V0Z" fill="white"/>
<mask id="mask0_2_60944" style="mask-type:luminance" maskUnits="userSpaceOnUse" x="0" y="0" width="177" height="250">
<path d="M176.5 0H0V250H176.5V0Z" fill="white"/>
</mask>
<g mask="url(#mask0_2_60944)">
<path d="M89.5523 -28.7459H86.8945V54.8374H89.5523V-28.7459Z" fill="#BFB0A9"/>
<path d="M128.753 55.8641L120.035 62.1968L125.678 71.3807L115.197 73.8768L116.89 84.5262L106.251 82.832L103.755 93.3205L94.578 87.6739L88.2498 96.3977L81.9217 87.6739L72.7444 93.3205L70.2487 82.8293L59.6097 84.5262L61.3027 73.8768L50.8231 71.3807L56.4642 62.1968L47.748 55.8641L56.4642 49.534L50.8231 40.3501L61.3027 37.8513L59.6097 27.2046L70.2487 28.8975L72.7471 18.4104L81.9217 24.0569L88.2498 15.3318L94.578 24.0569L103.755 18.4104L106.251 28.8975L116.89 27.2046L115.197 37.8513L125.678 40.3501L120.035 49.534L128.753 55.8641Z" fill="#F291B0"/>
<path d="M88.0254 55.8641L88.25 15.3318L81.9219 24.0569L88.0254 55.8641Z" fill="#F4BDD1"/>
<path d="M72.7473 18.4104L88.0255 55.8641L70.0244 28.8975L72.7473 18.4104Z" fill="#F4BDD1"/>
<path d="M59.6094 27.2046L88.0249 55.8641L61.3024 37.8513L59.6094 27.2046Z" fill="#F4BDD1"/>
<path d="M50.8232 40.3501L88.0254 55.8641L56.4644 49.534L50.8232 40.3501Z" fill="#F4BDD1"/>
<path d="M47.748 55.8641H88.0253L56.4642 62.1968L47.748 55.8641Z" fill="#F4BDD1"/>
<path d="M50.8232 71.3807L88.25 55.8641L61.3028 73.8768L50.8232 71.3807Z" fill="#F4BDD1"/>
<path d="M59.6094 84.5262L88.2495 55.8641L70.2484 82.8293L59.6094 84.5262Z" fill="#F4BDD1"/>
<path d="M72.7441 93.3205L88.2496 55.8641L81.9214 87.6739L72.7441 93.3205Z" fill="#F4BDD1"/>
<path d="M88.25 96.3977V55.8641L94.5782 87.6739L88.25 96.3977Z" fill="#F4BDD1"/>
<path d="M103.755 93.3205L88.25 55.8641L106.251 82.832L103.755 93.3205Z" fill="#F4BDD1"/>
<path d="M116.89 84.5262L88.25 55.8641L115.197 73.8768L116.89 84.5262Z" fill="#F4BDD1"/>
<path d="M120.036 62.1968C120.036 62.1968 87.1617 55.1366 88.2501 55.8641C89.3371 56.5915 125.677 71.3807 125.677 71.3807L120.036 62.1968Z" fill="#F4BDD1"/>
<path d="M128.753 55.8641H88.25L120.036 49.534L128.753 55.8641Z" fill="#F4BDD1"/>
<path d="M116.89 27.2046L106.251 28.8975L88.2236 55.6061L116.89 27.2046Z" fill="#F4BDD1"/>
<path d="M103.53 18.4104L94.3522 24.0569L88.0254 55.8641L103.53 18.4104Z" fill="#F4BDD1"/>
<path d="M125.678 40.3501L115.197 37.8513L88.25 55.8641L125.678 40.3501Z" fill="#F4BDD1"/>
<path d="M41.0757 -28.7459H38.418V102.899H41.0757V-28.7459Z" fill="#BFB0A9"/>
<path d="M77.6707 117.961L69.5101 123.888L74.7924 132.491L64.9772 134.826L66.5626 144.797L56.6013 143.21L54.2651 153.03L45.6725 147.746L39.747 155.911L33.8228 147.746L25.2302 153.03L22.8927 143.21L12.9314 144.795L14.5168 134.826L4.70294 132.488L9.98526 123.888L1.82324 117.961L9.98526 112.034L4.70294 103.434L14.5168 101.095L12.9314 91.1223L22.8927 92.7127L25.2302 82.8919L33.8228 88.178L39.747 80.0087L45.6725 88.178L54.2651 82.8919L56.6013 92.7127L66.5639 91.1249L64.9786 101.095L74.7924 103.434L69.5101 112.034L77.6707 117.961Z" fill="#8BD6D2"/>
<path d="M39.5375 117.961L39.7474 80.0087L33.8232 88.178L39.5375 117.961Z" fill="#B0E2DE"/>
<path d="M25.2301 82.8919L39.5369 117.961L22.6826 92.7127L25.2301 82.8919Z" fill="#B0E2DE"/>
<path d="M12.9316 91.1223L39.5373 117.961L14.517 101.095L12.9316 91.1223Z" fill="#B0E2DE"/>
<path d="M4.70312 103.434L39.5372 117.961L9.98545 112.034L4.70312 103.434Z" fill="#B0E2DE"/>
<path d="M1.82324 117.961H39.537L9.98526 123.888L1.82324 117.961Z" fill="#B0E2DE"/>
<path d="M4.70312 132.488L39.7472 117.961L14.517 134.826L4.70312 132.488Z" fill="#B0E2DE"/>
<path d="M12.9316 144.795L39.7472 117.961L22.893 143.21L12.9316 144.795Z" fill="#B0E2DE"/>
<path d="M25.2305 153.03L39.7472 117.961L33.823 147.746L25.2305 153.03Z" fill="#B0E2DE"/>
<path d="M39.7471 155.911V117.961L45.6726 147.746L39.7471 155.911Z" fill="#B0E2DE"/>
<path d="M54.2652 153.03L39.7471 117.961L56.6013 143.21L54.2652 153.03Z" fill="#B0E2DE"/>
<path d="M66.5627 144.797L39.7471 117.961L64.9773 134.826L66.5627 144.797Z" fill="#B0E2DE"/>
<path d="M69.5104 123.888C69.5104 123.888 38.7294 117.278 39.7474 117.961C40.7666 118.642 74.7927 132.491 74.7927 132.491L69.5104 123.888Z" fill="#B0E2DE"/>
<path d="M77.6708 117.961H39.7471L69.5101 112.034L77.6708 117.961Z" fill="#B0E2DE"/>
<path d="M66.5635 91.1249L56.6008 92.7127L39.7227 117.719L66.5635 91.1249Z" fill="#B0E2DE"/>
<path d="M54.0539 82.8919L45.4613 88.178L39.5371 117.961L54.0539 82.8919Z" fill="#B0E2DE"/>
<path d="M74.7925 103.434L64.9786 101.095L39.7471 117.961L74.7925 103.434Z" fill="#B0E2DE"/>
<g opacity="0.2">
<path d="M39.7462 144.133C25.3252 144.133 13.5938 132.393 13.5938 117.961C13.5938 103.527 25.3252 91.7872 39.7462 91.7872C54.1673 91.7872 65.8987 103.527 65.8987 117.961C65.8987 132.393 54.1673 144.133 39.7462 144.133ZM39.7462 94.3697C26.7471 94.3697 16.1718 104.954 16.1718 117.961C16.1718 130.968 26.7471 141.553 39.7462 141.553C52.7454 141.553 63.3207 130.968 63.3207 117.961C63.3207 104.954 52.7454 94.3697 39.7462 94.3697Z" fill="white"/>
</g>
<g opacity="0.2">
<path d="M39.7466 134.878C30.4258 134.878 22.8418 127.289 22.8418 117.961C22.8418 108.631 30.4258 101.042 39.7466 101.042C49.0674 101.042 56.6513 108.631 56.6513 117.961C56.6513 127.289 49.0674 134.878 39.7466 134.878ZM39.7466 103.624C31.8477 103.624 25.4212 110.055 25.4212 117.961C25.4212 125.864 31.8477 132.296 39.7466 132.296C47.6455 132.296 54.072 125.864 54.072 117.961C54.072 110.055 47.6455 103.624 39.7466 103.624Z" fill="white"/>
</g>
<g opacity="0.2">
<path d="M45.6543 117.961C45.6543 121.226 43.0085 123.875 39.7461 123.875C36.4824 123.875 33.8379 121.226 33.8379 117.961C33.8379 114.694 36.4824 112.047 39.7461 112.047C43.0085 112.047 45.6543 114.694 45.6543 117.961Z" fill="white"/>
</g>
<path d="M137.575 -28.7459H134.917V102.899H137.575V-28.7459Z" fill="#BFB0A9"/>
<path d="M174.17 117.961L166.008 123.888L171.29 132.491L161.476 134.826L163.062 144.797L153.1 143.21L150.764 153.03L142.17 147.746L136.246 155.911L130.322 147.746L121.729 153.03L119.392 143.21L109.43 144.795L111.014 134.826L101.201 132.488L106.483 123.888L98.3223 117.961L106.483 112.034L101.201 103.434L111.014 101.095L109.43 91.1222L119.392 92.7127L121.729 82.8918L130.322 88.1779L136.246 80.0087L142.17 88.1779L150.764 82.8918L153.1 92.7127L163.063 91.1249L161.478 101.095L171.29 103.434L166.008 112.034L174.17 117.961Z" fill="#F4E67A"/>
<path d="M136.036 117.961L136.246 80.0087L130.322 88.178L136.036 117.961Z" fill="#F9EEAF"/>
<path d="M121.729 82.8918L136.036 117.961L119.182 92.7127L121.729 82.8918Z" fill="#F9EEAF"/>
<path d="M109.43 91.1223L136.035 117.961L111.014 101.095L109.43 91.1223Z" fill="#F9EEAF"/>
<path d="M101.201 103.434L136.037 117.961L106.483 112.034L101.201 103.434Z" fill="#F9EEAF"/>
<path d="M98.3223 117.961H136.036L106.483 123.888L98.3223 117.961Z" fill="#F9EEAF"/>
<path d="M101.201 132.488L136.247 117.961L111.015 134.826L101.201 132.488Z" fill="#F9EEAF"/>
<path d="M109.43 144.795L136.245 117.961L119.391 143.21L109.43 144.795Z" fill="#F9EEAF"/>
<path d="M121.729 153.03L136.245 117.961L130.321 147.746L121.729 153.03Z" fill="#F9EEAF"/>
<path d="M136.246 155.911V117.961L142.17 147.746L136.246 155.911Z" fill="#F9EEAF"/>
<path d="M150.764 153.03L136.246 117.961L153.1 143.21L150.764 153.03Z" fill="#F9EEAF"/>
<path d="M163.062 144.797L136.246 117.961L161.476 134.826L163.062 144.797Z" fill="#F9EEAF"/>
<path d="M166.008 123.888C166.008 123.888 135.227 117.278 136.246 117.961C137.266 118.642 171.292 132.491 171.292 132.491L166.008 123.888Z" fill="#F9EEAF"/>
<path d="M174.17 117.961H136.246L166.008 112.034L174.17 117.961Z" fill="#F9EEAF"/>
<path d="M163.063 91.1249L153.1 92.7127L136.221 117.719L163.063 91.1249Z" fill="#F9EEAF"/>
<path d="M150.553 82.8918L141.96 88.1779L136.036 117.961L150.553 82.8918Z" fill="#F9EEAF"/>
<path d="M171.29 103.434L161.478 101.095L136.246 117.961L171.29 103.434Z" fill="#F9EEAF"/>
<g opacity="0.2">
<path d="M136.246 144.132C121.825 144.132 110.094 132.393 110.094 117.961C110.094 103.527 121.825 91.7872 136.246 91.7872C150.667 91.7872 162.399 103.527 162.399 117.961C162.399 132.393 150.666 144.132 136.246 144.132ZM136.246 94.3697C123.247 94.3697 112.672 104.954 112.672 117.961C112.672 130.968 123.247 141.553 136.246 141.553C149.245 141.553 159.821 130.968 159.821 117.961C159.821 104.954 149.245 94.3697 136.246 94.3697Z" fill="white"/>
</g>
<g opacity="0.2">
<path d="M136.247 134.878C126.926 134.878 119.342 127.289 119.342 117.961C119.342 108.631 126.924 101.042 136.247 101.042C145.567 101.042 153.151 108.631 153.151 117.961C153.151 127.289 145.567 134.878 136.247 134.878ZM136.247 103.624C128.348 103.624 121.921 110.055 121.921 117.961C121.921 125.864 128.348 132.296 136.247 132.296C144.145 132.296 150.572 125.864 150.572 117.961C150.572 110.055 144.145 103.624 136.247 103.624Z" fill="white"/>
</g>
<g opacity="0.2">
<path d="M142.154 117.961C142.154 121.226 139.509 123.875 136.246 123.875C132.982 123.875 130.338 121.226 130.338 117.961C130.338 114.694 132.982 112.047 136.246 112.047C139.509 112.047 142.154 114.694 142.154 117.961Z" fill="white"/>
</g>
</g>
<path d="M24.4986 169.157C29.0492 169.178 31.3673 170.881 31.453 174.264C31.4315 177.134 30.4679 179.318 28.562 180.817C31.4315 181.684 32.8717 183.585 32.8824 186.519C32.8074 187.707 32.5558 188.767 32.1275 189.699C30.682 192.825 27.2985 194.389 21.977 194.389C21.3345 194.389 20.3709 194.351 19.086 194.276C18.829 194.276 18.5935 194.207 18.3793 194.067C17.9617 193.768 17.7529 193.318 17.7529 192.718L20.676 170.602C20.6868 170.42 20.7296 170.244 20.8045 170.072C21.0294 169.591 21.4148 169.35 21.9609 169.35C22.8496 169.221 23.6955 169.157 24.4986 169.157ZM21.7361 182.696C21.7361 182.696 21.3345 185.727 20.5315 191.787C21.1418 191.83 21.6183 191.851 21.9609 191.851C23.642 191.851 25.1142 191.653 26.3777 191.257C29.001 190.422 30.3126 188.842 30.3126 186.519C30.3019 184.934 29.2526 183.847 27.1647 183.258C26.0404 182.959 24.2309 182.771 21.7361 182.696ZM23.1012 171.614L22.0412 180.046C22.3946 180.046 22.7211 180.036 23.0209 180.014C26.9398 179.8 28.8993 177.899 28.8993 174.313C28.8885 173.435 28.5299 172.76 27.8232 172.289C27.0522 171.807 25.7352 171.566 23.8722 171.566C23.6259 171.566 23.3689 171.582 23.1012 171.614ZM38.9855 192.991C38.8249 193.859 38.3966 194.298 37.7007 194.308C37.4437 194.308 37.2135 194.239 37.01 194.1C36.5925 193.821 36.3837 193.372 36.3837 192.75C36.3837 192.75 37.358 185.379 39.3068 170.635C39.3282 170.474 39.3657 170.319 39.4192 170.169C39.644 169.644 40.0349 169.382 40.5916 169.382C40.8058 169.382 41.0092 169.435 41.202 169.542C41.6302 169.789 41.8551 170.153 41.8765 170.635C40.0456 185.014 39.0819 192.467 38.9855 192.991ZM48.3812 192.959C48.2313 193.827 47.7923 194.266 47.0642 194.276C46.8179 194.276 46.5984 194.212 46.4057 194.084C45.9774 193.805 45.7633 193.35 45.7633 192.718C46.2451 188.692 47.2141 181.32 48.6703 170.602C48.7024 170.388 48.8149 170.19 49.0076 170.008C49.3716 169.676 49.816 169.51 50.3406 169.51C51.2936 169.328 52.3429 169.237 53.4886 169.237C54.3024 169.237 55.0519 169.296 55.7371 169.414C58.7459 169.96 60.2503 171.62 60.2503 174.393C60.2503 175.474 60.0736 176.486 59.7202 177.428C58.6388 180.33 55.978 182.445 51.7379 183.772L60.6036 191.867C60.9569 192.242 61.139 192.627 61.1497 193.024C61.1497 193.238 61.0908 193.452 60.973 193.666C60.716 194.073 60.368 194.276 59.929 194.276C59.5864 194.276 59.2384 194.159 58.8851 193.923C58.6388 193.752 55.4748 190.866 49.393 185.266C48.8577 189.528 48.5204 192.092 48.3812 192.959ZM51.1116 171.855C51.1116 171.855 50.6993 175.062 49.8749 181.476C51.3953 181.251 52.8301 180.753 54.1792 179.982C56.5241 178.611 57.6966 176.77 57.6966 174.457C57.6859 172.605 56.2832 171.668 53.4886 171.646C53.2744 171.646 52.4821 171.716 51.1116 171.855ZM82.5429 170.715C82.5429 170.94 82.4786 171.149 82.3501 171.341C82.0825 171.737 81.6809 171.935 81.1456 171.935H73.8057C72.0925 185.448 71.1878 192.456 71.0914 192.959C71.0807 193.024 71.07 193.088 71.0593 193.152C70.888 193.902 70.4543 194.276 69.7584 194.276C69.5014 194.276 69.2765 194.207 69.0838 194.067C68.6769 193.789 68.4735 193.339 68.4735 192.718C68.4735 192.59 69.1213 187.707 70.4169 178.071C70.8559 174.826 71.1289 172.781 71.236 171.935H64.3779C64.1317 171.935 63.8961 171.898 63.6712 171.823C63.1038 171.63 62.82 171.277 62.82 170.763C62.82 170.506 62.8843 170.265 63.0127 170.04C63.2697 169.612 63.6712 169.398 64.2173 169.398H81.1777C81.3276 169.398 81.4882 169.43 81.6595 169.494C82.2484 169.719 82.5429 170.126 82.5429 170.715ZM94.6689 192.959C94.6689 192.97 94.6636 192.991 94.6528 193.024C94.5351 193.859 94.1068 194.276 93.368 194.276C93.111 194.276 92.8861 194.212 92.6934 194.084C92.2651 193.805 92.051 193.35 92.051 192.718L93.1431 184.286H85.7711C85.3535 187.702 84.9734 190.593 84.6308 192.959C84.4809 193.827 84.0419 194.266 83.3138 194.276C83.0782 194.276 82.8695 194.217 82.6874 194.1C82.2377 193.811 82.0129 193.345 82.0129 192.702C82.0771 192.146 82.6981 187.488 83.8759 178.729C84.604 173.343 84.9681 170.635 84.9681 170.602C84.9681 170.442 85.0323 170.254 85.1608 170.04C85.4499 169.58 85.8086 169.35 86.2369 169.35C86.4403 169.35 86.6331 169.403 86.8151 169.51C87.2327 169.757 87.4575 170.121 87.4897 170.602L86.1084 181.668C87.8323 181.647 90.295 181.636 93.4965 181.636C93.6035 180.769 93.7963 179.286 94.0747 177.187C94.4494 174.414 94.7385 172.219 94.9419 170.602C94.9634 170.442 95.0062 170.281 95.0704 170.121C95.306 169.607 95.7022 169.35 96.2589 169.35C96.4624 169.35 96.6605 169.403 96.8532 169.51C97.2815 169.757 97.5117 170.121 97.5438 170.602L96.1465 181.636H100.194C100.44 181.636 100.67 181.679 100.885 181.765C101.42 182 101.688 182.402 101.688 182.969C101.688 183.141 101.645 183.312 101.559 183.483C101.345 183.922 100.927 184.19 100.306 184.286H95.8253C95.1614 189.447 94.776 192.338 94.6689 192.959ZM106.634 169.35C107.03 169.296 107.582 169.269 108.289 169.269C110.13 169.269 111.747 169.575 113.139 170.185C116.244 171.534 117.797 174.232 117.797 178.28C117.797 179.136 117.759 179.971 117.684 180.785C117.202 185.967 115.238 189.704 111.79 191.996C109.499 193.516 106.811 194.276 103.727 194.276C103.481 194.276 103.262 194.212 103.069 194.084C102.641 193.805 102.426 193.35 102.426 192.718C102.426 192.504 103.401 185.132 105.349 170.602C105.36 170.431 105.398 170.271 105.462 170.121C105.687 169.628 106.078 169.371 106.634 169.35ZM115.275 178.392C115.275 176.754 114.943 175.394 114.279 174.313C113.241 172.621 111.528 171.775 109.14 171.775C108.712 171.775 108.24 171.812 107.726 171.887L105.237 191.514C105.398 191.503 105.569 191.492 105.751 191.482C107.732 191.289 109.488 190.577 111.019 189.346C113.856 187.065 115.275 183.414 115.275 178.392ZM130.405 170.024C130.458 170.142 130.512 170.287 130.565 170.458C130.822 171.336 132.241 178.729 134.821 192.638C134.853 192.745 134.87 192.852 134.87 192.959C134.87 193.184 134.811 193.404 134.693 193.618C134.436 194.057 134.077 194.276 133.617 194.276C133.553 194.276 133.483 194.271 133.408 194.26C132.894 194.175 132.562 193.88 132.412 193.377L130.967 186.037H123.579L120.109 193.409C120.067 193.484 120.013 193.559 119.949 193.634C119.617 194.062 119.253 194.276 118.857 194.276C118.61 194.276 118.38 194.207 118.166 194.067C117.781 193.8 117.588 193.441 117.588 192.991C117.588 192.863 117.615 192.734 117.668 192.606C117.893 192.092 118.262 191.284 118.776 190.181C123.916 178.938 126.989 172.305 127.995 170.281C128.285 169.692 128.697 169.393 129.232 169.382C129.746 169.393 130.137 169.607 130.405 170.024ZM128.782 174.971L124.799 183.355H130.421L128.782 174.971ZM154.528 169.462C154.732 169.462 154.93 169.51 155.122 169.607C155.551 169.842 155.781 170.212 155.813 170.715C154.046 184.666 153.072 192.204 152.89 193.329C152.483 195.706 151.712 197.671 150.577 199.223C148.853 201.568 146.466 202.74 143.414 202.74C142.429 202.74 141.278 202.435 139.961 201.825C138.119 200.968 136.85 199.855 136.154 198.484C136.058 198.292 136.01 198.083 136.01 197.858C136.01 197.633 136.069 197.419 136.187 197.215C136.443 196.787 136.813 196.573 137.295 196.573C137.68 196.584 138.007 196.76 138.274 197.103C139.87 199.191 141.711 200.24 143.799 200.251C145.459 200.24 146.888 199.518 148.088 198.083C149.448 196.434 150.24 194.18 150.465 191.321C150.047 191.964 149.517 192.52 148.875 192.991C147.708 193.827 146.417 194.244 145.004 194.244C144.768 194.244 144.527 194.228 144.281 194.196C142.632 193.96 141.267 192.981 140.186 191.257C138.986 189.34 138.387 186.942 138.387 184.062C138.387 182.755 138.446 181.406 138.564 180.014C138.767 177.83 139.254 174.73 140.025 170.715C140.046 170.586 140.084 170.463 140.138 170.345C140.362 169.757 140.748 169.462 141.294 169.462C141.508 169.462 141.717 169.521 141.92 169.639C142.349 169.885 142.563 170.228 142.563 170.667C142.563 171.331 142.365 172.974 141.968 175.597C141.401 179.452 141.117 181.963 141.117 183.13C141.117 185.528 141.438 187.483 142.081 188.992C142.82 190.748 143.885 191.626 145.277 191.626C145.416 191.626 145.561 191.61 145.711 191.578C146.76 191.364 147.836 190.502 148.939 188.992C150.202 187.258 151.091 185.271 151.605 183.034L153.243 170.715C153.265 170.522 153.318 170.34 153.404 170.169C153.639 169.698 154.014 169.462 154.528 169.462Z" fill="#B2ADAF"/>
<path d="M55.8054 203.753C55.7959 206.024 54.9226 207.952 53.1856 209.537C51.544 211.025 49.3489 212.061 46.6002 212.643L45.5551 220.546C45.5456 220.603 45.536 220.66 45.5265 220.717C45.3833 221.385 45.0063 221.72 44.3955 221.72C44.1665 221.72 43.9661 221.662 43.7943 221.548C43.4125 221.3 43.2216 220.894 43.2216 220.331C43.2216 220.264 44.0901 213.693 45.8271 200.618C45.8462 200.455 45.8939 200.298 45.9703 200.145C46.2089 199.697 46.5811 199.472 47.0869 199.472C47.965 199.31 48.9051 199.229 49.9072 199.229C50.9475 199.229 51.878 199.358 52.6988 199.616C54.7699 200.274 55.8054 201.653 55.8054 203.753ZM53.658 203.882C53.658 203.834 53.658 203.782 53.658 203.724C53.5721 202.159 52.3409 201.376 49.9645 201.376C49.3155 201.376 48.6569 201.424 47.9889 201.52C47.9316 202.064 47.5737 204.913 46.9152 210.066C48.2513 209.866 49.5111 209.403 50.6946 208.678C52.6702 207.466 53.658 205.867 53.658 203.882ZM64.939 200.102C64.9867 200.207 65.0345 200.336 65.0822 200.489C65.3112 201.271 66.5758 207.862 68.8759 220.259C68.9046 220.355 68.9189 220.45 68.9189 220.546C68.9189 220.746 68.8664 220.942 68.7614 221.133C68.5323 221.524 68.2126 221.72 67.8022 221.72C67.745 221.72 67.6829 221.715 67.6161 221.705C67.158 221.629 66.8621 221.366 66.7285 220.918L65.4401 214.375H58.8547L55.7625 220.946C55.7243 221.013 55.6766 221.08 55.6193 221.147C55.3234 221.529 54.9989 221.72 54.6458 221.72C54.4263 221.72 54.2211 221.657 54.0302 221.533C53.6866 221.295 53.5148 220.975 53.5148 220.574C53.5148 220.46 53.5387 220.345 53.5864 220.231C53.7868 219.773 54.1161 219.052 54.5742 218.069C59.1554 208.048 61.8945 202.135 62.7916 200.331C63.0493 199.806 63.4168 199.539 63.894 199.53C64.3521 199.539 64.7004 199.73 64.939 200.102ZM63.4931 204.512L59.9427 211.985H64.9533L63.4931 204.512ZM74.7741 220.546C74.6405 221.319 74.2492 221.71 73.6002 221.72C73.3807 221.72 73.1851 221.662 73.0133 221.548C72.6315 221.3 72.4406 220.894 72.4406 220.331C72.8701 216.742 73.7338 210.171 75.0318 200.618C75.0605 200.427 75.1607 200.25 75.3325 200.088C75.657 199.792 76.053 199.644 76.5207 199.644C77.3701 199.482 78.3054 199.401 79.3266 199.401C80.052 199.401 80.7201 199.453 81.3309 199.558C84.0127 200.045 85.3537 201.524 85.3537 203.996C85.3537 204.96 85.1962 205.862 84.8812 206.702C83.9173 209.288 81.5456 211.173 77.7662 212.357L85.6686 219.572C85.9836 219.906 86.1458 220.25 86.1554 220.603C86.1554 220.794 86.1029 220.985 85.9979 221.176C85.7688 221.538 85.4587 221.72 85.0674 221.72C84.7619 221.72 84.4518 221.615 84.1368 221.405C83.9173 221.252 81.097 218.68 75.676 213.688C75.1988 217.487 74.8982 219.773 74.7741 220.546ZM77.2079 201.734C77.2079 201.734 76.8404 204.593 76.1055 210.31C77.4608 210.109 78.7397 209.665 79.9422 208.978C82.0324 207.757 83.0774 206.115 83.0774 204.054C83.0679 202.402 81.8176 201.567 79.3266 201.548C79.1357 201.548 78.4295 201.61 77.2079 201.734ZM105.224 200.718C105.224 200.918 105.167 201.104 105.053 201.276C104.814 201.629 104.456 201.806 103.979 201.806H97.4364C95.9094 213.85 95.1029 220.097 95.017 220.546C95.0074 220.603 94.9979 220.66 94.9884 220.717C94.8357 221.385 94.4491 221.72 93.8288 221.72C93.5997 221.72 93.3993 221.657 93.2275 221.533C92.8648 221.285 92.6835 220.884 92.6835 220.331C92.6835 220.216 93.2609 215.864 94.4157 207.275C94.807 204.383 95.0504 202.56 95.1458 201.806H89.0329C88.8134 201.806 88.6034 201.773 88.403 201.706C87.8972 201.534 87.6442 201.219 87.6442 200.761C87.6442 200.532 87.7015 200.317 87.816 200.117C88.0451 199.735 88.403 199.544 88.8897 199.544H104.007C104.141 199.544 104.284 199.573 104.437 199.63C104.962 199.83 105.224 200.193 105.224 200.718ZM119.683 199.601C119.865 199.601 120.041 199.644 120.213 199.73C120.595 199.94 120.8 200.269 120.829 200.718C119.254 213.154 118.386 219.873 118.223 220.875C117.861 222.994 117.173 224.745 116.162 226.129C114.625 228.219 112.497 229.264 109.777 229.264C108.899 229.264 107.873 228.992 106.699 228.448C105.057 227.685 103.926 226.692 103.306 225.47C103.22 225.299 103.177 225.112 103.177 224.912C103.177 224.712 103.23 224.521 103.335 224.339C103.564 223.958 103.893 223.767 104.322 223.767C104.666 223.776 104.957 223.934 105.196 224.239C106.618 226.1 108.259 227.036 110.12 227.045C111.6 227.036 112.874 226.391 113.943 225.112C115.155 223.643 115.861 221.634 116.062 219.085C115.689 219.658 115.217 220.154 114.644 220.574C113.604 221.319 112.454 221.691 111.194 221.691C110.984 221.691 110.769 221.677 110.55 221.648C109.08 221.438 107.863 220.565 106.899 219.028C105.83 217.32 105.296 215.182 105.296 212.615C105.296 211.45 105.348 210.248 105.453 209.007C105.635 207.06 106.069 204.297 106.756 200.718C106.775 200.603 106.809 200.494 106.856 200.389C107.057 199.864 107.4 199.601 107.887 199.601C108.078 199.601 108.264 199.654 108.445 199.759C108.827 199.978 109.018 200.284 109.018 200.675C109.018 201.267 108.841 202.732 108.488 205.07C107.983 208.506 107.73 210.744 107.73 211.784C107.73 213.922 108.016 215.664 108.589 217.01C109.247 218.575 110.197 219.357 111.437 219.357C111.562 219.357 111.69 219.343 111.824 219.314C112.759 219.124 113.718 218.355 114.702 217.01C115.828 215.463 116.62 213.693 117.078 211.698L118.538 200.718C118.557 200.546 118.605 200.384 118.681 200.231C118.891 199.811 119.225 199.601 119.683 199.601ZM126.512 220.431C126.512 220.183 126.574 219.954 126.698 219.744C126.956 219.324 127.323 219.114 127.801 219.114C128.049 219.114 128.278 219.181 128.488 219.314C128.908 219.563 129.118 219.935 129.118 220.431C129.118 220.67 129.051 220.894 128.917 221.104C128.66 221.514 128.287 221.72 127.801 221.72C127.562 221.72 127.333 221.653 127.114 221.519C126.713 221.261 126.512 220.899 126.512 220.431ZM127.343 215.277C127.343 215.277 127.977 210.534 129.247 201.047C129.304 200.646 129.437 200.331 129.647 200.102C129.848 199.892 130.091 199.787 130.378 199.787C130.673 199.787 130.902 199.859 131.065 200.002C131.284 200.193 131.394 200.475 131.394 200.847C131.394 200.933 131.389 201.019 131.38 201.104L129.69 215.22C129.643 215.583 129.547 215.893 129.404 216.151C129.127 216.618 128.779 216.852 128.359 216.852C128.254 216.852 128.154 216.833 128.058 216.795C127.581 216.613 127.343 216.108 127.343 215.277Z" fill="#B2ADAF"/>
<path d="M159.202 9.53234C160.309 10.9486 163.174 12.2439 164.588 11.1348C166.002 10.0257 165.432 6.93248 164.325 5.51886C163.217 4.10125 161.173 3.85388 159.758 4.96031C158.342 6.0694 158.094 8.11605 159.202 9.53234Z" fill="#FBD8C5"/>
<path d="M148.61 18.0074C148.123 18.9476 148.131 20.8028 149.072 21.2881C150.013 21.7762 151.531 20.711 152.017 19.7708C152.503 18.8279 152.135 17.6696 151.194 17.1843C150.254 16.6962 149.096 17.0645 148.61 18.0074Z" fill="#F4B1C3"/>
<path d="M166.703 36.6718C166.733 35.2329 165.611 32.9788 164.172 32.9495C162.734 32.9189 161.522 35.1291 161.493 36.568C161.464 38.0069 162.606 39.1985 164.044 39.2277C165.485 39.257 166.674 38.1133 166.703 36.6718Z" fill="#B2E4E3"/>
<path d="M146.639 49.2694C146.153 50.2096 146.161 52.0647 147.102 52.5527C148.042 53.0381 149.56 51.9743 150.046 51.0341C150.533 50.0912 150.165 48.9356 149.224 48.4475C148.284 47.9595 147.125 48.3265 146.639 49.2694Z" fill="#F9EEAF"/>
<path d="M124.223 29.5451C123.737 30.4853 123.745 32.3404 124.686 32.8285C125.626 33.3139 127.144 32.25 127.63 31.3085C128.117 30.3656 127.749 29.21 126.808 28.7219C125.868 28.2352 124.711 28.6022 124.223 29.5451Z" fill="#F9EEAF"/>
<path d="M114.785 8.49635C114.813 7.05746 113.693 4.80338 112.254 4.77146C110.816 4.74354 109.604 6.95373 109.575 8.39262C109.546 9.83151 110.688 11.0217 112.126 11.0523C113.567 11.0802 114.756 9.93524 114.785 8.49635Z" fill="#B2E4E3"/>
<path d="M81.2627 8.94983C80.775 9.89003 80.7843 11.7452 81.7252 12.2306C82.6647 12.7186 84.1836 11.6534 84.6686 10.7132C85.155 9.77037 84.7882 8.61206 83.8474 8.12667C82.9052 7.63862 81.7477 8.00697 81.2627 8.94983Z" fill="#F4B1C3"/>
<path d="M162.448 70.1053C161.961 71.0455 161.969 72.9007 162.91 73.3887C163.851 73.8741 165.369 72.8103 165.855 71.8687C166.341 70.9259 165.973 69.7702 165.032 69.2822C164.092 68.7955 162.934 69.1625 162.448 70.1053Z" fill="#F4B1C3"/>
<path d="M164.792 157.137C165.9 158.552 168.764 159.849 170.178 158.739C171.592 157.63 171.022 154.537 169.915 153.124C168.807 151.706 166.762 151.459 165.348 152.565C163.932 153.674 163.684 155.722 164.792 157.137Z" fill="#FBD8C5"/>
<path d="M160.317 206.723C159.83 207.666 159.838 209.518 160.779 210.006C161.72 210.492 163.238 209.429 163.724 208.486C164.21 207.546 163.842 206.388 162.902 205.9C161.961 205.414 160.803 205.783 160.317 206.723Z" fill="#F9EEAF"/>
<path d="M162.286 238.797C161.799 239.74 161.807 241.593 162.748 242.081C163.689 242.566 165.206 241.504 165.693 240.561C166.179 239.621 165.811 238.462 164.87 237.974C163.929 237.489 162.772 237.857 162.286 238.797Z" fill="#F4B1C3"/>
<path d="M132.74 238.481C132.253 239.424 132.261 241.276 133.202 241.764C134.143 242.25 135.661 241.187 136.147 240.244C136.633 239.304 136.265 238.146 135.324 237.658C134.384 237.172 133.226 237.541 132.74 238.481Z" fill="#F9EEAF"/>
<path d="M91.2781 238.345C91.306 236.906 90.1857 234.65 88.7479 234.62C87.31 234.592 86.0968 236.8 86.0689 238.239C86.041 239.678 87.1825 240.871 88.6203 240.899C90.0582 240.928 91.2489 239.785 91.2781 238.345Z" fill="#B2E4E3"/>
<path d="M11.7896 243.506C12.8979 244.923 15.7616 246.218 17.1769 245.109C18.5908 244.002 18.0208 240.909 16.9138 239.493C15.8055 238.077 13.7603 237.828 12.3451 238.937C10.9298 240.045 10.6826 242.091 11.7896 243.506Z" fill="#E0E0E0"/>
<path d="M47.1489 240.702C46.6638 241.645 46.6718 243.498 47.6113 243.985C48.5535 244.473 50.0698 243.408 50.5575 242.465C51.0425 241.525 50.6744 240.367 49.7349 239.881C48.794 239.393 47.6366 239.762 47.1489 240.702Z" fill="#F9EEAF"/>
<path d="M29.8263 213.17C30.9346 214.586 33.7983 215.882 35.2136 214.772C36.6275 213.666 36.0575 210.573 34.9505 209.157C33.8422 207.74 31.797 207.492 30.3818 208.601C28.9678 209.707 28.7193 211.754 29.8263 213.17Z" fill="#FBD8C5"/>
<path d="M65.3862 157.973C64.9011 158.914 64.9091 160.769 65.8486 161.257C66.7908 161.742 68.3071 160.678 68.7948 159.737C69.2798 158.794 68.9117 157.638 67.9722 157.15C67.0313 156.665 65.8739 157.031 65.3862 157.973Z" fill="#F9EEAF"/>
<path d="M15.0184 195.3C15.0463 193.861 13.926 191.604 12.4882 191.575C11.0503 191.547 9.83838 193.754 9.80914 195.193C9.77991 196.635 10.9227 197.824 12.3606 197.853C13.7985 197.885 14.9905 196.738 15.0184 195.3Z" fill="#B2E4E3"/>
<path d="M10.7621 152.911C10.2758 153.854 10.2837 155.709 11.2246 156.194C12.1654 156.682 13.683 155.617 14.1694 154.674C14.6544 153.734 14.2877 152.576 13.3468 152.09C12.406 151.602 11.2485 151.971 10.7621 152.911Z" fill="#F9EEAF"/>
<path d="M91.9683 146.212C93.0766 147.629 95.9404 148.924 97.3556 147.815C98.7696 146.706 98.1995 143.612 97.0925 142.196C95.9842 140.781 93.9391 140.531 92.5238 141.64C91.1099 142.751 90.8627 144.797 91.9683 146.212Z" fill="#FBD8C5"/>
<path d="M85.0239 111.143C84.5375 112.083 84.5455 113.938 85.4863 114.424C86.4272 114.912 87.9447 113.847 88.4311 112.906C88.9162 111.964 88.5494 110.805 87.6085 110.32C86.669 109.832 85.5116 110.2 85.0239 111.143Z" fill="#F9EEAF"/>
<path d="M5.3344 76.3078C4.84803 77.248 4.856 79.1031 5.79685 79.5885C6.7377 80.0765 8.25529 79.0114 8.74167 78.0712C9.22671 77.1283 8.85993 75.97 7.91908 75.4846C6.97823 74.9965 5.82077 75.3649 5.3344 76.3078Z" fill="#F4B1C3"/>
<path d="M26.7674 55.6114C26.7953 54.1725 25.6751 51.9184 24.2372 51.8865C22.7993 51.8573 21.5874 54.0688 21.5582 55.5077C21.5289 56.9466 22.6718 58.1368 24.1096 58.1674C25.5475 58.1966 26.7382 57.0503 26.7674 55.6114Z" fill="#B2E4E3"/>
<path d="M49.2956 14.369C50.4026 15.7839 53.2663 17.0805 54.6816 15.9714C56.0969 14.8623 55.5254 11.7691 54.4185 10.3528C53.3102 8.93785 51.2664 8.68784 49.8511 9.79693C48.4372 10.906 48.1873 12.9527 49.2956 14.369Z" fill="#E0E0E0"/>
<path d="M18.8174 35.8233C18.3297 36.7635 18.339 38.6173 19.2798 39.1067C20.2194 39.5921 21.7383 38.5269 22.2233 37.5867C22.7097 36.6438 22.3429 35.4882 21.4021 35.0002C20.4599 34.5134 19.3024 34.8791 18.8174 35.8233Z" fill="#F4B1C3"/>
<path d="M6.39845 18.0074C5.91208 18.9476 5.92138 20.8028 6.8609 21.2881C7.80175 21.7762 9.31934 20.711 9.80571 19.7708C10.2921 18.8279 9.92398 17.6696 8.98446 17.1843C8.04228 16.6962 6.88482 17.0645 6.39845 18.0074Z" fill="#F9EEAF"/>
<path d="M26.7674 8.9977C26.7953 7.55881 25.6751 5.30471 24.2372 5.27545C22.7993 5.24487 21.5874 7.45508 21.5582 8.89397C21.5289 10.3329 22.6718 11.5244 24.1096 11.5537C25.5475 11.5816 26.7382 10.4393 26.7674 8.9977Z" fill="#B2E4E3"/>
</svg>
