<svg width="177" height="250" viewBox="0 0 177 250" fill="none" xmlns="http://www.w3.org/2000/svg">
<path d="M176.5 0H0V250H176.5V0Z" fill="white"/>
<path d="M28.317 206.343V205.241H36.0109V206.343H32.7851V215.5H31.5428V206.343H28.317ZM46.1568 210.371C46.1568 211.453 45.9615 212.388 45.5708 213.176C45.1801 213.964 44.6441 214.572 43.9629 214.999C43.2816 215.427 42.5036 215.64 41.6286 215.64C40.7537 215.64 39.9756 215.427 39.2944 214.999C38.6132 214.572 38.0772 213.964 37.6865 213.176C37.2958 212.388 37.1004 211.453 37.1004 210.371C37.1004 209.289 37.2958 208.354 37.6865 207.566C38.0772 206.778 38.6132 206.17 39.2944 205.742C39.9756 205.315 40.7537 205.101 41.6286 205.101C42.5036 205.101 43.2816 205.315 43.9629 205.742C44.6441 206.17 45.1801 206.778 45.5708 207.566C45.9615 208.354 46.1568 209.289 46.1568 210.371ZM44.9547 210.371C44.9547 209.482 44.8061 208.733 44.5089 208.122C44.215 207.511 43.8159 207.048 43.3117 206.734C42.8108 206.42 42.2498 206.263 41.6286 206.263C41.0075 206.263 40.4448 206.42 39.9406 206.734C39.4397 207.048 39.0406 207.511 38.7434 208.122C38.4495 208.733 38.3026 209.482 38.3026 210.371C38.3026 211.259 38.4495 212.009 38.7434 212.62C39.0406 213.231 39.4397 213.693 39.9406 214.007C40.4448 214.321 41.0075 214.478 41.6286 214.478C42.2498 214.478 42.8108 214.321 43.3117 214.007C43.8159 213.693 44.215 213.231 44.5089 212.62C44.8061 212.009 44.9547 211.259 44.9547 210.371ZM48.9469 214.188C48.6998 214.188 48.4877 214.099 48.3108 213.922C48.1338 213.745 48.0453 213.533 48.0453 213.286C48.0453 213.039 48.1338 212.827 48.3108 212.65C48.4877 212.473 48.6998 212.384 48.9469 212.384C49.194 212.384 49.4061 212.473 49.5831 212.65C49.7601 212.827 49.8485 213.039 49.8485 213.286C49.8485 213.45 49.8068 213.6 49.7233 213.737C49.6432 213.874 49.5346 213.984 49.3977 214.067C49.2642 214.148 49.1139 214.188 48.9469 214.188ZM48.9469 208.998C48.6998 208.998 48.4877 208.91 48.3108 208.733C48.1338 208.556 48.0453 208.344 48.0453 208.097C48.0453 207.85 48.1338 207.637 48.3108 207.46C48.4877 207.283 48.6998 207.195 48.9469 207.195C49.194 207.195 49.4061 207.283 49.5831 207.46C49.7601 207.637 49.8485 207.85 49.8485 208.097C49.8485 208.26 49.8068 208.411 49.7233 208.547C49.6432 208.684 49.5346 208.795 49.3977 208.878C49.2642 208.958 49.1139 208.998 48.9469 208.998Z" fill="#BAB9B9"/>
<path d="M18.878 233.825V223.566H25.0292V224.668H20.1203V228.135H24.5683V229.237H20.1203V233.825H18.878ZM27.1568 233.825V223.566H30.6231C31.4245 223.566 32.0824 223.703 32.5966 223.977C33.1109 224.248 33.4916 224.62 33.7387 225.094C33.9858 225.568 34.1094 226.108 34.1094 226.712C34.1094 227.317 33.9858 227.853 33.7387 228.32C33.4916 228.788 33.1126 229.155 32.6016 229.422C32.0907 229.686 31.4379 229.818 30.6431 229.818H27.838V228.696H30.603C31.1507 228.696 31.5915 228.616 31.9254 228.455C32.2627 228.295 32.5065 228.068 32.6567 227.774C32.8104 227.477 32.8872 227.123 32.8872 226.712C32.8872 226.301 32.8104 225.942 32.6567 225.635C32.5031 225.328 32.2577 225.091 31.9204 224.924C31.5831 224.754 31.1373 224.668 30.583 224.668H28.399V233.825H27.1568ZM31.9855 229.217L34.5101 233.825H33.0675L30.583 229.217H31.9855ZM44.8351 228.696C44.8351 229.778 44.6397 230.713 44.249 231.501C43.8583 232.289 43.3224 232.897 42.6411 233.324C41.9599 233.752 41.1818 233.965 40.3069 233.965C39.432 233.965 38.6539 233.752 37.9726 233.324C37.2914 232.897 36.7554 232.289 36.3647 231.501C35.974 230.713 35.7787 229.778 35.7787 228.696C35.7787 227.614 35.974 226.679 36.3647 225.891C36.7554 225.103 37.2914 224.495 37.9726 224.067C38.6539 223.64 39.432 223.426 40.3069 223.426C41.1818 223.426 41.9599 223.64 42.6411 224.067C43.3224 224.495 43.8583 225.103 44.249 225.891C44.6397 226.679 44.8351 227.614 44.8351 228.696ZM43.6329 228.696C43.6329 227.807 43.4843 227.058 43.1871 226.447C42.8932 225.836 42.4942 225.373 41.9899 225.059C41.489 224.745 40.928 224.588 40.3069 224.588C39.6858 224.588 39.1231 224.745 38.6188 225.059C38.1179 225.373 37.7189 225.836 37.4216 226.447C37.1278 227.058 36.9808 227.807 36.9808 228.696C36.9808 229.584 37.1278 230.334 37.4216 230.945C37.7189 231.556 38.1179 232.018 38.6188 232.332C39.1231 232.646 39.6858 232.803 40.3069 232.803C40.928 232.803 41.489 232.646 41.9899 232.332C42.4942 232.018 42.8932 231.556 43.1871 230.945C43.4843 230.334 43.6329 229.584 43.6329 228.696ZM46.9239 223.566H48.4066L51.8929 232.082H52.0131L55.4994 223.566H56.9821V233.825H55.82V226.031H55.7198L52.514 233.825H51.392L48.1862 226.031H48.086V233.825H46.9239V223.566ZM60.1742 232.513C59.9271 232.513 59.715 232.424 59.538 232.247C59.361 232.07 59.2725 231.858 59.2725 231.611C59.2725 231.364 59.361 231.152 59.538 230.975C59.715 230.798 59.9271 230.709 60.1742 230.709C60.4213 230.709 60.6333 230.798 60.8103 230.975C60.9873 231.152 61.0758 231.364 61.0758 231.611C61.0758 231.775 61.0341 231.925 60.9506 232.062C60.8704 232.199 60.7619 232.309 60.625 232.392C60.4914 232.473 60.3411 232.513 60.1742 232.513ZM60.1742 227.323C59.9271 227.323 59.715 227.235 59.538 227.058C59.361 226.881 59.2725 226.669 59.2725 226.422C59.2725 226.174 59.361 225.962 59.538 225.785C59.715 225.608 59.9271 225.52 60.1742 225.52C60.4213 225.52 60.6333 225.608 60.8103 225.785C60.9873 225.962 61.0758 226.174 61.0758 226.422C61.0758 226.585 61.0341 226.735 60.9506 226.872C60.8704 227.009 60.7619 227.12 60.625 227.203C60.4914 227.283 60.3411 227.323 60.1742 227.323Z" fill="#BAB9B9"/>
<path d="M138.639 214.473H52.5215V215.649H138.639V214.473Z" fill="#BAB9B9"/>
<path d="M138.639 233.352H64.4219V234.528H138.639V233.352Z" fill="#BAB9B9"/>
<path d="M143.816 92.113H31.457V192.597H143.816V92.113Z" fill="#F7BBA1"/>
<mask id="mask0_2_60945" style="mask-type:luminance" maskUnits="userSpaceOnUse" x="31" y="92" width="113" height="101">
<path d="M143.816 92.113H31.457V192.597H143.816V92.113Z" fill="white"/>
</mask>
<g mask="url(#mask0_2_60945)">
<path d="M64.952 95.2315C64.952 97.7356 62.9241 99.7662 60.4218 99.7662C57.9195 99.7662 55.8916 97.7356 55.8916 95.2315C55.8916 92.7274 57.9195 90.6993 60.4218 90.6993C62.9241 90.6993 64.952 92.7274 64.952 95.2315Z" fill="#F7C7B5"/>
<path d="M83.5565 95.2315C83.5565 97.7356 81.5286 99.7662 79.0263 99.7662C76.524 99.7662 74.4961 97.7356 74.4961 95.2315C74.4961 92.7274 76.524 90.6993 79.0263 90.6993C81.5286 90.6993 83.5565 92.7274 83.5565 95.2315Z" fill="#F7C7B5"/>
<path d="M46.3475 95.2315C46.3475 97.7356 44.3196 99.7662 41.8173 99.7662C39.315 99.7662 37.2871 97.7356 37.2871 95.2315C37.2871 92.7274 39.315 90.6993 41.8173 90.6993C44.3196 90.6993 46.3475 92.7274 46.3475 95.2315Z" fill="#F7C7B5"/>
<path d="M139.371 95.2315C139.371 97.7356 137.342 99.7662 134.839 99.7662C132.337 99.7662 130.311 97.7356 130.311 95.2315C130.311 92.7274 132.337 90.6993 134.839 90.6993C137.342 90.6993 139.371 92.7274 139.371 95.2315Z" fill="#F7C7B5"/>
<path d="M102.162 95.2315C102.162 97.7356 100.133 99.7662 97.6304 99.7662C95.1281 99.7662 93.1016 97.7356 93.1016 95.2315C93.1016 92.7274 95.1281 90.6993 97.6304 90.6993C100.133 90.6993 102.162 92.7274 102.162 95.2315Z" fill="#F7C7B5"/>
<path d="M120.766 95.2315C120.766 97.7356 118.737 99.7662 116.235 99.7662C113.733 99.7662 111.706 97.7356 111.706 95.2315C111.706 92.7274 113.733 90.6993 116.235 90.6993C118.737 90.6993 120.766 92.7274 120.766 95.2315Z" fill="#F7C7B5"/>
<path d="M74.2537 108.53C74.2537 111.034 72.2258 113.065 69.7235 113.065C67.2212 113.065 65.1934 111.034 65.1934 108.53C65.1934 106.026 67.2212 103.998 69.7235 103.998C72.2258 103.998 74.2537 106.026 74.2537 108.53Z" fill="#F7C7B5"/>
<path d="M92.8595 108.53C92.8595 111.034 90.8303 113.065 88.328 113.065C85.8257 113.065 83.7979 111.034 83.7979 108.53C83.7979 106.026 85.8257 103.998 88.328 103.998C90.8303 103.998 92.8595 106.026 92.8595 108.53Z" fill="#F7C7B5"/>
<path d="M37.0447 108.53C37.0447 111.034 35.0168 113.065 32.5145 113.065C30.0123 113.065 27.9844 111.034 27.9844 108.53C27.9844 106.026 30.0123 103.998 32.5145 103.998C35.0168 103.998 37.0447 106.026 37.0447 108.53Z" fill="#F7C7B5"/>
<path d="M55.6492 108.53C55.6492 111.034 53.6213 113.065 51.119 113.065C48.6167 113.065 46.5889 111.034 46.5889 108.53C46.5889 106.026 48.6167 103.998 51.119 103.998C53.6213 103.998 55.6492 106.026 55.6492 108.53Z" fill="#F7C7B5"/>
<path d="M148.673 108.53C148.673 111.034 146.643 113.065 144.141 113.065C141.639 113.065 139.612 111.034 139.612 108.53C139.612 106.026 141.639 103.998 144.141 103.998C146.643 103.998 148.673 106.026 148.673 108.53Z" fill="#F7C7B5"/>
<path d="M111.464 108.53C111.464 111.034 109.434 113.065 106.932 113.065C104.43 113.065 102.403 111.034 102.403 108.53C102.403 106.026 104.43 103.998 106.932 103.998C109.434 103.998 111.464 106.026 111.464 108.53Z" fill="#F7C7B5"/>
<path d="M130.068 108.53C130.068 111.034 128.039 113.065 125.537 113.065C123.034 113.065 121.008 111.034 121.008 108.53C121.008 106.026 123.034 103.998 125.537 103.998C128.039 103.998 130.068 106.026 130.068 108.53Z" fill="#F7C7B5"/>
<path d="M64.952 121.828C64.952 124.332 62.9241 126.363 60.4218 126.363C57.9195 126.363 55.8916 124.332 55.8916 121.828C55.8916 119.324 57.9195 117.296 60.4218 117.296C62.9241 117.296 64.952 119.324 64.952 121.828Z" fill="#F7C7B5"/>
<path d="M83.5565 121.828C83.5565 124.332 81.5286 126.363 79.0263 126.363C76.524 126.363 74.4961 124.332 74.4961 121.828C74.4961 119.324 76.524 117.296 79.0263 117.296C81.5286 117.296 83.5565 119.324 83.5565 121.828Z" fill="#F7C7B5"/>
<path d="M46.3475 121.828C46.3475 124.332 44.3196 126.363 41.8173 126.363C39.315 126.363 37.2871 124.332 37.2871 121.828C37.2871 119.324 39.315 117.296 41.8173 117.296C44.3196 117.296 46.3475 119.324 46.3475 121.828Z" fill="#F7C7B5"/>
<path d="M139.371 121.828C139.371 124.332 137.342 126.363 134.839 126.363C132.337 126.363 130.311 124.332 130.311 121.828C130.311 119.324 132.337 117.296 134.839 117.296C137.342 117.296 139.371 119.324 139.371 121.828Z" fill="#F7C7B5"/>
<path d="M102.162 121.828C102.162 124.332 100.133 126.363 97.6304 126.363C95.1281 126.363 93.1016 124.332 93.1016 121.828C93.1016 119.324 95.1281 117.296 97.6304 117.296C100.133 117.296 102.162 119.324 102.162 121.828Z" fill="#F7C7B5"/>
<path d="M120.766 121.828C120.766 124.332 118.737 126.363 116.235 126.363C113.733 126.363 111.706 124.332 111.706 121.828C111.706 119.324 113.733 117.296 116.235 117.296C118.737 117.296 120.766 119.324 120.766 121.828Z" fill="#F7C7B5"/>
<path d="M74.2537 135.127C74.2537 137.631 72.2258 139.662 69.7235 139.662C67.2212 139.662 65.1934 137.631 65.1934 135.127C65.1934 132.623 67.2212 130.595 69.7235 130.595C72.2258 130.595 74.2537 132.623 74.2537 135.127Z" fill="#F7C7B5"/>
<path d="M92.8595 135.127C92.8595 137.631 90.8303 139.662 88.328 139.662C85.8257 139.662 83.7979 137.631 83.7979 135.127C83.7979 132.623 85.8257 130.595 88.328 130.595C90.8303 130.595 92.8595 132.623 92.8595 135.127Z" fill="#F7C7B5"/>
<path d="M37.0447 135.127C37.0447 137.631 35.0168 139.662 32.5145 139.662C30.0123 139.662 27.9844 137.631 27.9844 135.127C27.9844 132.623 30.0123 130.595 32.5145 130.595C35.0168 130.595 37.0447 132.623 37.0447 135.127Z" fill="#F7C7B5"/>
<path d="M55.6492 135.127C55.6492 137.631 53.6213 139.662 51.119 139.662C48.6167 139.662 46.5889 137.631 46.5889 135.127C46.5889 132.623 48.6167 130.595 51.119 130.595C53.6213 130.595 55.6492 132.623 55.6492 135.127Z" fill="#F7C7B5"/>
<path d="M148.673 135.127C148.673 137.631 146.643 139.662 144.141 139.662C141.639 139.662 139.612 137.631 139.612 135.127C139.612 132.623 141.639 130.595 144.141 130.595C146.643 130.595 148.673 132.623 148.673 135.127Z" fill="#F7C7B5"/>
<path d="M111.464 135.127C111.464 137.631 109.434 139.662 106.932 139.662C104.43 139.662 102.403 137.631 102.403 135.127C102.403 132.623 104.43 130.595 106.932 130.595C109.434 130.595 111.464 132.623 111.464 135.127Z" fill="#F7C7B5"/>
<path d="M130.068 135.127C130.068 137.631 128.039 139.662 125.537 139.662C123.034 139.662 121.008 137.631 121.008 135.127C121.008 132.623 123.034 130.595 125.537 130.595C128.039 130.595 130.068 132.623 130.068 135.127Z" fill="#F7C7B5"/>
<path d="M64.952 148.425C64.952 150.929 62.9241 152.96 60.4218 152.96C57.9195 152.96 55.8916 150.929 55.8916 148.425C55.8916 145.921 57.9195 143.893 60.4218 143.893C62.9241 143.893 64.952 145.921 64.952 148.425Z" fill="#F7C7B5"/>
<path d="M83.5565 148.425C83.5565 150.929 81.5286 152.96 79.0263 152.96C76.524 152.96 74.4961 150.929 74.4961 148.425C74.4961 145.921 76.524 143.893 79.0263 143.893C81.5286 143.893 83.5565 145.921 83.5565 148.425Z" fill="#F7C7B5"/>
<path d="M46.3475 148.425C46.3475 150.929 44.3196 152.96 41.8173 152.96C39.315 152.96 37.2871 150.929 37.2871 148.425C37.2871 145.921 39.315 143.893 41.8173 143.893C44.3196 143.893 46.3475 145.921 46.3475 148.425Z" fill="#F7C7B5"/>
<path d="M139.371 148.425C139.371 150.929 137.342 152.96 134.839 152.96C132.337 152.96 130.311 150.929 130.311 148.425C130.311 145.921 132.337 143.893 134.839 143.893C137.342 143.893 139.371 145.921 139.371 148.425Z" fill="#F7C7B5"/>
<path d="M102.162 148.425C102.162 150.929 100.133 152.96 97.6304 152.96C95.1281 152.96 93.1016 150.929 93.1016 148.425C93.1016 145.921 95.1281 143.893 97.6304 143.893C100.133 143.893 102.162 145.921 102.162 148.425Z" fill="#F7C7B5"/>
<path d="M120.766 148.425C120.766 150.929 118.737 152.96 116.235 152.96C113.733 152.96 111.706 150.929 111.706 148.425C111.706 145.921 113.733 143.893 116.235 143.893C118.737 143.893 120.766 145.921 120.766 148.425Z" fill="#F7C7B5"/>
<path d="M74.2537 161.724C74.2537 164.228 72.2258 166.258 69.7235 166.258C67.2212 166.258 65.1934 164.228 65.1934 161.724C65.1934 159.22 67.2212 157.192 69.7235 157.192C72.2258 157.192 74.2537 159.22 74.2537 161.724Z" fill="#F7C7B5"/>
<path d="M92.8595 161.724C92.8595 164.228 90.8303 166.258 88.328 166.258C85.8257 166.258 83.7979 164.228 83.7979 161.724C83.7979 159.22 85.8257 157.192 88.328 157.192C90.8303 157.192 92.8595 159.22 92.8595 161.724Z" fill="#F7C7B5"/>
<path d="M37.0447 161.724C37.0447 164.228 35.0168 166.258 32.5145 166.258C30.0123 166.258 27.9844 164.228 27.9844 161.724C27.9844 159.22 30.0123 157.192 32.5145 157.192C35.0168 157.192 37.0447 159.22 37.0447 161.724Z" fill="#F7C7B5"/>
<path d="M55.6492 161.724C55.6492 164.228 53.6213 166.258 51.119 166.258C48.6167 166.258 46.5889 164.228 46.5889 161.724C46.5889 159.22 48.6167 157.192 51.119 157.192C53.6213 157.192 55.6492 159.22 55.6492 161.724Z" fill="#F7C7B5"/>
<path d="M148.673 161.724C148.673 164.228 146.643 166.258 144.141 166.258C141.639 166.258 139.612 164.228 139.612 161.724C139.612 159.22 141.639 157.192 144.141 157.192C146.643 157.192 148.673 159.22 148.673 161.724Z" fill="#F7C7B5"/>
<path d="M111.464 161.724C111.464 164.228 109.434 166.258 106.932 166.258C104.43 166.258 102.403 164.228 102.403 161.724C102.403 159.22 104.43 157.192 106.932 157.192C109.434 157.192 111.464 159.22 111.464 161.724Z" fill="#F7C7B5"/>
<path d="M130.068 161.724C130.068 164.228 128.039 166.258 125.537 166.258C123.034 166.258 121.008 164.228 121.008 161.724C121.008 159.22 123.034 157.192 125.537 157.192C128.039 157.192 130.068 159.22 130.068 161.724Z" fill="#F7C7B5"/>
<path d="M64.952 175.022C64.952 177.526 62.9241 179.557 60.4218 179.557C57.9195 179.557 55.8916 177.526 55.8916 175.022C55.8916 172.518 57.9195 170.49 60.4218 170.49C62.9241 170.49 64.952 172.518 64.952 175.022Z" fill="#F7C7B5"/>
<path d="M83.5565 175.022C83.5565 177.526 81.5286 179.557 79.0263 179.557C76.524 179.557 74.4961 177.526 74.4961 175.022C74.4961 172.518 76.524 170.49 79.0263 170.49C81.5286 170.49 83.5565 172.518 83.5565 175.022Z" fill="#F7C7B5"/>
<path d="M46.3475 175.022C46.3475 177.526 44.3196 179.557 41.8173 179.557C39.315 179.557 37.2871 177.526 37.2871 175.022C37.2871 172.518 39.315 170.49 41.8173 170.49C44.3196 170.49 46.3475 172.518 46.3475 175.022Z" fill="#F7C7B5"/>
<path d="M139.371 175.022C139.371 177.526 137.342 179.557 134.839 179.557C132.337 179.557 130.311 177.526 130.311 175.022C130.311 172.518 132.337 170.49 134.839 170.49C137.342 170.49 139.371 172.518 139.371 175.022Z" fill="#F7C7B5"/>
<path d="M102.162 175.022C102.162 177.526 100.133 179.557 97.6304 179.557C95.1281 179.557 93.1016 177.526 93.1016 175.022C93.1016 172.518 95.1281 170.49 97.6304 170.49C100.133 170.49 102.162 172.518 102.162 175.022Z" fill="#F7C7B5"/>
<path d="M120.766 175.022C120.766 177.526 118.737 179.557 116.235 179.557C113.733 179.557 111.706 177.526 111.706 175.022C111.706 172.518 113.733 170.49 116.235 170.49C118.737 170.49 120.766 172.518 120.766 175.022Z" fill="#F7C7B5"/>
<path d="M74.2537 188.321C74.2537 190.825 72.2258 192.855 69.7235 192.855C67.2212 192.855 65.1934 190.825 65.1934 188.321C65.1934 185.816 67.2212 183.788 69.7235 183.788C72.2258 183.788 74.2537 185.816 74.2537 188.321Z" fill="#F7C7B5"/>
<path d="M92.8595 188.321C92.8595 190.825 90.8303 192.855 88.328 192.855C85.8257 192.855 83.7979 190.825 83.7979 188.321C83.7979 185.816 85.8257 183.788 88.328 183.788C90.8303 183.788 92.8595 185.816 92.8595 188.321Z" fill="#F7C7B5"/>
<path d="M37.0447 188.321C37.0447 190.825 35.0168 192.855 32.5145 192.855C30.0123 192.855 27.9844 190.825 27.9844 188.321C27.9844 185.816 30.0123 183.788 32.5145 183.788C35.0168 183.788 37.0447 185.816 37.0447 188.321Z" fill="#F7C7B5"/>
<path d="M55.6492 188.321C55.6492 190.825 53.6213 192.855 51.119 192.855C48.6167 192.855 46.5889 190.825 46.5889 188.321C46.5889 185.816 48.6167 183.788 51.119 183.788C53.6213 183.788 55.6492 185.816 55.6492 188.321Z" fill="#F7C7B5"/>
<path d="M148.673 188.321C148.673 190.825 146.643 192.855 144.141 192.855C141.639 192.855 139.612 190.825 139.612 188.321C139.612 185.816 141.639 183.788 144.141 183.788C146.643 183.788 148.673 185.816 148.673 188.321Z" fill="#F7C7B5"/>
<path d="M111.464 188.321C111.464 190.825 109.434 192.855 106.932 192.855C104.43 192.855 102.403 190.825 102.403 188.321C102.403 185.816 104.43 183.788 106.932 183.788C109.434 183.788 111.464 185.816 111.464 188.321Z" fill="#F7C7B5"/>
<path d="M130.068 188.321C130.068 190.825 128.039 192.855 125.537 192.855C123.034 192.855 121.008 190.825 121.008 188.321C121.008 185.816 123.034 183.788 125.537 183.788C128.039 183.788 130.068 185.816 130.068 188.321Z" fill="#F7C7B5"/>
</g>
<path d="M149.367 90.9201H25.9082V124.803H149.367V90.9201Z" fill="#F291B0"/>
<path d="M87.9697 85.0089C87.9697 85.0089 102.92 53.0926 107.737 56.0848C112.554 59.0769 126.674 76.8636 125.012 81.0194C123.351 85.1751 95.6414 90.9307 95.6414 90.9307L87.9697 85.0089Z" fill="#F2DE66"/>
<path d="M90.4609 86.9331C90.4609 86.9331 99.2675 69.6013 101.59 71.378C103.911 73.1573 91.2091 87.5103 91.2091 87.5103L90.4609 86.9331Z" fill="#F4E67A"/>
<path d="M92.8359 88.767C92.8359 88.767 107.49 76.0497 108.858 78.7028C110.228 81.3518 94.0904 89.7338 94.0904 89.7338L92.8359 88.767Z" fill="#F4E67A"/>
<path d="M87.3057 85.0089C87.3057 85.0089 72.3557 53.0926 67.5385 56.0848C62.7213 59.0769 48.6019 76.8636 50.263 81.0194C51.9241 85.1751 79.634 90.9307 79.634 90.9307L87.3057 85.0089Z" fill="#F2DE66"/>
<path d="M84.8139 86.9331C84.8139 86.9331 76.0073 69.6013 73.6858 71.378C71.3642 73.1573 84.067 87.5103 84.067 87.5103L84.8139 86.9331Z" fill="#F4E67A"/>
<path d="M82.4387 88.767C82.4387 88.767 67.7865 76.0497 66.4164 78.7028C65.0476 81.3518 81.1856 89.7338 81.1856 89.7338L82.4387 88.767Z" fill="#F4E67A"/>
<path d="M95.6434 90.9307C95.6434 90.8842 95.6514 90.8376 95.6514 90.7884C95.6514 86.1778 91.9159 82.4383 87.306 82.4383C82.6974 82.4383 78.9619 86.1792 78.9619 90.7884C78.9619 90.8376 78.9686 90.8842 78.9699 90.9307H95.6434Z" fill="#F4E67A"/>
<path d="M96.0472 90.6009H78.9736V192.596H96.0472V90.6009Z" fill="#F4E67A"/>
<path d="M19.4704 38.3191C19.4704 38.328 19.466 38.3458 19.4571 38.3725C19.3591 39.0672 19.0029 39.4145 18.3884 39.4145C18.1747 39.4145 17.9876 39.361 17.8273 39.2542C17.4711 39.0226 17.293 38.6442 17.293 38.1187L18.2014 31.1056H12.0699C11.7226 33.9465 11.4065 36.351 11.1215 38.3191C10.9968 39.0404 10.6317 39.4056 10.0261 39.4145C9.83018 39.4145 9.65652 39.3655 9.50512 39.2675C9.13109 39.0271 8.94408 38.6397 8.94408 38.1054C8.99751 37.6423 9.51403 33.7684 10.4936 26.4837C11.0992 22.0042 11.402 19.7511 11.402 19.7244C11.402 19.5908 11.4554 19.4349 11.5623 19.2568C11.8027 18.8739 12.1011 18.6824 12.4573 18.6824C12.6265 18.6824 12.7868 18.7269 12.9382 18.816C13.2855 19.0208 13.4725 19.3236 13.4993 19.7244L12.3504 28.9282C13.7842 28.9104 15.8325 28.9015 18.4953 28.9015C18.5843 28.1802 18.7446 26.9467 18.9762 25.2013C19.2878 22.8947 19.5283 21.0691 19.6975 19.7244C19.7153 19.5908 19.7509 19.4572 19.8044 19.3236C20.0003 18.8961 20.3298 18.6824 20.7929 18.6824C20.9621 18.6824 21.1268 18.7269 21.2871 18.816C21.6434 19.0208 21.8348 19.3236 21.8615 19.7244L20.6994 28.9015H24.0657C24.2705 28.9015 24.462 28.9371 24.6401 29.0084C25.0853 29.2043 25.308 29.5383 25.308 30.0102C25.308 30.1527 25.2724 30.2952 25.2011 30.4377C25.023 30.8028 24.6757 31.0255 24.1592 31.1056H20.4322C19.8801 35.3981 19.5595 37.8026 19.4704 38.3191ZM34.6054 19.2435C34.6499 19.3414 34.6944 19.4616 34.7389 19.6041C34.9527 20.3344 36.1326 26.4837 38.2789 38.0519C38.3056 38.141 38.319 38.23 38.319 38.3191C38.319 38.5061 38.27 38.6887 38.172 38.8668C37.9583 39.2319 37.6599 39.4145 37.277 39.4145C37.2236 39.4145 37.1657 39.41 37.1034 39.4011C36.6759 39.3299 36.3998 39.085 36.2751 38.6664L35.0729 32.5617H28.9281L26.0427 38.6931C26.0071 38.7555 25.9625 38.8178 25.9091 38.8802C25.633 39.2364 25.3302 39.4145 25.0007 39.4145C24.7959 39.4145 24.6044 39.3566 24.4263 39.2408C24.1057 39.0182 23.9454 38.7199 23.9454 38.3458C23.9454 38.239 23.9677 38.1321 24.0122 38.0252C24.1992 37.5978 24.5065 36.9254 24.9339 36.0081C29.2086 26.6573 31.7645 21.1403 32.6016 19.4572C32.8421 18.9674 33.1849 18.718 33.6302 18.7091C34.0577 18.718 34.3827 18.8961 34.6054 19.2435ZM33.2562 23.3578L29.9433 30.3308H34.6187L33.2562 23.3578ZM52.9329 22.6498C52.924 24.7693 52.1092 26.5683 50.4884 28.0466C48.9566 29.4358 46.9083 30.4021 44.3435 30.9453L43.3684 38.3191C43.3595 38.3725 43.3506 38.426 43.3417 38.4794C43.2081 39.1028 42.8563 39.4145 42.2864 39.4145C42.0726 39.4145 41.8856 39.361 41.7253 39.2542C41.3691 39.0226 41.191 38.6442 41.191 38.1187C41.191 38.0564 42.0014 31.9249 43.6222 19.7244C43.64 19.573 43.6845 19.426 43.7558 19.2835C43.9784 18.865 44.3257 18.6557 44.7977 18.6557C45.617 18.5043 46.4942 18.4286 47.4293 18.4286C48.4 18.4286 49.2683 18.5488 50.0342 18.7893C51.9667 19.4038 52.9329 20.6906 52.9329 22.6498ZM50.9292 22.7701C50.9292 22.7255 50.9292 22.6765 50.9292 22.6231C50.849 21.1626 49.7002 20.4324 47.4827 20.4324C46.8772 20.4324 46.2627 20.4769 45.6393 20.5659C45.5859 21.0735 45.2519 23.7318 44.6374 28.5408C45.8842 28.3538 47.0597 27.9219 48.164 27.2451C50.0075 26.1141 50.9292 24.6224 50.9292 22.7701ZM65.8905 22.6498C65.8816 24.7693 65.0667 26.5683 63.4459 28.0466C61.9142 29.4358 59.8659 30.4021 57.3011 30.9453L56.3259 38.3191C56.317 38.3725 56.3081 38.426 56.2992 38.4794C56.1656 39.1028 55.8139 39.4145 55.2439 39.4145C55.0302 39.4145 54.8432 39.361 54.6829 39.2542C54.3266 39.0226 54.1485 38.6442 54.1485 38.1187C54.1485 38.0564 54.9589 31.9249 56.5797 19.7244C56.5976 19.573 56.6421 19.426 56.7133 19.2835C56.936 18.865 57.2833 18.6557 57.7553 18.6557C58.5746 18.5043 59.4518 18.4286 60.3869 18.4286C61.3576 18.4286 62.2258 18.5488 62.9917 18.7893C64.9242 19.4038 65.8905 20.6906 65.8905 22.6498ZM63.8867 22.7701C63.8867 22.7255 63.8867 22.6765 63.8867 22.6231C63.8066 21.1626 62.6578 20.4324 60.4403 20.4324C59.8347 20.4324 59.2202 20.4769 58.5968 20.5659C58.5434 21.0735 58.2095 23.7318 57.595 28.5408C58.8417 28.3538 60.0173 27.9219 61.1216 27.2451C62.965 26.1141 63.8867 24.6224 63.8867 22.7701ZM81.0922 18.7759C81.2614 18.7759 81.4262 18.816 81.5865 18.8961C81.9427 19.0921 82.1342 19.3993 82.1609 19.8179C80.6915 31.4218 79.8811 37.6913 79.7297 38.6263C79.3912 40.6034 78.75 42.2375 77.8061 43.5288C76.3723 45.4791 74.3863 46.4543 71.8483 46.4543C71.029 46.4543 70.0716 46.2005 68.9762 45.6929C67.4445 44.9804 66.3892 44.0543 65.8103 42.9144C65.7302 42.7541 65.6901 42.5804 65.6901 42.3934C65.6901 42.2064 65.7391 42.0283 65.837 41.859C66.0508 41.5028 66.358 41.3247 66.7588 41.3247C67.0794 41.3336 67.351 41.4806 67.5736 41.7655C68.9005 43.5021 70.4323 44.3749 72.1689 44.3838C73.5492 44.3749 74.7381 43.7737 75.7355 42.5804C76.8665 41.2089 77.5255 39.3343 77.7126 36.9566C77.3652 37.4909 76.9244 37.954 76.3901 38.3458C75.4194 39.0404 74.3463 39.3878 73.1707 39.3878C72.9748 39.3878 72.7744 39.3744 72.5696 39.3477C71.1982 39.1518 70.0627 38.3369 69.1633 36.9031C68.1658 35.309 67.6671 33.3142 67.6671 30.9186C67.6671 29.8321 67.7161 28.71 67.8141 27.5523C67.9833 25.7356 68.3885 23.1574 69.0297 19.8179C69.0475 19.711 69.0786 19.6086 69.1232 19.5106C69.3102 19.0208 69.6308 18.7759 70.085 18.7759C70.2631 18.7759 70.4367 18.8249 70.6059 18.9229C70.9622 19.1277 71.1403 19.4127 71.1403 19.7778C71.1403 20.3299 70.9755 21.6969 70.646 23.8788C70.174 27.0848 69.938 29.1731 69.938 30.1438C69.938 32.1387 70.2052 33.7639 70.7395 35.0196C71.354 36.4801 72.2401 37.2104 73.3978 37.2104C73.5136 37.2104 73.6338 37.197 73.7585 37.1703C74.6312 36.9922 75.5262 36.2753 76.4435 35.0196C77.4944 33.5769 78.2335 31.9249 78.661 30.0637L80.0235 19.8179C80.0414 19.6576 80.0859 19.5062 80.1571 19.3637C80.353 18.9718 80.6647 18.7759 81.0922 18.7759ZM100.595 18.5221C104.38 18.5399 106.308 19.9559 106.379 22.7701C106.362 25.1567 105.56 26.9735 103.975 28.2202C106.362 28.9416 107.559 30.5223 107.568 32.9624C107.506 33.9509 107.297 34.8326 106.94 35.6074C105.738 38.2078 102.924 39.508 98.4981 39.508C97.9637 39.508 97.1622 39.4768 96.0936 39.4145C95.8798 39.4145 95.6839 39.3566 95.5058 39.2408C95.1585 38.9915 94.9848 38.6174 94.9848 38.1187L97.416 19.7244C97.4249 19.573 97.4606 19.426 97.5229 19.2835C97.7099 18.8828 98.0305 18.6824 98.4847 18.6824C99.2239 18.5755 99.9274 18.5221 100.595 18.5221ZM98.2977 29.7832C98.2977 29.7832 97.9637 32.3034 97.2958 37.3439C97.8034 37.3796 98.1997 37.3974 98.4847 37.3974C99.8829 37.3974 101.107 37.2326 102.158 36.9031C104.34 36.2085 105.431 34.8949 105.431 32.9624C105.422 31.6444 104.549 30.7405 102.813 30.2507C101.878 30.0013 100.373 29.8455 98.2977 29.7832ZM99.4331 20.5659L98.5515 27.579C98.8454 27.579 99.117 27.5701 99.3663 27.5523C102.626 27.3742 104.255 25.7935 104.255 22.8101C104.247 22.0799 103.948 21.5188 103.36 21.127C102.719 20.7262 101.624 20.5259 100.074 20.5259C99.8695 20.5259 99.6558 20.5392 99.4331 20.5659ZM112.391 32.575C112.391 32.575 114.052 32.575 117.373 32.575C117.578 32.575 117.756 32.6107 117.908 32.6819C118.273 32.8422 118.455 33.1494 118.455 33.6036C118.446 33.6571 118.438 33.7149 118.429 33.7773C118.295 34.2849 117.934 34.5387 117.347 34.5387H112.391C112.266 34.5387 112.141 34.5253 112.017 34.4986C111.527 34.374 111.282 34.0355 111.282 33.4834C111.282 33.3231 111.322 33.1762 111.402 33.0426C111.607 32.7309 111.936 32.575 112.391 32.575ZM124.32 18.6824C124.649 18.6379 125.108 18.6156 125.696 18.6156C127.227 18.6156 128.572 18.8694 129.73 19.377C132.312 20.4991 133.604 22.7433 133.604 26.1096C133.604 26.8221 133.572 27.5167 133.51 28.1935C133.109 32.5038 131.475 35.6118 128.608 37.5176C126.702 38.7822 124.467 39.4145 121.902 39.4145C121.697 39.4145 121.514 39.361 121.354 39.2542C120.998 39.0226 120.82 38.6442 120.82 38.1187C120.82 37.9406 121.63 31.8092 123.251 19.7244C123.26 19.5819 123.291 19.4483 123.344 19.3236C123.531 18.914 123.857 18.7002 124.32 18.6824ZM131.506 26.2031C131.506 24.8406 131.23 23.7096 130.678 22.8101C129.814 21.4031 128.389 20.6995 126.404 20.6995C126.047 20.6995 125.655 20.7307 125.228 20.793L123.157 37.1169C123.291 37.108 123.434 37.099 123.585 37.0901C125.232 36.9298 126.693 36.3376 127.966 35.3135C130.326 33.4166 131.506 30.3798 131.506 26.2031ZM144.09 19.2435C144.134 19.3414 144.179 19.4616 144.223 19.6041C144.437 20.3344 145.617 26.4837 147.763 38.0519C147.79 38.141 147.804 38.23 147.804 38.3191C147.804 38.5061 147.755 38.6887 147.657 38.8668C147.443 39.2319 147.144 39.4145 146.762 39.4145C146.708 39.4145 146.65 39.41 146.588 39.4011C146.16 39.3299 145.884 39.085 145.76 38.6664L144.557 32.5617H138.413L135.527 38.6931C135.492 38.7555 135.447 38.8178 135.394 38.8802C135.118 39.2364 134.815 39.4145 134.485 39.4145C134.28 39.4145 134.089 39.3566 133.911 39.2408C133.59 39.0182 133.43 38.7199 133.43 38.3458C133.43 38.239 133.452 38.1321 133.497 38.0252C133.684 37.5978 133.991 36.9254 134.418 36.0081C138.693 26.6573 141.249 21.1403 142.086 19.4572C142.327 18.9674 142.669 18.718 143.115 18.7091C143.542 18.718 143.867 18.8961 144.09 19.2435ZM142.741 23.3578L139.428 30.3308H144.103L142.741 23.3578ZM164.154 18.7759C164.323 18.7759 164.488 18.816 164.648 18.8961C165.005 19.0921 165.196 19.3993 165.223 19.8179C163.753 31.4218 162.943 37.6913 162.792 38.6263C162.453 40.6034 161.812 42.2375 160.868 43.5288C159.434 45.4791 157.448 46.4543 154.91 46.4543C154.091 46.4543 153.133 46.2005 152.038 45.6929C150.506 44.9804 149.451 44.0543 148.872 42.9144C148.792 42.7541 148.752 42.5804 148.752 42.3934C148.752 42.2064 148.801 42.0283 148.899 41.859C149.113 41.5028 149.42 41.3247 149.821 41.3247C150.141 41.3336 150.413 41.4806 150.635 41.7655C151.962 43.5021 153.494 44.3749 155.231 44.3838C156.611 44.3749 157.8 43.7737 158.797 42.5804C159.928 41.2089 160.587 39.3343 160.774 36.9566C160.427 37.4909 159.986 37.954 159.452 38.3458C158.481 39.0404 157.408 39.3878 156.233 39.3878C156.037 39.3878 155.836 39.3744 155.631 39.3477C154.26 39.1518 153.125 38.3369 152.225 36.9031C151.228 35.309 150.729 33.3142 150.729 30.9186C150.729 29.8321 150.778 28.71 150.876 27.5523C151.045 25.7356 151.45 23.1574 152.092 19.8179C152.109 19.711 152.14 19.6086 152.185 19.5106C152.372 19.0208 152.693 18.7759 153.147 18.7759C153.325 18.7759 153.499 18.8249 153.668 18.9229C154.024 19.1277 154.202 19.4127 154.202 19.7778C154.202 20.3299 154.037 21.6969 153.708 23.8788C153.236 27.0848 153 29.1731 153 30.1438C153 32.1387 153.267 33.7639 153.801 35.0196C154.416 36.4801 155.302 37.2104 156.46 37.2104C156.575 37.2104 156.696 37.197 156.82 37.1703C157.693 36.9922 158.588 36.2753 159.505 35.0196C160.556 33.5769 161.295 31.9249 161.723 30.0637L163.085 19.8179C163.103 19.6576 163.148 19.5062 163.219 19.3637C163.415 18.9718 163.727 18.7759 164.154 18.7759Z" fill="#9ED8D5"/>
<path d="M13.8658 4.88581L14.9422 7.06677L17.3488 7.41782L15.608 9.11604L16.0186 11.5164L13.8658 10.3834L11.713 11.5164L12.125 9.11604L10.3828 7.41782L12.7894 7.06677L13.8658 4.88581Z" fill="#F9EEAF"/>
<path d="M31.5019 56.2976L33.6826 57.3734L35.8061 56.1859L35.4567 58.5942L37.2427 60.2486L34.8454 60.6581L33.8261 62.8684L32.6939 60.7153L30.2793 60.4268L31.9763 58.6847L31.5019 56.2976Z" fill="#F9EEAF"/>
<path d="M13.443 101.561L14.5181 103.746L16.926 104.094L15.1838 105.793L15.5958 108.192L13.443 107.06L11.2902 108.192L11.7008 105.793L9.95996 104.094L12.3666 103.746L13.443 101.561Z" fill="#F9EEAF"/>
<path d="M81.7577 5.18887L83.9398 6.26738L86.062 5.07719L85.7125 7.48818L87.4985 9.13985L85.1025 9.5521L84.0819 11.7636L82.9497 9.60794L80.5352 9.32203L82.2321 7.57596L81.7577 5.18887Z" fill="#F9EEAF"/>
<path d="M161.631 5.8885L163.813 6.96567L165.936 5.77682L165.587 8.18647L167.372 9.83814L164.976 10.2517L163.956 12.4619L162.824 10.3063L160.408 10.0203L162.105 8.27559L161.631 5.8885Z" fill="#F9EEAF"/>
<path d="M141.557 62.4481L143.74 63.5266L145.863 62.3364L145.513 64.7447L147.299 66.3991L144.903 66.8113L143.882 69.0215L142.751 66.8658L140.334 66.5799L142.032 64.8352L141.557 62.4481Z" fill="#F9EEAF"/>
<path d="M160.738 101.648L162.919 102.722L165.041 101.535L164.694 103.943L166.479 105.598L164.082 106.008L163.061 108.219L161.929 106.066L159.516 105.777L161.213 104.034L160.738 101.648Z" fill="#F9EEAF"/>
<path d="M13.1529 150.864L15.3349 151.943L17.4585 150.752L17.109 153.161L18.895 154.815L16.4977 155.227L15.4771 157.439L14.3462 155.283L11.9316 154.997L13.6286 153.251L13.1529 150.864Z" fill="#F9EEAF"/>
<path d="M158.15 160.42L160.33 161.495L162.453 160.309L162.105 162.716L163.891 164.37L161.492 164.781L160.473 166.991L159.341 164.838L156.928 164.55L158.625 162.807L158.15 160.42Z" fill="#F9EEAF"/>
<path d="M15.0898 232.598L17.2718 233.676L19.394 232.486L19.0459 234.894L20.8306 236.549L18.4346 236.962L17.414 239.172L16.2818 237.015L13.8672 236.731L15.5642 234.985L15.0898 232.598Z" fill="#F9EEAF"/>
<path d="M14.6669 197.965L16.8476 199.043L18.9712 197.853L18.6217 200.264L20.4077 201.916L18.0104 202.329L16.9911 204.539L15.8589 202.384L13.4443 202.098L15.1413 200.352L14.6669 197.965Z" fill="#F9EEAF"/>
<path d="M157.255 235.941L159.437 237.015L161.56 235.829L161.211 238.236L162.996 239.892L160.6 240.301L159.58 242.512L158.448 240.359L156.032 240.07L157.729 238.328L157.255 235.941Z" fill="#F9EEAF"/>
<path d="M157.255 197.965L159.437 199.043L161.56 197.853L161.211 200.261L162.996 201.916L160.6 202.329L159.58 204.539L158.448 202.384L156.032 202.098L157.729 200.352L157.255 197.965Z" fill="#F9EEAF"/>
</svg>
