<svg width="177" height="250" viewBox="0 0 177 250" fill="none" xmlns="http://www.w3.org/2000/svg">
<path d="M176.5 0H0V250H176.5V0Z" fill="white"/>
<path d="M41.1403 67.9799L25.8398 69.4581L33.2884 146.666L48.5889 145.188L41.1403 67.9799Z" fill="#F291B0"/>
<path d="M47.5371 134.522L33.2649 146.662L32.2363 135.996L46.5112 123.888L47.5371 134.522Z" fill="#F4B0C9"/>
<path d="M45.7399 115.896L31.4676 128.025L30.4404 117.373L44.7153 105.244L45.7399 115.896Z" fill="#F4B0C9"/>
<path d="M43.9444 97.2541L29.6708 109.386L28.6436 98.7329L42.9185 86.6087L43.9444 97.2541Z" fill="#F4B0C9"/>
<path d="M42.1475 78.627L27.8753 90.7539L26.8467 80.1018L41.1229 67.9776L42.1475 78.627Z" fill="#F4B0C9"/>
<path d="M25.8223 69.4551L26.0787 72.1201L29.6481 69.0867L25.8223 69.4551Z" fill="#F4B0C9"/>
<path d="M39.1969 48.0167C32.4276 40.4459 30.9432 37.2223 29.9439 32.129C29.9386 37.3181 29.0907 40.7677 23.8961 49.4955C18.6975 58.2246 26.0396 64.7368 28.4927 65.8592C30.9565 66.947 32.8036 68.7809 32.8036 68.7809L33.4708 68.7183L34.1325 68.6532C34.1325 68.6532 35.6116 66.4975 37.8083 64.9576C40.0129 63.3884 45.9689 55.5928 39.1969 48.0167Z" fill="#FCDB54"/>
<path d="M37.0666 55.7285C32.8182 50.9809 31.8893 48.9648 31.2607 45.7679C31.2634 49.0247 30.7318 51.1804 27.4681 56.6567C24.211 62.1396 28.8129 66.2302 30.3491 66.9137C31.8959 67.6146 33.0587 68.7582 33.0587 68.7582L33.472 68.7197L33.8893 68.6784C33.8893 68.6784 34.8075 67.3353 36.1869 66.3512C37.5756 65.3831 41.3071 60.4893 37.0666 55.7285Z" fill="#F9C255"/>
<path d="M55.4476 59.8778L55.1221 137.442L70.4933 137.507L70.8188 59.9424L55.4476 59.8778Z" fill="#B2E4E3"/>
<path d="M70.5531 126.81L55.1367 137.459L55.1806 126.747L70.5943 116.13L70.5531 126.81Z" fill="#9ED8D5"/>
<path d="M70.6299 108.099L55.2148 118.74L55.256 108.037L70.6711 97.3978L70.6299 108.099Z" fill="#9ED8D5"/>
<path d="M70.7038 89.3721L55.29 100.014L55.3339 89.3096L70.749 78.6762L70.7038 89.3721Z" fill="#9ED8D5"/>
<path d="M70.7793 70.6546L55.3643 81.2933L55.4094 70.5934L70.8232 59.9599L70.7793 70.6546Z" fill="#9ED8D5"/>
<path d="M55.453 59.8975L55.4424 62.5718L59.2961 59.9121L55.453 59.8975Z" fill="#9ED8D5"/>
<path d="M70.9044 39.9046C64.9271 31.6942 63.7723 28.3363 63.2872 23.1699C62.7623 28.331 61.5743 31.6809 55.5345 39.8421C49.4894 48.0087 56.1418 55.2217 58.47 56.5848C60.8142 57.9147 62.47 59.9254 62.47 59.9254L63.1371 59.9281L63.8042 59.9307C63.8042 59.9307 65.4919 57.9333 67.8294 56.6221C70.1775 55.279 76.8844 48.1204 70.9044 39.9046Z" fill="#FCDB54"/>
<path d="M68.0129 47.365C64.2628 42.2146 63.5385 40.1161 63.2316 36.8739C62.91 40.1134 62.1618 42.2066 58.3705 47.3252C54.5805 52.4544 58.7493 56.9878 60.211 57.8189C61.6795 58.674 62.724 59.9254 62.724 59.9254L63.1372 59.9281L63.5598 59.9307C63.5598 59.9307 64.6083 58.6873 66.078 57.8429C67.5531 57.021 71.7577 52.5262 68.0129 47.365Z" fill="#F9C255"/>
<path d="M82.9475 68.3955L80.2734 145.913L95.6355 146.444L98.3095 68.9261L82.9475 68.3955Z" fill="#F7BBA1"/>
<path d="M95.9794 135.711L80.248 145.888L80.6162 135.181L96.3475 125.036L95.9794 135.711Z" fill="#FCCEBE"/>
<path d="M96.6249 117.013L80.8936 127.176L81.263 116.481L96.9943 106.317L96.6249 117.013Z" fill="#FCCEBE"/>
<path d="M97.2723 98.2967L81.541 108.462L81.9091 97.7662L97.6405 87.6061L97.2723 98.2967Z" fill="#FCCEBE"/>
<path d="M97.915 79.5898L82.1836 89.7539L82.5544 79.0606L98.2857 68.8992L97.915 79.5898Z" fill="#FCCEBE"/>
<path d="M82.9244 68.3699L82.8301 71.0443L86.7649 68.5016L82.9244 68.3699Z" fill="#FCCEBE"/>
<path d="M98.9775 48.8585C93.2487 40.4685 92.1975 37.08 91.8706 31.8976C91.1902 37.0428 89.9012 40.3515 83.6143 48.3279C77.3233 56.3043 83.7538 63.7168 86.0382 65.1477C88.3398 66.5507 89.9344 68.6106 89.9344 68.6106L90.6042 68.6346L91.2686 68.6585C91.2686 68.6585 93.0161 66.7129 95.3935 65.4748C97.7828 64.2035 104.705 57.2524 98.9775 48.8585Z" fill="#FCDB54"/>
<path d="M95.8569 56.2271C92.2649 50.965 91.6058 48.8425 91.3985 45.5937C90.9785 48.8226 90.1679 50.8918 86.2224 55.892C82.2796 60.9055 86.3088 65.5613 87.7414 66.4377C89.1872 67.3366 90.1918 68.62 90.1918 68.62L90.6038 68.6359L91.0237 68.6519C91.0237 68.6519 92.1081 67.4391 93.6031 66.6411C95.1074 65.8658 99.4435 61.5 95.8569 56.2271Z" fill="#F9C255"/>
<path d="M109.501 59.8784L109.176 137.443L124.548 137.507L124.874 59.943L109.501 59.8784Z" fill="#E0E0E0"/>
<path d="M124.609 126.81L109.191 137.459L109.237 126.747L124.65 116.13L124.609 126.81Z" fill="#CECAC8"/>
<path d="M124.685 108.099L109.27 118.74L109.311 108.037L124.726 97.3978L124.685 108.099Z" fill="#CECAC8"/>
<path d="M124.759 89.3722L109.346 100.014L109.39 89.3097L124.803 78.6762L124.759 89.3722Z" fill="#CECAC8"/>
<path d="M124.835 70.6546L109.42 81.2933L109.464 70.5934L124.879 59.9599L124.835 70.6546Z" fill="#CECAC8"/>
<path d="M109.509 59.8975L109.498 62.5718L113.352 59.9121L109.509 59.8975Z" fill="#CECAC8"/>
<path d="M124.96 39.9046C118.983 31.6942 117.828 28.3363 117.343 23.1699C116.818 28.331 115.63 31.6809 109.59 39.8421C103.545 48.0087 110.197 55.2217 112.526 56.5848C114.87 57.9147 116.526 59.9254 116.526 59.9254L117.193 59.9281L117.86 59.9307C117.86 59.9307 119.548 57.9333 121.885 56.6221C124.233 55.279 130.94 48.1204 124.96 39.9046Z" fill="#FCDB54"/>
<path d="M122.068 47.365C118.317 42.2146 117.593 40.1161 117.286 36.8739C116.965 40.1134 116.217 42.2066 112.425 47.3252C108.635 52.4544 112.804 56.9878 114.266 57.8189C115.734 58.674 116.779 59.9254 116.779 59.9254L117.192 59.9281L117.615 59.9307C117.615 59.9307 118.663 58.6873 120.133 57.8429C121.608 57.021 125.812 52.5262 122.068 47.365Z" fill="#F9C255"/>
<path d="M135.678 68.3955L133.004 145.913L148.366 146.444L151.04 68.9262L135.678 68.3955Z" fill="#F4E59A"/>
<path d="M148.707 135.711L132.976 145.888L133.344 135.181L149.075 125.036L148.707 135.711Z" fill="#EFDA84"/>
<path d="M149.352 117.013L133.621 127.176L133.989 116.481L149.721 106.317L149.352 117.013Z" fill="#EFDA84"/>
<path d="M149.999 98.2967L134.268 108.462L134.637 97.7662L150.368 87.6061L149.999 98.2967Z" fill="#EFDA84"/>
<path d="M150.643 79.5898L134.912 89.7539L135.283 79.0606L151.014 68.8992L150.643 79.5898Z" fill="#EFDA84"/>
<path d="M135.651 68.3699L135.558 71.0443L139.492 68.5016L135.651 68.3699Z" fill="#EFDA84"/>
<path d="M151.705 48.8585C145.978 40.4685 144.925 37.08 144.598 31.8976C143.918 37.0428 142.629 40.3515 136.342 48.3279C130.051 56.3043 136.481 63.7168 138.766 65.1477C141.067 66.5507 142.662 68.6106 142.662 68.6106L143.332 68.6346L143.996 68.6585C143.996 68.6585 145.742 66.7129 148.121 65.4748C150.51 64.2035 157.433 57.2524 151.705 48.8585Z" fill="#FCDB54"/>
<path d="M148.585 56.2271C144.993 50.965 144.334 48.8425 144.126 45.5937C143.706 48.8226 142.896 50.8918 138.95 55.892C135.007 60.9055 139.035 65.5613 140.469 66.4377C141.915 67.3366 142.92 68.62 142.92 68.62L143.333 68.6359L143.753 68.6519C143.753 68.6519 144.837 67.4391 146.332 66.6411C147.834 65.8658 152.171 61.5 148.585 56.2271Z" fill="#F9C255"/>
<path d="M19.2464 154.856L6.30176 163.934L23.851 169.098L22.8172 186.918L43.9783 170.888L29.2702 154.856H19.2464Z" fill="#F4B9A8"/>
<path d="M33.1396 169.098L43.978 170.888L38.0472 164.425L33.1396 169.098Z" fill="#EF7D5E"/>
<path d="M156.747 154.856L169.691 163.934L152.143 169.098L153.176 186.918L132.015 170.888L146.723 154.856H156.747Z" fill="#F4B9A8"/>
<path d="M142.856 169.098L132.015 170.888L137.945 164.425L142.856 169.098Z" fill="#EF7D5E"/>
<path d="M11.9785 147.407C11.9785 147.407 41.1383 116.161 89.3941 116.161C137.65 116.161 163.967 147.407 163.967 147.407L142.809 169.098C142.809 169.098 123.197 146.373 87.9735 146.373C52.7501 146.373 33.1384 169.098 33.1384 169.098L11.9785 147.407Z" fill="#F9AA8F"/>
<path d="M51.8437 177.588C51.7614 178.032 51.542 178.257 51.1855 178.262C51.0538 178.262 50.9359 178.227 50.8317 178.155C50.6178 178.013 50.5108 177.782 50.5108 177.464C50.5108 177.464 51.01 173.688 52.0083 166.134C52.0192 166.052 52.0384 165.973 52.0659 165.896C52.1811 165.627 52.3813 165.493 52.6665 165.493C52.7762 165.493 52.8804 165.52 52.9792 165.575C53.1986 165.701 53.3138 165.888 53.3247 166.134C52.3868 173.501 51.8931 177.319 51.8437 177.588ZM65.1071 166.176C65.1071 166.291 65.0742 166.398 65.0084 166.496C64.8713 166.699 64.6656 166.801 64.3913 166.801H60.6312C59.7535 173.723 59.29 177.313 59.2406 177.571C59.2351 177.604 59.2297 177.637 59.2242 177.67C59.1364 178.054 58.9143 178.246 58.5577 178.246C58.4261 178.246 58.3109 178.21 58.2121 178.139C58.0037 177.996 57.8995 177.766 57.8995 177.448C57.8995 177.382 58.2313 174.881 58.8951 169.944C59.12 168.282 59.2598 167.234 59.3147 166.801H55.8014C55.6752 166.801 55.5545 166.782 55.4393 166.743C55.1486 166.645 55.0032 166.464 55.0032 166.2C55.0032 166.069 55.0362 165.945 55.102 165.83C55.2336 165.611 55.4393 165.501 55.7191 165.501H64.4078C64.4846 165.501 64.5668 165.517 64.6546 165.55C64.9563 165.665 65.1071 165.874 65.1071 166.176ZM65.9217 168.372C65.9217 168.23 65.9574 168.098 66.0287 167.977C66.1768 167.736 66.388 167.615 66.6622 167.615C66.8048 167.615 66.9365 167.654 67.0572 167.731C67.304 167.895 67.4274 168.148 67.4274 168.488C67.4274 168.8 67.3643 169.088 67.2382 169.352C66.9968 169.845 66.6046 170.092 66.0616 170.092C65.8751 170.087 65.7764 169.993 65.7654 169.812C65.7709 169.659 65.8723 169.552 66.0698 169.491C66.1247 169.475 66.1768 169.459 66.2261 169.442C66.4291 169.371 66.5361 169.261 66.547 169.113C66.4593 169.096 66.3743 169.066 66.292 169.022C66.0451 168.88 65.9217 168.663 65.9217 168.372ZM68.9578 175.967C68.9304 175.885 68.9167 175.786 68.9167 175.671C68.9167 175.572 68.9359 175.479 68.9743 175.391C69.073 175.177 69.2348 175.07 69.4597 175.07C69.6682 175.075 69.8684 175.196 70.0604 175.432C70.1207 175.509 70.1783 175.58 70.2332 175.646C71.0011 176.589 71.7361 177.061 72.4382 177.061C73.1294 177.061 73.7218 176.812 74.2155 176.312C74.6982 175.819 74.9395 175.232 74.9395 174.552C74.934 173.965 74.7805 173.466 74.4788 173.054C74.2374 172.72 73.8096 172.374 73.1952 172.017C72.5479 171.639 72.1612 171.406 72.0351 171.318C71.7498 171.121 71.5085 170.918 71.311 170.709C70.8118 170.183 70.5623 169.533 70.5623 168.759C70.5623 168.66 70.5678 168.556 70.5787 168.446C70.6555 167.613 70.9983 166.911 71.6072 166.34C72.2325 165.764 72.9676 165.476 73.8123 165.476C74.1743 165.476 74.5281 165.534 74.8737 165.649C75.5923 165.896 76.1463 166.324 76.5357 166.933C76.6016 167.097 76.6345 167.218 76.6345 167.295C76.6345 167.393 76.6071 167.492 76.5522 167.591C76.4315 167.794 76.2587 167.895 76.0338 167.895C75.8364 167.895 75.6965 167.843 75.6142 167.739C75.0547 167.064 74.4541 166.724 73.8123 166.719C73.3077 166.719 72.8606 166.902 72.4711 167.27C72.0378 167.681 71.8211 168.183 71.8211 168.776C71.8211 169.143 71.9336 169.472 72.1585 169.763C72.3614 170.026 72.7591 170.336 73.3515 170.693C73.9988 171.077 74.4815 171.398 74.7997 171.655C75.8199 172.478 76.3301 173.444 76.3301 174.552C76.3301 174.798 76.3054 175.045 76.256 175.292C76.075 176.164 75.6224 176.891 74.8984 177.473C74.1634 178.065 73.3433 178.361 72.4382 178.361C71.8513 178.361 71.2836 178.208 70.7351 177.9C69.9781 177.467 69.3857 176.823 68.9578 175.967ZM93.2467 165.534C93.3509 165.534 93.4524 165.558 93.5511 165.608C93.7705 165.729 93.8885 165.918 93.9049 166.176C92.9998 173.323 92.5007 177.185 92.4074 177.761C92.199 178.978 91.8041 179.985 91.2226 180.78C90.3395 181.981 89.1163 182.582 87.553 182.582C87.0483 182.582 86.4586 182.426 85.7839 182.113C84.8405 181.674 84.1905 181.104 83.8339 180.402C83.7846 180.303 83.7599 180.196 83.7599 180.081C83.7599 179.966 83.79 179.856 83.8504 179.752C83.982 179.532 84.1713 179.423 84.4181 179.423C84.6156 179.428 84.7829 179.519 84.92 179.694C85.7373 180.764 86.6808 181.301 87.7504 181.307C88.6006 181.301 89.3329 180.931 89.9473 180.196C90.6439 179.351 91.0498 178.197 91.165 176.732C90.9511 177.061 90.6796 177.346 90.3505 177.588C89.7526 178.016 89.0916 178.23 88.3675 178.23C88.2468 178.23 88.1234 178.221 87.9973 178.205C87.1525 178.084 86.4532 177.582 85.8991 176.699C85.2848 175.717 84.9776 174.489 84.9776 173.013C84.9776 172.344 85.0078 171.653 85.0681 170.94C85.1723 169.821 85.4219 168.233 85.8169 166.176C85.8278 166.11 85.847 166.047 85.8745 165.986C85.9896 165.685 86.1871 165.534 86.4669 165.534C86.5766 165.534 86.6835 165.564 86.7878 165.624C87.0072 165.75 87.1169 165.926 87.1169 166.151C87.1169 166.491 87.0154 167.333 86.8124 168.677C86.5217 170.652 86.3764 171.938 86.3764 172.536C86.3764 173.764 86.5409 174.766 86.87 175.539C87.2485 176.439 87.7943 176.888 88.5074 176.888C88.5787 176.888 88.6528 176.88 88.7295 176.864C89.2671 176.754 89.8184 176.312 90.3834 175.539C91.0306 174.65 91.4859 173.633 91.7492 172.486L92.5884 166.176C92.5994 166.077 92.6268 165.984 92.6707 165.896C92.7914 165.654 92.9834 165.534 93.2467 165.534ZM94.9745 173.029C94.9745 172.135 95.1035 171.233 95.3613 170.322C95.7617 168.913 96.376 167.747 97.2043 166.826C98.06 165.871 98.9624 165.394 99.9113 165.394C100.8 165.399 101.554 165.805 102.174 166.612C102.832 167.473 103.205 168.614 103.293 170.034C103.474 169.969 103.74 169.853 104.091 169.689C104.535 169.475 104.873 169.368 105.103 169.368C105.207 169.368 105.306 169.395 105.399 169.45C105.602 169.571 105.704 169.747 105.704 169.977C105.698 170.185 105.602 170.386 105.416 170.578C105.01 170.978 104.294 171.274 103.268 171.466C103.219 172.07 103.115 172.665 102.956 173.252C102.572 174.705 101.957 175.898 101.113 176.831C100.257 177.774 99.3381 178.246 98.3562 178.246C98.2356 178.246 98.1149 178.238 97.9942 178.221C97.1495 178.101 96.4501 177.599 95.8961 176.716C95.2817 175.734 94.9745 174.505 94.9745 173.029ZM96.3733 172.807C96.3733 173.806 96.5159 174.675 96.8011 175.416C97.1851 176.408 97.7501 176.905 98.4961 176.905C98.6826 176.905 98.8773 176.858 99.0803 176.765C99.6782 176.491 100.24 175.885 100.767 174.947C101.365 173.899 101.738 172.78 101.886 171.59C101.069 171.579 100.325 171.351 99.6562 170.907C98.7676 170.314 98.1341 169.437 97.7556 168.274C96.856 169.618 96.3952 171.129 96.3733 172.807ZM100.166 166.941C100.024 166.941 99.8949 166.971 99.7797 167.031C99.478 167.201 99.3271 167.536 99.3271 168.035C99.3271 168.123 99.3354 168.216 99.3518 168.315C99.4505 168.907 99.829 169.404 100.487 169.804C100.992 170.106 101.472 170.262 101.927 170.273C101.894 169.807 101.828 169.371 101.73 168.965C101.428 167.665 100.907 166.99 100.166 166.941ZM113.57 177.571C113.57 177.577 113.57 177.585 113.57 177.596C113.504 178.029 113.279 178.246 112.895 178.246C112.769 178.246 112.656 178.213 112.558 178.147C112.338 178.005 112.229 177.771 112.229 177.448C112.229 177.382 112.25 177.143 112.294 176.732C112.075 177.072 111.795 177.366 111.455 177.612C110.857 178.035 110.202 178.246 109.489 178.246C109.368 178.246 109.245 178.238 109.118 178.221C108.274 178.101 107.574 177.599 107.02 176.716C106.406 175.734 106.099 174.505 106.099 173.029C106.099 171.609 106.362 169.428 106.889 166.488C106.916 166.329 106.932 166.23 106.938 166.192C106.954 166.115 106.976 166.038 107.004 165.962C107.124 165.682 107.316 165.542 107.58 165.542C107.684 165.542 107.785 165.569 107.884 165.624C108.104 165.745 108.222 165.934 108.238 166.192C108.216 166.318 108.191 166.469 108.164 166.645C107.72 169.431 107.497 171.4 107.497 172.552C107.497 173.781 107.662 174.782 107.991 175.555C108.37 176.455 108.915 176.905 109.628 176.905C109.694 176.905 109.763 176.899 109.834 176.888C110.372 176.784 110.926 176.343 111.496 175.564C112.144 174.681 112.602 173.658 112.87 172.495L113.71 166.192C113.715 166.088 113.742 165.989 113.792 165.896C113.913 165.66 114.104 165.542 114.368 165.542C114.472 165.542 114.571 165.569 114.664 165.624C114.883 165.745 115.004 165.934 115.026 166.192C114.96 166.691 114.886 167.267 114.804 167.92C113.998 174.277 113.586 177.494 113.57 177.571ZM118.054 177.571C117.977 178.016 117.752 178.24 117.379 178.246C117.253 178.246 117.141 178.213 117.042 178.147C116.822 178.005 116.713 177.771 116.713 177.448C116.96 175.385 117.456 171.609 118.202 166.118C118.218 166.008 118.276 165.907 118.375 165.814C118.561 165.644 118.789 165.558 119.058 165.558C119.546 165.465 120.083 165.419 120.67 165.419C121.087 165.419 121.471 165.449 121.822 165.509C123.364 165.789 124.134 166.639 124.134 168.06C124.134 168.614 124.044 169.132 123.863 169.615C123.309 171.101 121.946 172.185 119.774 172.865L124.315 177.012C124.496 177.204 124.59 177.401 124.595 177.604C124.595 177.714 124.565 177.824 124.505 177.933C124.373 178.142 124.195 178.246 123.97 178.246C123.794 178.246 123.616 178.186 123.435 178.065C123.309 177.977 121.688 176.499 118.572 173.63C118.298 175.813 118.125 177.127 118.054 177.571ZM119.453 166.76C119.453 166.76 119.241 168.403 118.819 171.688C119.598 171.573 120.333 171.318 121.024 170.923C122.225 170.221 122.826 169.278 122.826 168.093C122.821 167.144 122.102 166.664 120.67 166.653C120.561 166.653 120.155 166.688 119.453 166.76Z" fill="#F291B0"/>
<path d="M27.6424 189.366C31.9672 189.386 34.1703 191.004 34.2517 194.22C34.2314 196.947 33.3155 199.023 31.5042 200.448C34.2314 201.272 35.6001 203.078 35.6103 205.866C35.539 206.996 35.2999 208.003 34.8928 208.889C33.5191 211.86 30.3034 213.346 25.2459 213.346C24.6353 213.346 23.7195 213.31 22.4984 213.239C22.2541 213.239 22.0303 213.173 21.8267 213.041C21.4299 212.756 21.2314 212.328 21.2314 211.758L24.0095 190.74C24.0197 190.567 24.0604 190.399 24.1316 190.236C24.3453 189.778 24.7117 189.549 25.2306 189.549C26.0753 189.427 26.8792 189.366 27.6424 189.366ZM25.0169 202.234C25.0169 202.234 24.6353 205.113 23.8721 210.873C24.4522 210.914 24.905 210.934 25.2306 210.934C26.8283 210.934 28.2275 210.746 29.4283 210.369C31.9214 209.576 33.168 208.075 33.168 205.866C33.1578 204.36 32.1606 203.327 30.1762 202.768C29.1077 202.483 27.388 202.305 25.0169 202.234ZM26.3144 191.701L25.307 199.715C25.6428 199.715 25.9531 199.705 26.2381 199.684C29.9625 199.481 31.8247 197.675 31.8247 194.266C31.8146 193.431 31.4737 192.79 30.8021 192.342C30.0694 191.884 28.8177 191.655 27.0471 191.655C26.813 191.655 26.5688 191.671 26.3144 191.701ZM41.4106 212.018C41.258 212.842 40.851 213.259 40.1895 213.27C39.9453 213.27 39.7265 213.203 39.5331 213.071C39.1363 212.807 38.9378 212.379 38.9378 211.789C38.9378 211.789 39.8639 204.783 41.7159 190.77C41.7363 190.618 41.7719 190.47 41.8228 190.328C42.0365 189.829 42.4079 189.58 42.9371 189.58C43.1406 189.58 43.3339 189.63 43.5171 189.732C43.9241 189.966 44.1378 190.312 44.1582 190.77C42.4181 204.437 41.5022 211.519 41.4106 212.018ZM50.3402 211.987C50.1977 212.812 49.7805 213.229 49.0885 213.239C48.8545 213.239 48.6458 213.178 48.4627 213.056C48.0556 212.791 47.8521 212.359 47.8521 211.758C48.31 207.932 49.231 200.926 50.6149 190.74C50.6454 190.536 50.7523 190.348 50.9355 190.175C51.2815 189.859 51.7038 189.702 52.2024 189.702C53.1081 189.529 54.1053 189.442 55.1942 189.442C55.9676 189.442 56.6799 189.498 57.3311 189.61C60.1906 190.129 61.6204 191.706 61.6204 194.342C61.6204 195.37 61.4525 196.331 61.1167 197.227C60.0889 199.985 57.5601 201.994 53.5304 203.256L61.9562 210.949C62.292 211.306 62.465 211.672 62.4752 212.048C62.4752 212.252 62.4192 212.455 62.3073 212.659C62.063 213.046 61.7323 213.239 61.3151 213.239C60.9895 213.239 60.6587 213.127 60.3229 212.903C60.0889 212.74 57.0818 209.998 51.3018 204.676C50.793 208.726 50.4725 211.163 50.3402 211.987ZM52.9351 191.93C52.9351 191.93 52.5433 194.978 51.7597 201.073C53.2047 200.86 54.5683 200.387 55.8505 199.654C58.0791 198.351 59.1934 196.601 59.1934 194.403C59.1832 192.643 57.8501 191.752 55.1942 191.732C54.9906 191.732 54.2376 191.798 52.9351 191.93ZM82.807 190.846C82.807 191.06 82.746 191.259 82.6239 191.442C82.3694 191.818 81.9878 192.007 81.479 192.007H74.5033C72.8751 204.849 72.0153 211.509 71.9237 211.987C71.9135 212.048 71.9033 212.109 71.8932 212.171C71.7303 212.883 71.3182 213.239 70.6568 213.239C70.4125 213.239 70.1988 213.173 70.0157 213.041C69.629 212.776 69.4356 212.349 69.4356 211.758C69.4356 211.636 70.0513 206.996 71.2826 197.837C71.6998 194.754 71.9593 192.81 72.0611 192.007H65.5433C65.3092 192.007 65.0853 191.971 64.8716 191.9C64.3323 191.717 64.0626 191.381 64.0626 190.892C64.0626 190.648 64.1237 190.419 64.2458 190.205C64.49 189.798 64.8716 189.595 65.3906 189.595H81.5096C81.652 189.595 81.8047 189.625 81.9675 189.686C82.5272 189.9 82.807 190.287 82.807 190.846ZM94.3315 211.987C94.3315 211.998 94.3264 212.018 94.3162 212.048C94.2043 212.842 93.7972 213.239 93.0951 213.239C92.8508 213.239 92.6371 213.178 92.454 213.056C92.0469 212.791 91.8434 212.359 91.8434 211.758L92.8814 203.745H85.8751C85.4782 206.991 85.117 209.738 84.7914 211.987C84.6489 212.812 84.2317 213.229 83.5397 213.239C83.3158 213.239 83.1174 213.183 82.9444 213.071C82.517 212.796 82.3033 212.354 82.3033 211.743C82.3644 211.214 82.9546 206.787 84.0739 198.463C84.7659 193.345 85.1119 190.77 85.1119 190.74C85.1119 190.587 85.173 190.409 85.2951 190.205C85.5698 189.768 85.9107 189.549 86.3178 189.549C86.5111 189.549 86.6943 189.6 86.8673 189.702C87.2641 189.936 87.4778 190.282 87.5084 190.74L86.1957 201.257C87.834 201.236 90.1745 201.226 93.2172 201.226C93.3189 200.402 93.5021 198.992 93.7667 196.998C94.1228 194.362 94.3976 192.276 94.5909 190.74C94.6113 190.587 94.652 190.434 94.7131 190.282C94.9369 189.793 95.3134 189.549 95.8426 189.549C96.0359 189.549 96.2242 189.6 96.4074 189.702C96.8144 189.936 97.0332 190.282 97.0637 190.74L95.7358 201.226H99.5823C99.8164 201.226 100.035 201.267 100.239 201.348C100.747 201.572 101.002 201.954 101.002 202.493C101.002 202.656 100.961 202.819 100.88 202.981C100.676 203.399 100.279 203.653 99.6892 203.745H95.4305C94.7996 208.65 94.4332 211.397 94.3315 211.987ZM105.703 189.549C106.08 189.498 106.604 189.473 107.275 189.473C109.026 189.473 110.562 189.763 111.885 190.343C114.836 191.625 116.312 194.189 116.312 198.036C116.312 198.85 116.276 199.644 116.205 200.417C115.747 205.342 113.88 208.894 110.603 211.071C108.425 212.516 105.871 213.239 102.94 213.239C102.706 213.239 102.498 213.178 102.315 213.056C101.908 212.791 101.704 212.359 101.704 211.758C101.704 211.555 102.63 204.549 104.482 190.74C104.492 190.577 104.528 190.424 104.589 190.282C104.803 189.814 105.174 189.569 105.703 189.549ZM113.915 198.143C113.915 196.586 113.6 195.293 112.969 194.266C111.982 192.658 110.354 191.854 108.084 191.854C107.677 191.854 107.23 191.89 106.741 191.961L104.375 210.614C104.528 210.603 104.691 210.593 104.864 210.583C106.746 210.4 108.415 209.723 109.87 208.553C112.567 206.385 113.915 202.915 113.915 198.143ZM128.294 190.19C128.345 190.302 128.396 190.439 128.447 190.602C128.691 191.437 130.039 198.463 132.492 211.682C132.522 211.784 132.538 211.886 132.538 211.987C132.538 212.201 132.482 212.41 132.37 212.613C132.125 213.03 131.785 213.239 131.347 213.239C131.286 213.239 131.22 213.234 131.149 213.224C130.66 213.142 130.345 212.862 130.202 212.384L128.828 205.408H121.807L118.51 212.415C118.469 212.486 118.418 212.557 118.357 212.628C118.042 213.035 117.696 213.239 117.319 213.239C117.085 213.239 116.866 213.173 116.663 213.041C116.297 212.786 116.113 212.445 116.113 212.018C116.113 211.896 116.139 211.774 116.19 211.652C116.403 211.163 116.754 210.395 117.243 209.347C122.127 198.662 125.048 192.358 126.005 190.434C126.279 189.875 126.671 189.59 127.18 189.58C127.668 189.59 128.04 189.793 128.294 190.19ZM126.753 194.891L122.967 202.859H128.309L126.753 194.891ZM151.221 189.656C151.414 189.656 151.603 189.702 151.786 189.793C152.193 190.017 152.412 190.368 152.442 190.846C150.763 204.106 149.837 211.27 149.664 212.338C149.277 214.598 148.545 216.465 147.466 217.94C145.828 220.169 143.558 221.283 140.658 221.283C139.722 221.283 138.628 220.993 137.376 220.413C135.626 219.599 134.42 218.541 133.759 217.238C133.667 217.055 133.621 216.857 133.621 216.643C133.621 216.429 133.677 216.226 133.789 216.032C134.034 215.625 134.385 215.422 134.843 215.422C135.209 215.432 135.519 215.6 135.774 215.925C137.29 217.91 139.04 218.907 141.024 218.917C142.602 218.907 143.96 218.22 145.1 216.857C146.392 215.289 147.145 213.147 147.359 210.43C146.962 211.041 146.459 211.57 145.848 212.018C144.739 212.812 143.513 213.208 142.169 213.208C141.945 213.208 141.716 213.193 141.482 213.163C139.915 212.939 138.618 212.008 137.59 210.369C136.45 208.548 135.88 206.268 135.88 203.531C135.88 202.29 135.936 201.007 136.048 199.684C136.242 197.609 136.705 194.663 137.437 190.846C137.458 190.724 137.493 190.607 137.544 190.495C137.758 189.936 138.124 189.656 138.643 189.656C138.847 189.656 139.045 189.712 139.239 189.824C139.646 190.058 139.849 190.383 139.849 190.801C139.849 191.432 139.661 192.994 139.284 195.487C138.745 199.15 138.475 201.536 138.475 202.646C138.475 204.925 138.781 206.782 139.391 208.217C140.093 209.886 141.106 210.72 142.429 210.72C142.561 210.72 142.698 210.705 142.841 210.675C143.838 210.471 144.861 209.652 145.909 208.217C147.11 206.569 147.954 204.681 148.443 202.554L150 190.846C150.02 190.663 150.071 190.49 150.152 190.328C150.376 189.88 150.732 189.656 151.221 189.656Z" fill="#F291B0"/>
<path d="M10.6025 6.08534V9.11604L16.9506 7.87532L14.8949 5.25687L10.6025 6.08534Z" fill="#F7BBA1"/>
<path d="M47.3192 10.4193L44.7598 12.0404L49.2009 16.7467L50.3145 13.6096L47.3192 10.4193Z" fill="#F291B0"/>
<path d="M8.38867 35.7728V38.8035L14.7367 37.5601L12.6809 34.9443L8.38867 35.7728Z" fill="#8BD6D2"/>
<path d="M84.75 8.25696L81.9049 7.22237L80.9082 13.6203L84.0669 12.579L84.75 8.25696Z" fill="#F4E67A"/>
<path d="M114.073 9.94456V12.9753L120.421 11.7345L118.367 9.11604L114.073 9.94456Z" fill="#E0E0E0"/>
<path d="M11.7596 94.2367L9.2002 95.8551L13.6413 100.561L14.7549 97.423L11.7596 94.2367Z" fill="#F291B0"/>
<path d="M15.625 127.104L12.7799 126.069L11.7832 132.467L14.942 131.426L15.625 127.104Z" fill="#F4E67A"/>
<path d="M10.5293 182.107V185.136L16.8787 183.895L14.8229 181.276L10.5293 182.107Z" fill="#8BD6D2"/>
<path d="M14.6329 237.07L12.8057 234.655L8.49219 239.478L11.7081 240.324L14.6329 237.07Z" fill="#F291B0"/>
<path d="M161.664 233.554V236.584L168.009 235.34L165.954 232.725L161.664 233.554Z" fill="#8BD6D2"/>
<path d="M167.037 193.087L165.211 190.669L160.896 195.491L164.114 196.338L167.037 193.087Z" fill="#F291B0"/>
<path d="M8.60938 66.8765V69.9072L14.9548 68.6651L12.899 66.048L8.60938 66.8765Z" fill="#F7BBA1"/>
<path d="M166.516 145.561V148.591L172.864 147.347L170.808 144.732L166.516 145.561Z" fill="#F7BBA1"/>
<path d="M162.833 112.828L159.926 113.683L162.908 119.428L164.836 116.716L162.833 112.828Z" fill="#E0E0E0"/>
<path d="M166.516 44.4926V47.5233L172.864 46.2812L170.808 43.6641L166.516 44.4926Z" fill="#8BD6D2"/>
<path d="M161.654 13.1654L159.83 10.7504L155.514 15.5711L158.732 16.4169L161.654 13.1654Z" fill="#F291B0"/>
<path d="M165.284 75.3742L162.381 76.2293L165.363 81.9742L167.291 79.2627L165.284 75.3742Z" fill="#E0E0E0"/>
<path d="M132.757 231.491L130.197 233.11L134.638 237.816L135.752 234.678L132.757 231.491Z" fill="#F291B0"/>
<path d="M55.587 233.284L52.6807 234.138L55.6627 239.883L57.5909 237.171L55.587 233.284Z" fill="#E0E0E0"/>
<path d="M96.1823 229.325L93.3385 228.294L92.3418 234.688L95.5005 233.647L96.1823 229.325Z" fill="#F4E67A"/>
</svg>
