<svg width="311" height="231" viewBox="0 0 311 231" fill="none" xmlns="http://www.w3.org/2000/svg">
<path d="M302.691 122.478V192.056C302.691 198.73 297.244 204.139 290.526 204.139H20.4741C13.7558 204.139 8.30957 198.729 8.30957 192.056V122.478L155.5 111.692L302.691 122.478Z" fill="#060606"/>
<path d="M311 114.373V187.879C311 194.929 305.246 200.645 298.149 200.645H12.8513C5.75379 200.645 0 194.929 0 187.879V114.373L155.5 102.979L311 114.373Z" fill="url(#paint0_linear_22_24242)"/>
<path opacity="0.22" d="M311 105.478V178.985C311 186.035 305.246 191.75 298.149 191.75H12.8513C5.75379 191.75 0 186.035 0 178.985V105.478L155.5 94.0837L311 105.478Z" fill="white"/>
<path d="M311 105.158V178.665C311 185.715 305.246 191.43 298.149 191.43H12.8513C5.75379 191.43 0 185.715 0 178.665V105.158L155.5 93.7639L311 105.158Z" fill="#0F0F0F"/>
<path d="M311 104.344V177.851C311 184.901 305.246 190.616 298.149 190.616H12.8513C5.75379 190.616 0 184.901 0 177.851V104.344L155.5 92.9501L311 104.344Z" fill="url(#paint1_linear_22_24242)"/>
<path d="M242.84 162.189V200.644H68.1606V162.189C68.1606 157.033 72.1115 152.795 77.1692 152.296C77.4983 152.264 77.8318 152.247 78.1691 152.247H232.832C233.169 152.247 233.502 152.264 233.831 152.296C238.889 152.795 242.84 157.033 242.84 162.189Z" fill="#060606"/>
<path d="M233.831 152.296V185.035H77.1689V152.296C77.498 152.264 77.8315 152.247 78.1688 152.247H232.831C233.169 152.247 233.502 152.264 233.831 152.296Z" fill="#333333"/>
<path d="M77.1689 185.035L68.1606 200.645H242.84L233.832 185.035H77.1689Z" fill="#3D3D3D"/>
<path d="M250.005 225.441L249.173 225.211L248.867 225.351L245.784 219.371H65.2163L62.1396 225.339L61.8471 225.219L60.9949 225.311V228.131H60.9955C60.9929 229.403 62.0199 230.56 63.4368 230.56H247.563C248.989 230.56 250.02 229.389 250.005 228.108H250.005L250.005 225.441Z" fill="url(#paint2_linear_22_24242)"/>
<path d="M249.734 224.297L229.494 185.035H81.5063L61.2661 224.297C60.4352 225.909 61.6137 227.824 63.4368 227.824H247.564C249.387 227.824 250.565 225.909 249.734 224.297Z" fill="#2B2B2B"/>
<path opacity="0.31" d="M247.563 227.424H63.4365C62.0949 227.424 61.1037 226.387 61.0041 225.197C60.8876 226.545 61.9464 227.824 63.4365 227.824H247.563C249.053 227.824 250.112 226.545 249.996 225.197C249.896 226.387 248.905 227.424 247.563 227.424Z" fill="white"/>
<path d="M227.709 185.035H155.502H83.2938L63.5376 224.965H155.502H247.465L227.709 185.035Z" fill="url(#paint3_linear_22_24242)"/>
<path opacity="0.9" d="M242.84 162.189V197.941H68.1606V162.189C68.1606 157.033 72.1115 152.795 77.1692 152.296C77.4983 152.264 77.8318 152.247 78.1691 152.247H232.832C233.169 152.247 233.502 152.264 233.831 152.296C238.889 152.795 242.84 157.033 242.84 162.189Z" fill="#060606"/>
<path opacity="0.14" d="M242.84 197.317H68.1606V197.941H242.84V197.317Z" fill="white"/>
<path opacity="0.14" d="M169.619 152.247C124.936 165.426 108.361 186.327 102.392 197.941H68.1606V162.189C68.1606 157.033 72.1115 152.795 77.1692 152.296C77.4983 152.264 77.8318 152.247 78.1691 152.247H169.619Z" fill="url(#paint4_linear_22_24242)"/>
<path d="M72.189 111.692V154.218C71.9841 154.368 71.7859 154.527 71.5938 154.695V111.692H72.189Z" fill="#060606"/>
<path opacity="0.15" d="M72.4338 111.692V154.042C72.3515 154.099 72.27 154.157 72.1892 154.218V111.692H72.4338Z" fill="white"/>
<path d="M239.406 111.692V154.695C239.292 154.595 239.175 154.498 239.056 154.405C238.976 154.341 238.894 154.278 238.811 154.218V111.692H239.406Z" fill="#060606"/>
<path opacity="0.15" d="M239.056 111.692V154.405C238.976 154.341 238.894 154.278 238.811 154.218V111.692H239.056Z" fill="white"/>
<path d="M311 104.236C311 105.895 310.315 107.536 309.003 108.72C305.821 111.591 301.677 113.181 297.378 113.181H13.622C11.4727 113.181 9.36151 112.784 7.39093 112.027C5.4196 111.271 3.58812 110.156 1.9967 108.72C-0.16383 106.77 -0.62376 103.581 0.875675 101.113C0.904841 101.063 0.936253 101.014 0.967663 100.965L19.2488 72.7191H291.751L310.032 100.965C310.064 101.014 310.095 101.063 310.124 101.113C310.714 102.082 311 103.163 311 104.236Z" fill="url(#paint5_linear_22_24242)"/>
<path opacity="0.27" d="M309.003 108.167C305.821 111.038 301.676 112.629 297.378 112.629H13.6216C11.4723 112.629 9.3611 112.231 7.39052 111.475C5.4192 110.718 3.58772 109.603 1.9963 108.167C0.757787 107.05 0.079261 105.525 0.00724328 103.962C-0.0726269 105.713 0.612106 107.471 1.9963 108.72C3.58772 110.156 5.4192 111.271 7.39052 112.027C9.3611 112.784 11.4723 113.181 13.6216 113.181H297.378C301.676 113.181 305.821 111.591 309.003 108.72C310.315 107.536 311 105.895 311 104.236C311 104.144 310.997 104.052 310.992 103.96C310.921 105.523 310.242 107.049 309.003 108.167Z" fill="white"/>
<path d="M1.99638 108.167C3.5878 109.603 5.41928 110.718 7.39061 111.475C9.36119 112.231 11.4724 112.629 13.6217 112.629H297.378C301.676 112.629 305.821 111.038 309.003 108.167C310.242 107.049 310.921 105.523 310.992 103.96C310.947 102.978 310.663 101.999 310.124 101.113C310.095 101.063 310.063 101.014 310.032 100.965L291.751 72.7191H19.2485L0.967339 100.965C0.93593 101.014 0.904517 101.063 0.875351 101.113C0.336526 102 0.0521203 102.98 0.00732422 103.962C0.0794168 105.525 0.757868 107.05 1.99638 108.167Z" fill="url(#paint6_linear_22_24242)"/>
<path d="M308.532 104.236C308.532 105.25 308.099 106.223 307.343 106.906C304.611 109.371 301.071 110.73 297.378 110.73H13.6223C11.7863 110.73 9.98999 110.397 8.28191 109.741C6.56859 109.083 5.01232 108.129 3.65648 106.905C2.37691 105.752 2.09646 103.848 2.98939 102.38L3.01183 102.342L3.01706 102.333C3.02454 102.32 3.18309 102.076 3.18309 102.076L3.80605 101.113L20.596 75.1707H290.405L307.194 101.113L307.961 102.297C307.971 102.312 307.98 102.328 307.99 102.344L308.019 102.392L308.031 102.411C308.359 102.964 308.532 103.594 308.532 104.236Z" fill="url(#paint7_linear_22_24242)"/>
<path d="M308.532 104.236C308.532 105.25 308.099 106.223 307.343 106.906C304.611 109.371 301.071 110.73 297.378 110.73H13.6223C11.7863 110.73 9.98999 110.397 8.28191 109.741C6.56859 109.083 5.01232 108.129 3.65648 106.905C2.37691 105.752 2.09646 103.848 2.98939 102.38L3.01183 102.342L3.01706 102.333C3.02454 102.32 3.18309 102.076 3.18309 102.076L3.80605 101.113L20.596 75.1707H290.405L307.194 101.113L307.961 102.297C307.971 102.312 307.98 102.328 307.99 102.344L308.019 102.392L308.031 102.411C308.359 102.964 308.532 103.594 308.532 104.236Z" fill="url(#paint8_linear_22_24242)"/>
<path d="M308.532 99.4136L305.636 100.232L305.596 101.113H7.69651L8.60994 99.4864H2.46973V104.234L2.47055 104.234C2.47017 105.224 2.87805 106.203 3.65649 106.905C5.01234 108.129 6.5686 109.083 8.28192 109.741C9.99001 110.397 11.7863 110.73 13.6223 110.73H297.378C301.071 110.73 304.611 109.371 307.343 106.906C308.099 106.223 308.532 105.25 308.532 104.236C308.532 104.224 308.531 104.212 308.531 104.2L308.532 104.2V99.4136Z" fill="url(#paint9_linear_22_24242)"/>
<path d="M308.532 99.4279C308.532 100.442 308.099 101.415 307.343 102.098C304.611 104.563 301.071 105.922 297.378 105.922H13.6223C11.7863 105.922 9.98999 105.589 8.28191 104.932C6.56859 104.275 5.01232 103.321 3.65648 102.097C2.37691 100.943 2.09646 99.0401 2.98939 97.5715L3.01183 97.5336L3.01706 97.5247C3.02454 97.5121 3.18309 97.2677 3.18309 97.2677L3.80605 96.305L20.596 70.3624H290.405L307.194 96.305L307.961 97.4891C307.971 97.5039 307.98 97.5195 307.99 97.5359L308.019 97.5842L308.031 97.6027C308.359 98.1561 308.532 98.7861 308.532 99.4279Z" fill="url(#paint10_linear_22_24242)"/>
<path opacity="0.27" d="M307.343 101.248C304.611 103.713 301.071 105.072 297.378 105.072H13.6222C11.7862 105.072 9.98991 104.739 8.28183 104.082C6.56851 103.425 5.01224 102.471 3.6564 101.247C2.99006 100.646 2.59535 99.842 2.49551 99.002C2.36075 100.131 2.76683 101.295 3.6564 102.097C5.01224 103.321 6.56851 104.275 8.28183 104.932C9.98991 105.589 11.7862 105.922 13.6222 105.922H297.378C301.071 105.922 304.611 104.563 307.343 102.098C308.099 101.415 308.532 100.442 308.532 99.4278C308.532 99.2859 308.522 99.1449 308.506 99.0049C308.402 99.8612 307.992 100.662 307.343 101.248Z" fill="white"/>
<path d="M308.505 99.0052C308.402 99.8609 307.992 100.662 307.343 101.248C304.61 103.713 301.071 105.072 297.378 105.072H13.6221C11.7861 105.072 9.98978 104.739 8.2817 104.082C6.56838 103.425 5.01212 102.471 3.65627 101.247C2.98993 100.646 2.59507 99.8424 2.49561 99.0022C2.55469 98.5075 2.71697 98.0195 2.98918 97.5715L3.01162 97.5336L3.01685 97.5247C3.02433 97.5121 3.18288 97.2677 3.18288 97.2677L3.80584 96.305L20.5958 70.3624H290.404L307.194 96.305L307.961 97.4891C307.971 97.5039 307.98 97.5195 307.99 97.5359L308.018 97.5842L308.031 97.6027C308.286 98.0336 308.446 98.5112 308.505 99.0052Z" fill="url(#paint11_radial_22_24242)"/>
<path opacity="0.18" d="M237.461 70.3624C159.034 78.3775 120.486 92.7052 101.548 105.072H13.6221C11.7861 105.072 9.98978 104.739 8.2817 104.082C6.56838 103.425 5.01212 102.471 3.65627 101.247C2.98993 100.646 2.59507 99.8424 2.49561 99.0022C2.55469 98.5075 2.71697 98.0195 2.98918 97.5715L3.01162 97.5336L3.01685 97.5247C3.02433 97.5121 3.18288 97.2677 3.18288 97.2677L3.80584 96.305L20.5958 70.3624H237.461Z" fill="white"/>
<path d="M230.831 17.3023H80.1689V71.5138H230.831V17.3023Z" fill="#303030"/>
<path d="M227.706 0.55957H83.2935V65.6146H227.706V0.55957Z" fill="#EAEAEA"/>
<path d="M227.707 0.714661H83.2939V65.7697H227.707V0.714661Z" fill="#ECECEC"/>
<path d="M229.668 57.7643V60.0458H232.315L231.064 58.8032L229.668 57.7643Z" fill="#444444"/>
<path d="M81.3313 57.7643V59.9731H79.2031L81.3313 57.7643Z" fill="#444444"/>
<path d="M71.0305 60.8451V64.6079C71.0305 71.8072 76.9061 77.6434 84.1541 77.6434H226.846C234.094 77.6434 239.97 71.8072 239.97 64.6079V60.8451H71.0305Z" fill="url(#paint12_linear_22_24242)"/>
<path d="M71.0305 60.8451V64.4392C71.0305 71.3158 76.9061 76.8903 84.1541 76.8903H226.846C234.094 76.8903 239.97 71.3158 239.97 64.4392V60.8451H71.0305Z" fill="url(#paint13_linear_22_24242)"/>
<path d="M239.969 60.845H71.0305L71.1726 60.62L72.9734 57.7646H81.3314L80.25 59.479H230.75L229.668 57.7646H238.026L239.827 60.62L239.969 60.845Z" fill="url(#paint14_linear_22_24242)"/>
<path opacity="0.27" d="M239.969 60.8465H71.0305L71.1726 60.62H239.827L239.969 60.8465Z" fill="white"/>
<path d="M230.83 83.0202H80.1689V105.072H230.83V83.0202Z" fill="#303030"/>
<path d="M227.706 88.9191H83.2939V105.072H227.706V88.9191Z" fill="#EAEAEA"/>
<path d="M227.706 88.7639H83.2939V105.072H227.706V88.7639Z" fill="url(#paint15_linear_22_24242)"/>
<path d="M71.0305 93.6886V90.0945C71.0305 83.218 76.9061 77.6435 84.1541 77.6435H226.846C234.094 77.6435 239.97 83.218 239.97 90.0945V93.6886H71.0305Z" fill="url(#paint16_linear_22_24242)"/>
<path opacity="0.27" d="M239.969 93.6888H71.0305L71.1726 93.9154H239.827L239.969 93.6888Z" fill="white"/>
<path d="M267.192 121.272C268.441 121.272 269.454 120.266 269.454 119.025C269.454 117.785 268.441 116.779 267.192 116.779C265.943 116.779 264.931 117.785 264.931 119.025C264.931 120.266 265.943 121.272 267.192 121.272Z" fill="url(#paint17_linear_22_24242)"/>
<path d="M267.192 120.961C268.269 120.961 269.141 120.095 269.141 119.025C269.141 117.956 268.269 117.089 267.192 117.089C266.116 117.089 265.243 117.956 265.243 119.025C265.243 120.095 266.116 120.961 267.192 120.961Z" fill="url(#paint18_radial_22_24242)"/>
<path opacity="0.16" d="M268.501 118.05C268.501 118.375 267.915 118.639 267.192 118.639C266.469 118.639 265.883 118.375 265.883 118.05C265.883 117.725 266.469 117.279 267.192 117.279C267.915 117.279 268.501 117.725 268.501 118.05Z" fill="white"/>
<path d="M257.874 121.272C259.123 121.272 260.136 120.266 260.136 119.025C260.136 117.785 259.123 116.779 257.874 116.779C256.625 116.779 255.613 117.785 255.613 119.025C255.613 120.266 256.625 121.272 257.874 121.272Z" fill="url(#paint19_linear_22_24242)"/>
<path d="M257.874 120.961C258.951 120.961 259.823 120.095 259.823 119.025C259.823 117.956 258.951 117.089 257.874 117.089C256.798 117.089 255.925 117.956 255.925 119.025C255.925 120.095 256.798 120.961 257.874 120.961Z" fill="url(#paint20_radial_22_24242)"/>
<path opacity="0.16" d="M259.183 118.05C259.183 118.375 258.597 118.639 257.874 118.639C257.151 118.639 256.565 118.375 256.565 118.05C256.565 117.725 257.151 117.279 257.874 117.279C258.597 117.279 259.183 117.725 259.183 118.05Z" fill="white"/>
<path d="M276.51 121.272C277.759 121.272 278.772 120.266 278.772 119.025C278.772 117.785 277.759 116.779 276.51 116.779C275.261 116.779 274.249 117.785 274.249 119.025C274.249 120.266 275.261 121.272 276.51 121.272Z" fill="url(#paint21_linear_22_24242)"/>
<path d="M276.511 120.961C277.587 120.961 278.46 120.095 278.46 119.025C278.46 117.956 277.587 117.089 276.511 117.089C275.434 117.089 274.562 117.956 274.562 119.025C274.562 120.095 275.434 120.961 276.511 120.961Z" fill="url(#paint22_radial_22_24242)"/>
<path opacity="0.16" d="M277.82 118.05C277.82 118.375 277.234 118.639 276.511 118.639C275.787 118.639 275.201 118.375 275.201 118.05C275.201 117.725 275.787 117.279 276.511 117.279C277.234 117.279 277.82 117.725 277.82 118.05Z" fill="white"/>
<path d="M31.8233 127.27C34.5886 127.27 36.8302 125.043 36.8302 122.296C36.8302 119.55 34.5886 117.323 31.8233 117.323C29.0581 117.323 26.8164 119.55 26.8164 122.296C26.8164 125.043 29.0581 127.27 31.8233 127.27Z" fill="url(#paint23_linear_22_24242)"/>
<path d="M31.8234 126.619C34.227 126.619 36.1755 124.684 36.1755 122.296C36.1755 119.909 34.227 117.973 31.8234 117.973C29.4197 117.973 27.4712 119.909 27.4712 122.296C27.4712 124.684 29.4197 126.619 31.8234 126.619Z" fill="url(#paint24_radial_22_24242)"/>
<path opacity="0.12" d="M31.8234 117.973C29.4197 117.973 27.4712 119.909 27.4712 122.296C27.4712 124.684 29.4197 126.619 31.8234 126.619C34.227 126.619 36.1755 124.684 36.1755 122.296C36.1755 119.909 34.227 117.973 31.8234 117.973ZM31.8234 126.467C29.5045 126.467 27.6247 124.6 27.6247 122.296C27.6247 119.993 29.5045 118.126 31.8234 118.126C34.1422 118.126 36.022 119.993 36.022 122.296C36.022 124.6 34.1422 126.467 31.8234 126.467Z" fill="black"/>
<g opacity="0.41">
<path d="M33.7084 120.406C33.511 120.216 33.1845 120.272 33.0617 120.516L33.0565 120.527C32.9768 120.685 33.011 120.875 33.1386 120.999C33.4901 121.339 33.7083 121.814 33.7083 122.34C33.7083 123.374 32.8572 124.216 31.8159 124.212C30.7785 124.208 29.9387 123.371 29.9387 122.34C29.9387 121.813 30.1575 121.338 30.5099 120.997C30.6371 120.875 30.6699 120.684 30.5905 120.527L30.5854 120.516C30.4625 120.272 30.1361 120.216 29.9387 120.406C29.4286 120.897 29.112 121.585 29.1138 122.346C29.1173 123.833 30.3269 125.032 31.8236 125.032C33.3202 125.032 34.5334 123.826 34.5334 122.34C34.5333 121.581 34.2171 120.896 33.7084 120.406Z" fill="white"/>
<path d="M31.8234 119.137C31.6309 119.137 31.4734 119.293 31.4734 119.484V121.768C31.4734 121.959 31.6309 122.116 31.8234 122.116C32.0159 122.116 32.1734 121.959 32.1734 121.768V119.484C32.1734 119.293 32.0159 119.137 31.8234 119.137Z" fill="white"/>
</g>
<path opacity="0.11" d="M34.3656 120.02C34.3656 120.651 33.2274 121.163 31.8233 121.163C30.4192 121.163 29.281 120.651 29.281 120.02C29.281 119.388 30.4192 118.522 31.8233 118.522C33.2274 118.522 34.3656 119.388 34.3656 120.02Z" fill="white"/>
<path d="M43.0193 125.124C44.4058 125.124 45.5298 124.007 45.5298 122.63C45.5298 121.253 44.4058 120.136 43.0193 120.136C41.6328 120.136 40.5088 121.253 40.5088 122.63C40.5088 124.007 41.6328 125.124 43.0193 125.124Z" fill="black"/>
<path d="M43.0193 124.83C44.4058 124.83 45.5298 123.713 45.5298 122.336C45.5298 120.959 44.4058 119.842 43.0193 119.842C41.6328 119.842 40.5088 120.959 40.5088 122.336C40.5088 123.713 41.6328 124.83 43.0193 124.83Z" fill="url(#paint25_linear_22_24242)"/>
<path d="M43.0196 124.364C44.1472 124.364 45.0613 123.456 45.0613 122.336C45.0613 121.216 44.1472 120.308 43.0196 120.308C41.8919 120.308 40.9778 121.216 40.9778 122.336C40.9778 123.456 41.8919 124.364 43.0196 124.364Z" fill="url(#paint26_linear_22_24242)"/>
<path opacity="0.2" d="M43.0389 124.23C44.0554 124.23 44.8794 123.411 44.8794 122.402C44.8794 121.392 44.0554 120.573 43.0389 120.573C42.0223 120.573 41.1982 121.392 41.1982 122.402C41.1982 123.411 42.0223 124.23 43.0389 124.23Z" fill="black"/>
<path d="M43.0196 124.164C44.0361 124.164 44.8602 123.346 44.8602 122.336C44.8602 121.326 44.0361 120.508 43.0196 120.508C42.003 120.508 41.179 121.326 41.179 122.336C41.179 123.346 42.003 124.164 43.0196 124.164Z" fill="url(#paint27_linear_22_24242)"/>
<path d="M50.3958 125.102C51.7719 124.933 52.7501 123.689 52.5807 122.322C52.4113 120.955 51.1583 119.983 49.7822 120.152C48.4061 120.32 47.4279 121.565 47.5973 122.931C47.7667 124.298 49.0197 125.27 50.3958 125.102Z" fill="black"/>
<path d="M50.0872 124.83C51.4737 124.83 52.5977 123.713 52.5977 122.336C52.5977 120.959 51.4737 119.842 50.0872 119.842C48.7007 119.842 47.5767 120.959 47.5767 122.336C47.5767 123.713 48.7007 124.83 50.0872 124.83Z" fill="url(#paint28_linear_22_24242)"/>
<path d="M50.0872 124.364C51.2148 124.364 52.129 123.456 52.129 122.336C52.129 121.216 51.2148 120.308 50.0872 120.308C48.9595 120.308 48.0454 121.216 48.0454 122.336C48.0454 123.456 48.9595 124.364 50.0872 124.364Z" fill="url(#paint29_linear_22_24242)"/>
<path opacity="0.2" d="M50.1067 124.23C51.1233 124.23 51.9473 123.411 51.9473 122.402C51.9473 121.392 51.1233 120.573 50.1067 120.573C49.0902 120.573 48.2661 121.392 48.2661 122.402C48.2661 123.411 49.0902 124.23 50.1067 124.23Z" fill="black"/>
<path d="M50.0872 124.164C51.1037 124.164 51.9278 123.346 51.9278 122.336C51.9278 121.326 51.1037 120.508 50.0872 120.508C49.0706 120.508 48.2466 121.326 48.2466 122.336C48.2466 123.346 49.0706 124.164 50.0872 124.164Z" fill="url(#paint30_linear_22_24242)"/>
<path d="M57.1551 125.124C58.5416 125.124 59.6656 124.007 59.6656 122.63C59.6656 121.253 58.5416 120.136 57.1551 120.136C55.7685 120.136 54.6445 121.253 54.6445 122.63C54.6445 124.007 55.7685 125.124 57.1551 125.124Z" fill="black"/>
<path d="M57.1551 124.83C58.5416 124.83 59.6656 123.713 59.6656 122.336C59.6656 120.959 58.5416 119.842 57.1551 119.842C55.7685 119.842 54.6445 120.959 54.6445 122.336C54.6445 123.713 55.7685 124.83 57.1551 124.83Z" fill="url(#paint31_linear_22_24242)"/>
<path d="M57.1551 124.364C58.2827 124.364 59.1968 123.456 59.1968 122.336C59.1968 121.216 58.2827 120.308 57.1551 120.308C56.0274 120.308 55.1133 121.216 55.1133 122.336C55.1133 123.456 56.0274 124.364 57.1551 124.364Z" fill="url(#paint32_linear_22_24242)"/>
<path opacity="0.2" d="M57.1746 124.23C58.1911 124.23 59.0152 123.411 59.0152 122.402C59.0152 121.392 58.1911 120.573 57.1746 120.573C56.158 120.573 55.334 121.392 55.334 122.402C55.334 123.411 56.158 124.23 57.1746 124.23Z" fill="black"/>
<path d="M57.1553 124.164C58.1718 124.164 58.9959 123.346 58.9959 122.336C58.9959 121.326 58.1718 120.508 57.1553 120.508C56.1388 120.508 55.3147 121.326 55.3147 122.336C55.3147 123.346 56.1388 124.164 57.1553 124.164Z" fill="url(#paint33_linear_22_24242)"/>
<defs>
<linearGradient id="paint0_linear_22_24242" x1="7.47848e-06" y1="151.812" x2="311" y2="151.812" gradientUnits="userSpaceOnUse">
<stop stop-color="#1A1A1A"/>
<stop offset="0.0329" stop-color="#4D4D4D"/>
<stop offset="0.0502" stop-color="#383838"/>
<stop offset="0.0705" stop-color="#272727"/>
<stop offset="0.0928" stop-color="#1D1D1D"/>
<stop offset="0.1207" stop-color="#1A1A1A"/>
<stop offset="0.888" stop-color="#1A1A1A"/>
<stop offset="0.9117" stop-color="#1D1D1D"/>
<stop offset="0.9326" stop-color="#282828"/>
<stop offset="0.9522" stop-color="#3A3A3A"/>
<stop offset="0.967" stop-color="#4D4D4D"/>
<stop offset="1" stop-color="#1A1A1A"/>
</linearGradient>
<linearGradient id="paint1_linear_22_24242" x1="7.47848e-06" y1="141.783" x2="311" y2="141.783" gradientUnits="userSpaceOnUse">
<stop stop-color="#1A1A1A"/>
<stop offset="0.0329" stop-color="#4D4D4D"/>
<stop offset="0.0502" stop-color="#383838"/>
<stop offset="0.0705" stop-color="#272727"/>
<stop offset="0.0928" stop-color="#1D1D1D"/>
<stop offset="0.1207" stop-color="#1A1A1A"/>
<stop offset="0.888" stop-color="#1A1A1A"/>
<stop offset="0.9117" stop-color="#1D1D1D"/>
<stop offset="0.9326" stop-color="#282828"/>
<stop offset="0.9522" stop-color="#3A3A3A"/>
<stop offset="0.967" stop-color="#4D4D4D"/>
<stop offset="1" stop-color="#1A1A1A"/>
</linearGradient>
<linearGradient id="paint2_linear_22_24242" x1="60.9949" y1="224.965" x2="250.005" y2="224.965" gradientUnits="userSpaceOnUse">
<stop stop-color="#1A1A1A"/>
<stop offset="0.0108" stop-color="#666666"/>
<stop offset="0.014" stop-color="#595959"/>
<stop offset="0.0212" stop-color="#424242"/>
<stop offset="0.0296" stop-color="#303030"/>
<stop offset="0.0396" stop-color="#232323"/>
<stop offset="0.0529" stop-color="#1C1C1C"/>
<stop offset="0.0831" stop-color="#1A1A1A"/>
<stop offset="0.9145" stop-color="#1A1A1A"/>
<stop offset="0.9331" stop-color="#1D1D1D"/>
<stop offset="0.9493" stop-color="#282828"/>
<stop offset="0.9647" stop-color="#3A3A3A"/>
<stop offset="0.9795" stop-color="#535353"/>
<stop offset="0.9882" stop-color="#666666"/>
<stop offset="1" stop-color="#1A1A1A"/>
</linearGradient>
<linearGradient id="paint3_linear_22_24242" x1="155.502" y1="185.035" x2="155.502" y2="224.965" gradientUnits="userSpaceOnUse">
<stop stop-color="#7E7C7D"/>
<stop offset="1" stop-color="white"/>
</linearGradient>
<linearGradient id="paint4_linear_22_24242" x1="68.1607" y1="175.094" x2="169.619" y2="175.094" gradientUnits="userSpaceOnUse">
<stop/>
<stop offset="0.293" stop-color="#4C4C4C"/>
<stop offset="1" stop-color="white"/>
</linearGradient>
<linearGradient id="paint5_linear_22_24242" x1="5.80351e-06" y1="92.9501" x2="311" y2="92.9501" gradientUnits="userSpaceOnUse">
<stop stop-color="#666666"/>
<stop offset="0.0029" stop-color="#666666"/>
<stop offset="0.4445" stop-color="#909090"/>
<stop offset="0.7918" stop-color="#A9A9A9"/>
<stop offset="1" stop-color="#B3B3B3"/>
</linearGradient>
<linearGradient id="paint6_linear_22_24242" x1="0.00731674" y1="92.674" x2="310.993" y2="92.674" gradientUnits="userSpaceOnUse">
<stop stop-color="#666666"/>
<stop offset="0.0029" stop-color="#666666"/>
<stop offset="0.4445" stop-color="#909090"/>
<stop offset="0.7918" stop-color="#A9A9A9"/>
<stop offset="1" stop-color="#B3B3B3"/>
</linearGradient>
<linearGradient id="paint7_linear_22_24242" x1="2.46973" y1="92.9503" x2="308.532" y2="92.9503" gradientUnits="userSpaceOnUse">
<stop stop-color="#4C4C4C"/>
<stop offset="0.2459" stop-color="#595959"/>
<stop offset="0.5806" stop-color="#636363"/>
<stop offset="1" stop-color="#666666"/>
</linearGradient>
<linearGradient id="paint8_linear_22_24242" x1="2.46973" y1="92.9503" x2="308.532" y2="92.9503" gradientUnits="userSpaceOnUse">
<stop stop-color="#4C4C4C"/>
<stop offset="0.2459" stop-color="#595959"/>
<stop offset="0.5806" stop-color="#636363"/>
<stop offset="1" stop-color="#666666"/>
</linearGradient>
<linearGradient id="paint9_linear_22_24242" x1="2.46974" y1="105.072" x2="308.532" y2="105.072" gradientUnits="userSpaceOnUse">
<stop stop-color="#1A1A1A"/>
<stop offset="0.0329" stop-color="#4D4D4D"/>
<stop offset="0.0502" stop-color="#383838"/>
<stop offset="0.0705" stop-color="#272727"/>
<stop offset="0.0928" stop-color="#1D1D1D"/>
<stop offset="0.1207" stop-color="#1A1A1A"/>
<stop offset="0.888" stop-color="#1A1A1A"/>
<stop offset="0.9117" stop-color="#1D1D1D"/>
<stop offset="0.9326" stop-color="#282828"/>
<stop offset="0.9522" stop-color="#3A3A3A"/>
<stop offset="0.967" stop-color="#4D4D4D"/>
<stop offset="1" stop-color="#1A1A1A"/>
</linearGradient>
<linearGradient id="paint10_linear_22_24242" x1="2.46973" y1="88.142" x2="308.532" y2="88.142" gradientUnits="userSpaceOnUse">
<stop stop-color="#4C4C4C"/>
<stop offset="0.2459" stop-color="#595959"/>
<stop offset="0.5806" stop-color="#636363"/>
<stop offset="1" stop-color="#666666"/>
</linearGradient>
<radialGradient id="paint11_radial_22_24242" cx="0" cy="0" r="1" gradientUnits="userSpaceOnUse" gradientTransform="translate(155.5 80.2842) scale(187.505 41.6636)">
<stop stop-color="#5D5D5D"/>
<stop offset="0.1043" stop-color="#4D4D4D"/>
<stop offset="0.3228" stop-color="#323232"/>
<stop offset="0.5443" stop-color="#1F1F1F"/>
<stop offset="0.7686" stop-color="#131313"/>
<stop offset="1" stop-color="#0F0F0F"/>
</radialGradient>
<linearGradient id="paint12_linear_22_24242" x1="71.0305" y1="69.2443" x2="239.97" y2="69.2443" gradientUnits="userSpaceOnUse">
<stop stop-color="#1A1A1A"/>
<stop offset="0.0329" stop-color="#4D4D4D"/>
<stop offset="0.0502" stop-color="#383838"/>
<stop offset="0.0705" stop-color="#272727"/>
<stop offset="0.0928" stop-color="#1D1D1D"/>
<stop offset="0.1207" stop-color="#1A1A1A"/>
<stop offset="0.888" stop-color="#1A1A1A"/>
<stop offset="0.9117" stop-color="#1D1D1D"/>
<stop offset="0.9326" stop-color="#282828"/>
<stop offset="0.9522" stop-color="#3A3A3A"/>
<stop offset="0.967" stop-color="#4D4D4D"/>
<stop offset="1" stop-color="#1A1A1A"/>
</linearGradient>
<linearGradient id="paint13_linear_22_24242" x1="155.5" y1="60.8451" x2="155.5" y2="76.8903" gradientUnits="userSpaceOnUse">
<stop stop-color="#222222"/>
<stop offset="0.0663" stop-color="#262626"/>
<stop offset="0.6592" stop-color="#424242"/>
<stop offset="1" stop-color="#4D4D4D"/>
</linearGradient>
<linearGradient id="paint14_linear_22_24242" x1="71.0305" y1="59.3048" x2="239.969" y2="59.3048" gradientUnits="userSpaceOnUse">
<stop stop-color="#808080"/>
<stop offset="0.4818" stop-color="#8E8E8E"/>
<stop offset="1" stop-color="#999999"/>
</linearGradient>
<linearGradient id="paint15_linear_22_24242" x1="155.5" y1="105.072" x2="155.5" y2="88.7638" gradientUnits="userSpaceOnUse">
<stop stop-color="#EBEBEB"/>
<stop offset="0.3819" stop-color="#F4F4F4"/>
<stop offset="1" stop-color="#FDFDFD"/>
</linearGradient>
<linearGradient id="paint16_linear_22_24242" x1="155.5" y1="93.6887" x2="155.5" y2="77.6435" gradientUnits="userSpaceOnUse">
<stop stop-color="#222222"/>
<stop offset="0.0663" stop-color="#262626"/>
<stop offset="0.6592" stop-color="#424242"/>
<stop offset="1" stop-color="#4D4D4D"/>
</linearGradient>
<linearGradient id="paint17_linear_22_24242" x1="267.192" y1="121.272" x2="267.192" y2="116.779" gradientUnits="userSpaceOnUse">
<stop stop-color="#666666"/>
<stop offset="1"/>
</linearGradient>
<radialGradient id="paint18_radial_22_24242" cx="0" cy="0" r="1" gradientUnits="userSpaceOnUse" gradientTransform="translate(267.192 119.025) scale(1.94901 1.93594)">
<stop stop-color="#890000"/>
<stop offset="1" stop-color="#280000"/>
</radialGradient>
<linearGradient id="paint19_linear_22_24242" x1="257.874" y1="121.272" x2="257.874" y2="116.779" gradientUnits="userSpaceOnUse">
<stop stop-color="#666666"/>
<stop offset="1"/>
</linearGradient>
<radialGradient id="paint20_radial_22_24242" cx="0" cy="0" r="1" gradientUnits="userSpaceOnUse" gradientTransform="translate(257.874 119.025) scale(1.94901 1.93594)">
<stop stop-color="#00FF36"/>
<stop offset="0.1976" stop-color="#00FB35"/>
<stop offset="0.3782" stop-color="#00F032"/>
<stop offset="0.5521" stop-color="#00DE2E"/>
<stop offset="0.7218" stop-color="#00C428"/>
<stop offset="0.8871" stop-color="#00A220"/>
<stop offset="1" stop-color="#008719"/>
</radialGradient>
<linearGradient id="paint21_linear_22_24242" x1="276.51" y1="121.272" x2="276.51" y2="116.779" gradientUnits="userSpaceOnUse">
<stop stop-color="#666666"/>
<stop offset="1"/>
</linearGradient>
<radialGradient id="paint22_radial_22_24242" cx="0" cy="0" r="1" gradientUnits="userSpaceOnUse" gradientTransform="translate(276.511 119.025) scale(1.94901 1.93594)">
<stop stop-color="#890000"/>
<stop offset="1" stop-color="#280000"/>
</radialGradient>
<linearGradient id="paint23_linear_22_24242" x1="31.8233" y1="127.383" x2="31.8233" y2="117.334" gradientUnits="userSpaceOnUse">
<stop stop-color="#666666"/>
<stop offset="1"/>
</linearGradient>
<radialGradient id="paint24_radial_22_24242" cx="0" cy="0" r="1" gradientUnits="userSpaceOnUse" gradientTransform="translate(31.8234 122.296) scale(4.35217 4.32297)">
<stop stop-color="#808080"/>
<stop offset="0.2661" stop-color="#5C5C5C"/>
<stop offset="0.5791" stop-color="#393939"/>
<stop offset="0.835" stop-color="#232323"/>
<stop offset="1" stop-color="#1B1B1B"/>
</radialGradient>
<linearGradient id="paint25_linear_22_24242" x1="43.0193" y1="119.367" x2="43.0193" y2="124.817" gradientUnits="userSpaceOnUse">
<stop stop-color="#808080"/>
<stop offset="0.2661" stop-color="#5C5C5C"/>
<stop offset="0.5791" stop-color="#393939"/>
<stop offset="0.835" stop-color="#232323"/>
<stop offset="1" stop-color="#1B1B1B"/>
</linearGradient>
<linearGradient id="paint26_linear_22_24242" x1="43.0195" y1="124.42" x2="43.0195" y2="120.303" gradientUnits="userSpaceOnUse">
<stop stop-color="#666666"/>
<stop offset="1"/>
</linearGradient>
<linearGradient id="paint27_linear_22_24242" x1="43.0195" y1="120.021" x2="43.0195" y2="124.091" gradientUnits="userSpaceOnUse">
<stop stop-color="#4C4C4C"/>
<stop offset="0.2985" stop-color="#393939"/>
<stop offset="0.7245" stop-color="#232323"/>
<stop offset="1" stop-color="#1B1B1B"/>
</linearGradient>
<linearGradient id="paint28_linear_22_24242" x1="50.0872" y1="119.368" x2="50.0872" y2="124.817" gradientUnits="userSpaceOnUse">
<stop stop-color="#808080"/>
<stop offset="0.2661" stop-color="#5C5C5C"/>
<stop offset="0.5791" stop-color="#393939"/>
<stop offset="0.835" stop-color="#232323"/>
<stop offset="1" stop-color="#1B1B1B"/>
</linearGradient>
<linearGradient id="paint29_linear_22_24242" x1="50.0872" y1="124.42" x2="50.0872" y2="120.303" gradientUnits="userSpaceOnUse">
<stop stop-color="#666666"/>
<stop offset="1"/>
</linearGradient>
<linearGradient id="paint30_linear_22_24242" x1="50.0872" y1="120.021" x2="50.0872" y2="124.091" gradientUnits="userSpaceOnUse">
<stop stop-color="#4C4C4C"/>
<stop offset="0.2985" stop-color="#393939"/>
<stop offset="0.7245" stop-color="#232323"/>
<stop offset="1" stop-color="#1B1B1B"/>
</linearGradient>
<linearGradient id="paint31_linear_22_24242" x1="57.1551" y1="119.368" x2="57.1551" y2="124.817" gradientUnits="userSpaceOnUse">
<stop stop-color="#808080"/>
<stop offset="0.2661" stop-color="#5C5C5C"/>
<stop offset="0.5791" stop-color="#393939"/>
<stop offset="0.835" stop-color="#232323"/>
<stop offset="1" stop-color="#1B1B1B"/>
</linearGradient>
<linearGradient id="paint32_linear_22_24242" x1="57.1551" y1="124.42" x2="57.1551" y2="120.303" gradientUnits="userSpaceOnUse">
<stop stop-color="#666666"/>
<stop offset="1"/>
</linearGradient>
<linearGradient id="paint33_linear_22_24242" x1="57.1553" y1="120.021" x2="57.1553" y2="124.091" gradientUnits="userSpaceOnUse">
<stop stop-color="#4C4C4C"/>
<stop offset="0.2985" stop-color="#393939"/>
<stop offset="0.7245" stop-color="#232323"/>
<stop offset="1" stop-color="#1B1B1B"/>
</linearGradient>
</defs>
</svg>
