<svg width="177" height="250" viewBox="0 0 177 250" fill="none" xmlns="http://www.w3.org/2000/svg">
<path d="M176.5 0H0V250H176.5V0Z" fill="white"/>
<path d="M140.196 154.528H35.082V160.244H83.108C82.498 196.143 68.8543 197.266 68.8543 197.266V199.538H87.4229H87.8547H106.421V197.266C106.421 197.266 92.7809 196.143 92.171 160.244H140.196V154.528Z" fill="#8BD6D2"/>
<path d="M118.853 54.8748H56.5098V76.5566H118.853V54.8748Z" fill="#DFA870"/>
<path d="M118.853 68.3807H56.5098V72.6202H118.853V68.3807Z" fill="#D19762"/>
<path d="M118.853 60.0133H56.5098V64.2542H118.853V60.0133Z" fill="#D19762"/>
<path d="M120.023 50.8094C120.023 49.5567 118.996 48.5274 117.747 48.5274H57.7501C56.4956 48.5274 55.4697 49.5554 55.4697 50.8094V60.3936V61.2168V62.7461C55.4697 63.9988 56.4956 65.0268 57.7501 65.0268H58.1541C59.4072 65.0268 60.4318 63.9988 60.4318 62.7461V61.2168V60.3936V57.9108C60.4318 56.6607 61.4577 55.6328 62.7108 55.6328H63.1135C64.3666 55.6328 65.3939 56.6607 65.3939 57.9108V61.2168H65.3952V65.0281C65.3952 66.2795 66.4211 67.3061 67.6755 67.3061H68.0795C69.33 67.3061 70.3559 66.2795 70.3559 65.0281V61.2181V60.3949V59.4308C70.3559 58.1794 71.3818 57.1514 72.6336 57.1514H73.0389C74.2841 57.1514 75.2994 58.1661 75.3166 59.4029V69.2384C75.3166 70.4924 76.3425 71.5204 77.593 71.5204H77.9983C79.2515 71.5204 80.2761 70.4924 80.2761 69.2384V61.2181V59.4308C80.2761 58.1794 81.302 57.1514 82.5551 57.1514H82.9604C84.2122 57.1514 85.2394 58.1781 85.2394 59.4308V61.2181H85.262V63.4695C85.262 64.7222 86.2839 65.7502 87.5397 65.7502H87.9424C89.1969 65.7502 90.2188 64.7222 90.2188 63.4695V60.9641C90.2188 60.9614 90.2188 60.9601 90.2188 60.9535V58.222C90.2188 56.9666 91.246 55.9426 92.5005 55.9426H92.9031C94.1496 55.9426 95.1689 56.9573 95.1795 58.198V61.8857C95.1795 63.1384 96.2041 64.165 97.4586 64.165H97.8639C99.117 64.165 100.146 63.1397 100.146 61.8857V61.2181V59.4348C100.146 58.1807 101.169 57.1541 102.422 57.1541H102.83C104.08 57.1541 105.106 58.1807 105.106 59.4348V60.0758C105.106 60.0864 105.101 60.0944 105.101 60.1037V62.6091C105.101 63.8632 106.126 64.8911 107.383 64.8911H107.785C109.038 64.8911 110.064 63.8632 110.064 62.6091V61.2181V60.1024V57.7273C110.064 56.4732 111.089 55.4479 112.343 55.4479H112.746C114.002 55.4479 115.028 56.4732 115.028 57.7273V60.0758C115.028 60.0864 115.028 60.0944 115.028 60.1037V64.7369C115.028 65.9909 116.051 67.0176 117.301 67.0176H117.709C118.963 67.0176 119.988 65.9909 119.988 64.7369V61.2181H120.024V50.8094H120.023Z" fill="#732E0D"/>
<path d="M130.935 83.1658H44.7461V113.139H130.935V83.1658Z" fill="#DFA870"/>
<path d="M130.935 101.837H44.7461V107.698H130.935V101.837Z" fill="#D19762"/>
<path d="M130.935 90.2713H44.7461V96.1332H130.935V90.2713Z" fill="#D19762"/>
<path d="M43.1283 77.5459C43.1283 75.8145 44.5502 74.3915 46.2764 74.3915H129.218C130.952 74.3915 132.368 75.8132 132.368 77.5459V90.7965V91.9335V94.0493C132.368 95.7821 130.952 97.2037 129.218 97.2037H128.659C126.928 97.2037 125.509 95.7834 125.509 94.0493V91.9335V90.7965V87.3628C125.509 85.6354 124.092 84.2138 122.36 84.2138H121.802C120.068 84.2138 118.649 85.634 118.649 87.3628V91.9335H118.646V97.2024C118.646 98.9338 117.23 100.353 115.495 100.353H114.937C113.203 100.353 111.787 98.9338 111.787 97.2024V91.9335V90.7965V89.4653C111.787 87.7352 110.371 86.3136 108.638 86.3136H108.08C106.357 86.3136 104.955 87.7153 104.932 89.4268V103.02C104.932 104.755 103.513 106.176 101.781 106.176H101.223C99.489 106.176 98.0751 104.756 98.0751 103.02V91.9335V89.464C98.0751 87.7339 96.6558 86.3123 94.9243 86.3123H94.3635C92.632 86.3123 91.2127 87.7339 91.2127 89.464V91.9335H91.1848V95.0467C91.1848 96.7781 89.7709 98.1984 88.034 98.1984H87.4759C85.7417 98.1984 84.3264 96.7781 84.3264 95.0467V91.5824C84.3264 91.5785 84.3264 91.5758 84.3264 91.5691V87.7924C84.3264 86.0556 82.9098 84.6407 81.1743 84.6407H80.6162C78.8939 84.6407 77.484 86.0423 77.4707 87.7591V92.8591C77.4707 94.5919 76.0541 96.0095 74.3225 96.0095H73.7578C72.0276 96.0095 70.6096 94.5919 70.6096 92.8591V91.9335V89.4693C70.6096 87.7352 69.1904 86.3149 67.4602 86.3149H66.8981C65.1665 86.3149 63.7486 87.7352 63.7486 89.4693V90.355C63.7486 90.3696 63.7552 90.3803 63.7552 90.3936V93.8565C63.7552 95.5893 62.3373 97.0109 60.6031 97.0109H60.045C58.3121 97.0109 56.8955 95.5893 56.8955 93.8565V91.9349V90.3936V87.1088C56.8955 85.3747 55.4789 83.9571 53.7461 83.9571H53.1879C51.4524 83.9571 50.0372 85.3747 50.0372 87.1088V90.355C50.0372 90.3696 50.0372 90.3803 50.0372 90.3936V96.7981C50.0372 98.5322 48.6206 99.9525 46.8904 99.9525H46.3282C44.594 99.9525 43.1788 98.5322 43.1788 96.7981V91.9349H43.127L43.1283 77.5459Z" fill="#732E0D"/>
<path d="M137.877 119.588H37.4004V154.529H137.877V119.588Z" fill="#DFA870"/>
<path d="M137.877 141.352H37.4004V148.185H137.877V141.352Z" fill="#D19762"/>
<path d="M137.877 127.871H37.4004V134.704H137.877V127.871Z" fill="#D19762"/>
<path d="M139.765 113.035C139.765 111.017 138.106 109.358 136.094 109.358H39.4045C37.3832 109.358 35.7314 111.017 35.7314 113.035V128.484V129.81V132.276C35.7314 134.296 37.3832 135.951 39.4045 135.951H40.0543C42.0756 135.951 43.726 134.296 43.726 132.276V129.81V128.484V124.481C43.726 122.465 45.3778 120.81 47.3991 120.81H48.0502C50.0715 120.81 51.7219 122.465 51.7219 124.481V129.81H51.7286V135.951C51.7286 137.971 53.3804 139.624 55.4003 139.624H56.0501C58.0713 139.624 59.7232 137.971 59.7232 135.951V129.81V128.484V126.931C59.7232 124.914 61.375 123.258 63.3962 123.258H64.0473C66.054 123.258 67.6925 124.891 67.7151 126.887V142.736C67.7151 144.758 69.3709 146.413 71.3868 146.413H72.0379C74.0578 146.413 75.711 144.758 75.711 142.736V129.811V126.932C75.711 124.915 77.3654 123.259 79.3827 123.259H80.0365C82.0551 123.259 83.7096 124.916 83.7096 126.932V129.811H83.7441V133.441C83.7441 135.459 85.3946 137.115 87.4158 137.115H88.067C90.0895 137.115 91.7374 135.459 91.7374 133.441V129.402C91.7374 129.397 91.7374 129.395 91.7374 129.386V124.984C91.7374 122.961 93.3905 121.311 95.413 121.311H96.0616C98.0708 121.311 99.7133 122.944 99.7293 124.946V130.89C99.7293 132.911 101.382 134.563 103.4 134.563H104.056C106.076 134.563 107.727 132.911 107.727 130.89V129.811V126.938C107.727 124.916 109.38 123.262 111.4 123.262H112.053C114.071 123.262 115.724 124.916 115.724 126.938V127.971C115.724 127.987 115.718 128 115.718 128.015V132.052C115.718 134.074 117.369 135.729 119.391 135.729H120.04C122.063 135.729 123.716 134.074 123.716 132.052V129.811V128.014V124.186C123.716 122.165 125.366 120.511 127.386 120.511H128.037C130.06 120.511 131.71 122.165 131.71 124.186V127.97C131.71 127.986 131.71 127.999 131.71 128.014V135.481C131.71 137.502 133.361 139.158 135.378 139.158H136.032C138.054 139.158 139.705 137.502 139.705 135.481V129.81H139.767V113.035H139.765Z" fill="#732E0D"/>
<path d="M107.562 27.9534H103.485V48.5288H107.562V27.9534Z" fill="#FFF69B"/>
<path d="M107.562 45.6869L103.485 48.5288V45.6869L107.562 42.853V45.6869Z" fill="#F4E67A"/>
<path d="M107.562 40.7239L103.485 43.5618V40.7239L107.562 37.8847V40.7239Z" fill="#F4E67A"/>
<path d="M107.562 35.7556L103.485 38.5948V35.7556L107.562 32.9177V35.7556Z" fill="#F4E67A"/>
<path d="M107.562 30.7913L103.485 33.6292V30.7913L107.562 27.9534V30.7913Z" fill="#F4E67A"/>
<path d="M103.485 27.9534V28.663L104.506 27.9534H103.485Z" fill="#F4E67A"/>
<path d="M107.562 22.634C105.964 20.4624 105.657 19.5727 105.525 18.203C105.392 19.5727 105.081 20.4624 103.485 22.634C101.892 24.8057 103.665 26.714 104.284 27.0704C104.904 27.4228 105.346 27.9534 105.346 27.9534H105.525H105.702C105.702 27.9534 106.143 27.4228 106.766 27.0704C107.384 26.714 109.16 24.8057 107.562 22.634Z" fill="#FCDB54"/>
<path d="M106.802 24.6155C105.803 23.2524 105.609 22.6979 105.525 21.8388C105.441 22.6979 105.244 23.2538 104.245 24.6155C103.243 25.98 104.357 27.1768 104.749 27.3976C105.136 27.6223 105.413 27.9534 105.413 27.9534H105.525H105.636C105.636 27.9534 105.914 27.6223 106.304 27.3976C106.69 27.1768 107.804 25.98 106.802 24.6155Z" fill="#F9C255"/>
<path d="M89.8791 27.9534H85.8008V48.5288H89.8791V27.9534Z" fill="#F4B1C3"/>
<path d="M89.8791 45.6869L85.8008 48.5288V45.6869L89.8791 42.853V45.6869Z" fill="#F291B0"/>
<path d="M89.8791 40.7239L85.8008 43.5618V40.7239L89.8791 37.8847V40.7239Z" fill="#F291B0"/>
<path d="M89.8791 35.7556L85.8008 38.5948V35.7556L89.8791 32.9177V35.7556Z" fill="#F291B0"/>
<path d="M89.8791 30.7913L85.8008 33.6292V30.7913L89.8791 27.9534V30.7913Z" fill="#F291B0"/>
<path d="M85.8008 27.9534V28.663L86.82 27.9534H85.8008Z" fill="#F291B0"/>
<path d="M89.8799 22.634C88.2839 20.4624 87.9743 19.5727 87.84 18.203C87.7058 19.5727 87.3962 20.4624 85.8015 22.634C84.2069 24.8057 85.9796 26.714 86.5989 27.0704C87.2208 27.4228 87.6633 27.9534 87.6633 27.9534H87.84H88.0168C88.0168 27.9534 88.4619 27.4228 89.0812 27.0704C89.7018 26.714 91.4732 24.8057 89.8799 22.634Z" fill="#FCDB54"/>
<path d="M89.1197 24.6155C88.1191 23.2524 87.9237 22.6979 87.84 21.8388C87.7576 22.6979 87.5623 23.2538 86.5616 24.6155C85.5636 25.98 86.6746 27.1768 87.0613 27.3976C87.4506 27.6223 87.7297 27.9534 87.7297 27.9534H87.84H87.9516C87.9516 27.9534 88.228 27.6223 88.6174 27.3976C89.0081 27.1768 90.1177 25.98 89.1197 24.6155Z" fill="#F9C255"/>
<path d="M72.1932 27.9534H68.1162V48.5287H72.1932V27.9534Z" fill="#F7BBA1"/>
<path d="M72.1932 45.6869L68.1162 48.5287V45.6869L72.1932 42.853V45.6869Z" fill="#FBD8C5"/>
<path d="M72.1932 40.7239L68.1162 43.5618V40.7239L72.1932 37.8847V40.7239Z" fill="#FBD8C5"/>
<path d="M72.1932 35.7556L68.1162 38.5948V35.7556L72.1932 32.9177V35.7556Z" fill="#FBD8C5"/>
<path d="M72.1932 30.7913L68.1162 33.6292V30.7913L72.1932 27.9534V30.7913Z" fill="#FBD8C5"/>
<path d="M68.1162 27.9534V28.663L69.1368 27.9534H68.1162Z" fill="#FBD8C5"/>
<path d="M72.1936 22.634C70.5976 20.4624 70.288 19.5727 70.1551 18.203C70.0222 19.5727 69.7139 20.4624 68.1166 22.634C66.5232 24.8057 68.2933 26.714 68.9152 27.0704C69.5345 27.4228 69.977 27.9534 69.977 27.9534H70.1564H70.3318C70.3318 27.9534 70.777 27.4228 71.3949 27.0704C72.0155 26.714 73.7896 24.8057 72.1936 22.634Z" fill="#FCDB54"/>
<path d="M71.4354 24.6155C70.4334 23.2524 70.2407 22.6979 70.1557 21.8388C70.0719 22.6979 69.8766 23.2538 68.8786 24.6155C67.8766 25.9799 68.9876 27.1768 69.3769 27.3976C69.7663 27.6223 70.0454 27.9534 70.0454 27.9534H70.1557H70.266C70.266 27.9534 70.5464 27.6223 70.9344 27.3976C71.3238 27.1768 72.4374 25.9799 71.4354 24.6155Z" fill="#F9C255"/>
<path d="M26.4624 226.803C26.4624 226.811 26.4584 226.827 26.4504 226.851C26.3622 227.476 26.0417 227.788 25.4887 227.788C25.2963 227.788 25.128 227.74 24.9838 227.644C24.6632 227.436 24.5029 227.095 24.5029 226.622C24.5029 226.486 24.8796 223.196 25.6329 216.752C23.7255 220.768 22.2268 223.937 21.1368 226.262C20.9044 226.758 20.7722 227.035 20.7401 227.091C20.4997 227.548 20.1791 227.78 19.7784 227.788C19.6982 227.788 19.6221 227.78 19.55 227.764C19.2134 227.7 18.9569 227.424 18.7806 226.935L16.7008 216.728C16.236 220.399 15.7631 223.757 15.2823 226.803C15.2823 226.811 15.2783 226.827 15.2702 226.851C15.1821 227.476 14.8615 227.788 14.3085 227.788C14.1162 227.788 13.9479 227.74 13.8036 227.644C13.483 227.436 13.3227 227.095 13.3227 226.622C13.3227 226.542 13.8918 222.218 15.0298 213.651C15.3263 211.439 15.4866 210.245 15.5107 210.068C15.5347 209.924 15.5828 209.792 15.6549 209.672C15.8553 209.351 16.1478 209.191 16.5325 209.191C16.6207 209.191 16.7128 209.203 16.809 209.227C17.1536 209.323 17.35 209.503 17.3981 209.768C17.5584 210.665 18.0753 213.278 18.9489 217.606C19.574 220.74 19.9747 222.763 20.151 223.677L26.6548 209.888C26.6868 209.808 26.7309 209.724 26.787 209.636C27.0194 209.339 27.308 209.191 27.6526 209.191C27.8048 209.191 27.9491 209.231 28.0854 209.311C28.4059 209.487 28.5822 209.76 28.6143 210.128C28.5822 210.361 28.5502 210.629 28.5181 210.934C27.34 220.335 26.6548 225.624 26.4624 226.803ZM38.7486 209.636C38.7887 209.724 38.8287 209.832 38.8688 209.96C39.0611 210.617 40.1231 216.151 42.0545 226.562C42.0786 226.642 42.0906 226.722 42.0906 226.803C42.0906 226.971 42.0465 227.135 41.9584 227.295C41.766 227.624 41.4975 227.788 41.1529 227.788C41.1048 227.788 41.0527 227.784 40.9966 227.776C40.6119 227.712 40.3635 227.492 40.2513 227.115L39.1693 221.621H33.6394L31.0427 227.139C31.0106 227.195 30.9706 227.251 30.9225 227.307C30.674 227.628 30.4015 227.788 30.105 227.788C29.9207 227.788 29.7484 227.736 29.5881 227.632C29.2995 227.432 29.1553 227.163 29.1553 226.827C29.1553 226.73 29.1753 226.634 29.2154 226.538C29.3837 226.153 29.6602 225.548 30.0449 224.723C33.8918 216.308 36.192 211.343 36.9453 209.828C37.1617 209.387 37.4703 209.163 37.871 209.155C38.2557 209.163 38.5482 209.323 38.7486 209.636ZM37.5344 213.338L34.553 219.614H38.7606L37.5344 213.338ZM47.0916 226.803C46.9794 227.452 46.6508 227.78 46.1059 227.788C45.9215 227.788 45.7532 227.736 45.6009 227.632C45.2884 227.424 45.1321 227.087 45.1321 226.622L47.308 210.068C47.3241 209.94 47.3601 209.812 47.4162 209.684C47.5925 209.315 47.877 209.131 48.2698 209.131C48.422 209.131 48.5703 209.171 48.7146 209.251C49.0351 209.427 49.2074 209.7 49.2315 210.068L48.4381 216.524C52.3892 212.1 54.4649 209.804 54.6653 209.636C54.9458 209.355 55.2183 209.215 55.4828 209.215C55.6591 209.215 55.8234 209.263 55.9757 209.359C56.2802 209.543 56.4325 209.808 56.4325 210.153C56.4325 210.393 56.3443 210.645 56.168 210.91C55.9516 211.19 53.4751 213.935 48.7386 219.145C49.2595 219.61 49.8446 220.139 50.4938 220.732C53.8598 223.769 55.7753 225.52 56.2401 225.985C56.5367 226.29 56.6889 226.57 56.697 226.827C56.697 227.011 56.6409 227.183 56.5287 227.344C56.3363 227.64 56.0798 227.788 55.7593 227.788C55.4788 227.788 55.2183 227.7 54.9779 227.524C54.7054 227.332 52.3331 225.172 47.861 221.044C47.4843 224.042 47.2279 225.961 47.0916 226.803ZM62.4433 209.155C62.4433 209.155 65.012 209.155 70.1492 209.155C70.3095 209.155 70.4578 209.175 70.594 209.215C71.0348 209.359 71.2552 209.664 71.2552 210.128C71.2552 210.257 71.2272 210.377 71.1711 210.489C71.0108 210.834 70.6902 211.042 70.2093 211.114H63.2848L62.4433 217.69H67.4323C67.6247 217.69 67.805 217.726 67.9733 217.798C68.366 217.975 68.5624 218.275 68.5624 218.7C68.5624 218.812 68.5423 218.92 68.5022 219.025C68.358 219.377 68.0294 219.594 67.5165 219.674H62.2029L61.4095 225.805H68.2498C68.4341 225.805 68.6064 225.833 68.7667 225.889C69.1835 226.057 69.3919 226.362 69.3919 226.803C69.3919 226.899 69.3758 226.999 69.3438 227.103C69.2155 227.48 68.8869 227.708 68.358 227.788H60.3395C60.1392 227.788 59.9548 227.736 59.7865 227.632C59.466 227.416 59.3057 227.079 59.3057 226.622C59.3057 226.51 60.031 220.992 61.4816 210.068C61.4976 209.948 61.5297 209.836 61.5778 209.732C61.7461 209.347 62.0346 209.155 62.4433 209.155ZM89.9129 209.636C89.9529 209.724 89.993 209.832 90.0331 209.96C90.2254 210.617 91.2873 216.151 93.2188 226.562C93.2429 226.642 93.2549 226.722 93.2549 226.803C93.2549 226.971 93.2108 227.135 93.1227 227.295C92.9303 227.624 92.6618 227.788 92.3172 227.788C92.2691 227.788 92.217 227.784 92.1609 227.776C91.7762 227.712 91.5278 227.492 91.4156 227.115L90.3336 221.621H84.8036L82.207 227.139C82.1749 227.195 82.1348 227.251 82.0867 227.307C81.8383 227.628 81.5658 227.788 81.2693 227.788C81.0849 227.788 80.9126 227.736 80.7523 227.632C80.4638 227.432 80.3196 227.163 80.3196 226.827C80.3196 226.73 80.3396 226.634 80.3797 226.538C80.548 226.153 80.8245 225.548 81.2092 224.723C85.0561 216.308 87.3563 211.343 88.1096 209.828C88.326 209.387 88.6346 209.163 89.0353 209.155C89.42 209.163 89.7125 209.323 89.9129 209.636ZM88.6987 213.338L85.7173 219.614H89.9249L88.6987 213.338ZM121.686 212.569C121.686 212.962 121.778 213.314 121.963 213.627C122.468 214.5 123.558 214.937 125.233 214.937C125.361 214.256 125.425 213.655 125.425 213.134C125.425 212.773 125.373 212.433 125.269 212.112C124.98 211.271 124.423 210.85 123.598 210.85C123.197 210.85 122.832 210.946 122.504 211.138C121.959 211.467 121.686 211.944 121.686 212.569ZM109.929 209.095C110.089 209.095 110.242 209.135 110.386 209.215C110.706 209.399 110.875 209.672 110.891 210.032C110.554 212.661 110.294 214.725 110.109 216.223C109.652 219.886 109.424 221.962 109.424 222.451C109.424 224.478 109.945 225.496 110.987 225.504C111.852 225.504 112.706 225.312 113.547 224.927C113.251 223.741 113.103 222.595 113.103 221.489C113.103 220.495 113.163 219.614 113.283 218.844C113.708 216.199 114.826 214.877 116.637 214.877C117.374 214.877 118 215.097 118.512 215.538C119.194 216.131 119.534 216.965 119.534 218.039C119.534 218.319 119.522 218.604 119.498 218.892C119.33 220.712 118.681 222.427 117.551 224.038C117.014 224.807 116.545 225.32 116.144 225.576C116.208 225.785 116.433 225.889 116.817 225.889C118.557 225.881 120.175 224.931 121.674 223.04C122.94 221.429 123.978 219.361 124.788 216.837C123.329 216.772 122.159 216.388 121.277 215.682C120.252 214.857 119.739 213.715 119.739 212.256C119.747 211.255 120.147 210.405 120.941 209.708C121.638 209.115 122.415 208.818 123.273 208.818C124.387 208.818 125.317 209.179 126.062 209.9C126.904 210.726 127.324 211.824 127.324 213.194C127.324 213.507 127.296 214.011 127.24 214.709C127.417 214.669 127.593 214.617 127.769 214.552C128.202 214.408 128.739 214.136 129.38 213.735C129.837 213.446 130.214 213.302 130.51 213.302C130.638 213.302 130.759 213.334 130.871 213.398C131.175 213.575 131.328 213.843 131.328 214.204C131.32 214.693 130.923 215.17 130.137 215.634C129.208 216.179 128.094 216.54 126.795 216.716C126.066 219.465 125.004 221.794 123.61 223.701C121.606 226.442 119.214 227.812 116.433 227.812C116.369 227.812 116.296 227.808 116.216 227.8C115.463 227.744 114.826 227.42 114.305 226.827C113.159 227.428 111.925 227.728 110.602 227.728C109.881 227.728 109.276 227.512 108.787 227.079C107.865 226.262 107.404 224.779 107.404 222.631C107.404 221.172 107.601 219.269 107.993 216.921C108.37 214.629 108.599 213.014 108.679 212.076C107.885 212.581 107.256 212.974 106.791 213.254C106.006 213.735 105.541 213.975 105.397 213.975C105.22 213.975 105.048 213.927 104.88 213.831C104.567 213.631 104.411 213.35 104.411 212.99C104.419 212.653 104.611 212.352 104.988 212.088C105.028 212.056 105.12 211.992 105.265 211.896C107.981 210.028 109.536 209.095 109.929 209.095ZM115.243 223.677C115.499 223.477 115.767 223.188 116.048 222.811C116.986 221.537 117.455 220.054 117.455 218.363C117.455 218.291 117.451 218.219 117.443 218.147C117.402 217.49 117.098 217.161 116.529 217.161C116.104 217.169 115.751 217.562 115.471 218.339C115.166 219.245 115.014 220.351 115.014 221.657C115.014 222.146 115.09 222.819 115.243 223.677ZM130.931 226.827C130.811 227.476 130.49 227.804 129.969 227.812C129.777 227.812 129.604 227.76 129.452 227.656C129.14 227.448 128.983 227.111 128.983 226.646C128.983 226.646 129.713 221.128 131.171 210.092C131.187 209.972 131.215 209.856 131.255 209.744C131.424 209.351 131.716 209.155 132.133 209.155C132.293 209.155 132.446 209.195 132.59 209.275C132.91 209.459 133.079 209.732 133.095 210.092C131.724 220.856 131.003 226.434 130.931 226.827ZM134.802 224.458C134.762 224.338 134.742 224.194 134.742 224.026C134.742 223.881 134.77 223.745 134.826 223.617C134.97 223.304 135.207 223.148 135.535 223.148C135.84 223.156 136.132 223.332 136.413 223.677C136.501 223.789 136.585 223.893 136.665 223.989C137.787 225.368 138.861 226.057 139.887 226.057C140.897 226.057 141.762 225.693 142.484 224.963C143.189 224.242 143.542 223.384 143.542 222.391C143.534 221.533 143.309 220.804 142.868 220.203C142.516 219.714 141.891 219.209 140.993 218.688C140.047 218.135 139.482 217.794 139.298 217.666C138.881 217.378 138.529 217.081 138.24 216.776C137.511 216.007 137.146 215.057 137.146 213.927C137.146 213.783 137.154 213.631 137.17 213.471C137.282 212.252 137.783 211.226 138.673 210.393C139.586 209.551 140.66 209.131 141.895 209.131C142.424 209.131 142.941 209.215 143.445 209.383C144.495 209.744 145.305 210.369 145.874 211.259C145.97 211.499 146.018 211.675 146.018 211.787C146.018 211.932 145.978 212.076 145.898 212.22C145.722 212.517 145.469 212.665 145.14 212.665C144.852 212.665 144.648 212.589 144.527 212.437C143.71 211.451 142.832 210.954 141.895 210.946C141.157 210.946 140.504 211.214 139.935 211.751C139.302 212.352 138.985 213.086 138.985 213.951C138.985 214.488 139.15 214.969 139.478 215.394C139.775 215.779 140.356 216.231 141.221 216.752C142.167 217.313 142.872 217.782 143.337 218.159C144.828 219.361 145.573 220.772 145.573 222.391C145.573 222.751 145.537 223.112 145.465 223.473C145.201 224.747 144.539 225.809 143.481 226.658C142.408 227.524 141.209 227.957 139.887 227.957C139.029 227.957 138.2 227.732 137.399 227.283C136.293 226.65 135.427 225.709 134.802 224.458ZM157.631 226.803C157.631 226.811 157.627 226.827 157.619 226.851C157.531 227.476 157.21 227.788 156.657 227.788C156.465 227.788 156.297 227.74 156.152 227.644C155.832 227.436 155.671 227.095 155.671 226.622L156.489 220.311H150.971C150.658 222.867 150.374 225.031 150.117 226.803C150.005 227.452 149.677 227.78 149.132 227.788C148.955 227.788 148.799 227.744 148.663 227.656C148.326 227.44 148.158 227.091 148.158 226.61C148.206 226.193 148.671 222.707 149.552 216.151C150.097 212.12 150.37 210.092 150.37 210.068C150.37 209.948 150.418 209.808 150.514 209.648C150.731 209.303 150.999 209.131 151.32 209.131C151.472 209.131 151.616 209.171 151.752 209.251C152.065 209.435 152.233 209.708 152.257 210.068L151.223 218.351C152.514 218.335 154.357 218.327 156.753 218.327C156.834 217.678 156.978 216.568 157.186 214.997C157.467 212.922 157.683 211.279 157.835 210.068C157.851 209.948 157.883 209.828 157.932 209.708C158.108 209.323 158.404 209.131 158.821 209.131C158.973 209.131 159.122 209.171 159.266 209.251C159.587 209.435 159.759 209.708 159.783 210.068L158.737 218.327H161.766C161.951 218.327 162.123 218.359 162.283 218.423C162.684 218.6 162.884 218.9 162.884 219.325C162.884 219.453 162.852 219.582 162.788 219.71C162.628 220.038 162.315 220.239 161.851 220.311H158.497C158 224.174 157.711 226.338 157.631 226.803Z" fill="#F291B0"/>
<path d="M16.2092 11.7053C15.1022 13.1203 12.2371 14.4169 10.8232 13.3078C9.40927 12.2 9.97936 9.10548 11.0863 7.69052C12.1946 6.27424 14.2398 6.02556 15.6537 7.13465C17.069 8.24374 17.3175 10.2904 16.2092 11.7053Z" fill="#FBD8C5"/>
<path d="M39.3533 17.0194C39.8397 17.9609 39.8317 19.8147 38.8909 20.3014C37.95 20.7881 36.4325 19.7243 35.9461 18.7827C35.4597 17.8412 35.8278 16.6829 36.7687 16.1962C37.7082 15.7095 38.867 16.0778 39.3533 17.0194Z" fill="#F4B1C3"/>
<path d="M16.9019 35.6851C16.874 34.2462 17.9942 31.9908 19.4334 31.9615C20.8713 31.9323 22.0832 34.1411 22.1124 35.58C22.1417 37.0202 20.9988 38.2105 19.561 38.2397C18.1205 38.269 16.9311 37.1253 16.9019 35.6851Z" fill="#B2E4E3"/>
<path d="M13.6053 56.9147C14.0917 57.8562 14.0837 59.71 13.1428 60.1968C12.202 60.6835 10.6844 59.6196 10.198 58.6781C9.71166 57.7365 10.0798 56.5783 11.0206 56.0915C11.9601 55.6048 13.1189 55.9732 13.6053 56.9147Z" fill="#F9EEAF"/>
<path d="M44.0412 63.7554C42.9329 65.1704 40.0692 66.467 38.6552 65.3579C37.2413 64.2501 37.8114 61.1556 38.9184 59.7406C40.0266 58.3243 42.0705 58.0757 43.4857 59.1834C44.8997 60.2938 45.1482 62.3405 44.0412 63.7554Z" fill="#E0E0E0"/>
<path d="M58.159 35.1904C58.6454 36.1319 58.6374 37.9857 57.6965 38.4724C56.7557 38.9591 55.2381 37.8953 54.7517 36.9537C54.2654 36.0122 54.6335 34.8539 55.5743 34.3672C56.5152 33.8805 57.6726 34.2488 58.159 35.1904Z" fill="#F9EEAF"/>
<path d="M60.6255 7.50833C60.5976 6.06944 61.7179 3.81403 63.157 3.78477C64.5949 3.75552 65.8068 5.96439 65.8361 7.40328C65.8653 8.8435 64.7225 10.0337 63.2846 10.063C61.8441 10.0922 60.6547 8.94855 60.6255 7.50833Z" fill="#B2E4E3"/>
<path d="M94.1488 7.96179C94.6365 8.90332 94.6259 10.7571 93.6864 11.2438C92.7468 11.7306 91.2279 10.6667 90.7429 9.72516C90.2552 8.78363 90.6233 7.62534 91.5628 7.13862C92.505 6.65189 93.6624 7.02026 94.1488 7.96179Z" fill="#F4B1C3"/>
<path d="M17.5438 77.5406C18.0301 78.4821 18.0222 80.3359 17.0813 80.8226C16.1405 81.3094 14.6229 80.2455 14.1365 79.304C13.6501 78.3624 14.0182 77.2041 14.9591 76.7174C15.8999 76.2307 17.0574 76.5991 17.5438 77.5406Z" fill="#F4B1C3"/>
<path d="M28.7723 100.653C29.2587 101.595 29.2507 103.449 28.3098 103.935C27.369 104.422 25.8514 103.358 25.365 102.417C24.8787 101.475 25.2467 100.317 26.1876 99.8301C27.1284 99.3447 28.2859 99.7117 28.7723 100.653Z" fill="#F9EEAF"/>
<path d="M12.7502 116.206C11.6432 117.621 8.77815 118.916 7.36422 117.808C5.95028 116.7 6.52039 113.606 7.62735 112.191C8.73564 110.775 10.7795 110.526 12.1947 111.634C13.6087 112.744 13.8572 114.791 12.7502 116.206Z" fill="#E0E0E0"/>
<path d="M26.8016 135.874C27.288 136.816 27.28 138.669 26.3391 139.156C25.3983 139.643 23.8807 138.579 23.3943 137.638C22.908 136.696 23.276 135.538 24.2169 135.051C25.1577 134.564 26.3152 134.933 26.8016 135.874Z" fill="#F9EEAF"/>
<path d="M10.6193 156.15C9.51237 157.565 6.6473 158.862 5.23336 157.753C3.81943 156.644 4.38952 153.55 5.49648 152.136C6.60477 150.719 8.64859 150.471 10.0639 151.58C11.4791 152.687 11.7276 154.734 10.6193 156.15Z" fill="#FBD8C5"/>
<path d="M37.3836 170.897C37.87 171.838 37.862 173.692 36.9212 174.179C35.9803 174.666 34.4627 173.602 33.9764 172.66C33.49 171.719 33.8581 170.56 34.7989 170.074C35.7398 169.587 36.8972 169.955 37.3836 170.897Z" fill="#F4B1C3"/>
<path d="M72.0861 170.06C70.9792 171.475 68.1141 172.772 66.7002 171.663C65.2862 170.554 65.8563 167.461 66.9633 166.046C68.0716 164.629 70.1154 164.381 71.5307 165.488C72.9459 166.598 73.1944 168.644 72.0861 170.06Z" fill="#E0E0E0"/>
<path d="M15.0936 185.343C15.5799 186.285 15.572 188.138 14.6311 188.625C13.6903 189.112 12.1727 188.048 11.6863 187.106C11.1999 186.165 11.568 185.007 12.5089 184.52C13.4497 184.034 14.6072 184.402 15.0936 185.343Z" fill="#F9EEAF"/>
<path d="M42.356 195.976C42.3281 194.538 43.4483 192.282 44.8875 192.253C46.3254 192.224 47.5373 194.433 47.5665 195.871C47.5958 197.31 46.4529 198.502 45.0151 198.531C43.5746 198.56 42.3852 197.415 42.356 195.976Z" fill="#B2E4E3"/>
<path d="M13.1238 237.811C13.6102 238.752 13.6023 240.606 12.6614 241.093C11.7206 241.579 10.203 240.516 9.71659 239.574C9.23021 238.633 9.59832 237.474 10.5392 236.988C11.48 236.501 12.6375 236.869 13.1238 237.811Z" fill="#F4B1C3"/>
<path d="M46.6102 238.73C47.0965 239.671 47.0886 241.525 46.1477 242.012C45.2069 242.498 43.6893 241.435 43.2029 240.493C42.7165 239.551 43.0846 238.393 44.0255 237.906C44.9664 237.421 46.1238 237.788 46.6102 238.73Z" fill="#F9EEAF"/>
<path d="M84.1353 237.357C84.1074 235.918 85.2276 233.663 86.6655 233.634C88.1033 233.604 89.3166 235.813 89.3445 237.252C89.3724 238.692 88.2309 239.883 86.793 239.912C85.3539 239.941 84.1632 238.797 84.1353 237.357Z" fill="#B2E4E3"/>
<path d="M163.622 242.521C162.514 243.936 159.649 245.233 158.234 244.123C156.819 243.016 157.39 239.921 158.498 238.506C159.607 237.09 161.652 236.841 163.067 237.949C164.481 239.058 164.728 241.105 163.622 242.521Z" fill="#E0E0E0"/>
<path d="M128.261 239.715C128.746 240.657 128.738 242.51 127.799 242.997C126.856 243.484 125.34 242.42 124.852 241.478C124.367 240.537 124.736 239.379 125.675 238.892C126.615 238.405 127.772 238.774 128.261 239.715Z" fill="#F9EEAF"/>
<path d="M122.637 191.708C121.529 193.123 118.666 194.419 117.251 193.31C115.837 192.202 116.407 189.108 117.513 187.693C118.621 186.277 120.666 186.028 122.082 187.137C123.497 188.246 123.745 190.293 122.637 191.708Z" fill="#FBD8C5"/>
<path d="M147.071 168.676C147.559 169.618 147.551 171.471 146.609 171.958C145.669 172.445 144.151 171.381 143.665 170.439C143.18 169.498 143.546 168.34 144.488 167.853C145.429 167.366 146.586 167.735 147.071 168.676Z" fill="#F4B1C3"/>
<path d="M108.056 168.676C108.541 169.618 108.533 171.471 107.594 171.958C106.651 172.445 105.135 171.381 104.647 170.439C104.162 169.498 104.53 168.34 105.47 167.853C106.41 167.366 107.567 167.735 108.056 168.676Z" fill="#F9EEAF"/>
<path d="M153.617 135.038C152.508 136.453 149.643 137.749 148.228 136.64C146.813 135.532 147.384 132.438 148.492 131.023C149.601 129.607 151.646 129.358 153.061 130.467C154.475 131.576 154.722 133.623 153.617 135.038Z" fill="#E0E0E0"/>
<path d="M160.393 194.313C160.364 192.874 161.486 190.619 162.923 190.589C164.361 190.56 165.573 192.769 165.602 194.208C165.632 195.648 164.489 196.838 163.051 196.867C161.613 196.895 160.422 195.752 160.393 194.313Z" fill="#B2E4E3"/>
<path d="M164.647 151.925C165.134 152.867 165.126 154.721 164.184 155.207C163.245 155.694 161.726 154.63 161.241 153.689C160.756 152.747 161.121 151.589 162.063 151.102C163.004 150.615 164.162 150.983 164.647 151.925Z" fill="#F9EEAF"/>
<path d="M165.763 109.319C164.655 110.733 161.792 112.029 160.377 110.921C158.963 109.813 159.533 106.719 160.639 105.304C161.747 103.887 163.792 103.639 165.208 104.747C166.623 105.856 166.871 107.902 165.763 109.319Z" fill="#FBD8C5"/>
<path d="M147.071 92.7287C147.559 93.6702 147.551 95.524 146.609 96.0108C145.669 96.4975 144.151 95.4336 143.665 94.4921C143.18 93.5505 143.546 92.3922 144.488 91.9055C145.429 91.4188 146.586 91.7872 147.071 92.7287Z" fill="#F9EEAF"/>
<path d="M168.107 67.1971C168.592 68.1386 168.584 69.9924 167.644 70.4791C166.702 70.9658 165.186 69.902 164.698 68.9604C164.213 68.0189 164.581 66.8606 165.521 66.3739C166.462 65.8872 167.619 66.2555 168.107 67.1971Z" fill="#F4B1C3"/>
<path d="M138.241 61.6995C138.212 60.2606 139.333 58.0052 140.771 57.9759C142.209 57.9467 143.421 60.1555 143.45 61.5944C143.481 63.0346 142.336 64.2249 140.899 64.2541C139.461 64.2834 138.27 63.1397 138.241 61.6995Z" fill="#B2E4E3"/>
<path d="M127.76 40.2172C126.652 41.6321 123.789 42.9287 122.374 41.8196C120.96 40.7119 121.53 37.6173 122.636 36.2023C123.744 34.7861 125.789 34.5374 127.205 35.6465C128.619 36.7542 128.868 38.8009 127.76 40.2172Z" fill="#E0E0E0"/>
<path d="M152.898 33.9177C153.385 34.8592 153.377 36.713 152.435 37.1998C151.496 37.6865 149.977 36.6226 149.492 35.6811C149.007 34.7396 149.372 33.5813 150.314 33.0945C151.254 32.6078 152.411 32.9762 152.898 33.9177Z" fill="#F4B1C3"/>
<path d="M169.013 17.0194C169.498 17.9609 169.49 19.8147 168.551 20.3014C167.608 20.7881 166.092 19.7243 165.604 18.7827C165.119 17.8412 165.488 16.6829 166.427 16.1962C167.367 15.7095 168.524 16.0778 169.013 17.0194Z" fill="#F9EEAF"/>
<path d="M138.241 9.72919C138.212 8.2903 139.333 6.03488 140.771 6.00563C142.209 5.97637 143.421 8.18524 143.45 9.62413C143.481 11.0644 142.336 12.2546 140.899 12.2838C139.461 12.3131 138.27 11.1694 138.241 9.72919Z" fill="#B2E4E3"/>
</svg>
