<svg width="44" height="44" viewBox="0 0 44 44" fill="none" xmlns="http://www.w3.org/2000/svg">
<rect width="44" height="44" rx="12" fill="#F2F6F8"/>
<g clip-path="url(#clip0_110_13653)">
<path d="M29 13.2497C29.0438 13.2497 29.0874 13.2546 29.1299 13.2643L29.2539 13.3083C29.3304 13.3452 29.3974 13.3988 29.4512 13.4645L29.5098 13.5504L32.999 19.3659V19.3669C33.0421 19.4387 33.0698 19.5186 33.0791 19.6012L33.082 19.6842C33.0788 19.7928 33.0443 19.8975 32.9844 19.9879L32.9131 20.0797L22.9941 31.1628C22.8977 31.26 22.7889 31.3437 22.6689 31.4088L22.543 31.4694C22.3712 31.5415 22.1863 31.5789 22 31.5788L21.8789 31.5729C21.6006 31.5486 21.332 31.4398 21.0928 31.2389L20.9629 31.1178L11.0654 20.0563V20.0553L11.0146 19.9899C10.9838 19.9437 10.9599 19.8934 10.9434 19.8405L10.9238 19.7594C10.9065 19.6519 10.9199 19.5414 10.9619 19.4411L11.0127 19.3434L14.501 13.5299L14.5479 13.4635L14.6338 13.3795L14.6846 13.3424L14.7471 13.3063L14.7793 13.2926L14.7783 13.2917L14.7969 13.2838L14.8662 13.2643L14.9248 13.2536L15.0254 13.2497H29ZM17.7783 16.5368L17.6094 16.57C17.2157 16.6685 16.87 16.9005 16.6299 17.2233L16.5332 17.3669L15.833 18.5338L15.8242 18.5495L15.8154 18.5661L15.7451 18.7008L15.7363 18.7184L15.7285 18.737C15.6113 19.0073 15.5638 19.3023 15.5908 19.5944L15.6074 19.7184C15.6555 20.0091 15.776 20.2826 15.957 20.5133L16.0381 20.609V20.61L18.3721 23.1764L18.3828 23.1891L18.3955 23.2008L18.501 23.3034L18.5146 23.317L18.5293 23.3297C18.8127 23.5723 19.165 23.7167 19.5342 23.7448L19.6934 23.7497C20.1197 23.7432 20.5293 23.5814 20.8447 23.2946L20.8584 23.2819L20.8711 23.2692L20.9727 23.1637L20.9854 23.151L20.9961 23.1374C21.2386 22.8539 21.384 22.5017 21.4121 22.1325L21.417 21.9733C21.4113 21.6004 21.2866 21.2404 21.0635 20.945L20.9619 20.8219L19.502 19.2174L19.541 19.154L19.5479 19.1413L19.6123 19.0211L19.6211 19.0036L19.6289 18.985C19.8046 18.5942 19.8314 18.1527 19.7031 17.7438C19.5908 17.386 19.3669 17.0749 19.0664 16.8551L18.9326 16.7663C18.5844 16.5578 18.1763 16.4781 17.7783 16.5368Z" fill="#095EF1" stroke="#095EF1" stroke-width="1.16667"/>
</g>
<defs>
<clipPath id="clip0_110_13653">
<rect width="28" height="28" fill="white" transform="translate(8 8)"/>
</clipPath>
</defs>
</svg>
