<svg width="32" height="32" viewBox="0 0 32 32" fill="none" xmlns="http://www.w3.org/2000/svg">
<rect width="32" height="32" rx="8" fill="#FBCF00"/>
<path d="M16.1596 15.62C16.1296 15.62 16.1096 15.62 16.0796 15.62C16.0296 15.61 15.9596 15.61 15.8996 15.62C12.9996 15.53 10.8096 13.25 10.8096 10.44C10.8096 7.58 13.1396 5.25 15.9996 5.25C18.8596 5.25 21.1896 7.58 21.1896 10.44C21.1796 13.25 18.9796 15.53 16.1896 15.62C16.1796 15.62 16.1696 15.62 16.1596 15.62ZM15.9996 6.75C13.9696 6.75 12.3096 8.41 12.3096 10.44C12.3096 12.44 13.8696 14.05 15.8596 14.12C15.9096 14.11 16.0496 14.11 16.1796 14.12C18.1396 14.03 19.6796 12.42 19.6896 10.44C19.6896 8.41 18.0296 6.75 15.9996 6.75Z" fill="#F2F6F8"/>
<path d="M16.1696 26.55C14.2096 26.55 12.2396 26.05 10.7496 25.05C9.35961 24.13 8.59961 22.87 8.59961 21.5C8.59961 20.13 9.35961 18.86 10.7496 17.93C13.7496 15.94 18.6096 15.94 21.5896 17.93C22.9696 18.85 23.7396 20.11 23.7396 21.48C23.7396 22.85 22.9796 24.12 21.5896 25.05C20.0896 26.05 18.1296 26.55 16.1696 26.55ZM11.5796 19.19C10.6196 19.83 10.0996 20.65 10.0996 21.51C10.0996 22.36 10.6296 23.18 11.5796 23.81C14.0696 25.48 18.2696 25.48 20.7596 23.81C21.7196 23.17 22.2396 22.35 22.2396 21.49C22.2396 20.64 21.7096 19.82 20.7596 19.19C18.2696 17.53 14.0696 17.53 11.5796 19.19Z" fill="#F2F6F8"/>
</svg>
