<svg width="32" height="32" viewBox="0 0 32 32" fill="none" xmlns="http://www.w3.org/2000/svg">
<rect width="32" height="32" rx="8" fill="#56CAFB"/>
<path d="M19.2605 26.25H12.7405C7.83047 26.25 5.73047 24.15 5.73047 19.24V19.11C5.73047 14.67 7.48047 12.53 11.4005 12.16C11.8005 12.13 12.1805 12.43 12.2205 12.84C12.2605 13.25 11.9605 13.62 11.5405 13.66C8.40047 13.95 7.23047 15.43 7.23047 19.12V19.25C7.23047 23.32 8.67047 24.76 12.7405 24.76H19.2605C23.3305 24.76 24.7705 23.32 24.7705 19.25V19.12C24.7705 15.41 23.5805 13.93 20.3805 13.66C19.9705 13.62 19.6605 13.26 19.7005 12.85C19.7405 12.44 20.0905 12.13 20.5105 12.17C24.4905 12.51 26.2705 14.66 26.2705 19.13V19.26C26.2705 24.15 24.1705 26.25 19.2605 26.25Z" fill="#F2F6F8"/>
<path d="M16 19.75C15.59 19.75 15.25 19.41 15.25 19V7.62C15.25 7.21 15.59 6.87 16 6.87C16.41 6.87 16.75 7.21 16.75 7.62V19C16.75 19.41 16.41 19.75 16 19.75Z" fill="#F2F6F8"/>
<path d="M19.3498 10.6C19.1598 10.6 18.9698 10.53 18.8198 10.38L15.9998 7.56L13.1798 10.38C12.8898 10.67 12.4098 10.67 12.1198 10.38C11.8298 10.09 11.8298 9.61 12.1198 9.32L15.4698 5.97C15.7598 5.68 16.2398 5.68 16.5298 5.97L19.8798 9.32C20.1698 9.61 20.1698 10.09 19.8798 10.38C19.7398 10.53 19.5398 10.6 19.3498 10.6Z" fill="#F2F6F8"/>
</svg>
