<svg width="32" height="32" viewBox="0 0 32 32" fill="none" xmlns="http://www.w3.org/2000/svg">
<rect width="32" height="32" rx="8" fill="#595BCD"/>
<path d="M16 26.81C15.31 26.81 14.66 26.46 14.2 25.85L12.7 23.85C12.67 23.81 12.55 23.76 12.5 23.75H12C7.83 23.75 5.25 22.62 5.25 17V12C5.25 7.58 7.58 5.25 12 5.25H20C24.42 5.25 26.75 7.58 26.75 12V17C26.75 21.42 24.42 23.75 20 23.75H19.5C19.42 23.75 19.35 23.79 19.3 23.85L17.8 25.85C17.34 26.46 16.69 26.81 16 26.81ZM12 6.75C8.42 6.75 6.75 8.42 6.75 12V17C6.75 21.52 8.3 22.25 12 22.25H12.5C13.01 22.25 13.59 22.54 13.9 22.95L15.4 24.95C15.75 25.41 16.25 25.41 16.6 24.95L18.1 22.95C18.43 22.51 18.95 22.25 19.5 22.25H20C23.58 22.25 25.25 20.58 25.25 17V12C25.25 8.42 23.58 6.75 20 6.75H12Z" fill="#F2F6F8"/>
<path d="M21 12.75H11C10.59 12.75 10.25 12.41 10.25 12C10.25 11.59 10.59 11.25 11 11.25H21C21.41 11.25 21.75 11.59 21.75 12C21.75 12.41 21.41 12.75 21 12.75Z" fill="#F2F6F8"/>
<path d="M17 17.75H11C10.59 17.75 10.25 17.41 10.25 17C10.25 16.59 10.59 16.25 11 16.25H17C17.41 16.25 17.75 16.59 17.75 17C17.75 17.41 17.41 17.75 17 17.75Z" fill="#F2F6F8"/>
</svg>
