<svg width="32" height="32" viewBox="0 0 32 32" fill="none" xmlns="http://www.w3.org/2000/svg">
<rect width="32" height="32" rx="8" fill="#F5304E"/>
<path d="M16 26.75C10.07 26.75 5.25 21.93 5.25 16C5.25 10.07 10.07 5.25 16 5.25C21.93 5.25 26.75 10.07 26.75 16C26.75 21.93 21.93 26.75 16 26.75ZM16 6.75C10.9 6.75 6.75 10.9 6.75 16C6.75 21.1 10.9 25.25 16 25.25C21.1 25.25 25.25 21.1 25.25 16C25.25 10.9 21.1 6.75 16 6.75Z" fill="#F2F6F8"/>
<path d="M16 17.75C15.59 17.75 15.25 17.41 15.25 17V12C15.25 11.59 15.59 11.25 16 11.25C16.41 11.25 16.75 11.59 16.75 12V17C16.75 17.41 16.41 17.75 16 17.75Z" fill="#F2F6F8"/>
<path d="M16 21C15.87 21 15.74 20.97 15.62 20.92C15.5 20.87 15.39 20.8 15.29 20.71C15.2 20.61 15.13 20.51 15.08 20.38C15.03 20.26 15 20.13 15 20C15 19.87 15.03 19.74 15.08 19.62C15.13 19.5 15.2 19.39 15.29 19.29C15.39 19.2 15.5 19.13 15.62 19.08C15.86 18.98 16.14 18.98 16.38 19.08C16.5 19.13 16.61 19.2 16.71 19.29C16.8 19.39 16.87 19.5 16.92 19.62C16.97 19.74 17 19.87 17 20C17 20.13 16.97 20.26 16.92 20.38C16.87 20.51 16.8 20.61 16.71 20.71C16.61 20.8 16.5 20.87 16.38 20.92C16.26 20.97 16.13 21 16 21Z" fill="#F2F6F8"/>
</svg>
