<svg width="32" height="32" viewBox="0 0 32 32" fill="none" xmlns="http://www.w3.org/2000/svg">
<rect width="32" height="32" rx="8" fill="#26B551"/>
<path d="M17.5 20.75H14.5C11.75 20.75 9.75 18.75 9.75 16V10.92C9.75 9.45 10.95 8.25 12.42 8.25H19.59C21.06 8.25 22.26 9.45 22.26 10.92V16C22.25 18.75 20.25 20.75 17.5 20.75ZM12.42 9.75C11.78 9.75 11.25 10.27 11.25 10.92V16C11.25 17.62 12.25 19.25 14.5 19.25H17.5C19.75 19.25 20.75 17.62 20.75 16V10.92C20.75 10.28 20.23 9.75 19.58 9.75H12.42Z" fill="#F2F6F8"/>
<path d="M13.5 9.75C13.09 9.75 12.75 9.41 12.75 9V6C12.75 5.59 13.09 5.25 13.5 5.25C13.91 5.25 14.25 5.59 14.25 6V9C14.25 9.41 13.91 9.75 13.5 9.75Z" fill="#F2F6F8"/>
<path d="M18.5 9.75C18.09 9.75 17.75 9.41 17.75 9V6C17.75 5.59 18.09 5.25 18.5 5.25C18.91 5.25 19.25 5.59 19.25 6V9C19.25 9.41 18.91 9.75 18.5 9.75Z" fill="#F2F6F8"/>
<path d="M16 26.75C15.59 26.75 15.25 26.41 15.25 26V20C15.25 19.59 15.59 19.25 16 19.25C16.41 19.25 16.75 19.59 16.75 20V26C16.75 26.41 16.41 26.75 16 26.75Z" fill="#F2F6F8"/>
</svg>
