<svg width="32" height="32" viewBox="0 0 32 32" fill="none" xmlns="http://www.w3.org/2000/svg">
<rect width="32" height="32" rx="8" fill="#095EF1"/>
<g clip-path="url(#clip0_5_45397)">
<path d="M22.0003 8C22.1509 8 22.2995 8.034 22.435 8.09945C22.5706 8.1649 22.6897 8.26012 22.7833 8.378L22.8573 8.486L25.8573 13.486C25.9556 13.65 26.0048 13.8386 25.9991 14.0297C25.9934 14.2207 25.9331 14.4062 25.8253 14.564L25.7453 14.667L17.2153 24.2C17.0569 24.3616 16.8679 24.4899 16.6592 24.5775C16.4506 24.6651 16.2266 24.7101 16.0003 24.71C15.6003 24.71 15.2153 24.57 14.8903 24.293L14.7553 24.167L6.25531 14.667C6.12743 14.5243 6.04324 14.3479 6.01275 14.1587C5.98225 13.9696 6.00675 13.7756 6.08331 13.6L6.14331 13.485L9.15631 8.463L9.22031 8.373C9.26608 8.31606 9.31807 8.26441 9.37531 8.219L9.46431 8.155L9.55231 8.105L9.60231 8.082L9.66231 8.057L9.77131 8.025L9.88331 8.005L10.0003 8H22.0003ZM13.1143 11.943C12.887 11.8069 12.6149 11.7665 12.3578 11.8308C12.1008 11.8951 11.8798 12.0588 11.7433 12.286L11.1433 13.286L11.0833 13.402C11.0068 13.5785 10.9828 13.7733 11.0142 13.9631C11.0455 14.1529 11.131 14.3296 11.2603 14.472L13.2603 16.672L13.3503 16.76C13.5354 16.9184 13.772 17.0038 14.0156 17.0001C14.2592 16.9964 14.4931 16.9039 14.6733 16.74L14.7603 16.65C14.9187 16.4649 15.0041 16.2283 15.0004 15.9847C14.9967 15.7411 14.9042 15.5072 14.7403 15.327L13.2393 13.677L13.4573 13.314L13.5123 13.211C13.6128 12.9876 13.6278 12.7351 13.5544 12.5013C13.4811 12.2676 13.3244 12.0689 13.1143 11.943Z" fill="#F2F6F8"/>
</g>
<defs>
<clipPath id="clip0_5_45397">
<rect width="24" height="24" fill="white" transform="translate(4 4)"/>
</clipPath>
</defs>
</svg>
