<svg width="32" height="32" viewBox="0 0 32 32" fill="none" xmlns="http://www.w3.org/2000/svg">
<rect width="32" height="32" rx="8" fill="#595BCD"/>
<path d="M20 26.75H12C8.98 26.75 7.25 25.02 7.25 22V12.25C7.25 9.1 8.85 7.5 12 7.5C12.41 7.5 12.75 7.84 12.75 8.25C12.75 8.65 12.91 9.03 13.19 9.31C13.47 9.59 13.85 9.75 14.25 9.75H17.75C18.58 9.75 19.25 9.08 19.25 8.25C19.25 7.84 19.59 7.5 20 7.5C23.15 7.5 24.75 9.1 24.75 12.25V22C24.75 25.02 23.02 26.75 20 26.75ZM11.35 9.02C9.76998 9.15 8.75 9.86 8.75 12.25V22C8.75 24.22 9.78 25.25 12 25.25H20C22.22 25.25 23.25 24.22 23.25 22V12.25C23.25 9.86 22.23 9.16 20.65 9.02C20.31 10.3 19.14 11.25 17.75 11.25H14.25C13.45 11.25 12.7 10.94 12.13 10.37C11.75 9.99 11.49 9.53 11.35 9.02Z" fill="#F2F6F8"/>
<path d="M17.75 11.25H14.25C13.45 11.25 12.7 10.94 12.13 10.37C11.56 9.79999 11.25 9.05 11.25 8.25C11.25 6.6 12.6 5.25 14.25 5.25H17.75C18.55 5.25 19.3 5.56 19.87 6.13C20.44 6.7 20.75 7.45 20.75 8.25C20.75 9.9 19.4 11.25 17.75 11.25ZM14.25 6.75C13.42 6.75 12.75 7.42 12.75 8.25C12.75 8.65 12.91 9.03 13.19 9.31C13.47 9.59 13.85 9.75 14.25 9.75H17.75C18.58 9.75 19.25 9.08 19.25 8.25C19.25 7.85 19.09 7.47 18.81 7.19C18.53 6.91 18.15 6.75 17.75 6.75H14.25Z" fill="#F2F6F8"/>
<path d="M16 17.75H12C11.59 17.75 11.25 17.41 11.25 17C11.25 16.59 11.59 16.25 12 16.25H16C16.41 16.25 16.75 16.59 16.75 17C16.75 17.41 16.41 17.75 16 17.75Z" fill="#F2F6F8"/>
<path d="M20 21.75H12C11.59 21.75 11.25 21.41 11.25 21C11.25 20.59 11.59 20.25 12 20.25H20C20.41 20.25 20.75 20.59 20.75 21C20.75 21.41 20.41 21.75 20 21.75Z" fill="#F2F6F8"/>
</svg>
