<svg width="32" height="32" viewBox="0 0 32 32" fill="none" xmlns="http://www.w3.org/2000/svg">
<rect width="32" height="32" rx="8" fill="#BD1308"/>
<path d="M15.9998 26.7501C15.7598 26.7501 15.5199 26.7201 15.2899 26.6501C10.0999 25.2201 6.33984 20.37 6.33984 15.11V10.72C6.33984 9.60003 7.14985 8.39008 8.18985 7.96008L13.7599 5.68005C15.2099 5.09005 16.7998 5.09005 18.2398 5.68005L23.8098 7.96008C24.8498 8.39008 25.6599 9.60003 25.6599 10.72V15.11C25.6599 20.36 21.8898 25.2101 16.7098 26.6501C16.4798 26.7201 16.2398 26.7501 15.9998 26.7501ZM15.9998 6.75006C15.4298 6.75006 14.8698 6.86007 14.3298 7.08007L8.75986 9.36004C8.27986 9.56004 7.83984 10.21 7.83984 10.73V15.1201C7.83984 19.7101 11.1398 23.9501 15.6898 25.2101C15.8898 25.2701 16.1098 25.2701 16.3098 25.2101C20.8598 23.9501 24.1599 19.7101 24.1599 15.1201V10.73C24.1599 10.21 23.7198 9.56004 23.2398 9.36004L17.6699 7.08007C17.1299 6.86007 16.5698 6.75006 15.9998 6.75006Z" fill="#F2F6F8"/>
</svg>
