<svg width="24" height="24" viewBox="0 0 24 24" fill="none" xmlns="http://www.w3.org/2000/svg">
<path d="M7.43701 8.65894C7.56194 8.64957 7.67748 8.73606 7.7124 8.84253L7.72217 8.88843C7.7337 9.0066 7.6598 9.11714 7.54443 9.1521L7.49268 9.16187C5.85951 9.31289 4.62108 9.78451 3.81494 10.8054C3.02338 11.808 2.73 13.2422 2.72998 15.1199V15.2498C2.72998 17.3192 3.0908 18.8701 4.10498 19.8845C5.11932 20.8989 6.67023 21.2605 8.73975 21.2605H15.2603C17.3298 21.2605 18.8807 20.8989 19.895 19.8845C20.9092 18.8701 21.27 17.3192 21.27 15.2498V15.1199C21.27 13.2317 20.9714 11.7904 20.1646 10.7869C19.3441 9.76644 18.085 9.30232 16.4243 9.16187C16.2966 9.14747 16.2096 9.04935 16.1978 8.94409V8.89819C16.2109 8.76554 16.3046 8.67901 16.4146 8.66772H16.4673C18.3768 8.83085 19.6695 9.41926 20.4976 10.4197C21.3344 11.4307 21.77 12.95 21.77 15.1296V15.2605C21.77 17.6472 21.2558 19.2349 20.2534 20.2351C19.2507 21.2356 17.6576 21.7497 15.2603 21.7498H8.73975C6.34268 21.7497 4.75022 21.2356 3.74756 20.2332C2.74488 19.2305 2.22998 17.6375 2.22998 15.24V15.1101C2.22998 12.9446 2.65816 11.4337 3.48193 10.4246C4.29521 9.42827 5.56355 8.83743 7.43701 8.65894Z" fill="white" stroke="#095EF1"/>
<path d="M12 3.37C12.1339 3.37 12.25 3.48614 12.25 3.62V14.9999C12.25 15.1337 12.1339 15.2499 12 15.2499C11.8661 15.2499 11.75 15.1337 11.75 14.9999V3.62C11.75 3.48614 11.8661 3.37 12 3.37Z" fill="white" stroke="#095EF1"/>
<path d="M11.8232 2.32379C11.9061 2.24091 12.0417 2.23041 12.1377 2.29254L12.1768 2.32379L15.5264 5.6734C15.6211 5.76814 15.6211 5.93218 15.5264 6.02692L15.5146 6.03864C15.4844 6.07104 15.425 6.10016 15.3496 6.10016C15.3013 6.10012 15.2555 6.08698 15.2139 6.05914L15.1738 6.02692L12 2.85309L8.82617 6.02692C8.73151 6.12124 8.56833 6.12121 8.47363 6.02692C8.39082 5.9441 8.38041 5.80849 8.44238 5.71246L8.47363 5.6734L11.8232 2.32379Z" fill="white" stroke="#095EF1"/>
</svg>
